%TF.GenerationSoftware,KiCad,Pcbnew,9.0.4*%
%TF.CreationDate,2025-09-05T14:42:26+02:00*%
%TF.ProjectId,Rigid Flex,52696769-6420-4466-9c65-782e6b696361,rev?*%
%TF.SameCoordinates,Original*%
%TF.FileFunction,Paste,Top*%
%TF.FilePolarity,Positive*%
%FSLAX46Y46*%
G04 Gerber Fmt 4.6, Leading zero omitted, Abs format (unit mm)*
G04 Created by KiCad (PCBNEW 9.0.4) date 2025-09-05 14:42:26*
%MOMM*%
%LPD*%
G01*
G04 APERTURE LIST*
G04 Aperture macros list*
%AMRoundRect*
0 Rectangle with rounded corners*
0 $1 Rounding radius*
0 $2 $3 $4 $5 $6 $7 $8 $9 X,Y pos of 4 corners*
0 Add a 4 corners polygon primitive as box body*
4,1,4,$2,$3,$4,$5,$6,$7,$8,$9,$2,$3,0*
0 Add four circle primitives for the rounded corners*
1,1,$1+$1,$2,$3*
1,1,$1+$1,$4,$5*
1,1,$1+$1,$6,$7*
1,1,$1+$1,$8,$9*
0 Add four rect primitives between the rounded corners*
20,1,$1+$1,$2,$3,$4,$5,0*
20,1,$1+$1,$4,$5,$6,$7,0*
20,1,$1+$1,$6,$7,$8,$9,0*
20,1,$1+$1,$8,$9,$2,$3,0*%
G04 Aperture macros list end*
%ADD10RoundRect,0.031500X0.143500X-0.263500X0.143500X0.263500X-0.143500X0.263500X-0.143500X-0.263500X0*%
%ADD11RoundRect,0.031500X0.263500X0.143500X-0.263500X0.143500X-0.263500X-0.143500X0.263500X-0.143500X0*%
%ADD12RoundRect,0.031500X-0.143500X0.263500X-0.143500X-0.263500X0.143500X-0.263500X0.143500X0.263500X0*%
%ADD13RoundRect,0.031500X-0.263500X-0.143500X0.263500X-0.143500X0.263500X0.143500X-0.263500X0.143500X0*%
%ADD14R,0.800000X0.300000*%
%ADD15R,1.400000X1.220000*%
%ADD16R,1.400000X0.850000*%
%TA.AperFunction,Profile*%
%ADD17C,0.050000*%
%TD*%
G04 APERTURE END LIST*
D10*
%TO.C,U1*%
X167250000Y-51165000D03*
X167750000Y-51165000D03*
X168250000Y-51165000D03*
X168750000Y-51165000D03*
D11*
X168915000Y-50500000D03*
X168915000Y-50000000D03*
X168915000Y-49500000D03*
D12*
X168750000Y-48835000D03*
X168250000Y-48835000D03*
X167750000Y-48835000D03*
X167250000Y-48835000D03*
D13*
X167085000Y-49500000D03*
X167085000Y-50000000D03*
X167085000Y-50500000D03*
%TD*%
D10*
%TO.C,U8*%
X62250000Y-51165000D03*
X62750000Y-51165000D03*
X63250000Y-51165000D03*
X63750000Y-51165000D03*
D11*
X63915000Y-50500000D03*
X63915000Y-50000000D03*
X63915000Y-49500000D03*
D12*
X63750000Y-48835000D03*
X63250000Y-48835000D03*
X62750000Y-48835000D03*
X62250000Y-48835000D03*
D13*
X62085000Y-49500000D03*
X62085000Y-50000000D03*
X62085000Y-50500000D03*
%TD*%
D10*
%TO.C,U7*%
X77250000Y-51165000D03*
X77750000Y-51165000D03*
X78250000Y-51165000D03*
X78750000Y-51165000D03*
D11*
X78915000Y-50500000D03*
X78915000Y-50000000D03*
X78915000Y-49500000D03*
D12*
X78750000Y-48835000D03*
X78250000Y-48835000D03*
X77750000Y-48835000D03*
X77250000Y-48835000D03*
D13*
X77085000Y-49500000D03*
X77085000Y-50000000D03*
X77085000Y-50500000D03*
%TD*%
D10*
%TO.C,U6*%
X92250000Y-51165000D03*
X92750000Y-51165000D03*
X93250000Y-51165000D03*
X93750000Y-51165000D03*
D11*
X93915000Y-50500000D03*
X93915000Y-50000000D03*
X93915000Y-49500000D03*
D12*
X93750000Y-48835000D03*
X93250000Y-48835000D03*
X92750000Y-48835000D03*
X92250000Y-48835000D03*
D13*
X92085000Y-49500000D03*
X92085000Y-50000000D03*
X92085000Y-50500000D03*
%TD*%
D10*
%TO.C,U2*%
X152250000Y-51165000D03*
X152750000Y-51165000D03*
X153250000Y-51165000D03*
X153750000Y-51165000D03*
D11*
X153915000Y-50500000D03*
X153915000Y-50000000D03*
X153915000Y-49500000D03*
D12*
X153750000Y-48835000D03*
X153250000Y-48835000D03*
X152750000Y-48835000D03*
X152250000Y-48835000D03*
D13*
X152085000Y-49500000D03*
X152085000Y-50000000D03*
X152085000Y-50500000D03*
%TD*%
D14*
%TO.C,J1*%
X47500000Y-44250000D03*
X47500000Y-44750000D03*
X47500000Y-45250000D03*
X47500000Y-45750000D03*
X47500000Y-46250000D03*
X47500000Y-46750000D03*
X47500000Y-47250000D03*
X47500000Y-47750000D03*
X47500000Y-48250000D03*
X47500000Y-48750000D03*
X47500000Y-49250000D03*
X47500000Y-49750000D03*
X47500000Y-50250000D03*
X47500000Y-50750000D03*
X47500000Y-51250000D03*
X47500000Y-51750000D03*
X47500000Y-52250000D03*
X47500000Y-52750000D03*
X47500000Y-53250000D03*
X47500000Y-53750000D03*
X47500000Y-54250000D03*
X47500000Y-54750000D03*
X47500000Y-55250000D03*
X47500000Y-55750000D03*
D15*
X42650000Y-43010000D03*
D16*
X41640000Y-48825000D03*
X41640000Y-51175000D03*
D15*
X42650000Y-56990000D03*
%TD*%
D10*
%TO.C,U5*%
X107250000Y-51165000D03*
X107750000Y-51165000D03*
X108250000Y-51165000D03*
X108750000Y-51165000D03*
D11*
X108915000Y-50500000D03*
X108915000Y-50000000D03*
X108915000Y-49500000D03*
D12*
X108750000Y-48835000D03*
X108250000Y-48835000D03*
X107750000Y-48835000D03*
X107250000Y-48835000D03*
D13*
X107085000Y-49500000D03*
X107085000Y-50000000D03*
X107085000Y-50500000D03*
%TD*%
D10*
%TO.C,U4*%
X122250000Y-51165000D03*
X122750000Y-51165000D03*
X123250000Y-51165000D03*
X123750000Y-51165000D03*
D11*
X123915000Y-50500000D03*
X123915000Y-50000000D03*
X123915000Y-49500000D03*
D12*
X123750000Y-48835000D03*
X123250000Y-48835000D03*
X122750000Y-48835000D03*
X122250000Y-48835000D03*
D13*
X122085000Y-49500000D03*
X122085000Y-50000000D03*
X122085000Y-50500000D03*
%TD*%
D10*
%TO.C,U3*%
X137250000Y-51165000D03*
X137750000Y-51165000D03*
X138250000Y-51165000D03*
X138750000Y-51165000D03*
D11*
X138915000Y-50500000D03*
X138915000Y-50000000D03*
X138915000Y-49500000D03*
D12*
X138750000Y-48835000D03*
X138250000Y-48835000D03*
X137750000Y-48835000D03*
X137250000Y-48835000D03*
D13*
X137085000Y-49500000D03*
X137085000Y-50000000D03*
X137085000Y-50500000D03*
%TD*%
D17*
X48500000Y-41500000D02*
X41500000Y-41500000D01*
X40000000Y-43000000D02*
X40000000Y-57000000D01*
X170500000Y-53000000D02*
X170500000Y-47000000D01*
X50250000Y-57000000D02*
G75*
G02*
X48750000Y-58500000I-1500000J0D01*
G01*
X168500000Y-44750000D02*
G75*
G02*
X170500000Y-46750000I0J-2000000D01*
G01*
X170500000Y-53250000D02*
G75*
G02*
X168500000Y-55250000I-2000000J0D01*
G01*
X170500000Y-46750000D02*
X170500000Y-47000000D01*
X51750000Y-55250000D02*
X168500000Y-55250000D01*
X41500000Y-58500000D02*
X48500000Y-58500000D01*
X50250000Y-56750000D02*
G75*
G02*
X51750000Y-55250000I1500000J0D01*
G01*
X48750000Y-41500000D02*
X48500000Y-41500000D01*
X51750000Y-44750000D02*
G75*
G02*
X50250000Y-43250000I0J1500000D01*
G01*
X48750000Y-41500000D02*
G75*
G02*
X50250000Y-43000000I0J-1500000D01*
G01*
X170500000Y-53000000D02*
X170500000Y-53250000D01*
X50250000Y-43000000D02*
X50250000Y-43250000D01*
X41500000Y-58500000D02*
G75*
G02*
X40000000Y-57000000I0J1500000D01*
G01*
X168500000Y-44750000D02*
X51750000Y-44750000D01*
X40000000Y-43000000D02*
G75*
G02*
X41500000Y-41500000I1500000J0D01*
G01*
X48500000Y-58500000D02*
X48750000Y-58500000D01*
X50250000Y-56750000D02*
X50250000Y-57000000D01*
M02*
