%TF.GenerationSoftware,KiCad,Pcbnew,9.0.4*%
%TF.CreationDate,2025-09-05T14:42:26+02:00*%
%TF.ProjectId,Rigid Flex,52696769-6420-4466-9c65-782e6b696361,rev?*%
%TF.SameCoordinates,Original*%
%TF.FileFunction,Profile,NP*%
%FSLAX46Y46*%
G04 Gerber Fmt 4.6, Leading zero omitted, Abs format (unit mm)*
G04 Created by KiCad (PCBNEW 9.0.4) date 2025-09-05 14:42:26*
%MOMM*%
%LPD*%
G01*
G04 APERTURE LIST*
%TA.AperFunction,Profile*%
%ADD10C,0.050000*%
%TD*%
G04 APERTURE END LIST*
D10*
X48500000Y-41500000D02*
X41500000Y-41500000D01*
X40000000Y-43000000D02*
X40000000Y-57000000D01*
X170500000Y-53000000D02*
X170500000Y-47000000D01*
X50250000Y-57000000D02*
G75*
G02*
X48750000Y-58500000I-1500000J0D01*
G01*
X168500000Y-44750000D02*
G75*
G02*
X170500000Y-46750000I0J-2000000D01*
G01*
X170500000Y-53250000D02*
G75*
G02*
X168500000Y-55250000I-2000000J0D01*
G01*
X170500000Y-46750000D02*
X170500000Y-47000000D01*
X51750000Y-55250000D02*
X168500000Y-55250000D01*
X41500000Y-58500000D02*
X48500000Y-58500000D01*
X50250000Y-56750000D02*
G75*
G02*
X51750000Y-55250000I1500000J0D01*
G01*
X48750000Y-41500000D02*
X48500000Y-41500000D01*
X51750000Y-44750000D02*
G75*
G02*
X50250000Y-43250000I0J1500000D01*
G01*
X48750000Y-41500000D02*
G75*
G02*
X50250000Y-43000000I0J-1500000D01*
G01*
X170500000Y-53000000D02*
X170500000Y-53250000D01*
X50250000Y-43000000D02*
X50250000Y-43250000D01*
X41500000Y-58500000D02*
G75*
G02*
X40000000Y-57000000I0J1500000D01*
G01*
X168500000Y-44750000D02*
X51750000Y-44750000D01*
X40000000Y-43000000D02*
G75*
G02*
X41500000Y-41500000I1500000J0D01*
G01*
X48500000Y-58500000D02*
X48750000Y-58500000D01*
X50250000Y-56750000D02*
X50250000Y-57000000D01*
M02*
