%TF.GenerationSoftware,KiCad,Pcbnew,9.0.4*%
%TF.CreationDate,2025-09-05T14:42:26+02:00*%
%TF.ProjectId,Rigid Flex,52696769-6420-4466-9c65-782e6b696361,rev?*%
%TF.SameCoordinates,Original*%
%TF.FileFunction,Copper,L4,Bot*%
%TF.FilePolarity,Positive*%
%FSLAX46Y46*%
G04 Gerber Fmt 4.6, Leading zero omitted, Abs format (unit mm)*
G04 Created by KiCad (PCBNEW 9.0.4) date 2025-09-05 14:42:26*
%MOMM*%
%LPD*%
G01*
G04 APERTURE LIST*
G04 Aperture macros list*
%AMRoundRect*
0 Rectangle with rounded corners*
0 $1 Rounding radius*
0 $2 $3 $4 $5 $6 $7 $8 $9 X,Y pos of 4 corners*
0 Add a 4 corners polygon primitive as box body*
4,1,4,$2,$3,$4,$5,$6,$7,$8,$9,$2,$3,0*
0 Add four circle primitives for the rounded corners*
1,1,$1+$1,$2,$3*
1,1,$1+$1,$4,$5*
1,1,$1+$1,$6,$7*
1,1,$1+$1,$8,$9*
0 Add four rect primitives between the rounded corners*
20,1,$1+$1,$2,$3,$4,$5,0*
20,1,$1+$1,$4,$5,$6,$7,0*
20,1,$1+$1,$6,$7,$8,$9,0*
20,1,$1+$1,$8,$9,$2,$3,0*%
G04 Aperture macros list end*
%TA.AperFunction,SMDPad,CuDef*%
%ADD10RoundRect,0.031500X0.143500X-0.263500X0.143500X0.263500X-0.143500X0.263500X-0.143500X-0.263500X0*%
%TD*%
%TA.AperFunction,SMDPad,CuDef*%
%ADD11RoundRect,0.031500X-0.263500X-0.143500X0.263500X-0.143500X0.263500X0.143500X-0.263500X0.143500X0*%
%TD*%
%TA.AperFunction,SMDPad,CuDef*%
%ADD12RoundRect,0.031500X-0.143500X0.263500X-0.143500X-0.263500X0.143500X-0.263500X0.143500X0.263500X0*%
%TD*%
%TA.AperFunction,SMDPad,CuDef*%
%ADD13RoundRect,0.031500X0.263500X0.143500X-0.263500X0.143500X-0.263500X-0.143500X0.263500X-0.143500X0*%
%TD*%
%TA.AperFunction,ViaPad*%
%ADD14C,0.600000*%
%TD*%
%TA.AperFunction,Conductor*%
%ADD15C,0.150000*%
%TD*%
%TA.AperFunction,Profile*%
%ADD16C,0.050000*%
%TD*%
G04 APERTURE END LIST*
D10*
%TO.P,U9,1,AP_SDO/AP_AD0*%
%TO.N,MISO*%
X168750000Y-51165000D03*
%TO.P,U9,2,RESV_2*%
%TO.N,unconnected-(U9-RESV_2-Pad2)*%
X168250000Y-51165000D03*
%TO.P,U9,3,RESV_3*%
%TO.N,unconnected-(U9-RESV_3-Pad3)*%
X167750000Y-51165000D03*
%TO.P,U9,4,INT1/INT*%
%TO.N,unconnected-(U9-INT1{slash}INT-Pad4)*%
X167250000Y-51165000D03*
D11*
%TO.P,U9,5,VDDIO*%
%TO.N,VDD*%
X167085000Y-50500000D03*
%TO.P,U9,6,GND*%
%TO.N,GND*%
X167085000Y-50000000D03*
%TO.P,U9,7,RESV_7*%
X167085000Y-49500000D03*
D12*
%TO.P,U9,8,VDD*%
%TO.N,VDD*%
X167250000Y-48835000D03*
%TO.P,U9,9,INT2/FSYNC/CLKIN*%
%TO.N,CLKIN*%
X167750000Y-48835000D03*
%TO.P,U9,10,RESV_10*%
%TO.N,unconnected-(U9-RESV_10-Pad10)*%
X168250000Y-48835000D03*
%TO.P,U9,11,RESV_11*%
%TO.N,GND*%
X168750000Y-48835000D03*
D13*
%TO.P,U9,12,AP_CS*%
%TO.N,Net-(J1-Pin_1)*%
X168915000Y-49500000D03*
%TO.P,U9,13,AP_SCL/AP_SCLK*%
%TO.N,CLK*%
X168915000Y-50000000D03*
%TO.P,U9,14,AP_SDA/AP_SDIO/AP_SDI*%
%TO.N,MOSI*%
X168915000Y-50500000D03*
%TD*%
D10*
%TO.P,U15,1,AP_SDO/AP_AD0*%
%TO.N,MISO*%
X78750000Y-51165000D03*
%TO.P,U15,2,RESV_2*%
%TO.N,unconnected-(U15-RESV_2-Pad2)*%
X78250000Y-51165000D03*
%TO.P,U15,3,RESV_3*%
%TO.N,unconnected-(U15-RESV_3-Pad3)*%
X77750000Y-51165000D03*
%TO.P,U15,4,INT1/INT*%
%TO.N,unconnected-(U15-INT1{slash}INT-Pad4)*%
X77250000Y-51165000D03*
D11*
%TO.P,U15,5,VDDIO*%
%TO.N,VDD*%
X77085000Y-50500000D03*
%TO.P,U15,6,GND*%
%TO.N,GND*%
X77085000Y-50000000D03*
%TO.P,U15,7,RESV_7*%
X77085000Y-49500000D03*
D12*
%TO.P,U15,8,VDD*%
%TO.N,VDD*%
X77250000Y-48835000D03*
%TO.P,U15,9,INT2/FSYNC/CLKIN*%
%TO.N,CLKIN*%
X77750000Y-48835000D03*
%TO.P,U15,10,RESV_10*%
%TO.N,unconnected-(U15-RESV_10-Pad10)*%
X78250000Y-48835000D03*
%TO.P,U15,11,RESV_11*%
%TO.N,GND*%
X78750000Y-48835000D03*
D13*
%TO.P,U15,12,AP_CS*%
%TO.N,Net-(J1-Pin_7)*%
X78915000Y-49500000D03*
%TO.P,U15,13,AP_SCL/AP_SCLK*%
%TO.N,CLK*%
X78915000Y-50000000D03*
%TO.P,U15,14,AP_SDA/AP_SDIO/AP_SDI*%
%TO.N,MOSI*%
X78915000Y-50500000D03*
%TD*%
D10*
%TO.P,U10,1,AP_SDO/AP_AD0*%
%TO.N,MISO*%
X153750000Y-51165000D03*
%TO.P,U10,2,RESV_2*%
%TO.N,unconnected-(U10-RESV_2-Pad2)*%
X153250000Y-51165000D03*
%TO.P,U10,3,RESV_3*%
%TO.N,unconnected-(U10-RESV_3-Pad3)*%
X152750000Y-51165000D03*
%TO.P,U10,4,INT1/INT*%
%TO.N,unconnected-(U10-INT1{slash}INT-Pad4)*%
X152250000Y-51165000D03*
D11*
%TO.P,U10,5,VDDIO*%
%TO.N,VDD*%
X152085000Y-50500000D03*
%TO.P,U10,6,GND*%
%TO.N,GND*%
X152085000Y-50000000D03*
%TO.P,U10,7,RESV_7*%
X152085000Y-49500000D03*
D12*
%TO.P,U10,8,VDD*%
%TO.N,VDD*%
X152250000Y-48835000D03*
%TO.P,U10,9,INT2/FSYNC/CLKIN*%
%TO.N,CLKIN*%
X152750000Y-48835000D03*
%TO.P,U10,10,RESV_10*%
%TO.N,unconnected-(U10-RESV_10-Pad10)*%
X153250000Y-48835000D03*
%TO.P,U10,11,RESV_11*%
%TO.N,GND*%
X153750000Y-48835000D03*
D13*
%TO.P,U10,12,AP_CS*%
%TO.N,Net-(J1-Pin_2)*%
X153915000Y-49500000D03*
%TO.P,U10,13,AP_SCL/AP_SCLK*%
%TO.N,CLK*%
X153915000Y-50000000D03*
%TO.P,U10,14,AP_SDA/AP_SDIO/AP_SDI*%
%TO.N,MOSI*%
X153915000Y-50500000D03*
%TD*%
D10*
%TO.P,U16,1,AP_SDO/AP_AD0*%
%TO.N,MISO*%
X63750000Y-51165000D03*
%TO.P,U16,2,RESV_2*%
%TO.N,unconnected-(U16-RESV_2-Pad2)*%
X63250000Y-51165000D03*
%TO.P,U16,3,RESV_3*%
%TO.N,unconnected-(U16-RESV_3-Pad3)*%
X62750000Y-51165000D03*
%TO.P,U16,4,INT1/INT*%
%TO.N,unconnected-(U16-INT1{slash}INT-Pad4)*%
X62250000Y-51165000D03*
D11*
%TO.P,U16,5,VDDIO*%
%TO.N,VDD*%
X62085000Y-50500000D03*
%TO.P,U16,6,GND*%
%TO.N,GND*%
X62085000Y-50000000D03*
%TO.P,U16,7,RESV_7*%
X62085000Y-49500000D03*
D12*
%TO.P,U16,8,VDD*%
%TO.N,VDD*%
X62250000Y-48835000D03*
%TO.P,U16,9,INT2/FSYNC/CLKIN*%
%TO.N,CLKIN*%
X62750000Y-48835000D03*
%TO.P,U16,10,RESV_10*%
%TO.N,unconnected-(U16-RESV_10-Pad10)*%
X63250000Y-48835000D03*
%TO.P,U16,11,RESV_11*%
%TO.N,GND*%
X63750000Y-48835000D03*
D13*
%TO.P,U16,12,AP_CS*%
%TO.N,Net-(J1-Pin_8)*%
X63915000Y-49500000D03*
%TO.P,U16,13,AP_SCL/AP_SCLK*%
%TO.N,CLK*%
X63915000Y-50000000D03*
%TO.P,U16,14,AP_SDA/AP_SDIO/AP_SDI*%
%TO.N,MOSI*%
X63915000Y-50500000D03*
%TD*%
D10*
%TO.P,U13,1,AP_SDO/AP_AD0*%
%TO.N,MISO*%
X108750000Y-51165000D03*
%TO.P,U13,2,RESV_2*%
%TO.N,unconnected-(U13-RESV_2-Pad2)*%
X108250000Y-51165000D03*
%TO.P,U13,3,RESV_3*%
%TO.N,unconnected-(U13-RESV_3-Pad3)*%
X107750000Y-51165000D03*
%TO.P,U13,4,INT1/INT*%
%TO.N,unconnected-(U13-INT1{slash}INT-Pad4)*%
X107250000Y-51165000D03*
D11*
%TO.P,U13,5,VDDIO*%
%TO.N,VDD*%
X107085000Y-50500000D03*
%TO.P,U13,6,GND*%
%TO.N,GND*%
X107085000Y-50000000D03*
%TO.P,U13,7,RESV_7*%
X107085000Y-49500000D03*
D12*
%TO.P,U13,8,VDD*%
%TO.N,VDD*%
X107250000Y-48835000D03*
%TO.P,U13,9,INT2/FSYNC/CLKIN*%
%TO.N,CLKIN*%
X107750000Y-48835000D03*
%TO.P,U13,10,RESV_10*%
%TO.N,unconnected-(U13-RESV_10-Pad10)*%
X108250000Y-48835000D03*
%TO.P,U13,11,RESV_11*%
%TO.N,GND*%
X108750000Y-48835000D03*
D13*
%TO.P,U13,12,AP_CS*%
%TO.N,Net-(J1-Pin_5)*%
X108915000Y-49500000D03*
%TO.P,U13,13,AP_SCL/AP_SCLK*%
%TO.N,CLK*%
X108915000Y-50000000D03*
%TO.P,U13,14,AP_SDA/AP_SDIO/AP_SDI*%
%TO.N,MOSI*%
X108915000Y-50500000D03*
%TD*%
D10*
%TO.P,U14,1,AP_SDO/AP_AD0*%
%TO.N,MISO*%
X93750000Y-51165000D03*
%TO.P,U14,2,RESV_2*%
%TO.N,unconnected-(U14-RESV_2-Pad2)*%
X93250000Y-51165000D03*
%TO.P,U14,3,RESV_3*%
%TO.N,unconnected-(U14-RESV_3-Pad3)*%
X92750000Y-51165000D03*
%TO.P,U14,4,INT1/INT*%
%TO.N,unconnected-(U14-INT1{slash}INT-Pad4)*%
X92250000Y-51165000D03*
D11*
%TO.P,U14,5,VDDIO*%
%TO.N,VDD*%
X92085000Y-50500000D03*
%TO.P,U14,6,GND*%
%TO.N,GND*%
X92085000Y-50000000D03*
%TO.P,U14,7,RESV_7*%
X92085000Y-49500000D03*
D12*
%TO.P,U14,8,VDD*%
%TO.N,VDD*%
X92250000Y-48835000D03*
%TO.P,U14,9,INT2/FSYNC/CLKIN*%
%TO.N,CLKIN*%
X92750000Y-48835000D03*
%TO.P,U14,10,RESV_10*%
%TO.N,unconnected-(U14-RESV_10-Pad10)*%
X93250000Y-48835000D03*
%TO.P,U14,11,RESV_11*%
%TO.N,GND*%
X93750000Y-48835000D03*
D13*
%TO.P,U14,12,AP_CS*%
%TO.N,Net-(J1-Pin_6)*%
X93915000Y-49500000D03*
%TO.P,U14,13,AP_SCL/AP_SCLK*%
%TO.N,CLK*%
X93915000Y-50000000D03*
%TO.P,U14,14,AP_SDA/AP_SDIO/AP_SDI*%
%TO.N,MOSI*%
X93915000Y-50500000D03*
%TD*%
D10*
%TO.P,U11,1,AP_SDO/AP_AD0*%
%TO.N,MISO*%
X138750000Y-51165000D03*
%TO.P,U11,2,RESV_2*%
%TO.N,unconnected-(U11-RESV_2-Pad2)*%
X138250000Y-51165000D03*
%TO.P,U11,3,RESV_3*%
%TO.N,unconnected-(U11-RESV_3-Pad3)*%
X137750000Y-51165000D03*
%TO.P,U11,4,INT1/INT*%
%TO.N,unconnected-(U11-INT1{slash}INT-Pad4)*%
X137250000Y-51165000D03*
D11*
%TO.P,U11,5,VDDIO*%
%TO.N,VDD*%
X137085000Y-50500000D03*
%TO.P,U11,6,GND*%
%TO.N,GND*%
X137085000Y-50000000D03*
%TO.P,U11,7,RESV_7*%
X137085000Y-49500000D03*
D12*
%TO.P,U11,8,VDD*%
%TO.N,VDD*%
X137250000Y-48835000D03*
%TO.P,U11,9,INT2/FSYNC/CLKIN*%
%TO.N,CLKIN*%
X137750000Y-48835000D03*
%TO.P,U11,10,RESV_10*%
%TO.N,unconnected-(U11-RESV_10-Pad10)*%
X138250000Y-48835000D03*
%TO.P,U11,11,RESV_11*%
%TO.N,GND*%
X138750000Y-48835000D03*
D13*
%TO.P,U11,12,AP_CS*%
%TO.N,Net-(J1-Pin_3)*%
X138915000Y-49500000D03*
%TO.P,U11,13,AP_SCL/AP_SCLK*%
%TO.N,CLK*%
X138915000Y-50000000D03*
%TO.P,U11,14,AP_SDA/AP_SDIO/AP_SDI*%
%TO.N,MOSI*%
X138915000Y-50500000D03*
%TD*%
D10*
%TO.P,U12,1,AP_SDO/AP_AD0*%
%TO.N,MISO*%
X123750000Y-51165000D03*
%TO.P,U12,2,RESV_2*%
%TO.N,unconnected-(U12-RESV_2-Pad2)*%
X123250000Y-51165000D03*
%TO.P,U12,3,RESV_3*%
%TO.N,unconnected-(U12-RESV_3-Pad3)*%
X122750000Y-51165000D03*
%TO.P,U12,4,INT1/INT*%
%TO.N,unconnected-(U12-INT1{slash}INT-Pad4)*%
X122250000Y-51165000D03*
D11*
%TO.P,U12,5,VDDIO*%
%TO.N,VDD*%
X122085000Y-50500000D03*
%TO.P,U12,6,GND*%
%TO.N,GND*%
X122085000Y-50000000D03*
%TO.P,U12,7,RESV_7*%
X122085000Y-49500000D03*
D12*
%TO.P,U12,8,VDD*%
%TO.N,VDD*%
X122250000Y-48835000D03*
%TO.P,U12,9,INT2/FSYNC/CLKIN*%
%TO.N,CLKIN*%
X122750000Y-48835000D03*
%TO.P,U12,10,RESV_10*%
%TO.N,unconnected-(U12-RESV_10-Pad10)*%
X123250000Y-48835000D03*
%TO.P,U12,11,RESV_11*%
%TO.N,GND*%
X123750000Y-48835000D03*
D13*
%TO.P,U12,12,AP_CS*%
%TO.N,Net-(J1-Pin_4)*%
X123915000Y-49500000D03*
%TO.P,U12,13,AP_SCL/AP_SCLK*%
%TO.N,CLK*%
X123915000Y-50000000D03*
%TO.P,U12,14,AP_SDA/AP_SDIO/AP_SDI*%
%TO.N,MOSI*%
X123915000Y-50500000D03*
%TD*%
D14*
%TO.N,Net-(J1-Pin_24)*%
X169179889Y-52249889D03*
%TO.N,Net-(J1-Pin_23)*%
X154157378Y-52272401D03*
%TO.N,Net-(J1-Pin_22)*%
X139163217Y-52266562D03*
%TO.N,CLK*%
X165922266Y-49879066D03*
%TO.N,Net-(J1-Pin_24)*%
X165934776Y-49129071D03*
%TO.N,CLK*%
X150947034Y-49861012D03*
%TO.N,Net-(J1-Pin_23)*%
X150930638Y-49102011D03*
%TO.N,CLK*%
X135931071Y-49876265D03*
%TO.N,Net-(J1-Pin_22)*%
X135934452Y-49122076D03*
%TO.N,MOSI*%
X139676199Y-50734991D03*
%TO.N,CLK*%
X139660560Y-49984924D03*
%TO.N,MOSI*%
X154676195Y-50733628D03*
%TO.N,CLK*%
X154666966Y-49983582D03*
%TO.N,Net-(J1-Pin_1)*%
X168000000Y-47250000D03*
%TO.N,Net-(J1-Pin_2)*%
X153010000Y-47280000D03*
%TO.N,Net-(J1-Pin_3)*%
X138010000Y-47240000D03*
%TO.N,Net-(J1-Pin_21)*%
X124155701Y-52274078D03*
%TO.N,MOSI*%
X124676111Y-50726421D03*
%TO.N,CLK*%
X124670088Y-49976343D03*
%TO.N,Net-(J1-Pin_4)*%
X123000000Y-47300000D03*
%TO.N,CLK*%
X120915622Y-49883574D03*
%TO.N,Net-(J1-Pin_21)*%
X120938677Y-49133826D03*
%TO.N,Net-(J1-Pin_20)*%
X109172043Y-52257736D03*
%TO.N,CLK*%
X105940495Y-49868994D03*
%TO.N,Net-(J1-Pin_20)*%
X105931326Y-49110048D03*
%TO.N,MOSI*%
X109676192Y-50733119D03*
%TO.N,CLK*%
X109660125Y-49983189D03*
%TO.N,Net-(J1-Pin_5)*%
X108000000Y-47310000D03*
%TO.N,Net-(J1-Pin_19)*%
X94173792Y-52257102D03*
%TO.N,CLK*%
X90937152Y-49866621D03*
%TO.N,Net-(J1-Pin_19)*%
X90926309Y-49113174D03*
%TO.N,MOSI*%
X94676200Y-50742767D03*
%TO.N,CLK*%
X94660100Y-49984645D03*
%TO.N,Net-(J1-Pin_6)*%
X92999961Y-47348790D03*
%TO.N,MOSI*%
X79676159Y-50729505D03*
%TO.N,CLK*%
X79679026Y-49979408D03*
X75981123Y-49840126D03*
%TO.N,Net-(J1-Pin_18)*%
X79166046Y-52263733D03*
X75922171Y-49092346D03*
%TO.N,Net-(J1-Pin_7)*%
X76460000Y-47390000D03*
%TO.N,VDD*%
X166074746Y-51203823D03*
%TO.N,MISO*%
X166678062Y-51649541D03*
%TO.N,VDD*%
X151075995Y-51202145D03*
%TO.N,MISO*%
X151678064Y-51649541D03*
%TO.N,VDD*%
X136075653Y-51207177D03*
%TO.N,MISO*%
X136679473Y-51652212D03*
%TO.N,VDD*%
X121074748Y-51203824D03*
%TO.N,MISO*%
X121678064Y-51649541D03*
%TO.N,VDD*%
X106075566Y-51205902D03*
%TO.N,MISO*%
X106679041Y-51651399D03*
%TO.N,VDD*%
X91075605Y-51206487D03*
%TO.N,MISO*%
X91679239Y-51651773D03*
%TO.N,VDD*%
X76076656Y-51201252D03*
%TO.N,MISO*%
X76678063Y-51649541D03*
%TO.N,MOSI*%
X166339900Y-50502151D03*
%TO.N,VDD*%
X168743841Y-48089459D03*
%TO.N,GND*%
X169380000Y-48830000D03*
%TO.N,VDD*%
X167243791Y-48089794D03*
%TO.N,GND*%
X166624900Y-48835162D03*
%TO.N,VDD*%
X152246082Y-48089900D03*
%TO.N,GND*%
X151624900Y-48818016D03*
%TO.N,VDD*%
X153765562Y-48089589D03*
%TO.N,GND*%
X154375100Y-48843204D03*
%TO.N,MOSI*%
X151339900Y-50500000D03*
X136339900Y-50505163D03*
%TO.N,VDD*%
X138774386Y-48089849D03*
%TO.N,GND*%
X139375100Y-48840000D03*
%TO.N,VDD*%
X137257629Y-48089900D03*
%TO.N,GND*%
X136624900Y-48828927D03*
%TO.N,VDD*%
X122248675Y-48089582D03*
%TO.N,GND*%
X121624900Y-48830920D03*
%TO.N,MOSI*%
X121339900Y-50502151D03*
%TO.N,VDD*%
X123748696Y-48089736D03*
%TO.N,GND*%
X124375100Y-48830000D03*
%TO.N,MOSI*%
X106339900Y-50503918D03*
%TO.N,VDD*%
X108777086Y-48089880D03*
%TO.N,GND*%
X109375100Y-48835438D03*
%TO.N,VDD*%
X107250000Y-48089900D03*
%TO.N,GND*%
X106624900Y-48824376D03*
%TO.N,VDD*%
X92248063Y-48089900D03*
%TO.N,GND*%
X91624900Y-48840000D03*
%TO.N,VDD*%
X93758551Y-48089525D03*
%TO.N,GND*%
X94375100Y-48830000D03*
%TO.N,MOSI*%
X91339900Y-50504491D03*
%TO.N,VDD*%
X77253851Y-48089457D03*
%TO.N,GND*%
X76624900Y-48830000D03*
%TO.N,VDD*%
X78753876Y-48089033D03*
%TO.N,GND*%
X79375100Y-48845668D03*
%TO.N,MOSI*%
X76339900Y-50498861D03*
%TO.N,CLKIN*%
X78003867Y-48100887D03*
X93008521Y-48099954D03*
X108027012Y-48096429D03*
X122998684Y-48101418D03*
X138024316Y-48096901D03*
X153015513Y-48098563D03*
X167993818Y-48100419D03*
%TO.N,MOSI*%
X168000000Y-50320103D03*
%TO.N,CLK*%
X168000000Y-49570000D03*
%TO.N,MOSI*%
X153006931Y-50318764D03*
%TO.N,CLK*%
X153001777Y-49568679D03*
%TO.N,MOSI*%
X137984606Y-50330409D03*
%TO.N,CLK*%
X138003394Y-49569016D03*
%TO.N,MOSI*%
X122971832Y-50326816D03*
%TO.N,CLK*%
X122984635Y-49571408D03*
%TO.N,MOSI*%
X107993123Y-50322588D03*
%TO.N,CLK*%
X108003972Y-49569134D03*
%TO.N,MOSI*%
X93005655Y-50319577D03*
%TO.N,CLK*%
X93005654Y-49569475D03*
%TO.N,MOSI*%
X77973708Y-50328116D03*
%TO.N,CLK*%
X77988601Y-49570619D03*
%TO.N,Net-(J1-Pin_1)*%
X48420000Y-44250000D03*
%TO.N,Net-(J1-Pin_2)*%
X48955435Y-44899578D03*
%TO.N,Net-(J1-Pin_3)*%
X48420000Y-45424900D03*
%TO.N,Net-(J1-Pin_4)*%
X48958753Y-45969800D03*
%TO.N,Net-(J1-Pin_5)*%
X48422148Y-46494900D03*
%TO.N,Net-(J1-Pin_6)*%
X48977647Y-47023598D03*
%TO.N,Net-(J1-Pin_7)*%
X48441302Y-47548698D03*
%TO.N,Net-(J1-Pin_8)*%
X48970882Y-48164479D03*
%TO.N,Net-(J1-Pin_24)*%
X48957802Y-55659114D03*
%TO.N,Net-(J1-Pin_23)*%
X48416037Y-55134014D03*
%TO.N,Net-(J1-Pin_22)*%
X48943005Y-54600200D03*
%TO.N,Net-(J1-Pin_21)*%
X48405759Y-54075100D03*
%TO.N,Net-(J1-Pin_20)*%
X48963661Y-53541402D03*
%TO.N,Net-(J1-Pin_19)*%
X48426302Y-53016302D03*
%TO.N,Net-(J1-Pin_18)*%
X48948736Y-52377500D03*
%TO.N,Net-(J1-Pin_17)*%
X48410698Y-51852400D03*
%TO.N,CLKIN*%
X48402551Y-48689579D03*
%TO.N,GND*%
X48948019Y-49214679D03*
%TO.N,MISO*%
X48946643Y-51324307D03*
%TO.N,VDD*%
X48409043Y-50801200D03*
%TO.N,MOSI*%
X48964538Y-50265879D03*
%TO.N,CLK*%
X48420000Y-49750000D03*
%TO.N,MOSI*%
X64676180Y-50731479D03*
%TO.N,Net-(J1-Pin_8)*%
X61179697Y-47657699D03*
%TO.N,Net-(J1-Pin_17)*%
X64167339Y-52262439D03*
%TO.N,CLK*%
X60917099Y-49881776D03*
%TO.N,Net-(J1-Pin_17)*%
X60928968Y-49131770D03*
%TO.N,VDD*%
X61075203Y-51203213D03*
%TO.N,MISO*%
X61678064Y-51649541D03*
%TO.N,VDD*%
X63756376Y-48089267D03*
%TO.N,CLKIN*%
X63006356Y-48100384D03*
%TO.N,VDD*%
X62254333Y-48089900D03*
%TO.N,GND*%
X61620000Y-48840000D03*
X64375100Y-48840000D03*
%TO.N,CLK*%
X64668811Y-49981414D03*
%TO.N,MOSI*%
X61339900Y-50501366D03*
%TO.N,CLK*%
X62998271Y-49568669D03*
%TO.N,MOSI*%
X63000900Y-50431506D03*
%TD*%
D15*
%TO.N,MOSI*%
X139441208Y-50500000D02*
X139676199Y-50734991D01*
X138915000Y-50500000D02*
X139441208Y-50500000D01*
%TO.N,CLK*%
X139645484Y-50000000D02*
X139660560Y-49984924D01*
X138915000Y-50000000D02*
X139645484Y-50000000D01*
%TO.N,MOSI*%
X154442567Y-50500000D02*
X154676195Y-50733628D01*
X153915000Y-50500000D02*
X154442567Y-50500000D01*
%TO.N,CLK*%
X154650548Y-50000000D02*
X154666966Y-49983582D01*
X153915000Y-50000000D02*
X154650548Y-50000000D01*
%TO.N,Net-(J1-Pin_1)*%
X169906100Y-48507700D02*
X168648400Y-47250000D01*
X169906100Y-49047918D02*
X169906100Y-48507700D01*
X169454018Y-49500000D02*
X169906100Y-49047918D01*
X168648400Y-47250000D02*
X168000000Y-47250000D01*
X168915000Y-49500000D02*
X169454018Y-49500000D01*
%TO.N,Net-(J1-Pin_2)*%
X153699991Y-47280000D02*
X153010000Y-47280000D01*
X154901200Y-48481209D02*
X153699991Y-47280000D01*
X154901200Y-49061122D02*
X154901200Y-48481209D01*
X154462322Y-49500000D02*
X154901200Y-49061122D01*
X153915000Y-49500000D02*
X154462322Y-49500000D01*
%TO.N,Net-(J1-Pin_3)*%
X138668555Y-47240000D02*
X138010000Y-47240000D01*
X139901200Y-48472645D02*
X138668555Y-47240000D01*
X139901200Y-49057918D02*
X139901200Y-48472645D01*
X139459118Y-49500000D02*
X139901200Y-49057918D01*
X138915000Y-49500000D02*
X139459118Y-49500000D01*
%TO.N,MOSI*%
X124449690Y-50500000D02*
X124676111Y-50726421D01*
X123915000Y-50500000D02*
X124449690Y-50500000D01*
%TO.N,CLK*%
X124646431Y-50000000D02*
X124670088Y-49976343D01*
X123915000Y-50000000D02*
X124646431Y-50000000D01*
%TO.N,Net-(J1-Pin_4)*%
X123702978Y-47300000D02*
X123000000Y-47300000D01*
X124901200Y-48498222D02*
X123702978Y-47300000D01*
X124901200Y-49047918D02*
X124901200Y-48498222D01*
X124449118Y-49500000D02*
X124901200Y-49047918D01*
X123915000Y-49500000D02*
X124449118Y-49500000D01*
%TO.N,MOSI*%
X109443073Y-50500000D02*
X109676192Y-50733119D01*
X108915000Y-50500000D02*
X109443073Y-50500000D01*
%TO.N,CLK*%
X109643314Y-50000000D02*
X109660125Y-49983189D01*
X108915000Y-50000000D02*
X109643314Y-50000000D01*
%TO.N,Net-(J1-Pin_5)*%
X108812369Y-47310000D02*
X108000000Y-47310000D01*
X109901200Y-48398831D02*
X108812369Y-47310000D01*
X109901200Y-49053356D02*
X109901200Y-48398831D01*
X109454556Y-49500000D02*
X109901200Y-49053356D01*
X108915000Y-49500000D02*
X109454556Y-49500000D01*
%TO.N,Net-(J1-Pin_6)*%
X94901200Y-49047918D02*
X94449118Y-49500000D01*
X94901200Y-48488156D02*
X94901200Y-49047918D01*
X93761834Y-47348790D02*
X94901200Y-48488156D01*
X94449118Y-49500000D02*
X93915000Y-49500000D01*
X92999961Y-47348790D02*
X93761834Y-47348790D01*
%TO.N,MOSI*%
X94433433Y-50500000D02*
X94676200Y-50742767D01*
X93915000Y-50500000D02*
X94433433Y-50500000D01*
%TO.N,CLK*%
X94644745Y-50000000D02*
X94660100Y-49984645D01*
X93915000Y-50000000D02*
X94644745Y-50000000D01*
%TO.N,MOSI*%
X79446654Y-50500000D02*
X79676159Y-50729505D01*
X78915000Y-50500000D02*
X79446654Y-50500000D01*
%TO.N,CLK*%
X79658434Y-50000000D02*
X79679026Y-49979408D01*
X78915000Y-50000000D02*
X79658434Y-50000000D01*
%TO.N,Net-(J1-Pin_7)*%
X78798861Y-47390000D02*
X76460000Y-47390000D01*
X79901200Y-48492339D02*
X78798861Y-47390000D01*
X79901200Y-49063586D02*
X79901200Y-48492339D01*
X79464786Y-49500000D02*
X79901200Y-49063586D01*
X78915000Y-49500000D02*
X79464786Y-49500000D01*
%TO.N,VDD*%
X166381177Y-51203823D02*
X166074746Y-51203823D01*
X167085000Y-50500000D02*
X166381177Y-51203823D01*
%TO.N,MISO*%
X168501074Y-51686100D02*
X168750000Y-51437174D01*
X166678062Y-51649541D02*
X166714621Y-51686100D01*
X166714621Y-51686100D02*
X168501074Y-51686100D01*
X168750000Y-51437174D02*
X168750000Y-51165000D01*
%TO.N,VDD*%
X151382855Y-51202145D02*
X151075995Y-51202145D01*
X152085000Y-50500000D02*
X151382855Y-51202145D01*
%TO.N,MISO*%
X153523900Y-51686100D02*
X153750000Y-51460000D01*
X151678064Y-51649541D02*
X151714623Y-51686100D01*
X153750000Y-51460000D02*
X153750000Y-51165000D01*
X151714623Y-51686100D02*
X153523900Y-51686100D01*
%TO.N,VDD*%
X136381904Y-51207177D02*
X136075653Y-51207177D01*
X137085000Y-50504081D02*
X136381904Y-51207177D01*
%TO.N,MISO*%
X136713361Y-51686100D02*
X138523900Y-51686100D01*
X138750000Y-51460000D02*
X138750000Y-51165000D01*
X136679473Y-51652212D02*
X136713361Y-51686100D01*
X138523900Y-51686100D02*
X138750000Y-51460000D01*
%TO.N,VDD*%
X137085000Y-50500000D02*
X137085000Y-50504081D01*
X121381176Y-51203824D02*
X121074748Y-51203824D01*
X122085000Y-50500000D02*
X121381176Y-51203824D01*
%TO.N,MISO*%
X123750000Y-51460000D02*
X123750000Y-51165000D01*
X123523900Y-51686100D02*
X123750000Y-51460000D01*
X121678064Y-51649541D02*
X121714623Y-51686100D01*
X121714623Y-51686100D02*
X123523900Y-51686100D01*
%TO.N,VDD*%
X106381934Y-51205902D02*
X106075566Y-51205902D01*
X107085000Y-50502836D02*
X106381934Y-51205902D01*
%TO.N,MISO*%
X106713742Y-51686100D02*
X108501074Y-51686100D01*
X106679041Y-51651399D02*
X106713742Y-51686100D01*
X108501074Y-51686100D02*
X108750000Y-51437174D01*
X108750000Y-51437174D02*
X108750000Y-51165000D01*
%TO.N,VDD*%
X107085000Y-50500000D02*
X107085000Y-50502836D01*
X91381922Y-51206487D02*
X91075605Y-51206487D01*
X92085000Y-50503409D02*
X91381922Y-51206487D01*
%TO.N,MISO*%
X93501074Y-51686100D02*
X93750000Y-51437174D01*
X91713566Y-51686100D02*
X93501074Y-51686100D01*
X93750000Y-51437174D02*
X93750000Y-51165000D01*
X91679239Y-51651773D02*
X91713566Y-51686100D01*
%TO.N,VDD*%
X92085000Y-50500000D02*
X92085000Y-50503409D01*
X76383748Y-51201252D02*
X76076656Y-51201252D01*
X77085000Y-50500000D02*
X76383748Y-51201252D01*
%TO.N,MISO*%
X76714622Y-51686100D02*
X78523900Y-51686100D01*
X76678063Y-51649541D02*
X76714622Y-51686100D01*
X78523900Y-51686100D02*
X78750000Y-51460000D01*
X78750000Y-51460000D02*
X78750000Y-51165000D01*
%TO.N,GND*%
X169380000Y-48830000D02*
X168755000Y-48830000D01*
X168755000Y-48830000D02*
X168750000Y-48835000D01*
%TO.N,VDD*%
X167250000Y-48096003D02*
X167243791Y-48089794D01*
X167250000Y-48835000D02*
X167250000Y-48096003D01*
%TO.N,GND*%
X166624900Y-49039900D02*
X166624900Y-48835162D01*
X167085000Y-49500000D02*
X166624900Y-49039900D01*
X167085000Y-50000000D02*
X167085000Y-49500000D01*
%TO.N,VDD*%
X152250000Y-48093818D02*
X152246082Y-48089900D01*
X152250000Y-48835000D02*
X152250000Y-48093818D01*
%TO.N,GND*%
X151624900Y-49039900D02*
X151624900Y-48818016D01*
X152085000Y-49500000D02*
X151624900Y-49039900D01*
X152085000Y-50000000D02*
X152085000Y-49500000D01*
X154366896Y-48835000D02*
X154375100Y-48843204D01*
X153750000Y-48835000D02*
X154366896Y-48835000D01*
X138755000Y-48840000D02*
X138750000Y-48835000D01*
X139375100Y-48840000D02*
X138755000Y-48840000D01*
%TO.N,VDD*%
X137250000Y-48097529D02*
X137257629Y-48089900D01*
X137250000Y-48835000D02*
X137250000Y-48097529D01*
%TO.N,GND*%
X136624900Y-49039900D02*
X136624900Y-48828927D01*
X137085000Y-49500000D02*
X136624900Y-49039900D01*
X137085000Y-50000000D02*
X137085000Y-49500000D01*
%TO.N,VDD*%
X122250000Y-48090907D02*
X122248675Y-48089582D01*
X122250000Y-48835000D02*
X122250000Y-48090907D01*
%TO.N,GND*%
X121624900Y-49039900D02*
X121624900Y-48830920D01*
X122085000Y-49500000D02*
X121624900Y-49039900D01*
X122085000Y-50000000D02*
X122085000Y-49500000D01*
X123755000Y-48830000D02*
X123750000Y-48835000D01*
X124375100Y-48830000D02*
X123755000Y-48830000D01*
X109375100Y-48835438D02*
X108750438Y-48835438D01*
X108750438Y-48835438D02*
X108750000Y-48835000D01*
%TO.N,VDD*%
X107250000Y-48835000D02*
X107250000Y-48089900D01*
%TO.N,GND*%
X106624900Y-49039900D02*
X106624900Y-48824376D01*
X107085000Y-49500000D02*
X106624900Y-49039900D01*
X107085000Y-50000000D02*
X107085000Y-49500000D01*
%TO.N,VDD*%
X92250000Y-48091837D02*
X92248063Y-48089900D01*
X92250000Y-48835000D02*
X92250000Y-48091837D01*
%TO.N,GND*%
X91624900Y-49039900D02*
X91624900Y-48840000D01*
X92085000Y-49500000D02*
X91624900Y-49039900D01*
X92085000Y-50000000D02*
X92085000Y-49500000D01*
X94375100Y-48830000D02*
X93755000Y-48830000D01*
X93755000Y-48830000D02*
X93750000Y-48835000D01*
%TO.N,VDD*%
X77250000Y-48093308D02*
X77253851Y-48089457D01*
X77250000Y-48835000D02*
X77250000Y-48093308D01*
%TO.N,GND*%
X76624900Y-49039900D02*
X76624900Y-48830000D01*
X77085000Y-49500000D02*
X76624900Y-49039900D01*
X77085000Y-50000000D02*
X77085000Y-49500000D01*
X78760668Y-48845668D02*
X78750000Y-48835000D01*
X79375100Y-48845668D02*
X78760668Y-48845668D01*
%TO.N,CLKIN*%
X77750000Y-48354754D02*
X77750000Y-48835000D01*
X78003867Y-48100887D02*
X77750000Y-48354754D01*
X93008521Y-48099954D02*
X92750000Y-48358475D01*
X92750000Y-48358475D02*
X92750000Y-48835000D01*
X108027012Y-48096429D02*
X107750000Y-48373441D01*
X107750000Y-48373441D02*
X107750000Y-48835000D01*
X122750000Y-48350102D02*
X122750000Y-48835000D01*
X122998684Y-48101418D02*
X122750000Y-48350102D01*
X137750000Y-48371217D02*
X137750000Y-48835000D01*
X138024316Y-48096901D02*
X137750000Y-48371217D01*
X152750000Y-48364076D02*
X152750000Y-48835000D01*
X153015513Y-48098563D02*
X152750000Y-48364076D01*
X167750000Y-48344237D02*
X167750000Y-48835000D01*
X167993818Y-48100419D02*
X167750000Y-48344237D01*
%TO.N,MOSI*%
X168179897Y-50500000D02*
X168915000Y-50500000D01*
X168000000Y-50320103D02*
X168179897Y-50500000D01*
%TO.N,CLK*%
X168000000Y-49570000D02*
X168430000Y-50000000D01*
X168430000Y-50000000D02*
X168915000Y-50000000D01*
%TO.N,MOSI*%
X153188167Y-50500000D02*
X153915000Y-50500000D01*
X153006931Y-50318764D02*
X153188167Y-50500000D01*
%TO.N,CLK*%
X153433098Y-50000000D02*
X153915000Y-50000000D01*
X153001777Y-49568679D02*
X153433098Y-50000000D01*
%TO.N,MOSI*%
X138154197Y-50500000D02*
X138915000Y-50500000D01*
X137984606Y-50330409D02*
X138154197Y-50500000D01*
%TO.N,CLK*%
X138434378Y-50000000D02*
X138915000Y-50000000D01*
X138003394Y-49569016D02*
X138434378Y-50000000D01*
%TO.N,MOSI*%
X122971832Y-50326816D02*
X123145016Y-50500000D01*
X123145016Y-50500000D02*
X123915000Y-50500000D01*
%TO.N,CLK*%
X123413227Y-50000000D02*
X123915000Y-50000000D01*
X122984635Y-49571408D02*
X123413227Y-50000000D01*
%TO.N,MOSI*%
X108170535Y-50500000D02*
X108915000Y-50500000D01*
X107993123Y-50322588D02*
X108170535Y-50500000D01*
%TO.N,CLK*%
X108434838Y-50000000D02*
X108915000Y-50000000D01*
X108003972Y-49569134D02*
X108434838Y-50000000D01*
%TO.N,MOSI*%
X93005655Y-50319577D02*
X93186078Y-50500000D01*
X93186078Y-50500000D02*
X93915000Y-50500000D01*
%TO.N,CLK*%
X93005654Y-49569475D02*
X93436179Y-50000000D01*
X93436179Y-50000000D02*
X93915000Y-50000000D01*
%TO.N,MOSI*%
X77973708Y-50328116D02*
X78145592Y-50500000D01*
X78145592Y-50500000D02*
X78915000Y-50500000D01*
%TO.N,CLK*%
X78417982Y-50000000D02*
X78915000Y-50000000D01*
X77988601Y-49570619D02*
X78417982Y-50000000D01*
%TO.N,MOSI*%
X64444701Y-50500000D02*
X64676180Y-50731479D01*
X63915000Y-50500000D02*
X64444701Y-50500000D01*
%TO.N,CLK*%
X64650225Y-50000000D02*
X63915000Y-50000000D01*
X64668811Y-49981414D02*
X64650225Y-50000000D01*
%TO.N,Net-(J1-Pin_8)*%
X61274229Y-47563167D02*
X61179697Y-47657699D01*
X63974294Y-47563167D02*
X61274229Y-47563167D01*
X64901200Y-49057918D02*
X64901200Y-48490073D01*
X64901200Y-48490073D02*
X63974294Y-47563167D01*
X64459118Y-49500000D02*
X64901200Y-49057918D01*
X63915000Y-49500000D02*
X64459118Y-49500000D01*
%TO.N,VDD*%
X61381787Y-51203213D02*
X61075203Y-51203213D01*
X62085000Y-50500000D02*
X61381787Y-51203213D01*
%TO.N,MISO*%
X63750000Y-51460000D02*
X63750000Y-51165000D01*
X61678064Y-51649541D02*
X61714623Y-51686100D01*
X63523900Y-51686100D02*
X63750000Y-51460000D01*
X61714623Y-51686100D02*
X63523900Y-51686100D01*
%TO.N,CLKIN*%
X63006356Y-48100384D02*
X62750000Y-48356740D01*
X62750000Y-48356740D02*
X62750000Y-48835000D01*
%TO.N,VDD*%
X62250000Y-48094233D02*
X62254333Y-48089900D01*
X62250000Y-48835000D02*
X62250000Y-48094233D01*
%TO.N,GND*%
X61620000Y-49035000D02*
X61620000Y-48840000D01*
X62085000Y-49500000D02*
X61620000Y-49035000D01*
X63755000Y-48840000D02*
X63750000Y-48835000D01*
X64375100Y-48840000D02*
X63755000Y-48840000D01*
X62085000Y-49500000D02*
X62085000Y-50000000D01*
%TO.N,CLK*%
X63429602Y-50000000D02*
X63915000Y-50000000D01*
X62998271Y-49568669D02*
X63429602Y-50000000D01*
%TO.N,MOSI*%
X63069394Y-50500000D02*
X63000900Y-50431506D01*
X63915000Y-50500000D02*
X63069394Y-50500000D01*
%TD*%
D16*
X48500000Y-41500000D02*
X41500000Y-41500000D01*
X40000000Y-43000000D02*
X40000000Y-57000000D01*
X170500000Y-53000000D02*
X170500000Y-47000000D01*
X50250000Y-57000000D02*
G75*
G02*
X48750000Y-58500000I-1500000J0D01*
G01*
X168500000Y-44750000D02*
G75*
G02*
X170500000Y-46750000I0J-2000000D01*
G01*
X170500000Y-53250000D02*
G75*
G02*
X168500000Y-55250000I-2000000J0D01*
G01*
X170500000Y-46750000D02*
X170500000Y-47000000D01*
X51750000Y-55250000D02*
X168500000Y-55250000D01*
X41500000Y-58500000D02*
X48500000Y-58500000D01*
X50250000Y-56750000D02*
G75*
G02*
X51750000Y-55250000I1500000J0D01*
G01*
X48750000Y-41500000D02*
X48500000Y-41500000D01*
X51750000Y-44750000D02*
G75*
G02*
X50250000Y-43250000I0J1500000D01*
G01*
X48750000Y-41500000D02*
G75*
G02*
X50250000Y-43000000I0J-1500000D01*
G01*
X170500000Y-53000000D02*
X170500000Y-53250000D01*
X50250000Y-43000000D02*
X50250000Y-43250000D01*
X41500000Y-58500000D02*
G75*
G02*
X40000000Y-57000000I0J1500000D01*
G01*
X168500000Y-44750000D02*
X51750000Y-44750000D01*
X40000000Y-43000000D02*
G75*
G02*
X41500000Y-41500000I1500000J0D01*
G01*
X48500000Y-58500000D02*
X48750000Y-58500000D01*
X50250000Y-56750000D02*
X50250000Y-57000000D01*
M02*
