%TF.GenerationSoftware,KiCad,Pcbnew,9.0.4*%
%TF.CreationDate,2025-09-05T14:42:26+02:00*%
%TF.ProjectId,Rigid Flex,52696769-6420-4466-9c65-782e6b696361,rev?*%
%TF.SameCoordinates,Original*%
%TF.FileFunction,Copper,L3,Inr*%
%TF.FilePolarity,Positive*%
%FSLAX46Y46*%
G04 Gerber Fmt 4.6, Leading zero omitted, Abs format (unit mm)*
G04 Created by KiCad (PCBNEW 9.0.4) date 2025-09-05 14:42:26*
%MOMM*%
%LPD*%
G01*
G04 APERTURE LIST*
%TA.AperFunction,ViaPad*%
%ADD10C,0.600000*%
%TD*%
%TA.AperFunction,Conductor*%
%ADD11C,0.150000*%
%TD*%
%TA.AperFunction,Profile*%
%ADD12C,0.050000*%
%TD*%
G04 APERTURE END LIST*
D10*
%TO.N,Net-(J1-Pin_24)*%
X169179889Y-52249889D03*
%TO.N,Net-(J1-Pin_23)*%
X154157378Y-52272401D03*
%TO.N,Net-(J1-Pin_22)*%
X139163217Y-52266562D03*
%TO.N,CLK*%
X165922266Y-49879066D03*
%TO.N,Net-(J1-Pin_24)*%
X165934776Y-49129071D03*
%TO.N,CLK*%
X150947034Y-49861012D03*
%TO.N,Net-(J1-Pin_23)*%
X150930638Y-49102011D03*
%TO.N,CLK*%
X135931071Y-49876265D03*
%TO.N,Net-(J1-Pin_22)*%
X135934452Y-49122076D03*
%TO.N,MOSI*%
X139676199Y-50734991D03*
%TO.N,CLK*%
X139660560Y-49984924D03*
%TO.N,MOSI*%
X154676195Y-50733628D03*
%TO.N,CLK*%
X154666966Y-49983582D03*
%TO.N,Net-(J1-Pin_1)*%
X168000000Y-47250000D03*
%TO.N,Net-(J1-Pin_2)*%
X153010000Y-47280000D03*
%TO.N,Net-(J1-Pin_3)*%
X138010000Y-47240000D03*
%TO.N,Net-(J1-Pin_21)*%
X124155701Y-52274078D03*
%TO.N,MOSI*%
X124676111Y-50726421D03*
%TO.N,CLK*%
X124670088Y-49976343D03*
%TO.N,Net-(J1-Pin_4)*%
X123000000Y-47300000D03*
%TO.N,CLK*%
X120915622Y-49883574D03*
%TO.N,Net-(J1-Pin_21)*%
X120938677Y-49133826D03*
%TO.N,Net-(J1-Pin_20)*%
X109172043Y-52257736D03*
%TO.N,CLK*%
X105940495Y-49868994D03*
%TO.N,Net-(J1-Pin_20)*%
X105931326Y-49110048D03*
%TO.N,MOSI*%
X109676192Y-50733119D03*
%TO.N,CLK*%
X109660125Y-49983189D03*
%TO.N,Net-(J1-Pin_5)*%
X108000000Y-47310000D03*
%TO.N,Net-(J1-Pin_19)*%
X94173792Y-52257102D03*
%TO.N,CLK*%
X90937152Y-49866621D03*
%TO.N,Net-(J1-Pin_19)*%
X90926309Y-49113174D03*
%TO.N,MOSI*%
X94676200Y-50742767D03*
%TO.N,CLK*%
X94660100Y-49984645D03*
%TO.N,Net-(J1-Pin_6)*%
X92999961Y-47348790D03*
%TO.N,MOSI*%
X79676159Y-50729505D03*
%TO.N,CLK*%
X79679026Y-49979408D03*
X75981123Y-49840126D03*
%TO.N,Net-(J1-Pin_18)*%
X79166046Y-52263733D03*
X75922171Y-49092346D03*
%TO.N,Net-(J1-Pin_7)*%
X76460000Y-47390000D03*
%TO.N,VDD*%
X166074746Y-51203823D03*
%TO.N,MISO*%
X166678062Y-51649541D03*
%TO.N,VDD*%
X151075995Y-51202145D03*
%TO.N,MISO*%
X151678064Y-51649541D03*
%TO.N,VDD*%
X136075653Y-51207177D03*
%TO.N,MISO*%
X136679473Y-51652212D03*
%TO.N,VDD*%
X121074748Y-51203824D03*
%TO.N,MISO*%
X121678064Y-51649541D03*
%TO.N,VDD*%
X106075566Y-51205902D03*
%TO.N,MISO*%
X106679041Y-51651399D03*
%TO.N,VDD*%
X91075605Y-51206487D03*
%TO.N,MISO*%
X91679239Y-51651773D03*
%TO.N,VDD*%
X76076656Y-51201252D03*
%TO.N,MISO*%
X76678063Y-51649541D03*
%TO.N,MOSI*%
X166339900Y-50502151D03*
%TO.N,VDD*%
X168743841Y-48089459D03*
%TO.N,GND*%
X169380000Y-48830000D03*
%TO.N,VDD*%
X167243791Y-48089794D03*
%TO.N,GND*%
X166624900Y-48835162D03*
%TO.N,VDD*%
X152246082Y-48089900D03*
%TO.N,GND*%
X151624900Y-48818016D03*
%TO.N,VDD*%
X153765562Y-48089589D03*
%TO.N,GND*%
X154375100Y-48843204D03*
%TO.N,MOSI*%
X151339900Y-50500000D03*
X136339900Y-50505163D03*
%TO.N,VDD*%
X138774386Y-48089849D03*
%TO.N,GND*%
X139375100Y-48840000D03*
%TO.N,VDD*%
X137257629Y-48089900D03*
%TO.N,GND*%
X136624900Y-48828927D03*
%TO.N,VDD*%
X122248675Y-48089582D03*
%TO.N,GND*%
X121624900Y-48830920D03*
%TO.N,MOSI*%
X121339900Y-50502151D03*
%TO.N,VDD*%
X123748696Y-48089736D03*
%TO.N,GND*%
X124375100Y-48830000D03*
%TO.N,MOSI*%
X106339900Y-50503918D03*
%TO.N,VDD*%
X108777086Y-48089880D03*
%TO.N,GND*%
X109375100Y-48835438D03*
%TO.N,VDD*%
X107250000Y-48089900D03*
%TO.N,GND*%
X106624900Y-48824376D03*
%TO.N,VDD*%
X92248063Y-48089900D03*
%TO.N,GND*%
X91624900Y-48840000D03*
%TO.N,VDD*%
X93758551Y-48089525D03*
%TO.N,GND*%
X94375100Y-48830000D03*
%TO.N,MOSI*%
X91339900Y-50504491D03*
%TO.N,VDD*%
X77253851Y-48089457D03*
%TO.N,GND*%
X76624900Y-48830000D03*
%TO.N,VDD*%
X78753876Y-48089033D03*
%TO.N,GND*%
X79375100Y-48845668D03*
%TO.N,MOSI*%
X76339900Y-50498861D03*
%TO.N,CLKIN*%
X78003867Y-48100887D03*
X93008521Y-48099954D03*
X108027012Y-48096429D03*
X122998684Y-48101418D03*
X138024316Y-48096901D03*
X153015513Y-48098563D03*
X167993818Y-48100419D03*
%TO.N,MOSI*%
X168000000Y-50320103D03*
%TO.N,CLK*%
X168000000Y-49570000D03*
%TO.N,MOSI*%
X153006931Y-50318764D03*
%TO.N,CLK*%
X153001777Y-49568679D03*
%TO.N,MOSI*%
X137984606Y-50330409D03*
%TO.N,CLK*%
X138003394Y-49569016D03*
%TO.N,MOSI*%
X122971832Y-50326816D03*
%TO.N,CLK*%
X122984635Y-49571408D03*
%TO.N,MOSI*%
X107993123Y-50322588D03*
%TO.N,CLK*%
X108003972Y-49569134D03*
%TO.N,MOSI*%
X93005655Y-50319577D03*
%TO.N,CLK*%
X93005654Y-49569475D03*
%TO.N,MOSI*%
X77973708Y-50328116D03*
%TO.N,CLK*%
X77988601Y-49570619D03*
%TO.N,Net-(J1-Pin_1)*%
X48420000Y-44250000D03*
%TO.N,Net-(J1-Pin_2)*%
X48955435Y-44899578D03*
%TO.N,Net-(J1-Pin_3)*%
X48420000Y-45424900D03*
%TO.N,Net-(J1-Pin_4)*%
X48958753Y-45969800D03*
%TO.N,Net-(J1-Pin_5)*%
X48422148Y-46494900D03*
%TO.N,Net-(J1-Pin_6)*%
X48977647Y-47023598D03*
%TO.N,Net-(J1-Pin_7)*%
X48441302Y-47548698D03*
%TO.N,Net-(J1-Pin_8)*%
X48970882Y-48164479D03*
%TO.N,Net-(J1-Pin_24)*%
X48957802Y-55659114D03*
%TO.N,Net-(J1-Pin_23)*%
X48416037Y-55134014D03*
%TO.N,Net-(J1-Pin_22)*%
X48943005Y-54600200D03*
%TO.N,Net-(J1-Pin_21)*%
X48405759Y-54075100D03*
%TO.N,Net-(J1-Pin_20)*%
X48963661Y-53541402D03*
%TO.N,Net-(J1-Pin_19)*%
X48426302Y-53016302D03*
%TO.N,Net-(J1-Pin_18)*%
X48948736Y-52377500D03*
%TO.N,Net-(J1-Pin_17)*%
X48410698Y-51852400D03*
%TO.N,CLKIN*%
X48402551Y-48689579D03*
%TO.N,GND*%
X48948019Y-49214679D03*
%TO.N,MISO*%
X48946643Y-51324307D03*
%TO.N,VDD*%
X48409043Y-50801200D03*
%TO.N,MOSI*%
X48964538Y-50265879D03*
%TO.N,CLK*%
X48420000Y-49750000D03*
%TO.N,MOSI*%
X64676180Y-50731479D03*
%TO.N,Net-(J1-Pin_8)*%
X61179697Y-47657699D03*
%TO.N,Net-(J1-Pin_17)*%
X64167339Y-52262439D03*
%TO.N,CLK*%
X60917099Y-49881776D03*
%TO.N,Net-(J1-Pin_17)*%
X60928968Y-49131770D03*
%TO.N,VDD*%
X61075203Y-51203213D03*
%TO.N,MISO*%
X61678064Y-51649541D03*
%TO.N,VDD*%
X63756376Y-48089267D03*
%TO.N,CLKIN*%
X63006356Y-48100384D03*
%TO.N,VDD*%
X62254333Y-48089900D03*
%TO.N,GND*%
X61620000Y-48840000D03*
X64375100Y-48840000D03*
%TO.N,CLK*%
X64668811Y-49981414D03*
%TO.N,MOSI*%
X61339900Y-50501366D03*
%TO.N,CLK*%
X62998271Y-49568669D03*
%TO.N,MOSI*%
X63000900Y-50431506D03*
%TD*%
D11*
%TO.N,Net-(J1-Pin_24)*%
X166059071Y-49129071D02*
X169179889Y-52249889D01*
X165934776Y-49129071D02*
X166059071Y-49129071D01*
%TO.N,Net-(J1-Pin_23)*%
X154101028Y-52272401D02*
X154157378Y-52272401D01*
X150930638Y-49102011D02*
X154101028Y-52272401D01*
%TO.N,Net-(J1-Pin_22)*%
X136018731Y-49122076D02*
X139163217Y-52266562D01*
X135934452Y-49122076D02*
X136018731Y-49122076D01*
%TO.N,Net-(J1-Pin_21)*%
X121015449Y-49133826D02*
X124155701Y-52274078D01*
X120938677Y-49133826D02*
X121015449Y-49133826D01*
%TO.N,Net-(J1-Pin_20)*%
X106024355Y-49110048D02*
X109172043Y-52257736D01*
X105931326Y-49110048D02*
X106024355Y-49110048D01*
%TO.N,Net-(J1-Pin_19)*%
X91029864Y-49113174D02*
X94173792Y-52257102D01*
X90926309Y-49113174D02*
X91029864Y-49113174D01*
%TO.N,Net-(J1-Pin_18)*%
X79147334Y-52263733D02*
X79166046Y-52263733D01*
X75975947Y-49092346D02*
X79147334Y-52263733D01*
X75922171Y-49092346D02*
X75975947Y-49092346D01*
%TO.N,GND*%
X79359432Y-48830000D02*
X79375100Y-48845668D01*
X76624900Y-48830000D02*
X79359432Y-48830000D01*
X94365100Y-48840000D02*
X94375100Y-48830000D01*
X91624900Y-48840000D02*
X94365100Y-48840000D01*
X109364038Y-48824376D02*
X109375100Y-48835438D01*
X106624900Y-48824376D02*
X109364038Y-48824376D01*
X124374180Y-48830920D02*
X124375100Y-48830000D01*
X121624900Y-48830920D02*
X124374180Y-48830920D01*
X139364027Y-48828927D02*
X139375100Y-48840000D01*
X136624900Y-48828927D02*
X139364027Y-48828927D01*
X154349912Y-48818016D02*
X154375100Y-48843204D01*
X151624900Y-48818016D02*
X154349912Y-48818016D01*
X169374838Y-48835162D02*
X169380000Y-48830000D01*
X166624900Y-48835162D02*
X169374838Y-48835162D01*
%TO.N,Net-(J1-Pin_17)*%
X64059637Y-52262439D02*
X64167339Y-52262439D01*
X60928968Y-49131770D02*
X64059637Y-52262439D01*
%TO.N,GND*%
X61620000Y-48840000D02*
X64375100Y-48840000D01*
%TD*%
D12*
X48500000Y-41500000D02*
X41500000Y-41500000D01*
X40000000Y-43000000D02*
X40000000Y-57000000D01*
X170500000Y-53000000D02*
X170500000Y-47000000D01*
X50250000Y-57000000D02*
G75*
G02*
X48750000Y-58500000I-1500000J0D01*
G01*
X168500000Y-44750000D02*
G75*
G02*
X170500000Y-46750000I0J-2000000D01*
G01*
X170500000Y-53250000D02*
G75*
G02*
X168500000Y-55250000I-2000000J0D01*
G01*
X170500000Y-46750000D02*
X170500000Y-47000000D01*
X51750000Y-55250000D02*
X168500000Y-55250000D01*
X41500000Y-58500000D02*
X48500000Y-58500000D01*
X50250000Y-56750000D02*
G75*
G02*
X51750000Y-55250000I1500000J0D01*
G01*
X48750000Y-41500000D02*
X48500000Y-41500000D01*
X51750000Y-44750000D02*
G75*
G02*
X50250000Y-43250000I0J1500000D01*
G01*
X48750000Y-41500000D02*
G75*
G02*
X50250000Y-43000000I0J-1500000D01*
G01*
X170500000Y-53000000D02*
X170500000Y-53250000D01*
X50250000Y-43000000D02*
X50250000Y-43250000D01*
X41500000Y-58500000D02*
G75*
G02*
X40000000Y-57000000I0J1500000D01*
G01*
X168500000Y-44750000D02*
X51750000Y-44750000D01*
X40000000Y-43000000D02*
G75*
G02*
X41500000Y-41500000I1500000J0D01*
G01*
X48500000Y-58500000D02*
X48750000Y-58500000D01*
X50250000Y-56750000D02*
X50250000Y-57000000D01*
M02*
