%TF.GenerationSoftware,KiCad,Pcbnew,9.0.4*%
%TF.CreationDate,2025-09-05T14:42:25+02:00*%
%TF.ProjectId,Rigid Flex,52696769-6420-4466-9c65-782e6b696361,rev?*%
%TF.SameCoordinates,Original*%
%TF.FileFunction,Copper,L1,Top*%
%TF.FilePolarity,Positive*%
%FSLAX46Y46*%
G04 Gerber Fmt 4.6, Leading zero omitted, Abs format (unit mm)*
G04 Created by KiCad (PCBNEW 9.0.4) date 2025-09-05 14:42:25*
%MOMM*%
%LPD*%
G01*
G04 APERTURE LIST*
G04 Aperture macros list*
%AMRoundRect*
0 Rectangle with rounded corners*
0 $1 Rounding radius*
0 $2 $3 $4 $5 $6 $7 $8 $9 X,Y pos of 4 corners*
0 Add a 4 corners polygon primitive as box body*
4,1,4,$2,$3,$4,$5,$6,$7,$8,$9,$2,$3,0*
0 Add four circle primitives for the rounded corners*
1,1,$1+$1,$2,$3*
1,1,$1+$1,$4,$5*
1,1,$1+$1,$6,$7*
1,1,$1+$1,$8,$9*
0 Add four rect primitives between the rounded corners*
20,1,$1+$1,$2,$3,$4,$5,0*
20,1,$1+$1,$4,$5,$6,$7,0*
20,1,$1+$1,$6,$7,$8,$9,0*
20,1,$1+$1,$8,$9,$2,$3,0*%
G04 Aperture macros list end*
%TA.AperFunction,SMDPad,CuDef*%
%ADD10RoundRect,0.031500X0.143500X-0.263500X0.143500X0.263500X-0.143500X0.263500X-0.143500X-0.263500X0*%
%TD*%
%TA.AperFunction,SMDPad,CuDef*%
%ADD11RoundRect,0.031500X0.263500X0.143500X-0.263500X0.143500X-0.263500X-0.143500X0.263500X-0.143500X0*%
%TD*%
%TA.AperFunction,SMDPad,CuDef*%
%ADD12RoundRect,0.031500X-0.143500X0.263500X-0.143500X-0.263500X0.143500X-0.263500X0.143500X0.263500X0*%
%TD*%
%TA.AperFunction,SMDPad,CuDef*%
%ADD13RoundRect,0.031500X-0.263500X-0.143500X0.263500X-0.143500X0.263500X0.143500X-0.263500X0.143500X0*%
%TD*%
%TA.AperFunction,SMDPad,CuDef*%
%ADD14R,0.800000X0.300000*%
%TD*%
%TA.AperFunction,SMDPad,CuDef*%
%ADD15R,1.400000X1.220000*%
%TD*%
%TA.AperFunction,SMDPad,CuDef*%
%ADD16R,1.400000X0.850000*%
%TD*%
%TA.AperFunction,ViaPad*%
%ADD17C,0.600000*%
%TD*%
%TA.AperFunction,Conductor*%
%ADD18C,0.150000*%
%TD*%
%TA.AperFunction,Profile*%
%ADD19C,0.050000*%
%TD*%
G04 APERTURE END LIST*
D10*
%TO.P,U1,1,AP_SDO/AP_AD0*%
%TO.N,MISO*%
X167250000Y-51165000D03*
%TO.P,U1,2,RESV_2*%
%TO.N,unconnected-(U1-RESV_2-Pad2)*%
X167750000Y-51165000D03*
%TO.P,U1,3,RESV_3*%
%TO.N,unconnected-(U1-RESV_3-Pad3)*%
X168250000Y-51165000D03*
%TO.P,U1,4,INT1/INT*%
%TO.N,unconnected-(U1-INT1{slash}INT-Pad4)*%
X168750000Y-51165000D03*
D11*
%TO.P,U1,5,VDDIO*%
%TO.N,VDD*%
X168915000Y-50500000D03*
%TO.P,U1,6,GND*%
%TO.N,GND*%
X168915000Y-50000000D03*
%TO.P,U1,7,RESV_7*%
X168915000Y-49500000D03*
D12*
%TO.P,U1,8,VDD*%
%TO.N,VDD*%
X168750000Y-48835000D03*
%TO.P,U1,9,INT2/FSYNC/CLKIN*%
%TO.N,CLKIN*%
X168250000Y-48835000D03*
%TO.P,U1,10,RESV_10*%
%TO.N,unconnected-(U1-RESV_10-Pad10)*%
X167750000Y-48835000D03*
%TO.P,U1,11,RESV_11*%
%TO.N,GND*%
X167250000Y-48835000D03*
D13*
%TO.P,U1,12,AP_CS*%
%TO.N,Net-(J1-Pin_24)*%
X167085000Y-49500000D03*
%TO.P,U1,13,AP_SCL/AP_SCLK*%
%TO.N,CLK*%
X167085000Y-50000000D03*
%TO.P,U1,14,AP_SDA/AP_SDIO/AP_SDI*%
%TO.N,MOSI*%
X167085000Y-50500000D03*
%TD*%
D10*
%TO.P,U8,1,AP_SDO/AP_AD0*%
%TO.N,MISO*%
X62250000Y-51165000D03*
%TO.P,U8,2,RESV_2*%
%TO.N,unconnected-(U8-RESV_2-Pad2)*%
X62750000Y-51165000D03*
%TO.P,U8,3,RESV_3*%
%TO.N,unconnected-(U8-RESV_3-Pad3)*%
X63250000Y-51165000D03*
%TO.P,U8,4,INT1/INT*%
%TO.N,unconnected-(U8-INT1{slash}INT-Pad4)*%
X63750000Y-51165000D03*
D11*
%TO.P,U8,5,VDDIO*%
%TO.N,VDD*%
X63915000Y-50500000D03*
%TO.P,U8,6,GND*%
%TO.N,GND*%
X63915000Y-50000000D03*
%TO.P,U8,7,RESV_7*%
X63915000Y-49500000D03*
D12*
%TO.P,U8,8,VDD*%
%TO.N,VDD*%
X63750000Y-48835000D03*
%TO.P,U8,9,INT2/FSYNC/CLKIN*%
%TO.N,CLKIN*%
X63250000Y-48835000D03*
%TO.P,U8,10,RESV_10*%
%TO.N,unconnected-(U8-RESV_10-Pad10)*%
X62750000Y-48835000D03*
%TO.P,U8,11,RESV_11*%
%TO.N,GND*%
X62250000Y-48835000D03*
D13*
%TO.P,U8,12,AP_CS*%
%TO.N,Net-(J1-Pin_17)*%
X62085000Y-49500000D03*
%TO.P,U8,13,AP_SCL/AP_SCLK*%
%TO.N,CLK*%
X62085000Y-50000000D03*
%TO.P,U8,14,AP_SDA/AP_SDIO/AP_SDI*%
%TO.N,MOSI*%
X62085000Y-50500000D03*
%TD*%
D10*
%TO.P,U7,1,AP_SDO/AP_AD0*%
%TO.N,MISO*%
X77250000Y-51165000D03*
%TO.P,U7,2,RESV_2*%
%TO.N,unconnected-(U7-RESV_2-Pad2)*%
X77750000Y-51165000D03*
%TO.P,U7,3,RESV_3*%
%TO.N,unconnected-(U7-RESV_3-Pad3)*%
X78250000Y-51165000D03*
%TO.P,U7,4,INT1/INT*%
%TO.N,unconnected-(U7-INT1{slash}INT-Pad4)*%
X78750000Y-51165000D03*
D11*
%TO.P,U7,5,VDDIO*%
%TO.N,VDD*%
X78915000Y-50500000D03*
%TO.P,U7,6,GND*%
%TO.N,GND*%
X78915000Y-50000000D03*
%TO.P,U7,7,RESV_7*%
X78915000Y-49500000D03*
D12*
%TO.P,U7,8,VDD*%
%TO.N,VDD*%
X78750000Y-48835000D03*
%TO.P,U7,9,INT2/FSYNC/CLKIN*%
%TO.N,CLKIN*%
X78250000Y-48835000D03*
%TO.P,U7,10,RESV_10*%
%TO.N,unconnected-(U7-RESV_10-Pad10)*%
X77750000Y-48835000D03*
%TO.P,U7,11,RESV_11*%
%TO.N,GND*%
X77250000Y-48835000D03*
D13*
%TO.P,U7,12,AP_CS*%
%TO.N,Net-(J1-Pin_18)*%
X77085000Y-49500000D03*
%TO.P,U7,13,AP_SCL/AP_SCLK*%
%TO.N,CLK*%
X77085000Y-50000000D03*
%TO.P,U7,14,AP_SDA/AP_SDIO/AP_SDI*%
%TO.N,MOSI*%
X77085000Y-50500000D03*
%TD*%
D10*
%TO.P,U6,1,AP_SDO/AP_AD0*%
%TO.N,MISO*%
X92250000Y-51165000D03*
%TO.P,U6,2,RESV_2*%
%TO.N,unconnected-(U6-RESV_2-Pad2)*%
X92750000Y-51165000D03*
%TO.P,U6,3,RESV_3*%
%TO.N,unconnected-(U6-RESV_3-Pad3)*%
X93250000Y-51165000D03*
%TO.P,U6,4,INT1/INT*%
%TO.N,unconnected-(U6-INT1{slash}INT-Pad4)*%
X93750000Y-51165000D03*
D11*
%TO.P,U6,5,VDDIO*%
%TO.N,VDD*%
X93915000Y-50500000D03*
%TO.P,U6,6,GND*%
%TO.N,GND*%
X93915000Y-50000000D03*
%TO.P,U6,7,RESV_7*%
X93915000Y-49500000D03*
D12*
%TO.P,U6,8,VDD*%
%TO.N,VDD*%
X93750000Y-48835000D03*
%TO.P,U6,9,INT2/FSYNC/CLKIN*%
%TO.N,CLKIN*%
X93250000Y-48835000D03*
%TO.P,U6,10,RESV_10*%
%TO.N,unconnected-(U6-RESV_10-Pad10)*%
X92750000Y-48835000D03*
%TO.P,U6,11,RESV_11*%
%TO.N,GND*%
X92250000Y-48835000D03*
D13*
%TO.P,U6,12,AP_CS*%
%TO.N,Net-(J1-Pin_19)*%
X92085000Y-49500000D03*
%TO.P,U6,13,AP_SCL/AP_SCLK*%
%TO.N,CLK*%
X92085000Y-50000000D03*
%TO.P,U6,14,AP_SDA/AP_SDIO/AP_SDI*%
%TO.N,MOSI*%
X92085000Y-50500000D03*
%TD*%
D10*
%TO.P,U2,1,AP_SDO/AP_AD0*%
%TO.N,MISO*%
X152250000Y-51165000D03*
%TO.P,U2,2,RESV_2*%
%TO.N,unconnected-(U2-RESV_2-Pad2)*%
X152750000Y-51165000D03*
%TO.P,U2,3,RESV_3*%
%TO.N,unconnected-(U2-RESV_3-Pad3)*%
X153250000Y-51165000D03*
%TO.P,U2,4,INT1/INT*%
%TO.N,unconnected-(U2-INT1{slash}INT-Pad4)*%
X153750000Y-51165000D03*
D11*
%TO.P,U2,5,VDDIO*%
%TO.N,VDD*%
X153915000Y-50500000D03*
%TO.P,U2,6,GND*%
%TO.N,GND*%
X153915000Y-50000000D03*
%TO.P,U2,7,RESV_7*%
X153915000Y-49500000D03*
D12*
%TO.P,U2,8,VDD*%
%TO.N,VDD*%
X153750000Y-48835000D03*
%TO.P,U2,9,INT2/FSYNC/CLKIN*%
%TO.N,CLKIN*%
X153250000Y-48835000D03*
%TO.P,U2,10,RESV_10*%
%TO.N,unconnected-(U2-RESV_10-Pad10)*%
X152750000Y-48835000D03*
%TO.P,U2,11,RESV_11*%
%TO.N,GND*%
X152250000Y-48835000D03*
D13*
%TO.P,U2,12,AP_CS*%
%TO.N,Net-(J1-Pin_23)*%
X152085000Y-49500000D03*
%TO.P,U2,13,AP_SCL/AP_SCLK*%
%TO.N,CLK*%
X152085000Y-50000000D03*
%TO.P,U2,14,AP_SDA/AP_SDIO/AP_SDI*%
%TO.N,MOSI*%
X152085000Y-50500000D03*
%TD*%
D14*
%TO.P,J1,1,Pin_1*%
%TO.N,Net-(J1-Pin_1)*%
X47500000Y-44250000D03*
%TO.P,J1,2,Pin_2*%
%TO.N,Net-(J1-Pin_2)*%
X47500000Y-44750000D03*
%TO.P,J1,3,Pin_3*%
%TO.N,Net-(J1-Pin_3)*%
X47500000Y-45250000D03*
%TO.P,J1,4,Pin_4*%
%TO.N,Net-(J1-Pin_4)*%
X47500000Y-45750000D03*
%TO.P,J1,5,Pin_5*%
%TO.N,Net-(J1-Pin_5)*%
X47500000Y-46250000D03*
%TO.P,J1,6,Pin_6*%
%TO.N,Net-(J1-Pin_6)*%
X47500000Y-46750000D03*
%TO.P,J1,7,Pin_7*%
%TO.N,Net-(J1-Pin_7)*%
X47500000Y-47250000D03*
%TO.P,J1,8,Pin_8*%
%TO.N,Net-(J1-Pin_8)*%
X47500000Y-47750000D03*
%TO.P,J1,9,Pin_9*%
%TO.N,unconnected-(J1-Pin_9-Pad9)*%
X47500000Y-48250000D03*
%TO.P,J1,10,Pin_10*%
%TO.N,CLKIN*%
X47500000Y-48750000D03*
%TO.P,J1,11,Pin_11*%
%TO.N,GND*%
X47500000Y-49250000D03*
%TO.P,J1,12,Pin_12*%
%TO.N,CLK*%
X47500000Y-49750000D03*
%TO.P,J1,13,Pin_13*%
%TO.N,MOSI*%
X47500000Y-50250000D03*
%TO.P,J1,14,Pin_14*%
%TO.N,VDD*%
X47500000Y-50750000D03*
%TO.P,J1,15,Pin_15*%
%TO.N,MISO*%
X47500000Y-51250000D03*
%TO.P,J1,16,Pin_16*%
%TO.N,unconnected-(J1-Pin_16-Pad16)*%
X47500000Y-51750000D03*
%TO.P,J1,17,Pin_17*%
%TO.N,Net-(J1-Pin_17)*%
X47500000Y-52250000D03*
%TO.P,J1,18,Pin_18*%
%TO.N,Net-(J1-Pin_18)*%
X47500000Y-52750000D03*
%TO.P,J1,19,Pin_19*%
%TO.N,Net-(J1-Pin_19)*%
X47500000Y-53250000D03*
%TO.P,J1,20,Pin_20*%
%TO.N,Net-(J1-Pin_20)*%
X47500000Y-53750000D03*
%TO.P,J1,21,Pin_21*%
%TO.N,Net-(J1-Pin_21)*%
X47500000Y-54250000D03*
%TO.P,J1,22,Pin_22*%
%TO.N,Net-(J1-Pin_22)*%
X47500000Y-54750000D03*
%TO.P,J1,23,Pin_23*%
%TO.N,Net-(J1-Pin_23)*%
X47500000Y-55250000D03*
%TO.P,J1,24,Pin_24*%
%TO.N,Net-(J1-Pin_24)*%
X47500000Y-55750000D03*
D15*
%TO.P,J1,MP*%
%TO.N,N/C*%
X42650000Y-43010000D03*
D16*
X41640000Y-48825000D03*
X41640000Y-51175000D03*
D15*
X42650000Y-56990000D03*
%TD*%
D10*
%TO.P,U5,1,AP_SDO/AP_AD0*%
%TO.N,MISO*%
X107250000Y-51165000D03*
%TO.P,U5,2,RESV_2*%
%TO.N,unconnected-(U5-RESV_2-Pad2)*%
X107750000Y-51165000D03*
%TO.P,U5,3,RESV_3*%
%TO.N,unconnected-(U5-RESV_3-Pad3)*%
X108250000Y-51165000D03*
%TO.P,U5,4,INT1/INT*%
%TO.N,unconnected-(U5-INT1{slash}INT-Pad4)*%
X108750000Y-51165000D03*
D11*
%TO.P,U5,5,VDDIO*%
%TO.N,VDD*%
X108915000Y-50500000D03*
%TO.P,U5,6,GND*%
%TO.N,GND*%
X108915000Y-50000000D03*
%TO.P,U5,7,RESV_7*%
X108915000Y-49500000D03*
D12*
%TO.P,U5,8,VDD*%
%TO.N,VDD*%
X108750000Y-48835000D03*
%TO.P,U5,9,INT2/FSYNC/CLKIN*%
%TO.N,CLKIN*%
X108250000Y-48835000D03*
%TO.P,U5,10,RESV_10*%
%TO.N,unconnected-(U5-RESV_10-Pad10)*%
X107750000Y-48835000D03*
%TO.P,U5,11,RESV_11*%
%TO.N,GND*%
X107250000Y-48835000D03*
D13*
%TO.P,U5,12,AP_CS*%
%TO.N,Net-(J1-Pin_20)*%
X107085000Y-49500000D03*
%TO.P,U5,13,AP_SCL/AP_SCLK*%
%TO.N,CLK*%
X107085000Y-50000000D03*
%TO.P,U5,14,AP_SDA/AP_SDIO/AP_SDI*%
%TO.N,MOSI*%
X107085000Y-50500000D03*
%TD*%
D10*
%TO.P,U4,1,AP_SDO/AP_AD0*%
%TO.N,MISO*%
X122250000Y-51165000D03*
%TO.P,U4,2,RESV_2*%
%TO.N,unconnected-(U4-RESV_2-Pad2)*%
X122750000Y-51165000D03*
%TO.P,U4,3,RESV_3*%
%TO.N,unconnected-(U4-RESV_3-Pad3)*%
X123250000Y-51165000D03*
%TO.P,U4,4,INT1/INT*%
%TO.N,unconnected-(U4-INT1{slash}INT-Pad4)*%
X123750000Y-51165000D03*
D11*
%TO.P,U4,5,VDDIO*%
%TO.N,VDD*%
X123915000Y-50500000D03*
%TO.P,U4,6,GND*%
%TO.N,GND*%
X123915000Y-50000000D03*
%TO.P,U4,7,RESV_7*%
X123915000Y-49500000D03*
D12*
%TO.P,U4,8,VDD*%
%TO.N,VDD*%
X123750000Y-48835000D03*
%TO.P,U4,9,INT2/FSYNC/CLKIN*%
%TO.N,CLKIN*%
X123250000Y-48835000D03*
%TO.P,U4,10,RESV_10*%
%TO.N,unconnected-(U4-RESV_10-Pad10)*%
X122750000Y-48835000D03*
%TO.P,U4,11,RESV_11*%
%TO.N,GND*%
X122250000Y-48835000D03*
D13*
%TO.P,U4,12,AP_CS*%
%TO.N,Net-(J1-Pin_21)*%
X122085000Y-49500000D03*
%TO.P,U4,13,AP_SCL/AP_SCLK*%
%TO.N,CLK*%
X122085000Y-50000000D03*
%TO.P,U4,14,AP_SDA/AP_SDIO/AP_SDI*%
%TO.N,MOSI*%
X122085000Y-50500000D03*
%TD*%
D10*
%TO.P,U3,1,AP_SDO/AP_AD0*%
%TO.N,MISO*%
X137250000Y-51165000D03*
%TO.P,U3,2,RESV_2*%
%TO.N,unconnected-(U3-RESV_2-Pad2)*%
X137750000Y-51165000D03*
%TO.P,U3,3,RESV_3*%
%TO.N,unconnected-(U3-RESV_3-Pad3)*%
X138250000Y-51165000D03*
%TO.P,U3,4,INT1/INT*%
%TO.N,unconnected-(U3-INT1{slash}INT-Pad4)*%
X138750000Y-51165000D03*
D11*
%TO.P,U3,5,VDDIO*%
%TO.N,VDD*%
X138915000Y-50500000D03*
%TO.P,U3,6,GND*%
%TO.N,GND*%
X138915000Y-50000000D03*
%TO.P,U3,7,RESV_7*%
X138915000Y-49500000D03*
D12*
%TO.P,U3,8,VDD*%
%TO.N,VDD*%
X138750000Y-48835000D03*
%TO.P,U3,9,INT2/FSYNC/CLKIN*%
%TO.N,CLKIN*%
X138250000Y-48835000D03*
%TO.P,U3,10,RESV_10*%
%TO.N,unconnected-(U3-RESV_10-Pad10)*%
X137750000Y-48835000D03*
%TO.P,U3,11,RESV_11*%
%TO.N,GND*%
X137250000Y-48835000D03*
D13*
%TO.P,U3,12,AP_CS*%
%TO.N,Net-(J1-Pin_22)*%
X137085000Y-49500000D03*
%TO.P,U3,13,AP_SCL/AP_SCLK*%
%TO.N,CLK*%
X137085000Y-50000000D03*
%TO.P,U3,14,AP_SDA/AP_SDIO/AP_SDI*%
%TO.N,MOSI*%
X137085000Y-50500000D03*
%TD*%
D17*
%TO.N,Net-(J1-Pin_24)*%
X169179889Y-52249889D03*
%TO.N,Net-(J1-Pin_23)*%
X154157378Y-52272401D03*
%TO.N,Net-(J1-Pin_22)*%
X139163217Y-52266562D03*
%TO.N,CLK*%
X165922266Y-49879066D03*
%TO.N,Net-(J1-Pin_24)*%
X165934776Y-49129071D03*
%TO.N,CLK*%
X150947034Y-49861012D03*
%TO.N,Net-(J1-Pin_23)*%
X150930638Y-49102011D03*
%TO.N,CLK*%
X135931071Y-49876265D03*
%TO.N,Net-(J1-Pin_22)*%
X135934452Y-49122076D03*
%TO.N,MOSI*%
X139676199Y-50734991D03*
%TO.N,CLK*%
X139660560Y-49984924D03*
%TO.N,MOSI*%
X154676195Y-50733628D03*
%TO.N,CLK*%
X154666966Y-49983582D03*
%TO.N,Net-(J1-Pin_1)*%
X168000000Y-47250000D03*
%TO.N,Net-(J1-Pin_2)*%
X153010000Y-47280000D03*
%TO.N,Net-(J1-Pin_3)*%
X138010000Y-47240000D03*
%TO.N,Net-(J1-Pin_21)*%
X124155701Y-52274078D03*
%TO.N,MOSI*%
X124676111Y-50726421D03*
%TO.N,CLK*%
X124670088Y-49976343D03*
%TO.N,Net-(J1-Pin_4)*%
X123000000Y-47300000D03*
%TO.N,CLK*%
X120915622Y-49883574D03*
%TO.N,Net-(J1-Pin_21)*%
X120938677Y-49133826D03*
%TO.N,Net-(J1-Pin_20)*%
X109172043Y-52257736D03*
%TO.N,CLK*%
X105940495Y-49868994D03*
%TO.N,Net-(J1-Pin_20)*%
X105931326Y-49110048D03*
%TO.N,MOSI*%
X109676192Y-50733119D03*
%TO.N,CLK*%
X109660125Y-49983189D03*
%TO.N,Net-(J1-Pin_5)*%
X108000000Y-47310000D03*
%TO.N,Net-(J1-Pin_19)*%
X94173792Y-52257102D03*
%TO.N,CLK*%
X90937152Y-49866621D03*
%TO.N,Net-(J1-Pin_19)*%
X90926309Y-49113174D03*
%TO.N,MOSI*%
X94676200Y-50742767D03*
%TO.N,CLK*%
X94660100Y-49984645D03*
%TO.N,Net-(J1-Pin_6)*%
X92999961Y-47348790D03*
%TO.N,MOSI*%
X79676159Y-50729505D03*
%TO.N,CLK*%
X79679026Y-49979408D03*
X75981123Y-49840126D03*
%TO.N,Net-(J1-Pin_18)*%
X79166046Y-52263733D03*
X75922171Y-49092346D03*
%TO.N,Net-(J1-Pin_7)*%
X76460000Y-47390000D03*
%TO.N,VDD*%
X166074746Y-51203823D03*
%TO.N,MISO*%
X166678062Y-51649541D03*
%TO.N,VDD*%
X151075995Y-51202145D03*
%TO.N,MISO*%
X151678064Y-51649541D03*
%TO.N,VDD*%
X136075653Y-51207177D03*
%TO.N,MISO*%
X136679473Y-51652212D03*
%TO.N,VDD*%
X121074748Y-51203824D03*
%TO.N,MISO*%
X121678064Y-51649541D03*
%TO.N,VDD*%
X106075566Y-51205902D03*
%TO.N,MISO*%
X106679041Y-51651399D03*
%TO.N,VDD*%
X91075605Y-51206487D03*
%TO.N,MISO*%
X91679239Y-51651773D03*
%TO.N,VDD*%
X76076656Y-51201252D03*
%TO.N,MISO*%
X76678063Y-51649541D03*
%TO.N,MOSI*%
X166339900Y-50502151D03*
%TO.N,VDD*%
X168743841Y-48089459D03*
%TO.N,GND*%
X169380000Y-48830000D03*
%TO.N,VDD*%
X167243791Y-48089794D03*
%TO.N,GND*%
X166624900Y-48835162D03*
%TO.N,VDD*%
X152246082Y-48089900D03*
%TO.N,GND*%
X151624900Y-48818016D03*
%TO.N,VDD*%
X153765562Y-48089589D03*
%TO.N,GND*%
X154375100Y-48843204D03*
%TO.N,MOSI*%
X151339900Y-50500000D03*
X136339900Y-50505163D03*
%TO.N,VDD*%
X138774386Y-48089849D03*
%TO.N,GND*%
X139375100Y-48840000D03*
%TO.N,VDD*%
X137257629Y-48089900D03*
%TO.N,GND*%
X136624900Y-48828927D03*
%TO.N,VDD*%
X122248675Y-48089582D03*
%TO.N,GND*%
X121624900Y-48830920D03*
%TO.N,MOSI*%
X121339900Y-50502151D03*
%TO.N,VDD*%
X123748696Y-48089736D03*
%TO.N,GND*%
X124375100Y-48830000D03*
%TO.N,MOSI*%
X106339900Y-50503918D03*
%TO.N,VDD*%
X108777086Y-48089880D03*
%TO.N,GND*%
X109375100Y-48835438D03*
%TO.N,VDD*%
X107250000Y-48089900D03*
%TO.N,GND*%
X106624900Y-48824376D03*
%TO.N,VDD*%
X92248063Y-48089900D03*
%TO.N,GND*%
X91624900Y-48840000D03*
%TO.N,VDD*%
X93758551Y-48089525D03*
%TO.N,GND*%
X94375100Y-48830000D03*
%TO.N,MOSI*%
X91339900Y-50504491D03*
%TO.N,VDD*%
X77253851Y-48089457D03*
%TO.N,GND*%
X76624900Y-48830000D03*
%TO.N,VDD*%
X78753876Y-48089033D03*
%TO.N,GND*%
X79375100Y-48845668D03*
%TO.N,MOSI*%
X76339900Y-50498861D03*
%TO.N,CLKIN*%
X78003867Y-48100887D03*
X93008521Y-48099954D03*
X108027012Y-48096429D03*
X122998684Y-48101418D03*
X138024316Y-48096901D03*
X153015513Y-48098563D03*
X167993818Y-48100419D03*
%TO.N,MOSI*%
X168000000Y-50320103D03*
%TO.N,CLK*%
X168000000Y-49570000D03*
%TO.N,MOSI*%
X153006931Y-50318764D03*
%TO.N,CLK*%
X153001777Y-49568679D03*
%TO.N,MOSI*%
X137984606Y-50330409D03*
%TO.N,CLK*%
X138003394Y-49569016D03*
%TO.N,MOSI*%
X122971832Y-50326816D03*
%TO.N,CLK*%
X122984635Y-49571408D03*
%TO.N,MOSI*%
X107993123Y-50322588D03*
%TO.N,CLK*%
X108003972Y-49569134D03*
%TO.N,MOSI*%
X93005655Y-50319577D03*
%TO.N,CLK*%
X93005654Y-49569475D03*
%TO.N,MOSI*%
X77973708Y-50328116D03*
%TO.N,CLK*%
X77988601Y-49570619D03*
%TO.N,Net-(J1-Pin_1)*%
X48420000Y-44250000D03*
%TO.N,Net-(J1-Pin_2)*%
X48955435Y-44899578D03*
%TO.N,Net-(J1-Pin_3)*%
X48420000Y-45424900D03*
%TO.N,Net-(J1-Pin_4)*%
X48958753Y-45969800D03*
%TO.N,Net-(J1-Pin_5)*%
X48422148Y-46494900D03*
%TO.N,Net-(J1-Pin_6)*%
X48977647Y-47023598D03*
%TO.N,Net-(J1-Pin_7)*%
X48441302Y-47548698D03*
%TO.N,Net-(J1-Pin_8)*%
X48970882Y-48164479D03*
%TO.N,Net-(J1-Pin_24)*%
X48957802Y-55659114D03*
%TO.N,Net-(J1-Pin_23)*%
X48416037Y-55134014D03*
%TO.N,Net-(J1-Pin_22)*%
X48943005Y-54600200D03*
%TO.N,Net-(J1-Pin_21)*%
X48405759Y-54075100D03*
%TO.N,Net-(J1-Pin_20)*%
X48963661Y-53541402D03*
%TO.N,Net-(J1-Pin_19)*%
X48426302Y-53016302D03*
%TO.N,Net-(J1-Pin_18)*%
X48948736Y-52377500D03*
%TO.N,Net-(J1-Pin_17)*%
X48410698Y-51852400D03*
%TO.N,CLKIN*%
X48402551Y-48689579D03*
%TO.N,GND*%
X48948019Y-49214679D03*
%TO.N,MISO*%
X48946643Y-51324307D03*
%TO.N,VDD*%
X48409043Y-50801200D03*
%TO.N,MOSI*%
X48964538Y-50265879D03*
%TO.N,CLK*%
X48420000Y-49750000D03*
%TO.N,MOSI*%
X64676180Y-50731479D03*
%TO.N,Net-(J1-Pin_8)*%
X61179697Y-47657699D03*
%TO.N,Net-(J1-Pin_17)*%
X64167339Y-52262439D03*
%TO.N,CLK*%
X60917099Y-49881776D03*
%TO.N,Net-(J1-Pin_17)*%
X60928968Y-49131770D03*
%TO.N,VDD*%
X61075203Y-51203213D03*
%TO.N,MISO*%
X61678064Y-51649541D03*
%TO.N,VDD*%
X63756376Y-48089267D03*
%TO.N,CLKIN*%
X63006356Y-48100384D03*
%TO.N,VDD*%
X62254333Y-48089900D03*
%TO.N,GND*%
X61620000Y-48840000D03*
X64375100Y-48840000D03*
%TO.N,CLK*%
X64668811Y-49981414D03*
%TO.N,MOSI*%
X61339900Y-50501366D03*
%TO.N,CLK*%
X62998271Y-49568669D03*
%TO.N,MOSI*%
X63000900Y-50431506D03*
%TD*%
D18*
%TO.N,CLK*%
X166669066Y-49879066D02*
X165922266Y-49879066D01*
X166790000Y-50000000D02*
X166669066Y-49879066D01*
X167085000Y-50000000D02*
X166790000Y-50000000D01*
%TO.N,Net-(J1-Pin_24)*%
X166305705Y-49500000D02*
X165934776Y-49129071D01*
X167085000Y-49500000D02*
X166305705Y-49500000D01*
%TO.N,CLK*%
X151444930Y-49861012D02*
X150947034Y-49861012D01*
X151583918Y-50000000D02*
X151444930Y-49861012D01*
X152085000Y-50000000D02*
X151583918Y-50000000D01*
%TO.N,Net-(J1-Pin_23)*%
X151328627Y-49500000D02*
X150930638Y-49102011D01*
X152085000Y-49500000D02*
X151328627Y-49500000D01*
%TO.N,CLK*%
X136455020Y-49876265D02*
X135931071Y-49876265D01*
X136578755Y-50000000D02*
X136455020Y-49876265D01*
X137085000Y-50000000D02*
X136578755Y-50000000D01*
%TO.N,Net-(J1-Pin_22)*%
X136312376Y-49500000D02*
X135934452Y-49122076D01*
X137085000Y-49500000D02*
X136312376Y-49500000D01*
%TO.N,CLK*%
X121465341Y-49883574D02*
X120915622Y-49883574D01*
X121581767Y-50000000D02*
X121465341Y-49883574D01*
X122085000Y-50000000D02*
X121581767Y-50000000D01*
%TO.N,Net-(J1-Pin_21)*%
X121304851Y-49500000D02*
X120938677Y-49133826D01*
X122085000Y-49500000D02*
X121304851Y-49500000D01*
%TO.N,CLK*%
X106448994Y-49868994D02*
X105940495Y-49868994D01*
X106580000Y-50000000D02*
X106448994Y-49868994D01*
X107085000Y-50000000D02*
X106580000Y-50000000D01*
%TO.N,Net-(J1-Pin_20)*%
X106321278Y-49500000D02*
X105931326Y-49110048D01*
X107085000Y-49500000D02*
X106321278Y-49500000D01*
%TO.N,CLK*%
X91446048Y-49866621D02*
X90937152Y-49866621D01*
X91579427Y-50000000D02*
X91446048Y-49866621D01*
X92085000Y-50000000D02*
X91579427Y-50000000D01*
%TO.N,Net-(J1-Pin_19)*%
X91313135Y-49500000D02*
X90926309Y-49113174D01*
X92085000Y-49500000D02*
X91313135Y-49500000D01*
%TO.N,Net-(J1-Pin_18)*%
X76383601Y-49500000D02*
X77085000Y-49500000D01*
X75922171Y-49092346D02*
X75975947Y-49092346D01*
X75975947Y-49092346D02*
X76383601Y-49500000D01*
%TO.N,CLK*%
X76425183Y-49840126D02*
X75981123Y-49840126D01*
X76585057Y-50000000D02*
X76425183Y-49840126D01*
X77085000Y-50000000D02*
X76585057Y-50000000D01*
%TO.N,VDD*%
X169151100Y-50736100D02*
X168915000Y-50500000D01*
X169151100Y-51536074D02*
X169151100Y-50736100D01*
X168511533Y-52175641D02*
X169151100Y-51536074D01*
X166074746Y-51790243D02*
X166460144Y-52175641D01*
X166074746Y-51203823D02*
X166074746Y-51790243D01*
X166460144Y-52175641D02*
X168511533Y-52175641D01*
%TO.N,MISO*%
X167162603Y-51165000D02*
X166678062Y-51649541D01*
X167250000Y-51165000D02*
X167162603Y-51165000D01*
%TO.N,VDD*%
X154151100Y-50736100D02*
X153915000Y-50500000D01*
X154151100Y-51536074D02*
X154151100Y-50736100D01*
X151460146Y-52175641D02*
X153511533Y-52175641D01*
X151075995Y-51791490D02*
X151460146Y-52175641D01*
X151075995Y-51202145D02*
X151075995Y-51791490D01*
X153511533Y-52175641D02*
X154151100Y-51536074D01*
%TO.N,MISO*%
X152162605Y-51165000D02*
X151678064Y-51649541D01*
X152250000Y-51165000D02*
X152162605Y-51165000D01*
%TO.N,VDD*%
X139151100Y-50736100D02*
X138915000Y-50500000D01*
X139151100Y-51536074D02*
X139151100Y-50736100D01*
X138508862Y-52178312D02*
X139151100Y-51536074D01*
X136461555Y-52178312D02*
X138508862Y-52178312D01*
X136075653Y-51792410D02*
X136461555Y-52178312D01*
X136075653Y-51207177D02*
X136075653Y-51792410D01*
%TO.N,MISO*%
X137166685Y-51165000D02*
X136679473Y-51652212D01*
X137250000Y-51165000D02*
X137166685Y-51165000D01*
%TO.N,VDD*%
X124151100Y-50736100D02*
X123915000Y-50500000D01*
X124151100Y-51536074D02*
X124151100Y-50736100D01*
X123511533Y-52175641D02*
X124151100Y-51536074D01*
X121460146Y-52175641D02*
X123511533Y-52175641D01*
X121074748Y-51790243D02*
X121460146Y-52175641D01*
X121074748Y-51203824D02*
X121074748Y-51790243D01*
%TO.N,MISO*%
X122162605Y-51165000D02*
X121678064Y-51649541D01*
X122250000Y-51165000D02*
X122162605Y-51165000D01*
%TO.N,VDD*%
X109151100Y-50736100D02*
X108915000Y-50500000D01*
X109151100Y-51536074D02*
X109151100Y-50736100D01*
X108509675Y-52177499D02*
X109151100Y-51536074D01*
X106075566Y-51791942D02*
X106461123Y-52177499D01*
X106075566Y-51205902D02*
X106075566Y-51791942D01*
X106461123Y-52177499D02*
X108509675Y-52177499D01*
%TO.N,MISO*%
X107165440Y-51165000D02*
X106679041Y-51651399D01*
X107250000Y-51165000D02*
X107165440Y-51165000D01*
%TO.N,VDD*%
X94151100Y-50736100D02*
X93915000Y-50500000D01*
X94151100Y-51536074D02*
X94151100Y-50736100D01*
X93509301Y-52177873D02*
X94151100Y-51536074D01*
X91461321Y-52177873D02*
X93509301Y-52177873D01*
X91075605Y-51792157D02*
X91461321Y-52177873D01*
X91075605Y-51206487D02*
X91075605Y-51792157D01*
%TO.N,MISO*%
X92166012Y-51165000D02*
X91679239Y-51651773D01*
X92250000Y-51165000D02*
X92166012Y-51165000D01*
%TO.N,VDD*%
X79151100Y-50736100D02*
X78915000Y-50500000D01*
X79151100Y-51536074D02*
X79151100Y-50736100D01*
X78511533Y-52175641D02*
X79151100Y-51536074D01*
X76460145Y-52175641D02*
X78511533Y-52175641D01*
X76076656Y-51792152D02*
X76460145Y-52175641D01*
X76076656Y-51201252D02*
X76076656Y-51792152D01*
%TO.N,MISO*%
X77162604Y-51165000D02*
X76678063Y-51649541D01*
X77250000Y-51165000D02*
X77162604Y-51165000D01*
%TO.N,MOSI*%
X166342051Y-50500000D02*
X166339900Y-50502151D01*
X167085000Y-50500000D02*
X166342051Y-50500000D01*
%TO.N,VDD*%
X168750000Y-48095618D02*
X168743841Y-48089459D01*
X168750000Y-48835000D02*
X168750000Y-48095618D01*
%TO.N,GND*%
X169380000Y-49035000D02*
X169380000Y-48830000D01*
X168915000Y-49500000D02*
X169380000Y-49035000D01*
X168915000Y-50000000D02*
X168915000Y-49500000D01*
X167249838Y-48835162D02*
X167250000Y-48835000D01*
X166624900Y-48835162D02*
X167249838Y-48835162D01*
X152233016Y-48818016D02*
X152250000Y-48835000D01*
X151624900Y-48818016D02*
X152233016Y-48818016D01*
%TO.N,VDD*%
X153750000Y-48105151D02*
X153765562Y-48089589D01*
X153750000Y-48835000D02*
X153750000Y-48105151D01*
%TO.N,GND*%
X154375100Y-49039900D02*
X154375100Y-48843204D01*
X153915000Y-49500000D02*
X154375100Y-49039900D01*
X153915000Y-50000000D02*
X153915000Y-49500000D01*
%TO.N,MOSI*%
X152085000Y-50500000D02*
X151339900Y-50500000D01*
X136345063Y-50500000D02*
X136339900Y-50505163D01*
X137085000Y-50500000D02*
X136345063Y-50500000D01*
%TO.N,VDD*%
X138750000Y-48114235D02*
X138774386Y-48089849D01*
X138750000Y-48835000D02*
X138750000Y-48114235D01*
%TO.N,GND*%
X139375100Y-49039900D02*
X139375100Y-48840000D01*
X138915000Y-49500000D02*
X139375100Y-49039900D01*
X138915000Y-50000000D02*
X138915000Y-49500000D01*
X137243927Y-48828927D02*
X137250000Y-48835000D01*
X136624900Y-48828927D02*
X137243927Y-48828927D01*
X122245920Y-48830920D02*
X122250000Y-48835000D01*
X121624900Y-48830920D02*
X122245920Y-48830920D01*
%TO.N,MOSI*%
X121342051Y-50500000D02*
X121339900Y-50502151D01*
X122085000Y-50500000D02*
X121342051Y-50500000D01*
%TO.N,VDD*%
X123750000Y-48091040D02*
X123748696Y-48089736D01*
X123750000Y-48835000D02*
X123750000Y-48091040D01*
%TO.N,GND*%
X124375100Y-49039900D02*
X124375100Y-48830000D01*
X123915000Y-49500000D02*
X124375100Y-49039900D01*
X123915000Y-50000000D02*
X123915000Y-49500000D01*
%TO.N,MOSI*%
X106343818Y-50500000D02*
X106339900Y-50503918D01*
X107085000Y-50500000D02*
X106343818Y-50500000D01*
%TO.N,VDD*%
X108750000Y-48116966D02*
X108777086Y-48089880D01*
X108750000Y-48835000D02*
X108750000Y-48116966D01*
%TO.N,GND*%
X109375100Y-49039900D02*
X109375100Y-48835438D01*
X108915000Y-49500000D02*
X109375100Y-49039900D01*
X108915000Y-50000000D02*
X108915000Y-49500000D01*
X107239376Y-48824376D02*
X107250000Y-48835000D01*
X106624900Y-48824376D02*
X107239376Y-48824376D01*
X91624900Y-48840000D02*
X92245000Y-48840000D01*
X92245000Y-48840000D02*
X92250000Y-48835000D01*
%TO.N,VDD*%
X93750000Y-48098076D02*
X93758551Y-48089525D01*
X93750000Y-48835000D02*
X93750000Y-48098076D01*
%TO.N,GND*%
X94375100Y-49039900D02*
X94375100Y-48830000D01*
X93915000Y-49500000D02*
X94375100Y-49039900D01*
X93915000Y-50000000D02*
X93915000Y-49500000D01*
%TO.N,MOSI*%
X91344391Y-50500000D02*
X91339900Y-50504491D01*
X92085000Y-50500000D02*
X91344391Y-50500000D01*
%TO.N,GND*%
X77245000Y-48830000D02*
X77250000Y-48835000D01*
X76624900Y-48830000D02*
X77245000Y-48830000D01*
%TO.N,VDD*%
X78750000Y-48092909D02*
X78753876Y-48089033D01*
X78750000Y-48835000D02*
X78750000Y-48092909D01*
%TO.N,GND*%
X79375100Y-49039900D02*
X79375100Y-48845668D01*
X78915000Y-49500000D02*
X79375100Y-49039900D01*
X78915000Y-50000000D02*
X78915000Y-49500000D01*
%TO.N,MOSI*%
X76341039Y-50500000D02*
X76339900Y-50498861D01*
X77085000Y-50500000D02*
X76341039Y-50500000D01*
%TO.N,CLKIN*%
X78250000Y-48347020D02*
X78003867Y-48100887D01*
X78250000Y-48835000D02*
X78250000Y-48347020D01*
X93250000Y-48341433D02*
X93008521Y-48099954D01*
X93250000Y-48835000D02*
X93250000Y-48341433D01*
X108250000Y-48319417D02*
X108027012Y-48096429D01*
X108250000Y-48835000D02*
X108250000Y-48319417D01*
X123250000Y-48352734D02*
X122998684Y-48101418D01*
X123250000Y-48835000D02*
X123250000Y-48352734D01*
X138250000Y-48322585D02*
X138024316Y-48096901D01*
X138250000Y-48835000D02*
X138250000Y-48322585D01*
X153250000Y-48333050D02*
X153015513Y-48098563D01*
X153250000Y-48835000D02*
X153250000Y-48333050D01*
X168250000Y-48356601D02*
X167993818Y-48100419D01*
X168250000Y-48835000D02*
X168250000Y-48356601D01*
%TO.N,MOSI*%
X167820103Y-50500000D02*
X168000000Y-50320103D01*
X167085000Y-50500000D02*
X167820103Y-50500000D01*
%TO.N,CLK*%
X167570000Y-50000000D02*
X168000000Y-49570000D01*
X167085000Y-50000000D02*
X167570000Y-50000000D01*
%TO.N,MOSI*%
X152825695Y-50500000D02*
X153006931Y-50318764D01*
X152085000Y-50500000D02*
X152825695Y-50500000D01*
%TO.N,CLK*%
X152570456Y-50000000D02*
X153001777Y-49568679D01*
X152085000Y-50000000D02*
X152570456Y-50000000D01*
%TO.N,MOSI*%
X137815015Y-50500000D02*
X137984606Y-50330409D01*
X137085000Y-50500000D02*
X137815015Y-50500000D01*
%TO.N,CLK*%
X137572410Y-50000000D02*
X138003394Y-49569016D01*
X137085000Y-50000000D02*
X137572410Y-50000000D01*
%TO.N,MOSI*%
X122798648Y-50500000D02*
X122971832Y-50326816D01*
X122085000Y-50500000D02*
X122798648Y-50500000D01*
%TO.N,CLK*%
X122556043Y-50000000D02*
X122984635Y-49571408D01*
X122085000Y-50000000D02*
X122556043Y-50000000D01*
%TO.N,MOSI*%
X107815711Y-50500000D02*
X107993123Y-50322588D01*
X107085000Y-50500000D02*
X107815711Y-50500000D01*
%TO.N,CLK*%
X107573106Y-50000000D02*
X108003972Y-49569134D01*
X107085000Y-50000000D02*
X107573106Y-50000000D01*
%TO.N,MOSI*%
X92825232Y-50500000D02*
X93005655Y-50319577D01*
X92085000Y-50500000D02*
X92825232Y-50500000D01*
%TO.N,CLK*%
X92575129Y-50000000D02*
X93005654Y-49569475D01*
X92085000Y-50000000D02*
X92575129Y-50000000D01*
%TO.N,MOSI*%
X77801824Y-50500000D02*
X77973708Y-50328116D01*
X77085000Y-50500000D02*
X77801824Y-50500000D01*
%TO.N,CLK*%
X77559220Y-50000000D02*
X77988601Y-49570619D01*
X77085000Y-50000000D02*
X77559220Y-50000000D01*
%TO.N,Net-(J1-Pin_1)*%
X47500000Y-44250000D02*
X48420000Y-44250000D01*
%TO.N,Net-(J1-Pin_2)*%
X48885857Y-44830000D02*
X48955435Y-44899578D01*
X47580000Y-44830000D02*
X48885857Y-44830000D01*
X47500000Y-44750000D02*
X47580000Y-44830000D01*
%TO.N,Net-(J1-Pin_3)*%
X48245100Y-45250000D02*
X48420000Y-45424900D01*
X47500000Y-45250000D02*
X48245100Y-45250000D01*
%TO.N,Net-(J1-Pin_4)*%
X48938953Y-45950000D02*
X48958753Y-45969800D01*
X47500000Y-45750000D02*
X47880000Y-45750000D01*
X47880000Y-45750000D02*
X48080000Y-45950000D01*
X48080000Y-45950000D02*
X48938953Y-45950000D01*
%TO.N,Net-(J1-Pin_5)*%
X48422148Y-46494900D02*
X48422148Y-46359618D01*
%TO.N,Net-(J1-Pin_6)*%
X48974049Y-47020000D02*
X48977647Y-47023598D01*
X48180000Y-47020000D02*
X48974049Y-47020000D01*
X47500000Y-46750000D02*
X47910000Y-46750000D01*
X47910000Y-46750000D02*
X48180000Y-47020000D01*
%TO.N,Net-(J1-Pin_7)*%
X47980000Y-47250000D02*
X48150000Y-47420000D01*
X47500000Y-47250000D02*
X47980000Y-47250000D01*
X48150000Y-47420000D02*
X48312604Y-47420000D01*
X48312604Y-47420000D02*
X48441302Y-47548698D01*
%TO.N,Net-(J1-Pin_8)*%
X48314479Y-48164479D02*
X48970882Y-48164479D01*
X47900000Y-47750000D02*
X48314479Y-48164479D01*
X47500000Y-47750000D02*
X47900000Y-47750000D01*
%TO.N,Net-(J1-Pin_24)*%
X48866916Y-55750000D02*
X48957802Y-55659114D01*
X47500000Y-55750000D02*
X48866916Y-55750000D01*
%TO.N,Net-(J1-Pin_23)*%
X48300051Y-55250000D02*
X48416037Y-55134014D01*
X47500000Y-55250000D02*
X48300051Y-55250000D01*
%TO.N,Net-(J1-Pin_22)*%
X48259600Y-54600000D02*
X48259800Y-54600200D01*
X48060000Y-54600000D02*
X48259600Y-54600000D01*
X48259800Y-54600200D02*
X48943005Y-54600200D01*
X47926100Y-54733900D02*
X48060000Y-54600000D01*
X47516100Y-54733900D02*
X47926100Y-54733900D01*
X47500000Y-54750000D02*
X47516100Y-54733900D01*
%TO.N,Net-(J1-Pin_21)*%
X48230859Y-54250000D02*
X48405759Y-54075100D01*
X47500000Y-54250000D02*
X48230859Y-54250000D01*
%TO.N,Net-(J1-Pin_20)*%
X47930000Y-53750000D02*
X48130000Y-53550000D01*
X47500000Y-53750000D02*
X47930000Y-53750000D01*
X48130000Y-53550000D02*
X48955063Y-53550000D01*
X48955063Y-53550000D02*
X48963661Y-53541402D01*
%TO.N,Net-(J1-Pin_19)*%
X48192604Y-53250000D02*
X48426302Y-53016302D01*
X47500000Y-53250000D02*
X48192604Y-53250000D01*
%TO.N,Net-(J1-Pin_18)*%
X48936236Y-52390000D02*
X48948736Y-52377500D01*
X48310000Y-52390000D02*
X48936236Y-52390000D01*
X47500000Y-52750000D02*
X47950000Y-52750000D01*
X47950000Y-52750000D02*
X48310000Y-52390000D01*
%TO.N,Net-(J1-Pin_17)*%
X48013098Y-52250000D02*
X48410698Y-51852400D01*
X47500000Y-52250000D02*
X48013098Y-52250000D01*
%TO.N,CLKIN*%
X48342130Y-48750000D02*
X48402551Y-48689579D01*
X47500000Y-48750000D02*
X48342130Y-48750000D01*
%TO.N,GND*%
X47535321Y-49214679D02*
X48948019Y-49214679D01*
X47500000Y-49250000D02*
X47535321Y-49214679D01*
X47524907Y-49225093D02*
X47500000Y-49250000D01*
%TO.N,MISO*%
X48943650Y-51327300D02*
X48946643Y-51324307D01*
X47577300Y-51327300D02*
X48943650Y-51327300D01*
X47500000Y-51250000D02*
X47577300Y-51327300D01*
%TO.N,VDD*%
X48357843Y-50750000D02*
X48409043Y-50801200D01*
X47500000Y-50750000D02*
X48357843Y-50750000D01*
%TO.N,MOSI*%
X48954317Y-50276100D02*
X48964538Y-50265879D01*
X47526100Y-50276100D02*
X48954317Y-50276100D01*
X47500000Y-50250000D02*
X47526100Y-50276100D01*
%TO.N,CLK*%
X47500000Y-49750000D02*
X48420000Y-49750000D01*
%TO.N,Net-(J1-Pin_17)*%
X61297198Y-49500000D02*
X62085000Y-49500000D01*
X60928968Y-49131770D02*
X61297198Y-49500000D01*
%TO.N,CLK*%
X61464328Y-49881776D02*
X60917099Y-49881776D01*
X61582552Y-50000000D02*
X61464328Y-49881776D01*
X62085000Y-50000000D02*
X61582552Y-50000000D01*
X60917099Y-49881776D02*
X61010589Y-49975266D01*
X62060266Y-49975266D02*
X62085000Y-50000000D01*
%TO.N,VDD*%
X64151100Y-50736100D02*
X63915000Y-50500000D01*
X64151100Y-51536074D02*
X64151100Y-50736100D01*
X63511533Y-52175641D02*
X64151100Y-51536074D01*
X61460146Y-52175641D02*
X63511533Y-52175641D01*
X61075203Y-51790698D02*
X61460146Y-52175641D01*
X61075203Y-51203213D02*
X61075203Y-51790698D01*
%TO.N,MISO*%
X62162605Y-51165000D02*
X61678064Y-51649541D01*
X62250000Y-51165000D02*
X62162605Y-51165000D01*
%TO.N,VDD*%
X63750000Y-48095643D02*
X63756376Y-48089267D01*
X63750000Y-48835000D02*
X63750000Y-48095643D01*
%TO.N,CLKIN*%
X63250000Y-48344028D02*
X63006356Y-48100384D01*
X63250000Y-48835000D02*
X63250000Y-48344028D01*
%TO.N,GND*%
X62245000Y-48840000D02*
X62250000Y-48835000D01*
X61620000Y-48840000D02*
X62245000Y-48840000D01*
X64375100Y-49039900D02*
X64375100Y-48840000D01*
X63915000Y-49500000D02*
X64375100Y-49039900D01*
X63915000Y-50000000D02*
X63915000Y-49500000D01*
%TO.N,MOSI*%
X61341266Y-50500000D02*
X61339900Y-50501366D01*
X62085000Y-50500000D02*
X61341266Y-50500000D01*
%TO.N,CLK*%
X62566940Y-50000000D02*
X62998271Y-49568669D01*
X62085000Y-50000000D02*
X62566940Y-50000000D01*
%TO.N,MOSI*%
X62932406Y-50500000D02*
X63000900Y-50431506D01*
X62085000Y-50500000D02*
X62932406Y-50500000D01*
%TO.N,Net-(J1-Pin_5)*%
X48177248Y-46250000D02*
X48422148Y-46494900D01*
X47500000Y-46250000D02*
X48177248Y-46250000D01*
%TD*%
D19*
X48500000Y-41500000D02*
X41500000Y-41500000D01*
X40000000Y-43000000D02*
X40000000Y-57000000D01*
X170500000Y-53000000D02*
X170500000Y-47000000D01*
X50250000Y-57000000D02*
G75*
G02*
X48750000Y-58500000I-1500000J0D01*
G01*
X168500000Y-44750000D02*
G75*
G02*
X170500000Y-46750000I0J-2000000D01*
G01*
X170500000Y-53250000D02*
G75*
G02*
X168500000Y-55250000I-2000000J0D01*
G01*
X170500000Y-46750000D02*
X170500000Y-47000000D01*
X51750000Y-55250000D02*
X168500000Y-55250000D01*
X41500000Y-58500000D02*
X48500000Y-58500000D01*
X50250000Y-56750000D02*
G75*
G02*
X51750000Y-55250000I1500000J0D01*
G01*
X48750000Y-41500000D02*
X48500000Y-41500000D01*
X51750000Y-44750000D02*
G75*
G02*
X50250000Y-43250000I0J1500000D01*
G01*
X48750000Y-41500000D02*
G75*
G02*
X50250000Y-43000000I0J-1500000D01*
G01*
X170500000Y-53000000D02*
X170500000Y-53250000D01*
X50250000Y-43000000D02*
X50250000Y-43250000D01*
X41500000Y-58500000D02*
G75*
G02*
X40000000Y-57000000I0J1500000D01*
G01*
X168500000Y-44750000D02*
X51750000Y-44750000D01*
X40000000Y-43000000D02*
G75*
G02*
X41500000Y-41500000I1500000J0D01*
G01*
X48500000Y-58500000D02*
X48750000Y-58500000D01*
X50250000Y-56750000D02*
X50250000Y-57000000D01*
M02*
