M48
; DRILL file {KiCad 9.0.4} date 2025-09-05T14:42:31+0200
; FORMAT={-:-/ absolute / metric / decimal}
; #@! TF.CreationDate,2025-09-05T14:42:31+02:00
; #@! TF.GenerationSoftware,Kicad,Pcbnew,9.0.4
; #@! TF.FileFunction,Plated,1,4,PTH
FMAT,2
METRIC
; #@! TA.AperFunction,Plated,PTH,ViaDrill
T1C0.300
%
G90
G05
T1
X48.403Y-48.69
X48.406Y-54.075
X48.409Y-50.801
X48.411Y-51.852
X48.416Y-55.134
X48.42Y-44.25
X48.42Y-45.425
X48.42Y-49.75
X48.422Y-46.495
X48.426Y-53.016
X48.441Y-47.549
X48.943Y-54.6
X48.947Y-51.324
X48.948Y-49.215
X48.949Y-52.377
X48.955Y-44.9
X48.958Y-55.659
X48.959Y-45.97
X48.964Y-53.541
X48.965Y-50.266
X48.971Y-48.164
X48.978Y-47.024
X60.917Y-49.882
X60.929Y-49.132
X61.075Y-51.203
X61.18Y-47.658
X61.34Y-50.501
X61.62Y-48.84
X61.678Y-51.65
X62.254Y-48.09
X62.998Y-49.569
X63.001Y-50.432
X63.006Y-48.1
X63.756Y-48.089
X64.167Y-52.262
X64.375Y-48.84
X64.669Y-49.981
X64.676Y-50.731
X75.922Y-49.092
X75.981Y-49.84
X76.077Y-51.201
X76.34Y-50.499
X76.46Y-47.39
X76.625Y-48.83
X76.678Y-51.65
X77.254Y-48.089
X77.974Y-50.328
X77.989Y-49.571
X78.004Y-48.101
X78.754Y-48.089
X79.166Y-52.264
X79.375Y-48.846
X79.676Y-50.73
X79.679Y-49.979
X90.926Y-49.113
X90.937Y-49.867
X91.076Y-51.206
X91.34Y-50.504
X91.625Y-48.84
X91.679Y-51.652
X92.248Y-48.09
X93.0Y-47.349
X93.006Y-49.569
X93.006Y-50.32
X93.009Y-48.1
X93.759Y-48.09
X94.174Y-52.257
X94.375Y-48.83
X94.66Y-49.985
X94.676Y-50.743
X105.931Y-49.11
X105.94Y-49.869
X106.076Y-51.206
X106.34Y-50.504
X106.625Y-48.824
X106.679Y-51.651
X107.25Y-48.09
X107.993Y-50.323
X108.0Y-47.31
X108.004Y-49.569
X108.027Y-48.096
X108.777Y-48.09
X109.172Y-52.258
X109.375Y-48.835
X109.66Y-49.983
X109.676Y-50.733
X120.916Y-49.884
X120.939Y-49.134
X121.075Y-51.204
X121.34Y-50.502
X121.625Y-48.831
X121.678Y-51.65
X122.249Y-48.09
X122.972Y-50.327
X122.985Y-49.571
X122.999Y-48.101
X123.0Y-47.3
X123.749Y-48.09
X124.156Y-52.274
X124.375Y-48.83
X124.67Y-49.976
X124.676Y-50.726
X135.931Y-49.876
X135.934Y-49.122
X136.076Y-51.207
X136.34Y-50.505
X136.625Y-48.829
X136.679Y-51.652
X137.258Y-48.09
X137.985Y-50.33
X138.003Y-49.569
X138.01Y-47.24
X138.024Y-48.097
X138.774Y-48.09
X139.163Y-52.267
X139.375Y-48.84
X139.661Y-49.985
X139.676Y-50.735
X150.931Y-49.102
X150.947Y-49.861
X151.076Y-51.202
X151.34Y-50.5
X151.625Y-48.818
X151.678Y-51.65
X152.246Y-48.09
X153.002Y-49.569
X153.007Y-50.319
X153.01Y-47.28
X153.016Y-48.099
X153.766Y-48.09
X154.157Y-52.272
X154.375Y-48.843
X154.667Y-49.984
X154.676Y-50.734
X165.922Y-49.879
X165.935Y-49.129
X166.075Y-51.204
X166.34Y-50.502
X166.625Y-48.835
X166.678Y-51.65
X167.244Y-48.09
X167.994Y-48.1
X168.0Y-47.25
X168.0Y-49.57
X168.0Y-50.32
X168.744Y-48.089
X169.18Y-52.25
X169.38Y-48.83
M30
