%TF.GenerationSoftware,KiCad,Pcbnew,9.0.4*%
%TF.CreationDate,2025-09-05T14:42:26+02:00*%
%TF.ProjectId,Rigid Flex,52696769-6420-4466-9c65-782e6b696361,rev?*%
%TF.SameCoordinates,Original*%
%TF.FileFunction,Other,Comment*%
%FSLAX46Y46*%
G04 Gerber Fmt 4.6, Leading zero omitted, Abs format (unit mm)*
G04 Created by KiCad (PCBNEW 9.0.4) date 2025-09-05 14:42:26*
%MOMM*%
%LPD*%
G01*
G04 APERTURE LIST*
%ADD10C,0.150000*%
%ADD11C,0.100000*%
%TA.AperFunction,Profile*%
%ADD12C,0.050000*%
%TD*%
G04 APERTURE END LIST*
D10*
X99110588Y-57869819D02*
X98539160Y-57869819D01*
X98824874Y-57869819D02*
X98824874Y-56869819D01*
X98824874Y-56869819D02*
X98729636Y-57012676D01*
X98729636Y-57012676D02*
X98634398Y-57107914D01*
X98634398Y-57107914D02*
X98539160Y-57155533D01*
X99491541Y-56965057D02*
X99539160Y-56917438D01*
X99539160Y-56917438D02*
X99634398Y-56869819D01*
X99634398Y-56869819D02*
X99872493Y-56869819D01*
X99872493Y-56869819D02*
X99967731Y-56917438D01*
X99967731Y-56917438D02*
X100015350Y-56965057D01*
X100015350Y-56965057D02*
X100062969Y-57060295D01*
X100062969Y-57060295D02*
X100062969Y-57155533D01*
X100062969Y-57155533D02*
X100015350Y-57298390D01*
X100015350Y-57298390D02*
X99443922Y-57869819D01*
X99443922Y-57869819D02*
X100062969Y-57869819D01*
X100682017Y-56869819D02*
X100777255Y-56869819D01*
X100777255Y-56869819D02*
X100872493Y-56917438D01*
X100872493Y-56917438D02*
X100920112Y-56965057D01*
X100920112Y-56965057D02*
X100967731Y-57060295D01*
X100967731Y-57060295D02*
X101015350Y-57250771D01*
X101015350Y-57250771D02*
X101015350Y-57488866D01*
X101015350Y-57488866D02*
X100967731Y-57679342D01*
X100967731Y-57679342D02*
X100920112Y-57774580D01*
X100920112Y-57774580D02*
X100872493Y-57822200D01*
X100872493Y-57822200D02*
X100777255Y-57869819D01*
X100777255Y-57869819D02*
X100682017Y-57869819D01*
X100682017Y-57869819D02*
X100586779Y-57822200D01*
X100586779Y-57822200D02*
X100539160Y-57774580D01*
X100539160Y-57774580D02*
X100491541Y-57679342D01*
X100491541Y-57679342D02*
X100443922Y-57488866D01*
X100443922Y-57488866D02*
X100443922Y-57250771D01*
X100443922Y-57250771D02*
X100491541Y-57060295D01*
X100491541Y-57060295D02*
X100539160Y-56965057D01*
X100539160Y-56965057D02*
X100586779Y-56917438D01*
X100586779Y-56917438D02*
X100682017Y-56869819D01*
X101443922Y-57774580D02*
X101491541Y-57822200D01*
X101491541Y-57822200D02*
X101443922Y-57869819D01*
X101443922Y-57869819D02*
X101396303Y-57822200D01*
X101396303Y-57822200D02*
X101443922Y-57774580D01*
X101443922Y-57774580D02*
X101443922Y-57869819D01*
X101872493Y-56965057D02*
X101920112Y-56917438D01*
X101920112Y-56917438D02*
X102015350Y-56869819D01*
X102015350Y-56869819D02*
X102253445Y-56869819D01*
X102253445Y-56869819D02*
X102348683Y-56917438D01*
X102348683Y-56917438D02*
X102396302Y-56965057D01*
X102396302Y-56965057D02*
X102443921Y-57060295D01*
X102443921Y-57060295D02*
X102443921Y-57155533D01*
X102443921Y-57155533D02*
X102396302Y-57298390D01*
X102396302Y-57298390D02*
X101824874Y-57869819D01*
X101824874Y-57869819D02*
X102443921Y-57869819D01*
X103348683Y-56869819D02*
X102872493Y-56869819D01*
X102872493Y-56869819D02*
X102824874Y-57346009D01*
X102824874Y-57346009D02*
X102872493Y-57298390D01*
X102872493Y-57298390D02*
X102967731Y-57250771D01*
X102967731Y-57250771D02*
X103205826Y-57250771D01*
X103205826Y-57250771D02*
X103301064Y-57298390D01*
X103301064Y-57298390D02*
X103348683Y-57346009D01*
X103348683Y-57346009D02*
X103396302Y-57441247D01*
X103396302Y-57441247D02*
X103396302Y-57679342D01*
X103396302Y-57679342D02*
X103348683Y-57774580D01*
X103348683Y-57774580D02*
X103301064Y-57822200D01*
X103301064Y-57822200D02*
X103205826Y-57869819D01*
X103205826Y-57869819D02*
X102967731Y-57869819D01*
X102967731Y-57869819D02*
X102872493Y-57822200D01*
X102872493Y-57822200D02*
X102824874Y-57774580D01*
X104586779Y-57869819D02*
X104586779Y-57203152D01*
X104586779Y-57298390D02*
X104634398Y-57250771D01*
X104634398Y-57250771D02*
X104729636Y-57203152D01*
X104729636Y-57203152D02*
X104872493Y-57203152D01*
X104872493Y-57203152D02*
X104967731Y-57250771D01*
X104967731Y-57250771D02*
X105015350Y-57346009D01*
X105015350Y-57346009D02*
X105015350Y-57869819D01*
X105015350Y-57346009D02*
X105062969Y-57250771D01*
X105062969Y-57250771D02*
X105158207Y-57203152D01*
X105158207Y-57203152D02*
X105301064Y-57203152D01*
X105301064Y-57203152D02*
X105396303Y-57250771D01*
X105396303Y-57250771D02*
X105443922Y-57346009D01*
X105443922Y-57346009D02*
X105443922Y-57869819D01*
X105920112Y-57869819D02*
X105920112Y-57203152D01*
X105920112Y-57298390D02*
X105967731Y-57250771D01*
X105967731Y-57250771D02*
X106062969Y-57203152D01*
X106062969Y-57203152D02*
X106205826Y-57203152D01*
X106205826Y-57203152D02*
X106301064Y-57250771D01*
X106301064Y-57250771D02*
X106348683Y-57346009D01*
X106348683Y-57346009D02*
X106348683Y-57869819D01*
X106348683Y-57346009D02*
X106396302Y-57250771D01*
X106396302Y-57250771D02*
X106491540Y-57203152D01*
X106491540Y-57203152D02*
X106634397Y-57203152D01*
X106634397Y-57203152D02*
X106729636Y-57250771D01*
X106729636Y-57250771D02*
X106777255Y-57346009D01*
X106777255Y-57346009D02*
X106777255Y-57869819D01*
D11*
X50250000Y-58250000D02*
X50750000Y-58750000D01*
X50250000Y-58250000D02*
X50750000Y-57750000D01*
X170500000Y-58250000D02*
X170000000Y-58750000D01*
X170500000Y-58250000D02*
X170000000Y-57750000D01*
X50250000Y-58250000D02*
X170500000Y-58250000D01*
D10*
X172380180Y-47610588D02*
X172380180Y-47039160D01*
X172380180Y-47324874D02*
X173380180Y-47324874D01*
X173380180Y-47324874D02*
X173237323Y-47229636D01*
X173237323Y-47229636D02*
X173142085Y-47134398D01*
X173142085Y-47134398D02*
X173094466Y-47039160D01*
X173380180Y-48229636D02*
X173380180Y-48324874D01*
X173380180Y-48324874D02*
X173332561Y-48420112D01*
X173332561Y-48420112D02*
X173284942Y-48467731D01*
X173284942Y-48467731D02*
X173189704Y-48515350D01*
X173189704Y-48515350D02*
X172999228Y-48562969D01*
X172999228Y-48562969D02*
X172761133Y-48562969D01*
X172761133Y-48562969D02*
X172570657Y-48515350D01*
X172570657Y-48515350D02*
X172475419Y-48467731D01*
X172475419Y-48467731D02*
X172427800Y-48420112D01*
X172427800Y-48420112D02*
X172380180Y-48324874D01*
X172380180Y-48324874D02*
X172380180Y-48229636D01*
X172380180Y-48229636D02*
X172427800Y-48134398D01*
X172427800Y-48134398D02*
X172475419Y-48086779D01*
X172475419Y-48086779D02*
X172570657Y-48039160D01*
X172570657Y-48039160D02*
X172761133Y-47991541D01*
X172761133Y-47991541D02*
X172999228Y-47991541D01*
X172999228Y-47991541D02*
X173189704Y-48039160D01*
X173189704Y-48039160D02*
X173284942Y-48086779D01*
X173284942Y-48086779D02*
X173332561Y-48134398D01*
X173332561Y-48134398D02*
X173380180Y-48229636D01*
X172475419Y-48991541D02*
X172427800Y-49039160D01*
X172427800Y-49039160D02*
X172380180Y-48991541D01*
X172380180Y-48991541D02*
X172427800Y-48943922D01*
X172427800Y-48943922D02*
X172475419Y-48991541D01*
X172475419Y-48991541D02*
X172380180Y-48991541D01*
X173380180Y-49943921D02*
X173380180Y-49467731D01*
X173380180Y-49467731D02*
X172903990Y-49420112D01*
X172903990Y-49420112D02*
X172951609Y-49467731D01*
X172951609Y-49467731D02*
X172999228Y-49562969D01*
X172999228Y-49562969D02*
X172999228Y-49801064D01*
X172999228Y-49801064D02*
X172951609Y-49896302D01*
X172951609Y-49896302D02*
X172903990Y-49943921D01*
X172903990Y-49943921D02*
X172808752Y-49991540D01*
X172808752Y-49991540D02*
X172570657Y-49991540D01*
X172570657Y-49991540D02*
X172475419Y-49943921D01*
X172475419Y-49943921D02*
X172427800Y-49896302D01*
X172427800Y-49896302D02*
X172380180Y-49801064D01*
X172380180Y-49801064D02*
X172380180Y-49562969D01*
X172380180Y-49562969D02*
X172427800Y-49467731D01*
X172427800Y-49467731D02*
X172475419Y-49420112D01*
X172380180Y-51182017D02*
X173046847Y-51182017D01*
X172951609Y-51182017D02*
X172999228Y-51229636D01*
X172999228Y-51229636D02*
X173046847Y-51324874D01*
X173046847Y-51324874D02*
X173046847Y-51467731D01*
X173046847Y-51467731D02*
X172999228Y-51562969D01*
X172999228Y-51562969D02*
X172903990Y-51610588D01*
X172903990Y-51610588D02*
X172380180Y-51610588D01*
X172903990Y-51610588D02*
X172999228Y-51658207D01*
X172999228Y-51658207D02*
X173046847Y-51753445D01*
X173046847Y-51753445D02*
X173046847Y-51896302D01*
X173046847Y-51896302D02*
X172999228Y-51991541D01*
X172999228Y-51991541D02*
X172903990Y-52039160D01*
X172903990Y-52039160D02*
X172380180Y-52039160D01*
X172380180Y-52515350D02*
X173046847Y-52515350D01*
X172951609Y-52515350D02*
X172999228Y-52562969D01*
X172999228Y-52562969D02*
X173046847Y-52658207D01*
X173046847Y-52658207D02*
X173046847Y-52801064D01*
X173046847Y-52801064D02*
X172999228Y-52896302D01*
X172999228Y-52896302D02*
X172903990Y-52943921D01*
X172903990Y-52943921D02*
X172380180Y-52943921D01*
X172903990Y-52943921D02*
X172999228Y-52991540D01*
X172999228Y-52991540D02*
X173046847Y-53086778D01*
X173046847Y-53086778D02*
X173046847Y-53229635D01*
X173046847Y-53229635D02*
X172999228Y-53324874D01*
X172999228Y-53324874D02*
X172903990Y-53372493D01*
X172903990Y-53372493D02*
X172380180Y-53372493D01*
D11*
X172000000Y-44750000D02*
X172500000Y-45250000D01*
X172000000Y-44750000D02*
X171500000Y-45250000D01*
X172000000Y-55250000D02*
X171500000Y-54750000D01*
X172000000Y-55250000D02*
X172500000Y-54750000D01*
X172000000Y-44750000D02*
X172000000Y-55250000D01*
X40000000Y-40000000D02*
X40500000Y-40500000D01*
X40000000Y-40000000D02*
X40500000Y-39500000D01*
D10*
X100110588Y-41369819D02*
X99539160Y-41369819D01*
X99824874Y-41369819D02*
X99824874Y-40369819D01*
X99824874Y-40369819D02*
X99729636Y-40512676D01*
X99729636Y-40512676D02*
X99634398Y-40607914D01*
X99634398Y-40607914D02*
X99539160Y-40655533D01*
X100443922Y-40369819D02*
X101062969Y-40369819D01*
X101062969Y-40369819D02*
X100729636Y-40750771D01*
X100729636Y-40750771D02*
X100872493Y-40750771D01*
X100872493Y-40750771D02*
X100967731Y-40798390D01*
X100967731Y-40798390D02*
X101015350Y-40846009D01*
X101015350Y-40846009D02*
X101062969Y-40941247D01*
X101062969Y-40941247D02*
X101062969Y-41179342D01*
X101062969Y-41179342D02*
X101015350Y-41274580D01*
X101015350Y-41274580D02*
X100967731Y-41322200D01*
X100967731Y-41322200D02*
X100872493Y-41369819D01*
X100872493Y-41369819D02*
X100586779Y-41369819D01*
X100586779Y-41369819D02*
X100491541Y-41322200D01*
X100491541Y-41322200D02*
X100443922Y-41274580D01*
X101682017Y-40369819D02*
X101777255Y-40369819D01*
X101777255Y-40369819D02*
X101872493Y-40417438D01*
X101872493Y-40417438D02*
X101920112Y-40465057D01*
X101920112Y-40465057D02*
X101967731Y-40560295D01*
X101967731Y-40560295D02*
X102015350Y-40750771D01*
X102015350Y-40750771D02*
X102015350Y-40988866D01*
X102015350Y-40988866D02*
X101967731Y-41179342D01*
X101967731Y-41179342D02*
X101920112Y-41274580D01*
X101920112Y-41274580D02*
X101872493Y-41322200D01*
X101872493Y-41322200D02*
X101777255Y-41369819D01*
X101777255Y-41369819D02*
X101682017Y-41369819D01*
X101682017Y-41369819D02*
X101586779Y-41322200D01*
X101586779Y-41322200D02*
X101539160Y-41274580D01*
X101539160Y-41274580D02*
X101491541Y-41179342D01*
X101491541Y-41179342D02*
X101443922Y-40988866D01*
X101443922Y-40988866D02*
X101443922Y-40750771D01*
X101443922Y-40750771D02*
X101491541Y-40560295D01*
X101491541Y-40560295D02*
X101539160Y-40465057D01*
X101539160Y-40465057D02*
X101586779Y-40417438D01*
X101586779Y-40417438D02*
X101682017Y-40369819D01*
X102443922Y-41274580D02*
X102491541Y-41322200D01*
X102491541Y-41322200D02*
X102443922Y-41369819D01*
X102443922Y-41369819D02*
X102396303Y-41322200D01*
X102396303Y-41322200D02*
X102443922Y-41274580D01*
X102443922Y-41274580D02*
X102443922Y-41369819D01*
X103396302Y-40369819D02*
X102920112Y-40369819D01*
X102920112Y-40369819D02*
X102872493Y-40846009D01*
X102872493Y-40846009D02*
X102920112Y-40798390D01*
X102920112Y-40798390D02*
X103015350Y-40750771D01*
X103015350Y-40750771D02*
X103253445Y-40750771D01*
X103253445Y-40750771D02*
X103348683Y-40798390D01*
X103348683Y-40798390D02*
X103396302Y-40846009D01*
X103396302Y-40846009D02*
X103443921Y-40941247D01*
X103443921Y-40941247D02*
X103443921Y-41179342D01*
X103443921Y-41179342D02*
X103396302Y-41274580D01*
X103396302Y-41274580D02*
X103348683Y-41322200D01*
X103348683Y-41322200D02*
X103253445Y-41369819D01*
X103253445Y-41369819D02*
X103015350Y-41369819D01*
X103015350Y-41369819D02*
X102920112Y-41322200D01*
X102920112Y-41322200D02*
X102872493Y-41274580D01*
X104634398Y-41369819D02*
X104634398Y-40703152D01*
X104634398Y-40798390D02*
X104682017Y-40750771D01*
X104682017Y-40750771D02*
X104777255Y-40703152D01*
X104777255Y-40703152D02*
X104920112Y-40703152D01*
X104920112Y-40703152D02*
X105015350Y-40750771D01*
X105015350Y-40750771D02*
X105062969Y-40846009D01*
X105062969Y-40846009D02*
X105062969Y-41369819D01*
X105062969Y-40846009D02*
X105110588Y-40750771D01*
X105110588Y-40750771D02*
X105205826Y-40703152D01*
X105205826Y-40703152D02*
X105348683Y-40703152D01*
X105348683Y-40703152D02*
X105443922Y-40750771D01*
X105443922Y-40750771D02*
X105491541Y-40846009D01*
X105491541Y-40846009D02*
X105491541Y-41369819D01*
X105967731Y-41369819D02*
X105967731Y-40703152D01*
X105967731Y-40798390D02*
X106015350Y-40750771D01*
X106015350Y-40750771D02*
X106110588Y-40703152D01*
X106110588Y-40703152D02*
X106253445Y-40703152D01*
X106253445Y-40703152D02*
X106348683Y-40750771D01*
X106348683Y-40750771D02*
X106396302Y-40846009D01*
X106396302Y-40846009D02*
X106396302Y-41369819D01*
X106396302Y-40846009D02*
X106443921Y-40750771D01*
X106443921Y-40750771D02*
X106539159Y-40703152D01*
X106539159Y-40703152D02*
X106682016Y-40703152D01*
X106682016Y-40703152D02*
X106777255Y-40750771D01*
X106777255Y-40750771D02*
X106824874Y-40846009D01*
X106824874Y-40846009D02*
X106824874Y-41369819D01*
D11*
X170500000Y-40000000D02*
X170000000Y-39500000D01*
X170500000Y-40000000D02*
X170000000Y-40500000D01*
X40000000Y-40000000D02*
X170500000Y-40000000D01*
D10*
X42860588Y-61369819D02*
X42289160Y-61369819D01*
X42574874Y-61369819D02*
X42574874Y-60369819D01*
X42574874Y-60369819D02*
X42479636Y-60512676D01*
X42479636Y-60512676D02*
X42384398Y-60607914D01*
X42384398Y-60607914D02*
X42289160Y-60655533D01*
X43479636Y-60369819D02*
X43574874Y-60369819D01*
X43574874Y-60369819D02*
X43670112Y-60417438D01*
X43670112Y-60417438D02*
X43717731Y-60465057D01*
X43717731Y-60465057D02*
X43765350Y-60560295D01*
X43765350Y-60560295D02*
X43812969Y-60750771D01*
X43812969Y-60750771D02*
X43812969Y-60988866D01*
X43812969Y-60988866D02*
X43765350Y-61179342D01*
X43765350Y-61179342D02*
X43717731Y-61274580D01*
X43717731Y-61274580D02*
X43670112Y-61322200D01*
X43670112Y-61322200D02*
X43574874Y-61369819D01*
X43574874Y-61369819D02*
X43479636Y-61369819D01*
X43479636Y-61369819D02*
X43384398Y-61322200D01*
X43384398Y-61322200D02*
X43336779Y-61274580D01*
X43336779Y-61274580D02*
X43289160Y-61179342D01*
X43289160Y-61179342D02*
X43241541Y-60988866D01*
X43241541Y-60988866D02*
X43241541Y-60750771D01*
X43241541Y-60750771D02*
X43289160Y-60560295D01*
X43289160Y-60560295D02*
X43336779Y-60465057D01*
X43336779Y-60465057D02*
X43384398Y-60417438D01*
X43384398Y-60417438D02*
X43479636Y-60369819D01*
X44241541Y-61274580D02*
X44289160Y-61322200D01*
X44289160Y-61322200D02*
X44241541Y-61369819D01*
X44241541Y-61369819D02*
X44193922Y-61322200D01*
X44193922Y-61322200D02*
X44241541Y-61274580D01*
X44241541Y-61274580D02*
X44241541Y-61369819D01*
X44670112Y-60465057D02*
X44717731Y-60417438D01*
X44717731Y-60417438D02*
X44812969Y-60369819D01*
X44812969Y-60369819D02*
X45051064Y-60369819D01*
X45051064Y-60369819D02*
X45146302Y-60417438D01*
X45146302Y-60417438D02*
X45193921Y-60465057D01*
X45193921Y-60465057D02*
X45241540Y-60560295D01*
X45241540Y-60560295D02*
X45241540Y-60655533D01*
X45241540Y-60655533D02*
X45193921Y-60798390D01*
X45193921Y-60798390D02*
X44622493Y-61369819D01*
X44622493Y-61369819D02*
X45241540Y-61369819D01*
X46146302Y-60369819D02*
X45670112Y-60369819D01*
X45670112Y-60369819D02*
X45622493Y-60846009D01*
X45622493Y-60846009D02*
X45670112Y-60798390D01*
X45670112Y-60798390D02*
X45765350Y-60750771D01*
X45765350Y-60750771D02*
X46003445Y-60750771D01*
X46003445Y-60750771D02*
X46098683Y-60798390D01*
X46098683Y-60798390D02*
X46146302Y-60846009D01*
X46146302Y-60846009D02*
X46193921Y-60941247D01*
X46193921Y-60941247D02*
X46193921Y-61179342D01*
X46193921Y-61179342D02*
X46146302Y-61274580D01*
X46146302Y-61274580D02*
X46098683Y-61322200D01*
X46098683Y-61322200D02*
X46003445Y-61369819D01*
X46003445Y-61369819D02*
X45765350Y-61369819D01*
X45765350Y-61369819D02*
X45670112Y-61322200D01*
X45670112Y-61322200D02*
X45622493Y-61274580D01*
X46622493Y-61369819D02*
X46622493Y-60703152D01*
X46622493Y-60798390D02*
X46670112Y-60750771D01*
X46670112Y-60750771D02*
X46765350Y-60703152D01*
X46765350Y-60703152D02*
X46908207Y-60703152D01*
X46908207Y-60703152D02*
X47003445Y-60750771D01*
X47003445Y-60750771D02*
X47051064Y-60846009D01*
X47051064Y-60846009D02*
X47051064Y-61369819D01*
X47051064Y-60846009D02*
X47098683Y-60750771D01*
X47098683Y-60750771D02*
X47193921Y-60703152D01*
X47193921Y-60703152D02*
X47336778Y-60703152D01*
X47336778Y-60703152D02*
X47432017Y-60750771D01*
X47432017Y-60750771D02*
X47479636Y-60846009D01*
X47479636Y-60846009D02*
X47479636Y-61369819D01*
X47955826Y-61369819D02*
X47955826Y-60703152D01*
X47955826Y-60798390D02*
X48003445Y-60750771D01*
X48003445Y-60750771D02*
X48098683Y-60703152D01*
X48098683Y-60703152D02*
X48241540Y-60703152D01*
X48241540Y-60703152D02*
X48336778Y-60750771D01*
X48336778Y-60750771D02*
X48384397Y-60846009D01*
X48384397Y-60846009D02*
X48384397Y-61369819D01*
X48384397Y-60846009D02*
X48432016Y-60750771D01*
X48432016Y-60750771D02*
X48527254Y-60703152D01*
X48527254Y-60703152D02*
X48670111Y-60703152D01*
X48670111Y-60703152D02*
X48765350Y-60750771D01*
X48765350Y-60750771D02*
X48812969Y-60846009D01*
X48812969Y-60846009D02*
X48812969Y-61369819D01*
D11*
X40000000Y-60000000D02*
X40500000Y-60500000D01*
X40000000Y-60000000D02*
X40500000Y-59500000D01*
X50250000Y-60000000D02*
X49750000Y-60500000D01*
X49750000Y-59500000D02*
X50250000Y-60000000D01*
X50250000Y-60000000D02*
X49750000Y-59500000D01*
X40000000Y-60000000D02*
X50250000Y-60000000D01*
D10*
X37380180Y-48110588D02*
X37380180Y-47539160D01*
X37380180Y-47824874D02*
X38380180Y-47824874D01*
X38380180Y-47824874D02*
X38237323Y-47729636D01*
X38237323Y-47729636D02*
X38142085Y-47634398D01*
X38142085Y-47634398D02*
X38094466Y-47539160D01*
X38380180Y-48443922D02*
X38380180Y-49110588D01*
X38380180Y-49110588D02*
X37380180Y-48682017D01*
X37380180Y-50253446D02*
X38046847Y-50253446D01*
X37951609Y-50253446D02*
X37999228Y-50301065D01*
X37999228Y-50301065D02*
X38046847Y-50396303D01*
X38046847Y-50396303D02*
X38046847Y-50539160D01*
X38046847Y-50539160D02*
X37999228Y-50634398D01*
X37999228Y-50634398D02*
X37903990Y-50682017D01*
X37903990Y-50682017D02*
X37380180Y-50682017D01*
X37903990Y-50682017D02*
X37999228Y-50729636D01*
X37999228Y-50729636D02*
X38046847Y-50824874D01*
X38046847Y-50824874D02*
X38046847Y-50967731D01*
X38046847Y-50967731D02*
X37999228Y-51062970D01*
X37999228Y-51062970D02*
X37903990Y-51110589D01*
X37903990Y-51110589D02*
X37380180Y-51110589D01*
X37380180Y-51586779D02*
X38046847Y-51586779D01*
X37951609Y-51586779D02*
X37999228Y-51634398D01*
X37999228Y-51634398D02*
X38046847Y-51729636D01*
X38046847Y-51729636D02*
X38046847Y-51872493D01*
X38046847Y-51872493D02*
X37999228Y-51967731D01*
X37999228Y-51967731D02*
X37903990Y-52015350D01*
X37903990Y-52015350D02*
X37380180Y-52015350D01*
X37903990Y-52015350D02*
X37999228Y-52062969D01*
X37999228Y-52062969D02*
X38046847Y-52158207D01*
X38046847Y-52158207D02*
X38046847Y-52301064D01*
X38046847Y-52301064D02*
X37999228Y-52396303D01*
X37999228Y-52396303D02*
X37903990Y-52443922D01*
X37903990Y-52443922D02*
X37380180Y-52443922D01*
D11*
X38750000Y-41500000D02*
X39250000Y-42000000D01*
X38750000Y-41500000D02*
X38250000Y-42000000D01*
X38250000Y-58000000D02*
X38750000Y-58500000D01*
X39250000Y-58000000D02*
X38750000Y-58500000D01*
X38750000Y-58500000D02*
X39250000Y-58000000D01*
X38750000Y-41500000D02*
X38750000Y-58500000D01*
D10*
X44630180Y-46408207D02*
X45106371Y-46074874D01*
X44630180Y-45836779D02*
X45630180Y-45836779D01*
X45630180Y-45836779D02*
X45630180Y-46217731D01*
X45630180Y-46217731D02*
X45582561Y-46312969D01*
X45582561Y-46312969D02*
X45534942Y-46360588D01*
X45534942Y-46360588D02*
X45439704Y-46408207D01*
X45439704Y-46408207D02*
X45296847Y-46408207D01*
X45296847Y-46408207D02*
X45201609Y-46360588D01*
X45201609Y-46360588D02*
X45153990Y-46312969D01*
X45153990Y-46312969D02*
X45106371Y-46217731D01*
X45106371Y-46217731D02*
X45106371Y-45836779D01*
X44630180Y-46836779D02*
X45296847Y-46836779D01*
X45630180Y-46836779D02*
X45582561Y-46789160D01*
X45582561Y-46789160D02*
X45534942Y-46836779D01*
X45534942Y-46836779D02*
X45582561Y-46884398D01*
X45582561Y-46884398D02*
X45630180Y-46836779D01*
X45630180Y-46836779D02*
X45534942Y-46836779D01*
X45296847Y-47741540D02*
X44487323Y-47741540D01*
X44487323Y-47741540D02*
X44392085Y-47693921D01*
X44392085Y-47693921D02*
X44344466Y-47646302D01*
X44344466Y-47646302D02*
X44296847Y-47551064D01*
X44296847Y-47551064D02*
X44296847Y-47408207D01*
X44296847Y-47408207D02*
X44344466Y-47312969D01*
X44677800Y-47741540D02*
X44630180Y-47646302D01*
X44630180Y-47646302D02*
X44630180Y-47455826D01*
X44630180Y-47455826D02*
X44677800Y-47360588D01*
X44677800Y-47360588D02*
X44725419Y-47312969D01*
X44725419Y-47312969D02*
X44820657Y-47265350D01*
X44820657Y-47265350D02*
X45106371Y-47265350D01*
X45106371Y-47265350D02*
X45201609Y-47312969D01*
X45201609Y-47312969D02*
X45249228Y-47360588D01*
X45249228Y-47360588D02*
X45296847Y-47455826D01*
X45296847Y-47455826D02*
X45296847Y-47646302D01*
X45296847Y-47646302D02*
X45249228Y-47741540D01*
X44630180Y-48217731D02*
X45296847Y-48217731D01*
X45630180Y-48217731D02*
X45582561Y-48170112D01*
X45582561Y-48170112D02*
X45534942Y-48217731D01*
X45534942Y-48217731D02*
X45582561Y-48265350D01*
X45582561Y-48265350D02*
X45630180Y-48217731D01*
X45630180Y-48217731D02*
X45534942Y-48217731D01*
X44630180Y-49122492D02*
X45630180Y-49122492D01*
X44677800Y-49122492D02*
X44630180Y-49027254D01*
X44630180Y-49027254D02*
X44630180Y-48836778D01*
X44630180Y-48836778D02*
X44677800Y-48741540D01*
X44677800Y-48741540D02*
X44725419Y-48693921D01*
X44725419Y-48693921D02*
X44820657Y-48646302D01*
X44820657Y-48646302D02*
X45106371Y-48646302D01*
X45106371Y-48646302D02*
X45201609Y-48693921D01*
X45201609Y-48693921D02*
X45249228Y-48741540D01*
X45249228Y-48741540D02*
X45296847Y-48836778D01*
X45296847Y-48836778D02*
X45296847Y-49027254D01*
X45296847Y-49027254D02*
X45249228Y-49122492D01*
X44677800Y-50312969D02*
X44630180Y-50455826D01*
X44630180Y-50455826D02*
X44630180Y-50693921D01*
X44630180Y-50693921D02*
X44677800Y-50789159D01*
X44677800Y-50789159D02*
X44725419Y-50836778D01*
X44725419Y-50836778D02*
X44820657Y-50884397D01*
X44820657Y-50884397D02*
X44915895Y-50884397D01*
X44915895Y-50884397D02*
X45011133Y-50836778D01*
X45011133Y-50836778D02*
X45058752Y-50789159D01*
X45058752Y-50789159D02*
X45106371Y-50693921D01*
X45106371Y-50693921D02*
X45153990Y-50503445D01*
X45153990Y-50503445D02*
X45201609Y-50408207D01*
X45201609Y-50408207D02*
X45249228Y-50360588D01*
X45249228Y-50360588D02*
X45344466Y-50312969D01*
X45344466Y-50312969D02*
X45439704Y-50312969D01*
X45439704Y-50312969D02*
X45534942Y-50360588D01*
X45534942Y-50360588D02*
X45582561Y-50408207D01*
X45582561Y-50408207D02*
X45630180Y-50503445D01*
X45630180Y-50503445D02*
X45630180Y-50741540D01*
X45630180Y-50741540D02*
X45582561Y-50884397D01*
X44677800Y-51693921D02*
X44630180Y-51598683D01*
X44630180Y-51598683D02*
X44630180Y-51408207D01*
X44630180Y-51408207D02*
X44677800Y-51312969D01*
X44677800Y-51312969D02*
X44773038Y-51265350D01*
X44773038Y-51265350D02*
X45153990Y-51265350D01*
X45153990Y-51265350D02*
X45249228Y-51312969D01*
X45249228Y-51312969D02*
X45296847Y-51408207D01*
X45296847Y-51408207D02*
X45296847Y-51598683D01*
X45296847Y-51598683D02*
X45249228Y-51693921D01*
X45249228Y-51693921D02*
X45153990Y-51741540D01*
X45153990Y-51741540D02*
X45058752Y-51741540D01*
X45058752Y-51741540D02*
X44963514Y-51265350D01*
X44677800Y-52598683D02*
X44630180Y-52503445D01*
X44630180Y-52503445D02*
X44630180Y-52312969D01*
X44630180Y-52312969D02*
X44677800Y-52217731D01*
X44677800Y-52217731D02*
X44725419Y-52170112D01*
X44725419Y-52170112D02*
X44820657Y-52122493D01*
X44820657Y-52122493D02*
X45106371Y-52122493D01*
X45106371Y-52122493D02*
X45201609Y-52170112D01*
X45201609Y-52170112D02*
X45249228Y-52217731D01*
X45249228Y-52217731D02*
X45296847Y-52312969D01*
X45296847Y-52312969D02*
X45296847Y-52503445D01*
X45296847Y-52503445D02*
X45249228Y-52598683D01*
X45296847Y-52884398D02*
X45296847Y-53265350D01*
X45630180Y-53027255D02*
X44773038Y-53027255D01*
X44773038Y-53027255D02*
X44677800Y-53074874D01*
X44677800Y-53074874D02*
X44630180Y-53170112D01*
X44630180Y-53170112D02*
X44630180Y-53265350D01*
X44630180Y-53598684D02*
X45296847Y-53598684D01*
X45630180Y-53598684D02*
X45582561Y-53551065D01*
X45582561Y-53551065D02*
X45534942Y-53598684D01*
X45534942Y-53598684D02*
X45582561Y-53646303D01*
X45582561Y-53646303D02*
X45630180Y-53598684D01*
X45630180Y-53598684D02*
X45534942Y-53598684D01*
X44630180Y-54217731D02*
X44677800Y-54122493D01*
X44677800Y-54122493D02*
X44725419Y-54074874D01*
X44725419Y-54074874D02*
X44820657Y-54027255D01*
X44820657Y-54027255D02*
X45106371Y-54027255D01*
X45106371Y-54027255D02*
X45201609Y-54074874D01*
X45201609Y-54074874D02*
X45249228Y-54122493D01*
X45249228Y-54122493D02*
X45296847Y-54217731D01*
X45296847Y-54217731D02*
X45296847Y-54360588D01*
X45296847Y-54360588D02*
X45249228Y-54455826D01*
X45249228Y-54455826D02*
X45201609Y-54503445D01*
X45201609Y-54503445D02*
X45106371Y-54551064D01*
X45106371Y-54551064D02*
X44820657Y-54551064D01*
X44820657Y-54551064D02*
X44725419Y-54503445D01*
X44725419Y-54503445D02*
X44677800Y-54455826D01*
X44677800Y-54455826D02*
X44630180Y-54360588D01*
X44630180Y-54360588D02*
X44630180Y-54217731D01*
X45296847Y-54979636D02*
X44630180Y-54979636D01*
X45201609Y-54979636D02*
X45249228Y-55027255D01*
X45249228Y-55027255D02*
X45296847Y-55122493D01*
X45296847Y-55122493D02*
X45296847Y-55265350D01*
X45296847Y-55265350D02*
X45249228Y-55360588D01*
X45249228Y-55360588D02*
X45153990Y-55408207D01*
X45153990Y-55408207D02*
X44630180Y-55408207D01*
X62380180Y-45908207D02*
X62856371Y-45574874D01*
X62380180Y-45336779D02*
X63380180Y-45336779D01*
X63380180Y-45336779D02*
X63380180Y-45717731D01*
X63380180Y-45717731D02*
X63332561Y-45812969D01*
X63332561Y-45812969D02*
X63284942Y-45860588D01*
X63284942Y-45860588D02*
X63189704Y-45908207D01*
X63189704Y-45908207D02*
X63046847Y-45908207D01*
X63046847Y-45908207D02*
X62951609Y-45860588D01*
X62951609Y-45860588D02*
X62903990Y-45812969D01*
X62903990Y-45812969D02*
X62856371Y-45717731D01*
X62856371Y-45717731D02*
X62856371Y-45336779D01*
X62380180Y-46336779D02*
X63046847Y-46336779D01*
X63380180Y-46336779D02*
X63332561Y-46289160D01*
X63332561Y-46289160D02*
X63284942Y-46336779D01*
X63284942Y-46336779D02*
X63332561Y-46384398D01*
X63332561Y-46384398D02*
X63380180Y-46336779D01*
X63380180Y-46336779D02*
X63284942Y-46336779D01*
X63046847Y-47241540D02*
X62237323Y-47241540D01*
X62237323Y-47241540D02*
X62142085Y-47193921D01*
X62142085Y-47193921D02*
X62094466Y-47146302D01*
X62094466Y-47146302D02*
X62046847Y-47051064D01*
X62046847Y-47051064D02*
X62046847Y-46908207D01*
X62046847Y-46908207D02*
X62094466Y-46812969D01*
X62427800Y-47241540D02*
X62380180Y-47146302D01*
X62380180Y-47146302D02*
X62380180Y-46955826D01*
X62380180Y-46955826D02*
X62427800Y-46860588D01*
X62427800Y-46860588D02*
X62475419Y-46812969D01*
X62475419Y-46812969D02*
X62570657Y-46765350D01*
X62570657Y-46765350D02*
X62856371Y-46765350D01*
X62856371Y-46765350D02*
X62951609Y-46812969D01*
X62951609Y-46812969D02*
X62999228Y-46860588D01*
X62999228Y-46860588D02*
X63046847Y-46955826D01*
X63046847Y-46955826D02*
X63046847Y-47146302D01*
X63046847Y-47146302D02*
X62999228Y-47241540D01*
X62380180Y-47717731D02*
X63046847Y-47717731D01*
X63380180Y-47717731D02*
X63332561Y-47670112D01*
X63332561Y-47670112D02*
X63284942Y-47717731D01*
X63284942Y-47717731D02*
X63332561Y-47765350D01*
X63332561Y-47765350D02*
X63380180Y-47717731D01*
X63380180Y-47717731D02*
X63284942Y-47717731D01*
X62380180Y-48622492D02*
X63380180Y-48622492D01*
X62427800Y-48622492D02*
X62380180Y-48527254D01*
X62380180Y-48527254D02*
X62380180Y-48336778D01*
X62380180Y-48336778D02*
X62427800Y-48241540D01*
X62427800Y-48241540D02*
X62475419Y-48193921D01*
X62475419Y-48193921D02*
X62570657Y-48146302D01*
X62570657Y-48146302D02*
X62856371Y-48146302D01*
X62856371Y-48146302D02*
X62951609Y-48193921D01*
X62951609Y-48193921D02*
X62999228Y-48241540D01*
X62999228Y-48241540D02*
X63046847Y-48336778D01*
X63046847Y-48336778D02*
X63046847Y-48527254D01*
X63046847Y-48527254D02*
X62999228Y-48622492D01*
X62427800Y-49812969D02*
X62380180Y-49955826D01*
X62380180Y-49955826D02*
X62380180Y-50193921D01*
X62380180Y-50193921D02*
X62427800Y-50289159D01*
X62427800Y-50289159D02*
X62475419Y-50336778D01*
X62475419Y-50336778D02*
X62570657Y-50384397D01*
X62570657Y-50384397D02*
X62665895Y-50384397D01*
X62665895Y-50384397D02*
X62761133Y-50336778D01*
X62761133Y-50336778D02*
X62808752Y-50289159D01*
X62808752Y-50289159D02*
X62856371Y-50193921D01*
X62856371Y-50193921D02*
X62903990Y-50003445D01*
X62903990Y-50003445D02*
X62951609Y-49908207D01*
X62951609Y-49908207D02*
X62999228Y-49860588D01*
X62999228Y-49860588D02*
X63094466Y-49812969D01*
X63094466Y-49812969D02*
X63189704Y-49812969D01*
X63189704Y-49812969D02*
X63284942Y-49860588D01*
X63284942Y-49860588D02*
X63332561Y-49908207D01*
X63332561Y-49908207D02*
X63380180Y-50003445D01*
X63380180Y-50003445D02*
X63380180Y-50241540D01*
X63380180Y-50241540D02*
X63332561Y-50384397D01*
X62427800Y-51193921D02*
X62380180Y-51098683D01*
X62380180Y-51098683D02*
X62380180Y-50908207D01*
X62380180Y-50908207D02*
X62427800Y-50812969D01*
X62427800Y-50812969D02*
X62523038Y-50765350D01*
X62523038Y-50765350D02*
X62903990Y-50765350D01*
X62903990Y-50765350D02*
X62999228Y-50812969D01*
X62999228Y-50812969D02*
X63046847Y-50908207D01*
X63046847Y-50908207D02*
X63046847Y-51098683D01*
X63046847Y-51098683D02*
X62999228Y-51193921D01*
X62999228Y-51193921D02*
X62903990Y-51241540D01*
X62903990Y-51241540D02*
X62808752Y-51241540D01*
X62808752Y-51241540D02*
X62713514Y-50765350D01*
X62427800Y-52098683D02*
X62380180Y-52003445D01*
X62380180Y-52003445D02*
X62380180Y-51812969D01*
X62380180Y-51812969D02*
X62427800Y-51717731D01*
X62427800Y-51717731D02*
X62475419Y-51670112D01*
X62475419Y-51670112D02*
X62570657Y-51622493D01*
X62570657Y-51622493D02*
X62856371Y-51622493D01*
X62856371Y-51622493D02*
X62951609Y-51670112D01*
X62951609Y-51670112D02*
X62999228Y-51717731D01*
X62999228Y-51717731D02*
X63046847Y-51812969D01*
X63046847Y-51812969D02*
X63046847Y-52003445D01*
X63046847Y-52003445D02*
X62999228Y-52098683D01*
X63046847Y-52384398D02*
X63046847Y-52765350D01*
X63380180Y-52527255D02*
X62523038Y-52527255D01*
X62523038Y-52527255D02*
X62427800Y-52574874D01*
X62427800Y-52574874D02*
X62380180Y-52670112D01*
X62380180Y-52670112D02*
X62380180Y-52765350D01*
X62380180Y-53098684D02*
X63046847Y-53098684D01*
X63380180Y-53098684D02*
X63332561Y-53051065D01*
X63332561Y-53051065D02*
X63284942Y-53098684D01*
X63284942Y-53098684D02*
X63332561Y-53146303D01*
X63332561Y-53146303D02*
X63380180Y-53098684D01*
X63380180Y-53098684D02*
X63284942Y-53098684D01*
X62380180Y-53717731D02*
X62427800Y-53622493D01*
X62427800Y-53622493D02*
X62475419Y-53574874D01*
X62475419Y-53574874D02*
X62570657Y-53527255D01*
X62570657Y-53527255D02*
X62856371Y-53527255D01*
X62856371Y-53527255D02*
X62951609Y-53574874D01*
X62951609Y-53574874D02*
X62999228Y-53622493D01*
X62999228Y-53622493D02*
X63046847Y-53717731D01*
X63046847Y-53717731D02*
X63046847Y-53860588D01*
X63046847Y-53860588D02*
X62999228Y-53955826D01*
X62999228Y-53955826D02*
X62951609Y-54003445D01*
X62951609Y-54003445D02*
X62856371Y-54051064D01*
X62856371Y-54051064D02*
X62570657Y-54051064D01*
X62570657Y-54051064D02*
X62475419Y-54003445D01*
X62475419Y-54003445D02*
X62427800Y-53955826D01*
X62427800Y-53955826D02*
X62380180Y-53860588D01*
X62380180Y-53860588D02*
X62380180Y-53717731D01*
X63046847Y-54479636D02*
X62380180Y-54479636D01*
X62951609Y-54479636D02*
X62999228Y-54527255D01*
X62999228Y-54527255D02*
X63046847Y-54622493D01*
X63046847Y-54622493D02*
X63046847Y-54765350D01*
X63046847Y-54765350D02*
X62999228Y-54860588D01*
X62999228Y-54860588D02*
X62903990Y-54908207D01*
X62903990Y-54908207D02*
X62380180Y-54908207D01*
X77380180Y-45908207D02*
X77856371Y-45574874D01*
X77380180Y-45336779D02*
X78380180Y-45336779D01*
X78380180Y-45336779D02*
X78380180Y-45717731D01*
X78380180Y-45717731D02*
X78332561Y-45812969D01*
X78332561Y-45812969D02*
X78284942Y-45860588D01*
X78284942Y-45860588D02*
X78189704Y-45908207D01*
X78189704Y-45908207D02*
X78046847Y-45908207D01*
X78046847Y-45908207D02*
X77951609Y-45860588D01*
X77951609Y-45860588D02*
X77903990Y-45812969D01*
X77903990Y-45812969D02*
X77856371Y-45717731D01*
X77856371Y-45717731D02*
X77856371Y-45336779D01*
X77380180Y-46336779D02*
X78046847Y-46336779D01*
X78380180Y-46336779D02*
X78332561Y-46289160D01*
X78332561Y-46289160D02*
X78284942Y-46336779D01*
X78284942Y-46336779D02*
X78332561Y-46384398D01*
X78332561Y-46384398D02*
X78380180Y-46336779D01*
X78380180Y-46336779D02*
X78284942Y-46336779D01*
X78046847Y-47241540D02*
X77237323Y-47241540D01*
X77237323Y-47241540D02*
X77142085Y-47193921D01*
X77142085Y-47193921D02*
X77094466Y-47146302D01*
X77094466Y-47146302D02*
X77046847Y-47051064D01*
X77046847Y-47051064D02*
X77046847Y-46908207D01*
X77046847Y-46908207D02*
X77094466Y-46812969D01*
X77427800Y-47241540D02*
X77380180Y-47146302D01*
X77380180Y-47146302D02*
X77380180Y-46955826D01*
X77380180Y-46955826D02*
X77427800Y-46860588D01*
X77427800Y-46860588D02*
X77475419Y-46812969D01*
X77475419Y-46812969D02*
X77570657Y-46765350D01*
X77570657Y-46765350D02*
X77856371Y-46765350D01*
X77856371Y-46765350D02*
X77951609Y-46812969D01*
X77951609Y-46812969D02*
X77999228Y-46860588D01*
X77999228Y-46860588D02*
X78046847Y-46955826D01*
X78046847Y-46955826D02*
X78046847Y-47146302D01*
X78046847Y-47146302D02*
X77999228Y-47241540D01*
X77380180Y-47717731D02*
X78046847Y-47717731D01*
X78380180Y-47717731D02*
X78332561Y-47670112D01*
X78332561Y-47670112D02*
X78284942Y-47717731D01*
X78284942Y-47717731D02*
X78332561Y-47765350D01*
X78332561Y-47765350D02*
X78380180Y-47717731D01*
X78380180Y-47717731D02*
X78284942Y-47717731D01*
X77380180Y-48622492D02*
X78380180Y-48622492D01*
X77427800Y-48622492D02*
X77380180Y-48527254D01*
X77380180Y-48527254D02*
X77380180Y-48336778D01*
X77380180Y-48336778D02*
X77427800Y-48241540D01*
X77427800Y-48241540D02*
X77475419Y-48193921D01*
X77475419Y-48193921D02*
X77570657Y-48146302D01*
X77570657Y-48146302D02*
X77856371Y-48146302D01*
X77856371Y-48146302D02*
X77951609Y-48193921D01*
X77951609Y-48193921D02*
X77999228Y-48241540D01*
X77999228Y-48241540D02*
X78046847Y-48336778D01*
X78046847Y-48336778D02*
X78046847Y-48527254D01*
X78046847Y-48527254D02*
X77999228Y-48622492D01*
X77427800Y-49812969D02*
X77380180Y-49955826D01*
X77380180Y-49955826D02*
X77380180Y-50193921D01*
X77380180Y-50193921D02*
X77427800Y-50289159D01*
X77427800Y-50289159D02*
X77475419Y-50336778D01*
X77475419Y-50336778D02*
X77570657Y-50384397D01*
X77570657Y-50384397D02*
X77665895Y-50384397D01*
X77665895Y-50384397D02*
X77761133Y-50336778D01*
X77761133Y-50336778D02*
X77808752Y-50289159D01*
X77808752Y-50289159D02*
X77856371Y-50193921D01*
X77856371Y-50193921D02*
X77903990Y-50003445D01*
X77903990Y-50003445D02*
X77951609Y-49908207D01*
X77951609Y-49908207D02*
X77999228Y-49860588D01*
X77999228Y-49860588D02*
X78094466Y-49812969D01*
X78094466Y-49812969D02*
X78189704Y-49812969D01*
X78189704Y-49812969D02*
X78284942Y-49860588D01*
X78284942Y-49860588D02*
X78332561Y-49908207D01*
X78332561Y-49908207D02*
X78380180Y-50003445D01*
X78380180Y-50003445D02*
X78380180Y-50241540D01*
X78380180Y-50241540D02*
X78332561Y-50384397D01*
X77427800Y-51193921D02*
X77380180Y-51098683D01*
X77380180Y-51098683D02*
X77380180Y-50908207D01*
X77380180Y-50908207D02*
X77427800Y-50812969D01*
X77427800Y-50812969D02*
X77523038Y-50765350D01*
X77523038Y-50765350D02*
X77903990Y-50765350D01*
X77903990Y-50765350D02*
X77999228Y-50812969D01*
X77999228Y-50812969D02*
X78046847Y-50908207D01*
X78046847Y-50908207D02*
X78046847Y-51098683D01*
X78046847Y-51098683D02*
X77999228Y-51193921D01*
X77999228Y-51193921D02*
X77903990Y-51241540D01*
X77903990Y-51241540D02*
X77808752Y-51241540D01*
X77808752Y-51241540D02*
X77713514Y-50765350D01*
X77427800Y-52098683D02*
X77380180Y-52003445D01*
X77380180Y-52003445D02*
X77380180Y-51812969D01*
X77380180Y-51812969D02*
X77427800Y-51717731D01*
X77427800Y-51717731D02*
X77475419Y-51670112D01*
X77475419Y-51670112D02*
X77570657Y-51622493D01*
X77570657Y-51622493D02*
X77856371Y-51622493D01*
X77856371Y-51622493D02*
X77951609Y-51670112D01*
X77951609Y-51670112D02*
X77999228Y-51717731D01*
X77999228Y-51717731D02*
X78046847Y-51812969D01*
X78046847Y-51812969D02*
X78046847Y-52003445D01*
X78046847Y-52003445D02*
X77999228Y-52098683D01*
X78046847Y-52384398D02*
X78046847Y-52765350D01*
X78380180Y-52527255D02*
X77523038Y-52527255D01*
X77523038Y-52527255D02*
X77427800Y-52574874D01*
X77427800Y-52574874D02*
X77380180Y-52670112D01*
X77380180Y-52670112D02*
X77380180Y-52765350D01*
X77380180Y-53098684D02*
X78046847Y-53098684D01*
X78380180Y-53098684D02*
X78332561Y-53051065D01*
X78332561Y-53051065D02*
X78284942Y-53098684D01*
X78284942Y-53098684D02*
X78332561Y-53146303D01*
X78332561Y-53146303D02*
X78380180Y-53098684D01*
X78380180Y-53098684D02*
X78284942Y-53098684D01*
X77380180Y-53717731D02*
X77427800Y-53622493D01*
X77427800Y-53622493D02*
X77475419Y-53574874D01*
X77475419Y-53574874D02*
X77570657Y-53527255D01*
X77570657Y-53527255D02*
X77856371Y-53527255D01*
X77856371Y-53527255D02*
X77951609Y-53574874D01*
X77951609Y-53574874D02*
X77999228Y-53622493D01*
X77999228Y-53622493D02*
X78046847Y-53717731D01*
X78046847Y-53717731D02*
X78046847Y-53860588D01*
X78046847Y-53860588D02*
X77999228Y-53955826D01*
X77999228Y-53955826D02*
X77951609Y-54003445D01*
X77951609Y-54003445D02*
X77856371Y-54051064D01*
X77856371Y-54051064D02*
X77570657Y-54051064D01*
X77570657Y-54051064D02*
X77475419Y-54003445D01*
X77475419Y-54003445D02*
X77427800Y-53955826D01*
X77427800Y-53955826D02*
X77380180Y-53860588D01*
X77380180Y-53860588D02*
X77380180Y-53717731D01*
X78046847Y-54479636D02*
X77380180Y-54479636D01*
X77951609Y-54479636D02*
X77999228Y-54527255D01*
X77999228Y-54527255D02*
X78046847Y-54622493D01*
X78046847Y-54622493D02*
X78046847Y-54765350D01*
X78046847Y-54765350D02*
X77999228Y-54860588D01*
X77999228Y-54860588D02*
X77903990Y-54908207D01*
X77903990Y-54908207D02*
X77380180Y-54908207D01*
X92380180Y-45658207D02*
X92856371Y-45324874D01*
X92380180Y-45086779D02*
X93380180Y-45086779D01*
X93380180Y-45086779D02*
X93380180Y-45467731D01*
X93380180Y-45467731D02*
X93332561Y-45562969D01*
X93332561Y-45562969D02*
X93284942Y-45610588D01*
X93284942Y-45610588D02*
X93189704Y-45658207D01*
X93189704Y-45658207D02*
X93046847Y-45658207D01*
X93046847Y-45658207D02*
X92951609Y-45610588D01*
X92951609Y-45610588D02*
X92903990Y-45562969D01*
X92903990Y-45562969D02*
X92856371Y-45467731D01*
X92856371Y-45467731D02*
X92856371Y-45086779D01*
X92380180Y-46086779D02*
X93046847Y-46086779D01*
X93380180Y-46086779D02*
X93332561Y-46039160D01*
X93332561Y-46039160D02*
X93284942Y-46086779D01*
X93284942Y-46086779D02*
X93332561Y-46134398D01*
X93332561Y-46134398D02*
X93380180Y-46086779D01*
X93380180Y-46086779D02*
X93284942Y-46086779D01*
X93046847Y-46991540D02*
X92237323Y-46991540D01*
X92237323Y-46991540D02*
X92142085Y-46943921D01*
X92142085Y-46943921D02*
X92094466Y-46896302D01*
X92094466Y-46896302D02*
X92046847Y-46801064D01*
X92046847Y-46801064D02*
X92046847Y-46658207D01*
X92046847Y-46658207D02*
X92094466Y-46562969D01*
X92427800Y-46991540D02*
X92380180Y-46896302D01*
X92380180Y-46896302D02*
X92380180Y-46705826D01*
X92380180Y-46705826D02*
X92427800Y-46610588D01*
X92427800Y-46610588D02*
X92475419Y-46562969D01*
X92475419Y-46562969D02*
X92570657Y-46515350D01*
X92570657Y-46515350D02*
X92856371Y-46515350D01*
X92856371Y-46515350D02*
X92951609Y-46562969D01*
X92951609Y-46562969D02*
X92999228Y-46610588D01*
X92999228Y-46610588D02*
X93046847Y-46705826D01*
X93046847Y-46705826D02*
X93046847Y-46896302D01*
X93046847Y-46896302D02*
X92999228Y-46991540D01*
X92380180Y-47467731D02*
X93046847Y-47467731D01*
X93380180Y-47467731D02*
X93332561Y-47420112D01*
X93332561Y-47420112D02*
X93284942Y-47467731D01*
X93284942Y-47467731D02*
X93332561Y-47515350D01*
X93332561Y-47515350D02*
X93380180Y-47467731D01*
X93380180Y-47467731D02*
X93284942Y-47467731D01*
X92380180Y-48372492D02*
X93380180Y-48372492D01*
X92427800Y-48372492D02*
X92380180Y-48277254D01*
X92380180Y-48277254D02*
X92380180Y-48086778D01*
X92380180Y-48086778D02*
X92427800Y-47991540D01*
X92427800Y-47991540D02*
X92475419Y-47943921D01*
X92475419Y-47943921D02*
X92570657Y-47896302D01*
X92570657Y-47896302D02*
X92856371Y-47896302D01*
X92856371Y-47896302D02*
X92951609Y-47943921D01*
X92951609Y-47943921D02*
X92999228Y-47991540D01*
X92999228Y-47991540D02*
X93046847Y-48086778D01*
X93046847Y-48086778D02*
X93046847Y-48277254D01*
X93046847Y-48277254D02*
X92999228Y-48372492D01*
X92427800Y-49562969D02*
X92380180Y-49705826D01*
X92380180Y-49705826D02*
X92380180Y-49943921D01*
X92380180Y-49943921D02*
X92427800Y-50039159D01*
X92427800Y-50039159D02*
X92475419Y-50086778D01*
X92475419Y-50086778D02*
X92570657Y-50134397D01*
X92570657Y-50134397D02*
X92665895Y-50134397D01*
X92665895Y-50134397D02*
X92761133Y-50086778D01*
X92761133Y-50086778D02*
X92808752Y-50039159D01*
X92808752Y-50039159D02*
X92856371Y-49943921D01*
X92856371Y-49943921D02*
X92903990Y-49753445D01*
X92903990Y-49753445D02*
X92951609Y-49658207D01*
X92951609Y-49658207D02*
X92999228Y-49610588D01*
X92999228Y-49610588D02*
X93094466Y-49562969D01*
X93094466Y-49562969D02*
X93189704Y-49562969D01*
X93189704Y-49562969D02*
X93284942Y-49610588D01*
X93284942Y-49610588D02*
X93332561Y-49658207D01*
X93332561Y-49658207D02*
X93380180Y-49753445D01*
X93380180Y-49753445D02*
X93380180Y-49991540D01*
X93380180Y-49991540D02*
X93332561Y-50134397D01*
X92427800Y-50943921D02*
X92380180Y-50848683D01*
X92380180Y-50848683D02*
X92380180Y-50658207D01*
X92380180Y-50658207D02*
X92427800Y-50562969D01*
X92427800Y-50562969D02*
X92523038Y-50515350D01*
X92523038Y-50515350D02*
X92903990Y-50515350D01*
X92903990Y-50515350D02*
X92999228Y-50562969D01*
X92999228Y-50562969D02*
X93046847Y-50658207D01*
X93046847Y-50658207D02*
X93046847Y-50848683D01*
X93046847Y-50848683D02*
X92999228Y-50943921D01*
X92999228Y-50943921D02*
X92903990Y-50991540D01*
X92903990Y-50991540D02*
X92808752Y-50991540D01*
X92808752Y-50991540D02*
X92713514Y-50515350D01*
X92427800Y-51848683D02*
X92380180Y-51753445D01*
X92380180Y-51753445D02*
X92380180Y-51562969D01*
X92380180Y-51562969D02*
X92427800Y-51467731D01*
X92427800Y-51467731D02*
X92475419Y-51420112D01*
X92475419Y-51420112D02*
X92570657Y-51372493D01*
X92570657Y-51372493D02*
X92856371Y-51372493D01*
X92856371Y-51372493D02*
X92951609Y-51420112D01*
X92951609Y-51420112D02*
X92999228Y-51467731D01*
X92999228Y-51467731D02*
X93046847Y-51562969D01*
X93046847Y-51562969D02*
X93046847Y-51753445D01*
X93046847Y-51753445D02*
X92999228Y-51848683D01*
X93046847Y-52134398D02*
X93046847Y-52515350D01*
X93380180Y-52277255D02*
X92523038Y-52277255D01*
X92523038Y-52277255D02*
X92427800Y-52324874D01*
X92427800Y-52324874D02*
X92380180Y-52420112D01*
X92380180Y-52420112D02*
X92380180Y-52515350D01*
X92380180Y-52848684D02*
X93046847Y-52848684D01*
X93380180Y-52848684D02*
X93332561Y-52801065D01*
X93332561Y-52801065D02*
X93284942Y-52848684D01*
X93284942Y-52848684D02*
X93332561Y-52896303D01*
X93332561Y-52896303D02*
X93380180Y-52848684D01*
X93380180Y-52848684D02*
X93284942Y-52848684D01*
X92380180Y-53467731D02*
X92427800Y-53372493D01*
X92427800Y-53372493D02*
X92475419Y-53324874D01*
X92475419Y-53324874D02*
X92570657Y-53277255D01*
X92570657Y-53277255D02*
X92856371Y-53277255D01*
X92856371Y-53277255D02*
X92951609Y-53324874D01*
X92951609Y-53324874D02*
X92999228Y-53372493D01*
X92999228Y-53372493D02*
X93046847Y-53467731D01*
X93046847Y-53467731D02*
X93046847Y-53610588D01*
X93046847Y-53610588D02*
X92999228Y-53705826D01*
X92999228Y-53705826D02*
X92951609Y-53753445D01*
X92951609Y-53753445D02*
X92856371Y-53801064D01*
X92856371Y-53801064D02*
X92570657Y-53801064D01*
X92570657Y-53801064D02*
X92475419Y-53753445D01*
X92475419Y-53753445D02*
X92427800Y-53705826D01*
X92427800Y-53705826D02*
X92380180Y-53610588D01*
X92380180Y-53610588D02*
X92380180Y-53467731D01*
X93046847Y-54229636D02*
X92380180Y-54229636D01*
X92951609Y-54229636D02*
X92999228Y-54277255D01*
X92999228Y-54277255D02*
X93046847Y-54372493D01*
X93046847Y-54372493D02*
X93046847Y-54515350D01*
X93046847Y-54515350D02*
X92999228Y-54610588D01*
X92999228Y-54610588D02*
X92903990Y-54658207D01*
X92903990Y-54658207D02*
X92380180Y-54658207D01*
X107380180Y-45908207D02*
X107856371Y-45574874D01*
X107380180Y-45336779D02*
X108380180Y-45336779D01*
X108380180Y-45336779D02*
X108380180Y-45717731D01*
X108380180Y-45717731D02*
X108332561Y-45812969D01*
X108332561Y-45812969D02*
X108284942Y-45860588D01*
X108284942Y-45860588D02*
X108189704Y-45908207D01*
X108189704Y-45908207D02*
X108046847Y-45908207D01*
X108046847Y-45908207D02*
X107951609Y-45860588D01*
X107951609Y-45860588D02*
X107903990Y-45812969D01*
X107903990Y-45812969D02*
X107856371Y-45717731D01*
X107856371Y-45717731D02*
X107856371Y-45336779D01*
X107380180Y-46336779D02*
X108046847Y-46336779D01*
X108380180Y-46336779D02*
X108332561Y-46289160D01*
X108332561Y-46289160D02*
X108284942Y-46336779D01*
X108284942Y-46336779D02*
X108332561Y-46384398D01*
X108332561Y-46384398D02*
X108380180Y-46336779D01*
X108380180Y-46336779D02*
X108284942Y-46336779D01*
X108046847Y-47241540D02*
X107237323Y-47241540D01*
X107237323Y-47241540D02*
X107142085Y-47193921D01*
X107142085Y-47193921D02*
X107094466Y-47146302D01*
X107094466Y-47146302D02*
X107046847Y-47051064D01*
X107046847Y-47051064D02*
X107046847Y-46908207D01*
X107046847Y-46908207D02*
X107094466Y-46812969D01*
X107427800Y-47241540D02*
X107380180Y-47146302D01*
X107380180Y-47146302D02*
X107380180Y-46955826D01*
X107380180Y-46955826D02*
X107427800Y-46860588D01*
X107427800Y-46860588D02*
X107475419Y-46812969D01*
X107475419Y-46812969D02*
X107570657Y-46765350D01*
X107570657Y-46765350D02*
X107856371Y-46765350D01*
X107856371Y-46765350D02*
X107951609Y-46812969D01*
X107951609Y-46812969D02*
X107999228Y-46860588D01*
X107999228Y-46860588D02*
X108046847Y-46955826D01*
X108046847Y-46955826D02*
X108046847Y-47146302D01*
X108046847Y-47146302D02*
X107999228Y-47241540D01*
X107380180Y-47717731D02*
X108046847Y-47717731D01*
X108380180Y-47717731D02*
X108332561Y-47670112D01*
X108332561Y-47670112D02*
X108284942Y-47717731D01*
X108284942Y-47717731D02*
X108332561Y-47765350D01*
X108332561Y-47765350D02*
X108380180Y-47717731D01*
X108380180Y-47717731D02*
X108284942Y-47717731D01*
X107380180Y-48622492D02*
X108380180Y-48622492D01*
X107427800Y-48622492D02*
X107380180Y-48527254D01*
X107380180Y-48527254D02*
X107380180Y-48336778D01*
X107380180Y-48336778D02*
X107427800Y-48241540D01*
X107427800Y-48241540D02*
X107475419Y-48193921D01*
X107475419Y-48193921D02*
X107570657Y-48146302D01*
X107570657Y-48146302D02*
X107856371Y-48146302D01*
X107856371Y-48146302D02*
X107951609Y-48193921D01*
X107951609Y-48193921D02*
X107999228Y-48241540D01*
X107999228Y-48241540D02*
X108046847Y-48336778D01*
X108046847Y-48336778D02*
X108046847Y-48527254D01*
X108046847Y-48527254D02*
X107999228Y-48622492D01*
X107427800Y-49812969D02*
X107380180Y-49955826D01*
X107380180Y-49955826D02*
X107380180Y-50193921D01*
X107380180Y-50193921D02*
X107427800Y-50289159D01*
X107427800Y-50289159D02*
X107475419Y-50336778D01*
X107475419Y-50336778D02*
X107570657Y-50384397D01*
X107570657Y-50384397D02*
X107665895Y-50384397D01*
X107665895Y-50384397D02*
X107761133Y-50336778D01*
X107761133Y-50336778D02*
X107808752Y-50289159D01*
X107808752Y-50289159D02*
X107856371Y-50193921D01*
X107856371Y-50193921D02*
X107903990Y-50003445D01*
X107903990Y-50003445D02*
X107951609Y-49908207D01*
X107951609Y-49908207D02*
X107999228Y-49860588D01*
X107999228Y-49860588D02*
X108094466Y-49812969D01*
X108094466Y-49812969D02*
X108189704Y-49812969D01*
X108189704Y-49812969D02*
X108284942Y-49860588D01*
X108284942Y-49860588D02*
X108332561Y-49908207D01*
X108332561Y-49908207D02*
X108380180Y-50003445D01*
X108380180Y-50003445D02*
X108380180Y-50241540D01*
X108380180Y-50241540D02*
X108332561Y-50384397D01*
X107427800Y-51193921D02*
X107380180Y-51098683D01*
X107380180Y-51098683D02*
X107380180Y-50908207D01*
X107380180Y-50908207D02*
X107427800Y-50812969D01*
X107427800Y-50812969D02*
X107523038Y-50765350D01*
X107523038Y-50765350D02*
X107903990Y-50765350D01*
X107903990Y-50765350D02*
X107999228Y-50812969D01*
X107999228Y-50812969D02*
X108046847Y-50908207D01*
X108046847Y-50908207D02*
X108046847Y-51098683D01*
X108046847Y-51098683D02*
X107999228Y-51193921D01*
X107999228Y-51193921D02*
X107903990Y-51241540D01*
X107903990Y-51241540D02*
X107808752Y-51241540D01*
X107808752Y-51241540D02*
X107713514Y-50765350D01*
X107427800Y-52098683D02*
X107380180Y-52003445D01*
X107380180Y-52003445D02*
X107380180Y-51812969D01*
X107380180Y-51812969D02*
X107427800Y-51717731D01*
X107427800Y-51717731D02*
X107475419Y-51670112D01*
X107475419Y-51670112D02*
X107570657Y-51622493D01*
X107570657Y-51622493D02*
X107856371Y-51622493D01*
X107856371Y-51622493D02*
X107951609Y-51670112D01*
X107951609Y-51670112D02*
X107999228Y-51717731D01*
X107999228Y-51717731D02*
X108046847Y-51812969D01*
X108046847Y-51812969D02*
X108046847Y-52003445D01*
X108046847Y-52003445D02*
X107999228Y-52098683D01*
X108046847Y-52384398D02*
X108046847Y-52765350D01*
X108380180Y-52527255D02*
X107523038Y-52527255D01*
X107523038Y-52527255D02*
X107427800Y-52574874D01*
X107427800Y-52574874D02*
X107380180Y-52670112D01*
X107380180Y-52670112D02*
X107380180Y-52765350D01*
X107380180Y-53098684D02*
X108046847Y-53098684D01*
X108380180Y-53098684D02*
X108332561Y-53051065D01*
X108332561Y-53051065D02*
X108284942Y-53098684D01*
X108284942Y-53098684D02*
X108332561Y-53146303D01*
X108332561Y-53146303D02*
X108380180Y-53098684D01*
X108380180Y-53098684D02*
X108284942Y-53098684D01*
X107380180Y-53717731D02*
X107427800Y-53622493D01*
X107427800Y-53622493D02*
X107475419Y-53574874D01*
X107475419Y-53574874D02*
X107570657Y-53527255D01*
X107570657Y-53527255D02*
X107856371Y-53527255D01*
X107856371Y-53527255D02*
X107951609Y-53574874D01*
X107951609Y-53574874D02*
X107999228Y-53622493D01*
X107999228Y-53622493D02*
X108046847Y-53717731D01*
X108046847Y-53717731D02*
X108046847Y-53860588D01*
X108046847Y-53860588D02*
X107999228Y-53955826D01*
X107999228Y-53955826D02*
X107951609Y-54003445D01*
X107951609Y-54003445D02*
X107856371Y-54051064D01*
X107856371Y-54051064D02*
X107570657Y-54051064D01*
X107570657Y-54051064D02*
X107475419Y-54003445D01*
X107475419Y-54003445D02*
X107427800Y-53955826D01*
X107427800Y-53955826D02*
X107380180Y-53860588D01*
X107380180Y-53860588D02*
X107380180Y-53717731D01*
X108046847Y-54479636D02*
X107380180Y-54479636D01*
X107951609Y-54479636D02*
X107999228Y-54527255D01*
X107999228Y-54527255D02*
X108046847Y-54622493D01*
X108046847Y-54622493D02*
X108046847Y-54765350D01*
X108046847Y-54765350D02*
X107999228Y-54860588D01*
X107999228Y-54860588D02*
X107903990Y-54908207D01*
X107903990Y-54908207D02*
X107380180Y-54908207D01*
X122380180Y-45908207D02*
X122856371Y-45574874D01*
X122380180Y-45336779D02*
X123380180Y-45336779D01*
X123380180Y-45336779D02*
X123380180Y-45717731D01*
X123380180Y-45717731D02*
X123332561Y-45812969D01*
X123332561Y-45812969D02*
X123284942Y-45860588D01*
X123284942Y-45860588D02*
X123189704Y-45908207D01*
X123189704Y-45908207D02*
X123046847Y-45908207D01*
X123046847Y-45908207D02*
X122951609Y-45860588D01*
X122951609Y-45860588D02*
X122903990Y-45812969D01*
X122903990Y-45812969D02*
X122856371Y-45717731D01*
X122856371Y-45717731D02*
X122856371Y-45336779D01*
X122380180Y-46336779D02*
X123046847Y-46336779D01*
X123380180Y-46336779D02*
X123332561Y-46289160D01*
X123332561Y-46289160D02*
X123284942Y-46336779D01*
X123284942Y-46336779D02*
X123332561Y-46384398D01*
X123332561Y-46384398D02*
X123380180Y-46336779D01*
X123380180Y-46336779D02*
X123284942Y-46336779D01*
X123046847Y-47241540D02*
X122237323Y-47241540D01*
X122237323Y-47241540D02*
X122142085Y-47193921D01*
X122142085Y-47193921D02*
X122094466Y-47146302D01*
X122094466Y-47146302D02*
X122046847Y-47051064D01*
X122046847Y-47051064D02*
X122046847Y-46908207D01*
X122046847Y-46908207D02*
X122094466Y-46812969D01*
X122427800Y-47241540D02*
X122380180Y-47146302D01*
X122380180Y-47146302D02*
X122380180Y-46955826D01*
X122380180Y-46955826D02*
X122427800Y-46860588D01*
X122427800Y-46860588D02*
X122475419Y-46812969D01*
X122475419Y-46812969D02*
X122570657Y-46765350D01*
X122570657Y-46765350D02*
X122856371Y-46765350D01*
X122856371Y-46765350D02*
X122951609Y-46812969D01*
X122951609Y-46812969D02*
X122999228Y-46860588D01*
X122999228Y-46860588D02*
X123046847Y-46955826D01*
X123046847Y-46955826D02*
X123046847Y-47146302D01*
X123046847Y-47146302D02*
X122999228Y-47241540D01*
X122380180Y-47717731D02*
X123046847Y-47717731D01*
X123380180Y-47717731D02*
X123332561Y-47670112D01*
X123332561Y-47670112D02*
X123284942Y-47717731D01*
X123284942Y-47717731D02*
X123332561Y-47765350D01*
X123332561Y-47765350D02*
X123380180Y-47717731D01*
X123380180Y-47717731D02*
X123284942Y-47717731D01*
X122380180Y-48622492D02*
X123380180Y-48622492D01*
X122427800Y-48622492D02*
X122380180Y-48527254D01*
X122380180Y-48527254D02*
X122380180Y-48336778D01*
X122380180Y-48336778D02*
X122427800Y-48241540D01*
X122427800Y-48241540D02*
X122475419Y-48193921D01*
X122475419Y-48193921D02*
X122570657Y-48146302D01*
X122570657Y-48146302D02*
X122856371Y-48146302D01*
X122856371Y-48146302D02*
X122951609Y-48193921D01*
X122951609Y-48193921D02*
X122999228Y-48241540D01*
X122999228Y-48241540D02*
X123046847Y-48336778D01*
X123046847Y-48336778D02*
X123046847Y-48527254D01*
X123046847Y-48527254D02*
X122999228Y-48622492D01*
X122427800Y-49812969D02*
X122380180Y-49955826D01*
X122380180Y-49955826D02*
X122380180Y-50193921D01*
X122380180Y-50193921D02*
X122427800Y-50289159D01*
X122427800Y-50289159D02*
X122475419Y-50336778D01*
X122475419Y-50336778D02*
X122570657Y-50384397D01*
X122570657Y-50384397D02*
X122665895Y-50384397D01*
X122665895Y-50384397D02*
X122761133Y-50336778D01*
X122761133Y-50336778D02*
X122808752Y-50289159D01*
X122808752Y-50289159D02*
X122856371Y-50193921D01*
X122856371Y-50193921D02*
X122903990Y-50003445D01*
X122903990Y-50003445D02*
X122951609Y-49908207D01*
X122951609Y-49908207D02*
X122999228Y-49860588D01*
X122999228Y-49860588D02*
X123094466Y-49812969D01*
X123094466Y-49812969D02*
X123189704Y-49812969D01*
X123189704Y-49812969D02*
X123284942Y-49860588D01*
X123284942Y-49860588D02*
X123332561Y-49908207D01*
X123332561Y-49908207D02*
X123380180Y-50003445D01*
X123380180Y-50003445D02*
X123380180Y-50241540D01*
X123380180Y-50241540D02*
X123332561Y-50384397D01*
X122427800Y-51193921D02*
X122380180Y-51098683D01*
X122380180Y-51098683D02*
X122380180Y-50908207D01*
X122380180Y-50908207D02*
X122427800Y-50812969D01*
X122427800Y-50812969D02*
X122523038Y-50765350D01*
X122523038Y-50765350D02*
X122903990Y-50765350D01*
X122903990Y-50765350D02*
X122999228Y-50812969D01*
X122999228Y-50812969D02*
X123046847Y-50908207D01*
X123046847Y-50908207D02*
X123046847Y-51098683D01*
X123046847Y-51098683D02*
X122999228Y-51193921D01*
X122999228Y-51193921D02*
X122903990Y-51241540D01*
X122903990Y-51241540D02*
X122808752Y-51241540D01*
X122808752Y-51241540D02*
X122713514Y-50765350D01*
X122427800Y-52098683D02*
X122380180Y-52003445D01*
X122380180Y-52003445D02*
X122380180Y-51812969D01*
X122380180Y-51812969D02*
X122427800Y-51717731D01*
X122427800Y-51717731D02*
X122475419Y-51670112D01*
X122475419Y-51670112D02*
X122570657Y-51622493D01*
X122570657Y-51622493D02*
X122856371Y-51622493D01*
X122856371Y-51622493D02*
X122951609Y-51670112D01*
X122951609Y-51670112D02*
X122999228Y-51717731D01*
X122999228Y-51717731D02*
X123046847Y-51812969D01*
X123046847Y-51812969D02*
X123046847Y-52003445D01*
X123046847Y-52003445D02*
X122999228Y-52098683D01*
X123046847Y-52384398D02*
X123046847Y-52765350D01*
X123380180Y-52527255D02*
X122523038Y-52527255D01*
X122523038Y-52527255D02*
X122427800Y-52574874D01*
X122427800Y-52574874D02*
X122380180Y-52670112D01*
X122380180Y-52670112D02*
X122380180Y-52765350D01*
X122380180Y-53098684D02*
X123046847Y-53098684D01*
X123380180Y-53098684D02*
X123332561Y-53051065D01*
X123332561Y-53051065D02*
X123284942Y-53098684D01*
X123284942Y-53098684D02*
X123332561Y-53146303D01*
X123332561Y-53146303D02*
X123380180Y-53098684D01*
X123380180Y-53098684D02*
X123284942Y-53098684D01*
X122380180Y-53717731D02*
X122427800Y-53622493D01*
X122427800Y-53622493D02*
X122475419Y-53574874D01*
X122475419Y-53574874D02*
X122570657Y-53527255D01*
X122570657Y-53527255D02*
X122856371Y-53527255D01*
X122856371Y-53527255D02*
X122951609Y-53574874D01*
X122951609Y-53574874D02*
X122999228Y-53622493D01*
X122999228Y-53622493D02*
X123046847Y-53717731D01*
X123046847Y-53717731D02*
X123046847Y-53860588D01*
X123046847Y-53860588D02*
X122999228Y-53955826D01*
X122999228Y-53955826D02*
X122951609Y-54003445D01*
X122951609Y-54003445D02*
X122856371Y-54051064D01*
X122856371Y-54051064D02*
X122570657Y-54051064D01*
X122570657Y-54051064D02*
X122475419Y-54003445D01*
X122475419Y-54003445D02*
X122427800Y-53955826D01*
X122427800Y-53955826D02*
X122380180Y-53860588D01*
X122380180Y-53860588D02*
X122380180Y-53717731D01*
X123046847Y-54479636D02*
X122380180Y-54479636D01*
X122951609Y-54479636D02*
X122999228Y-54527255D01*
X122999228Y-54527255D02*
X123046847Y-54622493D01*
X123046847Y-54622493D02*
X123046847Y-54765350D01*
X123046847Y-54765350D02*
X122999228Y-54860588D01*
X122999228Y-54860588D02*
X122903990Y-54908207D01*
X122903990Y-54908207D02*
X122380180Y-54908207D01*
X137130180Y-45908207D02*
X137606371Y-45574874D01*
X137130180Y-45336779D02*
X138130180Y-45336779D01*
X138130180Y-45336779D02*
X138130180Y-45717731D01*
X138130180Y-45717731D02*
X138082561Y-45812969D01*
X138082561Y-45812969D02*
X138034942Y-45860588D01*
X138034942Y-45860588D02*
X137939704Y-45908207D01*
X137939704Y-45908207D02*
X137796847Y-45908207D01*
X137796847Y-45908207D02*
X137701609Y-45860588D01*
X137701609Y-45860588D02*
X137653990Y-45812969D01*
X137653990Y-45812969D02*
X137606371Y-45717731D01*
X137606371Y-45717731D02*
X137606371Y-45336779D01*
X137130180Y-46336779D02*
X137796847Y-46336779D01*
X138130180Y-46336779D02*
X138082561Y-46289160D01*
X138082561Y-46289160D02*
X138034942Y-46336779D01*
X138034942Y-46336779D02*
X138082561Y-46384398D01*
X138082561Y-46384398D02*
X138130180Y-46336779D01*
X138130180Y-46336779D02*
X138034942Y-46336779D01*
X137796847Y-47241540D02*
X136987323Y-47241540D01*
X136987323Y-47241540D02*
X136892085Y-47193921D01*
X136892085Y-47193921D02*
X136844466Y-47146302D01*
X136844466Y-47146302D02*
X136796847Y-47051064D01*
X136796847Y-47051064D02*
X136796847Y-46908207D01*
X136796847Y-46908207D02*
X136844466Y-46812969D01*
X137177800Y-47241540D02*
X137130180Y-47146302D01*
X137130180Y-47146302D02*
X137130180Y-46955826D01*
X137130180Y-46955826D02*
X137177800Y-46860588D01*
X137177800Y-46860588D02*
X137225419Y-46812969D01*
X137225419Y-46812969D02*
X137320657Y-46765350D01*
X137320657Y-46765350D02*
X137606371Y-46765350D01*
X137606371Y-46765350D02*
X137701609Y-46812969D01*
X137701609Y-46812969D02*
X137749228Y-46860588D01*
X137749228Y-46860588D02*
X137796847Y-46955826D01*
X137796847Y-46955826D02*
X137796847Y-47146302D01*
X137796847Y-47146302D02*
X137749228Y-47241540D01*
X137130180Y-47717731D02*
X137796847Y-47717731D01*
X138130180Y-47717731D02*
X138082561Y-47670112D01*
X138082561Y-47670112D02*
X138034942Y-47717731D01*
X138034942Y-47717731D02*
X138082561Y-47765350D01*
X138082561Y-47765350D02*
X138130180Y-47717731D01*
X138130180Y-47717731D02*
X138034942Y-47717731D01*
X137130180Y-48622492D02*
X138130180Y-48622492D01*
X137177800Y-48622492D02*
X137130180Y-48527254D01*
X137130180Y-48527254D02*
X137130180Y-48336778D01*
X137130180Y-48336778D02*
X137177800Y-48241540D01*
X137177800Y-48241540D02*
X137225419Y-48193921D01*
X137225419Y-48193921D02*
X137320657Y-48146302D01*
X137320657Y-48146302D02*
X137606371Y-48146302D01*
X137606371Y-48146302D02*
X137701609Y-48193921D01*
X137701609Y-48193921D02*
X137749228Y-48241540D01*
X137749228Y-48241540D02*
X137796847Y-48336778D01*
X137796847Y-48336778D02*
X137796847Y-48527254D01*
X137796847Y-48527254D02*
X137749228Y-48622492D01*
X137177800Y-49812969D02*
X137130180Y-49955826D01*
X137130180Y-49955826D02*
X137130180Y-50193921D01*
X137130180Y-50193921D02*
X137177800Y-50289159D01*
X137177800Y-50289159D02*
X137225419Y-50336778D01*
X137225419Y-50336778D02*
X137320657Y-50384397D01*
X137320657Y-50384397D02*
X137415895Y-50384397D01*
X137415895Y-50384397D02*
X137511133Y-50336778D01*
X137511133Y-50336778D02*
X137558752Y-50289159D01*
X137558752Y-50289159D02*
X137606371Y-50193921D01*
X137606371Y-50193921D02*
X137653990Y-50003445D01*
X137653990Y-50003445D02*
X137701609Y-49908207D01*
X137701609Y-49908207D02*
X137749228Y-49860588D01*
X137749228Y-49860588D02*
X137844466Y-49812969D01*
X137844466Y-49812969D02*
X137939704Y-49812969D01*
X137939704Y-49812969D02*
X138034942Y-49860588D01*
X138034942Y-49860588D02*
X138082561Y-49908207D01*
X138082561Y-49908207D02*
X138130180Y-50003445D01*
X138130180Y-50003445D02*
X138130180Y-50241540D01*
X138130180Y-50241540D02*
X138082561Y-50384397D01*
X137177800Y-51193921D02*
X137130180Y-51098683D01*
X137130180Y-51098683D02*
X137130180Y-50908207D01*
X137130180Y-50908207D02*
X137177800Y-50812969D01*
X137177800Y-50812969D02*
X137273038Y-50765350D01*
X137273038Y-50765350D02*
X137653990Y-50765350D01*
X137653990Y-50765350D02*
X137749228Y-50812969D01*
X137749228Y-50812969D02*
X137796847Y-50908207D01*
X137796847Y-50908207D02*
X137796847Y-51098683D01*
X137796847Y-51098683D02*
X137749228Y-51193921D01*
X137749228Y-51193921D02*
X137653990Y-51241540D01*
X137653990Y-51241540D02*
X137558752Y-51241540D01*
X137558752Y-51241540D02*
X137463514Y-50765350D01*
X137177800Y-52098683D02*
X137130180Y-52003445D01*
X137130180Y-52003445D02*
X137130180Y-51812969D01*
X137130180Y-51812969D02*
X137177800Y-51717731D01*
X137177800Y-51717731D02*
X137225419Y-51670112D01*
X137225419Y-51670112D02*
X137320657Y-51622493D01*
X137320657Y-51622493D02*
X137606371Y-51622493D01*
X137606371Y-51622493D02*
X137701609Y-51670112D01*
X137701609Y-51670112D02*
X137749228Y-51717731D01*
X137749228Y-51717731D02*
X137796847Y-51812969D01*
X137796847Y-51812969D02*
X137796847Y-52003445D01*
X137796847Y-52003445D02*
X137749228Y-52098683D01*
X137796847Y-52384398D02*
X137796847Y-52765350D01*
X138130180Y-52527255D02*
X137273038Y-52527255D01*
X137273038Y-52527255D02*
X137177800Y-52574874D01*
X137177800Y-52574874D02*
X137130180Y-52670112D01*
X137130180Y-52670112D02*
X137130180Y-52765350D01*
X137130180Y-53098684D02*
X137796847Y-53098684D01*
X138130180Y-53098684D02*
X138082561Y-53051065D01*
X138082561Y-53051065D02*
X138034942Y-53098684D01*
X138034942Y-53098684D02*
X138082561Y-53146303D01*
X138082561Y-53146303D02*
X138130180Y-53098684D01*
X138130180Y-53098684D02*
X138034942Y-53098684D01*
X137130180Y-53717731D02*
X137177800Y-53622493D01*
X137177800Y-53622493D02*
X137225419Y-53574874D01*
X137225419Y-53574874D02*
X137320657Y-53527255D01*
X137320657Y-53527255D02*
X137606371Y-53527255D01*
X137606371Y-53527255D02*
X137701609Y-53574874D01*
X137701609Y-53574874D02*
X137749228Y-53622493D01*
X137749228Y-53622493D02*
X137796847Y-53717731D01*
X137796847Y-53717731D02*
X137796847Y-53860588D01*
X137796847Y-53860588D02*
X137749228Y-53955826D01*
X137749228Y-53955826D02*
X137701609Y-54003445D01*
X137701609Y-54003445D02*
X137606371Y-54051064D01*
X137606371Y-54051064D02*
X137320657Y-54051064D01*
X137320657Y-54051064D02*
X137225419Y-54003445D01*
X137225419Y-54003445D02*
X137177800Y-53955826D01*
X137177800Y-53955826D02*
X137130180Y-53860588D01*
X137130180Y-53860588D02*
X137130180Y-53717731D01*
X137796847Y-54479636D02*
X137130180Y-54479636D01*
X137701609Y-54479636D02*
X137749228Y-54527255D01*
X137749228Y-54527255D02*
X137796847Y-54622493D01*
X137796847Y-54622493D02*
X137796847Y-54765350D01*
X137796847Y-54765350D02*
X137749228Y-54860588D01*
X137749228Y-54860588D02*
X137653990Y-54908207D01*
X137653990Y-54908207D02*
X137130180Y-54908207D01*
X167380180Y-45908207D02*
X167856371Y-45574874D01*
X167380180Y-45336779D02*
X168380180Y-45336779D01*
X168380180Y-45336779D02*
X168380180Y-45717731D01*
X168380180Y-45717731D02*
X168332561Y-45812969D01*
X168332561Y-45812969D02*
X168284942Y-45860588D01*
X168284942Y-45860588D02*
X168189704Y-45908207D01*
X168189704Y-45908207D02*
X168046847Y-45908207D01*
X168046847Y-45908207D02*
X167951609Y-45860588D01*
X167951609Y-45860588D02*
X167903990Y-45812969D01*
X167903990Y-45812969D02*
X167856371Y-45717731D01*
X167856371Y-45717731D02*
X167856371Y-45336779D01*
X167380180Y-46336779D02*
X168046847Y-46336779D01*
X168380180Y-46336779D02*
X168332561Y-46289160D01*
X168332561Y-46289160D02*
X168284942Y-46336779D01*
X168284942Y-46336779D02*
X168332561Y-46384398D01*
X168332561Y-46384398D02*
X168380180Y-46336779D01*
X168380180Y-46336779D02*
X168284942Y-46336779D01*
X168046847Y-47241540D02*
X167237323Y-47241540D01*
X167237323Y-47241540D02*
X167142085Y-47193921D01*
X167142085Y-47193921D02*
X167094466Y-47146302D01*
X167094466Y-47146302D02*
X167046847Y-47051064D01*
X167046847Y-47051064D02*
X167046847Y-46908207D01*
X167046847Y-46908207D02*
X167094466Y-46812969D01*
X167427800Y-47241540D02*
X167380180Y-47146302D01*
X167380180Y-47146302D02*
X167380180Y-46955826D01*
X167380180Y-46955826D02*
X167427800Y-46860588D01*
X167427800Y-46860588D02*
X167475419Y-46812969D01*
X167475419Y-46812969D02*
X167570657Y-46765350D01*
X167570657Y-46765350D02*
X167856371Y-46765350D01*
X167856371Y-46765350D02*
X167951609Y-46812969D01*
X167951609Y-46812969D02*
X167999228Y-46860588D01*
X167999228Y-46860588D02*
X168046847Y-46955826D01*
X168046847Y-46955826D02*
X168046847Y-47146302D01*
X168046847Y-47146302D02*
X167999228Y-47241540D01*
X167380180Y-47717731D02*
X168046847Y-47717731D01*
X168380180Y-47717731D02*
X168332561Y-47670112D01*
X168332561Y-47670112D02*
X168284942Y-47717731D01*
X168284942Y-47717731D02*
X168332561Y-47765350D01*
X168332561Y-47765350D02*
X168380180Y-47717731D01*
X168380180Y-47717731D02*
X168284942Y-47717731D01*
X167380180Y-48622492D02*
X168380180Y-48622492D01*
X167427800Y-48622492D02*
X167380180Y-48527254D01*
X167380180Y-48527254D02*
X167380180Y-48336778D01*
X167380180Y-48336778D02*
X167427800Y-48241540D01*
X167427800Y-48241540D02*
X167475419Y-48193921D01*
X167475419Y-48193921D02*
X167570657Y-48146302D01*
X167570657Y-48146302D02*
X167856371Y-48146302D01*
X167856371Y-48146302D02*
X167951609Y-48193921D01*
X167951609Y-48193921D02*
X167999228Y-48241540D01*
X167999228Y-48241540D02*
X168046847Y-48336778D01*
X168046847Y-48336778D02*
X168046847Y-48527254D01*
X168046847Y-48527254D02*
X167999228Y-48622492D01*
X167427800Y-49812969D02*
X167380180Y-49955826D01*
X167380180Y-49955826D02*
X167380180Y-50193921D01*
X167380180Y-50193921D02*
X167427800Y-50289159D01*
X167427800Y-50289159D02*
X167475419Y-50336778D01*
X167475419Y-50336778D02*
X167570657Y-50384397D01*
X167570657Y-50384397D02*
X167665895Y-50384397D01*
X167665895Y-50384397D02*
X167761133Y-50336778D01*
X167761133Y-50336778D02*
X167808752Y-50289159D01*
X167808752Y-50289159D02*
X167856371Y-50193921D01*
X167856371Y-50193921D02*
X167903990Y-50003445D01*
X167903990Y-50003445D02*
X167951609Y-49908207D01*
X167951609Y-49908207D02*
X167999228Y-49860588D01*
X167999228Y-49860588D02*
X168094466Y-49812969D01*
X168094466Y-49812969D02*
X168189704Y-49812969D01*
X168189704Y-49812969D02*
X168284942Y-49860588D01*
X168284942Y-49860588D02*
X168332561Y-49908207D01*
X168332561Y-49908207D02*
X168380180Y-50003445D01*
X168380180Y-50003445D02*
X168380180Y-50241540D01*
X168380180Y-50241540D02*
X168332561Y-50384397D01*
X167427800Y-51193921D02*
X167380180Y-51098683D01*
X167380180Y-51098683D02*
X167380180Y-50908207D01*
X167380180Y-50908207D02*
X167427800Y-50812969D01*
X167427800Y-50812969D02*
X167523038Y-50765350D01*
X167523038Y-50765350D02*
X167903990Y-50765350D01*
X167903990Y-50765350D02*
X167999228Y-50812969D01*
X167999228Y-50812969D02*
X168046847Y-50908207D01*
X168046847Y-50908207D02*
X168046847Y-51098683D01*
X168046847Y-51098683D02*
X167999228Y-51193921D01*
X167999228Y-51193921D02*
X167903990Y-51241540D01*
X167903990Y-51241540D02*
X167808752Y-51241540D01*
X167808752Y-51241540D02*
X167713514Y-50765350D01*
X167427800Y-52098683D02*
X167380180Y-52003445D01*
X167380180Y-52003445D02*
X167380180Y-51812969D01*
X167380180Y-51812969D02*
X167427800Y-51717731D01*
X167427800Y-51717731D02*
X167475419Y-51670112D01*
X167475419Y-51670112D02*
X167570657Y-51622493D01*
X167570657Y-51622493D02*
X167856371Y-51622493D01*
X167856371Y-51622493D02*
X167951609Y-51670112D01*
X167951609Y-51670112D02*
X167999228Y-51717731D01*
X167999228Y-51717731D02*
X168046847Y-51812969D01*
X168046847Y-51812969D02*
X168046847Y-52003445D01*
X168046847Y-52003445D02*
X167999228Y-52098683D01*
X168046847Y-52384398D02*
X168046847Y-52765350D01*
X168380180Y-52527255D02*
X167523038Y-52527255D01*
X167523038Y-52527255D02*
X167427800Y-52574874D01*
X167427800Y-52574874D02*
X167380180Y-52670112D01*
X167380180Y-52670112D02*
X167380180Y-52765350D01*
X167380180Y-53098684D02*
X168046847Y-53098684D01*
X168380180Y-53098684D02*
X168332561Y-53051065D01*
X168332561Y-53051065D02*
X168284942Y-53098684D01*
X168284942Y-53098684D02*
X168332561Y-53146303D01*
X168332561Y-53146303D02*
X168380180Y-53098684D01*
X168380180Y-53098684D02*
X168284942Y-53098684D01*
X167380180Y-53717731D02*
X167427800Y-53622493D01*
X167427800Y-53622493D02*
X167475419Y-53574874D01*
X167475419Y-53574874D02*
X167570657Y-53527255D01*
X167570657Y-53527255D02*
X167856371Y-53527255D01*
X167856371Y-53527255D02*
X167951609Y-53574874D01*
X167951609Y-53574874D02*
X167999228Y-53622493D01*
X167999228Y-53622493D02*
X168046847Y-53717731D01*
X168046847Y-53717731D02*
X168046847Y-53860588D01*
X168046847Y-53860588D02*
X167999228Y-53955826D01*
X167999228Y-53955826D02*
X167951609Y-54003445D01*
X167951609Y-54003445D02*
X167856371Y-54051064D01*
X167856371Y-54051064D02*
X167570657Y-54051064D01*
X167570657Y-54051064D02*
X167475419Y-54003445D01*
X167475419Y-54003445D02*
X167427800Y-53955826D01*
X167427800Y-53955826D02*
X167380180Y-53860588D01*
X167380180Y-53860588D02*
X167380180Y-53717731D01*
X168046847Y-54479636D02*
X167380180Y-54479636D01*
X167951609Y-54479636D02*
X167999228Y-54527255D01*
X167999228Y-54527255D02*
X168046847Y-54622493D01*
X168046847Y-54622493D02*
X168046847Y-54765350D01*
X168046847Y-54765350D02*
X167999228Y-54860588D01*
X167999228Y-54860588D02*
X167903990Y-54908207D01*
X167903990Y-54908207D02*
X167380180Y-54908207D01*
X152130180Y-45908207D02*
X152606371Y-45574874D01*
X152130180Y-45336779D02*
X153130180Y-45336779D01*
X153130180Y-45336779D02*
X153130180Y-45717731D01*
X153130180Y-45717731D02*
X153082561Y-45812969D01*
X153082561Y-45812969D02*
X153034942Y-45860588D01*
X153034942Y-45860588D02*
X152939704Y-45908207D01*
X152939704Y-45908207D02*
X152796847Y-45908207D01*
X152796847Y-45908207D02*
X152701609Y-45860588D01*
X152701609Y-45860588D02*
X152653990Y-45812969D01*
X152653990Y-45812969D02*
X152606371Y-45717731D01*
X152606371Y-45717731D02*
X152606371Y-45336779D01*
X152130180Y-46336779D02*
X152796847Y-46336779D01*
X153130180Y-46336779D02*
X153082561Y-46289160D01*
X153082561Y-46289160D02*
X153034942Y-46336779D01*
X153034942Y-46336779D02*
X153082561Y-46384398D01*
X153082561Y-46384398D02*
X153130180Y-46336779D01*
X153130180Y-46336779D02*
X153034942Y-46336779D01*
X152796847Y-47241540D02*
X151987323Y-47241540D01*
X151987323Y-47241540D02*
X151892085Y-47193921D01*
X151892085Y-47193921D02*
X151844466Y-47146302D01*
X151844466Y-47146302D02*
X151796847Y-47051064D01*
X151796847Y-47051064D02*
X151796847Y-46908207D01*
X151796847Y-46908207D02*
X151844466Y-46812969D01*
X152177800Y-47241540D02*
X152130180Y-47146302D01*
X152130180Y-47146302D02*
X152130180Y-46955826D01*
X152130180Y-46955826D02*
X152177800Y-46860588D01*
X152177800Y-46860588D02*
X152225419Y-46812969D01*
X152225419Y-46812969D02*
X152320657Y-46765350D01*
X152320657Y-46765350D02*
X152606371Y-46765350D01*
X152606371Y-46765350D02*
X152701609Y-46812969D01*
X152701609Y-46812969D02*
X152749228Y-46860588D01*
X152749228Y-46860588D02*
X152796847Y-46955826D01*
X152796847Y-46955826D02*
X152796847Y-47146302D01*
X152796847Y-47146302D02*
X152749228Y-47241540D01*
X152130180Y-47717731D02*
X152796847Y-47717731D01*
X153130180Y-47717731D02*
X153082561Y-47670112D01*
X153082561Y-47670112D02*
X153034942Y-47717731D01*
X153034942Y-47717731D02*
X153082561Y-47765350D01*
X153082561Y-47765350D02*
X153130180Y-47717731D01*
X153130180Y-47717731D02*
X153034942Y-47717731D01*
X152130180Y-48622492D02*
X153130180Y-48622492D01*
X152177800Y-48622492D02*
X152130180Y-48527254D01*
X152130180Y-48527254D02*
X152130180Y-48336778D01*
X152130180Y-48336778D02*
X152177800Y-48241540D01*
X152177800Y-48241540D02*
X152225419Y-48193921D01*
X152225419Y-48193921D02*
X152320657Y-48146302D01*
X152320657Y-48146302D02*
X152606371Y-48146302D01*
X152606371Y-48146302D02*
X152701609Y-48193921D01*
X152701609Y-48193921D02*
X152749228Y-48241540D01*
X152749228Y-48241540D02*
X152796847Y-48336778D01*
X152796847Y-48336778D02*
X152796847Y-48527254D01*
X152796847Y-48527254D02*
X152749228Y-48622492D01*
X152177800Y-49812969D02*
X152130180Y-49955826D01*
X152130180Y-49955826D02*
X152130180Y-50193921D01*
X152130180Y-50193921D02*
X152177800Y-50289159D01*
X152177800Y-50289159D02*
X152225419Y-50336778D01*
X152225419Y-50336778D02*
X152320657Y-50384397D01*
X152320657Y-50384397D02*
X152415895Y-50384397D01*
X152415895Y-50384397D02*
X152511133Y-50336778D01*
X152511133Y-50336778D02*
X152558752Y-50289159D01*
X152558752Y-50289159D02*
X152606371Y-50193921D01*
X152606371Y-50193921D02*
X152653990Y-50003445D01*
X152653990Y-50003445D02*
X152701609Y-49908207D01*
X152701609Y-49908207D02*
X152749228Y-49860588D01*
X152749228Y-49860588D02*
X152844466Y-49812969D01*
X152844466Y-49812969D02*
X152939704Y-49812969D01*
X152939704Y-49812969D02*
X153034942Y-49860588D01*
X153034942Y-49860588D02*
X153082561Y-49908207D01*
X153082561Y-49908207D02*
X153130180Y-50003445D01*
X153130180Y-50003445D02*
X153130180Y-50241540D01*
X153130180Y-50241540D02*
X153082561Y-50384397D01*
X152177800Y-51193921D02*
X152130180Y-51098683D01*
X152130180Y-51098683D02*
X152130180Y-50908207D01*
X152130180Y-50908207D02*
X152177800Y-50812969D01*
X152177800Y-50812969D02*
X152273038Y-50765350D01*
X152273038Y-50765350D02*
X152653990Y-50765350D01*
X152653990Y-50765350D02*
X152749228Y-50812969D01*
X152749228Y-50812969D02*
X152796847Y-50908207D01*
X152796847Y-50908207D02*
X152796847Y-51098683D01*
X152796847Y-51098683D02*
X152749228Y-51193921D01*
X152749228Y-51193921D02*
X152653990Y-51241540D01*
X152653990Y-51241540D02*
X152558752Y-51241540D01*
X152558752Y-51241540D02*
X152463514Y-50765350D01*
X152177800Y-52098683D02*
X152130180Y-52003445D01*
X152130180Y-52003445D02*
X152130180Y-51812969D01*
X152130180Y-51812969D02*
X152177800Y-51717731D01*
X152177800Y-51717731D02*
X152225419Y-51670112D01*
X152225419Y-51670112D02*
X152320657Y-51622493D01*
X152320657Y-51622493D02*
X152606371Y-51622493D01*
X152606371Y-51622493D02*
X152701609Y-51670112D01*
X152701609Y-51670112D02*
X152749228Y-51717731D01*
X152749228Y-51717731D02*
X152796847Y-51812969D01*
X152796847Y-51812969D02*
X152796847Y-52003445D01*
X152796847Y-52003445D02*
X152749228Y-52098683D01*
X152796847Y-52384398D02*
X152796847Y-52765350D01*
X153130180Y-52527255D02*
X152273038Y-52527255D01*
X152273038Y-52527255D02*
X152177800Y-52574874D01*
X152177800Y-52574874D02*
X152130180Y-52670112D01*
X152130180Y-52670112D02*
X152130180Y-52765350D01*
X152130180Y-53098684D02*
X152796847Y-53098684D01*
X153130180Y-53098684D02*
X153082561Y-53051065D01*
X153082561Y-53051065D02*
X153034942Y-53098684D01*
X153034942Y-53098684D02*
X153082561Y-53146303D01*
X153082561Y-53146303D02*
X153130180Y-53098684D01*
X153130180Y-53098684D02*
X153034942Y-53098684D01*
X152130180Y-53717731D02*
X152177800Y-53622493D01*
X152177800Y-53622493D02*
X152225419Y-53574874D01*
X152225419Y-53574874D02*
X152320657Y-53527255D01*
X152320657Y-53527255D02*
X152606371Y-53527255D01*
X152606371Y-53527255D02*
X152701609Y-53574874D01*
X152701609Y-53574874D02*
X152749228Y-53622493D01*
X152749228Y-53622493D02*
X152796847Y-53717731D01*
X152796847Y-53717731D02*
X152796847Y-53860588D01*
X152796847Y-53860588D02*
X152749228Y-53955826D01*
X152749228Y-53955826D02*
X152701609Y-54003445D01*
X152701609Y-54003445D02*
X152606371Y-54051064D01*
X152606371Y-54051064D02*
X152320657Y-54051064D01*
X152320657Y-54051064D02*
X152225419Y-54003445D01*
X152225419Y-54003445D02*
X152177800Y-53955826D01*
X152177800Y-53955826D02*
X152130180Y-53860588D01*
X152130180Y-53860588D02*
X152130180Y-53717731D01*
X152796847Y-54479636D02*
X152130180Y-54479636D01*
X152701609Y-54479636D02*
X152749228Y-54527255D01*
X152749228Y-54527255D02*
X152796847Y-54622493D01*
X152796847Y-54622493D02*
X152796847Y-54765350D01*
X152796847Y-54765350D02*
X152749228Y-54860588D01*
X152749228Y-54860588D02*
X152653990Y-54908207D01*
X152653990Y-54908207D02*
X152130180Y-54908207D01*
X160403990Y-45920112D02*
X160403990Y-45586779D01*
X159880180Y-45586779D02*
X160880180Y-45586779D01*
X160880180Y-45586779D02*
X160880180Y-46062969D01*
X159880180Y-46586779D02*
X159927800Y-46491541D01*
X159927800Y-46491541D02*
X160023038Y-46443922D01*
X160023038Y-46443922D02*
X160880180Y-46443922D01*
X159927800Y-47348684D02*
X159880180Y-47253446D01*
X159880180Y-47253446D02*
X159880180Y-47062970D01*
X159880180Y-47062970D02*
X159927800Y-46967732D01*
X159927800Y-46967732D02*
X160023038Y-46920113D01*
X160023038Y-46920113D02*
X160403990Y-46920113D01*
X160403990Y-46920113D02*
X160499228Y-46967732D01*
X160499228Y-46967732D02*
X160546847Y-47062970D01*
X160546847Y-47062970D02*
X160546847Y-47253446D01*
X160546847Y-47253446D02*
X160499228Y-47348684D01*
X160499228Y-47348684D02*
X160403990Y-47396303D01*
X160403990Y-47396303D02*
X160308752Y-47396303D01*
X160308752Y-47396303D02*
X160213514Y-46920113D01*
X159880180Y-47729637D02*
X160546847Y-48253446D01*
X160546847Y-47729637D02*
X159880180Y-48253446D01*
X159927800Y-49348685D02*
X159880180Y-49491542D01*
X159880180Y-49491542D02*
X159880180Y-49729637D01*
X159880180Y-49729637D02*
X159927800Y-49824875D01*
X159927800Y-49824875D02*
X159975419Y-49872494D01*
X159975419Y-49872494D02*
X160070657Y-49920113D01*
X160070657Y-49920113D02*
X160165895Y-49920113D01*
X160165895Y-49920113D02*
X160261133Y-49872494D01*
X160261133Y-49872494D02*
X160308752Y-49824875D01*
X160308752Y-49824875D02*
X160356371Y-49729637D01*
X160356371Y-49729637D02*
X160403990Y-49539161D01*
X160403990Y-49539161D02*
X160451609Y-49443923D01*
X160451609Y-49443923D02*
X160499228Y-49396304D01*
X160499228Y-49396304D02*
X160594466Y-49348685D01*
X160594466Y-49348685D02*
X160689704Y-49348685D01*
X160689704Y-49348685D02*
X160784942Y-49396304D01*
X160784942Y-49396304D02*
X160832561Y-49443923D01*
X160832561Y-49443923D02*
X160880180Y-49539161D01*
X160880180Y-49539161D02*
X160880180Y-49777256D01*
X160880180Y-49777256D02*
X160832561Y-49920113D01*
X159927800Y-50729637D02*
X159880180Y-50634399D01*
X159880180Y-50634399D02*
X159880180Y-50443923D01*
X159880180Y-50443923D02*
X159927800Y-50348685D01*
X159927800Y-50348685D02*
X160023038Y-50301066D01*
X160023038Y-50301066D02*
X160403990Y-50301066D01*
X160403990Y-50301066D02*
X160499228Y-50348685D01*
X160499228Y-50348685D02*
X160546847Y-50443923D01*
X160546847Y-50443923D02*
X160546847Y-50634399D01*
X160546847Y-50634399D02*
X160499228Y-50729637D01*
X160499228Y-50729637D02*
X160403990Y-50777256D01*
X160403990Y-50777256D02*
X160308752Y-50777256D01*
X160308752Y-50777256D02*
X160213514Y-50301066D01*
X159927800Y-51634399D02*
X159880180Y-51539161D01*
X159880180Y-51539161D02*
X159880180Y-51348685D01*
X159880180Y-51348685D02*
X159927800Y-51253447D01*
X159927800Y-51253447D02*
X159975419Y-51205828D01*
X159975419Y-51205828D02*
X160070657Y-51158209D01*
X160070657Y-51158209D02*
X160356371Y-51158209D01*
X160356371Y-51158209D02*
X160451609Y-51205828D01*
X160451609Y-51205828D02*
X160499228Y-51253447D01*
X160499228Y-51253447D02*
X160546847Y-51348685D01*
X160546847Y-51348685D02*
X160546847Y-51539161D01*
X160546847Y-51539161D02*
X160499228Y-51634399D01*
X160546847Y-51920114D02*
X160546847Y-52301066D01*
X160880180Y-52062971D02*
X160023038Y-52062971D01*
X160023038Y-52062971D02*
X159927800Y-52110590D01*
X159927800Y-52110590D02*
X159880180Y-52205828D01*
X159880180Y-52205828D02*
X159880180Y-52301066D01*
X159880180Y-52634400D02*
X160546847Y-52634400D01*
X160880180Y-52634400D02*
X160832561Y-52586781D01*
X160832561Y-52586781D02*
X160784942Y-52634400D01*
X160784942Y-52634400D02*
X160832561Y-52682019D01*
X160832561Y-52682019D02*
X160880180Y-52634400D01*
X160880180Y-52634400D02*
X160784942Y-52634400D01*
X159880180Y-53253447D02*
X159927800Y-53158209D01*
X159927800Y-53158209D02*
X159975419Y-53110590D01*
X159975419Y-53110590D02*
X160070657Y-53062971D01*
X160070657Y-53062971D02*
X160356371Y-53062971D01*
X160356371Y-53062971D02*
X160451609Y-53110590D01*
X160451609Y-53110590D02*
X160499228Y-53158209D01*
X160499228Y-53158209D02*
X160546847Y-53253447D01*
X160546847Y-53253447D02*
X160546847Y-53396304D01*
X160546847Y-53396304D02*
X160499228Y-53491542D01*
X160499228Y-53491542D02*
X160451609Y-53539161D01*
X160451609Y-53539161D02*
X160356371Y-53586780D01*
X160356371Y-53586780D02*
X160070657Y-53586780D01*
X160070657Y-53586780D02*
X159975419Y-53539161D01*
X159975419Y-53539161D02*
X159927800Y-53491542D01*
X159927800Y-53491542D02*
X159880180Y-53396304D01*
X159880180Y-53396304D02*
X159880180Y-53253447D01*
X160546847Y-54015352D02*
X159880180Y-54015352D01*
X160451609Y-54015352D02*
X160499228Y-54062971D01*
X160499228Y-54062971D02*
X160546847Y-54158209D01*
X160546847Y-54158209D02*
X160546847Y-54301066D01*
X160546847Y-54301066D02*
X160499228Y-54396304D01*
X160499228Y-54396304D02*
X160403990Y-54443923D01*
X160403990Y-54443923D02*
X159880180Y-54443923D01*
X145403990Y-45920112D02*
X145403990Y-45586779D01*
X144880180Y-45586779D02*
X145880180Y-45586779D01*
X145880180Y-45586779D02*
X145880180Y-46062969D01*
X144880180Y-46586779D02*
X144927800Y-46491541D01*
X144927800Y-46491541D02*
X145023038Y-46443922D01*
X145023038Y-46443922D02*
X145880180Y-46443922D01*
X144927800Y-47348684D02*
X144880180Y-47253446D01*
X144880180Y-47253446D02*
X144880180Y-47062970D01*
X144880180Y-47062970D02*
X144927800Y-46967732D01*
X144927800Y-46967732D02*
X145023038Y-46920113D01*
X145023038Y-46920113D02*
X145403990Y-46920113D01*
X145403990Y-46920113D02*
X145499228Y-46967732D01*
X145499228Y-46967732D02*
X145546847Y-47062970D01*
X145546847Y-47062970D02*
X145546847Y-47253446D01*
X145546847Y-47253446D02*
X145499228Y-47348684D01*
X145499228Y-47348684D02*
X145403990Y-47396303D01*
X145403990Y-47396303D02*
X145308752Y-47396303D01*
X145308752Y-47396303D02*
X145213514Y-46920113D01*
X144880180Y-47729637D02*
X145546847Y-48253446D01*
X145546847Y-47729637D02*
X144880180Y-48253446D01*
X144927800Y-49348685D02*
X144880180Y-49491542D01*
X144880180Y-49491542D02*
X144880180Y-49729637D01*
X144880180Y-49729637D02*
X144927800Y-49824875D01*
X144927800Y-49824875D02*
X144975419Y-49872494D01*
X144975419Y-49872494D02*
X145070657Y-49920113D01*
X145070657Y-49920113D02*
X145165895Y-49920113D01*
X145165895Y-49920113D02*
X145261133Y-49872494D01*
X145261133Y-49872494D02*
X145308752Y-49824875D01*
X145308752Y-49824875D02*
X145356371Y-49729637D01*
X145356371Y-49729637D02*
X145403990Y-49539161D01*
X145403990Y-49539161D02*
X145451609Y-49443923D01*
X145451609Y-49443923D02*
X145499228Y-49396304D01*
X145499228Y-49396304D02*
X145594466Y-49348685D01*
X145594466Y-49348685D02*
X145689704Y-49348685D01*
X145689704Y-49348685D02*
X145784942Y-49396304D01*
X145784942Y-49396304D02*
X145832561Y-49443923D01*
X145832561Y-49443923D02*
X145880180Y-49539161D01*
X145880180Y-49539161D02*
X145880180Y-49777256D01*
X145880180Y-49777256D02*
X145832561Y-49920113D01*
X144927800Y-50729637D02*
X144880180Y-50634399D01*
X144880180Y-50634399D02*
X144880180Y-50443923D01*
X144880180Y-50443923D02*
X144927800Y-50348685D01*
X144927800Y-50348685D02*
X145023038Y-50301066D01*
X145023038Y-50301066D02*
X145403990Y-50301066D01*
X145403990Y-50301066D02*
X145499228Y-50348685D01*
X145499228Y-50348685D02*
X145546847Y-50443923D01*
X145546847Y-50443923D02*
X145546847Y-50634399D01*
X145546847Y-50634399D02*
X145499228Y-50729637D01*
X145499228Y-50729637D02*
X145403990Y-50777256D01*
X145403990Y-50777256D02*
X145308752Y-50777256D01*
X145308752Y-50777256D02*
X145213514Y-50301066D01*
X144927800Y-51634399D02*
X144880180Y-51539161D01*
X144880180Y-51539161D02*
X144880180Y-51348685D01*
X144880180Y-51348685D02*
X144927800Y-51253447D01*
X144927800Y-51253447D02*
X144975419Y-51205828D01*
X144975419Y-51205828D02*
X145070657Y-51158209D01*
X145070657Y-51158209D02*
X145356371Y-51158209D01*
X145356371Y-51158209D02*
X145451609Y-51205828D01*
X145451609Y-51205828D02*
X145499228Y-51253447D01*
X145499228Y-51253447D02*
X145546847Y-51348685D01*
X145546847Y-51348685D02*
X145546847Y-51539161D01*
X145546847Y-51539161D02*
X145499228Y-51634399D01*
X145546847Y-51920114D02*
X145546847Y-52301066D01*
X145880180Y-52062971D02*
X145023038Y-52062971D01*
X145023038Y-52062971D02*
X144927800Y-52110590D01*
X144927800Y-52110590D02*
X144880180Y-52205828D01*
X144880180Y-52205828D02*
X144880180Y-52301066D01*
X144880180Y-52634400D02*
X145546847Y-52634400D01*
X145880180Y-52634400D02*
X145832561Y-52586781D01*
X145832561Y-52586781D02*
X145784942Y-52634400D01*
X145784942Y-52634400D02*
X145832561Y-52682019D01*
X145832561Y-52682019D02*
X145880180Y-52634400D01*
X145880180Y-52634400D02*
X145784942Y-52634400D01*
X144880180Y-53253447D02*
X144927800Y-53158209D01*
X144927800Y-53158209D02*
X144975419Y-53110590D01*
X144975419Y-53110590D02*
X145070657Y-53062971D01*
X145070657Y-53062971D02*
X145356371Y-53062971D01*
X145356371Y-53062971D02*
X145451609Y-53110590D01*
X145451609Y-53110590D02*
X145499228Y-53158209D01*
X145499228Y-53158209D02*
X145546847Y-53253447D01*
X145546847Y-53253447D02*
X145546847Y-53396304D01*
X145546847Y-53396304D02*
X145499228Y-53491542D01*
X145499228Y-53491542D02*
X145451609Y-53539161D01*
X145451609Y-53539161D02*
X145356371Y-53586780D01*
X145356371Y-53586780D02*
X145070657Y-53586780D01*
X145070657Y-53586780D02*
X144975419Y-53539161D01*
X144975419Y-53539161D02*
X144927800Y-53491542D01*
X144927800Y-53491542D02*
X144880180Y-53396304D01*
X144880180Y-53396304D02*
X144880180Y-53253447D01*
X145546847Y-54015352D02*
X144880180Y-54015352D01*
X145451609Y-54015352D02*
X145499228Y-54062971D01*
X145499228Y-54062971D02*
X145546847Y-54158209D01*
X145546847Y-54158209D02*
X145546847Y-54301066D01*
X145546847Y-54301066D02*
X145499228Y-54396304D01*
X145499228Y-54396304D02*
X145403990Y-54443923D01*
X145403990Y-54443923D02*
X144880180Y-54443923D01*
X130153990Y-45920112D02*
X130153990Y-45586779D01*
X129630180Y-45586779D02*
X130630180Y-45586779D01*
X130630180Y-45586779D02*
X130630180Y-46062969D01*
X129630180Y-46586779D02*
X129677800Y-46491541D01*
X129677800Y-46491541D02*
X129773038Y-46443922D01*
X129773038Y-46443922D02*
X130630180Y-46443922D01*
X129677800Y-47348684D02*
X129630180Y-47253446D01*
X129630180Y-47253446D02*
X129630180Y-47062970D01*
X129630180Y-47062970D02*
X129677800Y-46967732D01*
X129677800Y-46967732D02*
X129773038Y-46920113D01*
X129773038Y-46920113D02*
X130153990Y-46920113D01*
X130153990Y-46920113D02*
X130249228Y-46967732D01*
X130249228Y-46967732D02*
X130296847Y-47062970D01*
X130296847Y-47062970D02*
X130296847Y-47253446D01*
X130296847Y-47253446D02*
X130249228Y-47348684D01*
X130249228Y-47348684D02*
X130153990Y-47396303D01*
X130153990Y-47396303D02*
X130058752Y-47396303D01*
X130058752Y-47396303D02*
X129963514Y-46920113D01*
X129630180Y-47729637D02*
X130296847Y-48253446D01*
X130296847Y-47729637D02*
X129630180Y-48253446D01*
X129677800Y-49348685D02*
X129630180Y-49491542D01*
X129630180Y-49491542D02*
X129630180Y-49729637D01*
X129630180Y-49729637D02*
X129677800Y-49824875D01*
X129677800Y-49824875D02*
X129725419Y-49872494D01*
X129725419Y-49872494D02*
X129820657Y-49920113D01*
X129820657Y-49920113D02*
X129915895Y-49920113D01*
X129915895Y-49920113D02*
X130011133Y-49872494D01*
X130011133Y-49872494D02*
X130058752Y-49824875D01*
X130058752Y-49824875D02*
X130106371Y-49729637D01*
X130106371Y-49729637D02*
X130153990Y-49539161D01*
X130153990Y-49539161D02*
X130201609Y-49443923D01*
X130201609Y-49443923D02*
X130249228Y-49396304D01*
X130249228Y-49396304D02*
X130344466Y-49348685D01*
X130344466Y-49348685D02*
X130439704Y-49348685D01*
X130439704Y-49348685D02*
X130534942Y-49396304D01*
X130534942Y-49396304D02*
X130582561Y-49443923D01*
X130582561Y-49443923D02*
X130630180Y-49539161D01*
X130630180Y-49539161D02*
X130630180Y-49777256D01*
X130630180Y-49777256D02*
X130582561Y-49920113D01*
X129677800Y-50729637D02*
X129630180Y-50634399D01*
X129630180Y-50634399D02*
X129630180Y-50443923D01*
X129630180Y-50443923D02*
X129677800Y-50348685D01*
X129677800Y-50348685D02*
X129773038Y-50301066D01*
X129773038Y-50301066D02*
X130153990Y-50301066D01*
X130153990Y-50301066D02*
X130249228Y-50348685D01*
X130249228Y-50348685D02*
X130296847Y-50443923D01*
X130296847Y-50443923D02*
X130296847Y-50634399D01*
X130296847Y-50634399D02*
X130249228Y-50729637D01*
X130249228Y-50729637D02*
X130153990Y-50777256D01*
X130153990Y-50777256D02*
X130058752Y-50777256D01*
X130058752Y-50777256D02*
X129963514Y-50301066D01*
X129677800Y-51634399D02*
X129630180Y-51539161D01*
X129630180Y-51539161D02*
X129630180Y-51348685D01*
X129630180Y-51348685D02*
X129677800Y-51253447D01*
X129677800Y-51253447D02*
X129725419Y-51205828D01*
X129725419Y-51205828D02*
X129820657Y-51158209D01*
X129820657Y-51158209D02*
X130106371Y-51158209D01*
X130106371Y-51158209D02*
X130201609Y-51205828D01*
X130201609Y-51205828D02*
X130249228Y-51253447D01*
X130249228Y-51253447D02*
X130296847Y-51348685D01*
X130296847Y-51348685D02*
X130296847Y-51539161D01*
X130296847Y-51539161D02*
X130249228Y-51634399D01*
X130296847Y-51920114D02*
X130296847Y-52301066D01*
X130630180Y-52062971D02*
X129773038Y-52062971D01*
X129773038Y-52062971D02*
X129677800Y-52110590D01*
X129677800Y-52110590D02*
X129630180Y-52205828D01*
X129630180Y-52205828D02*
X129630180Y-52301066D01*
X129630180Y-52634400D02*
X130296847Y-52634400D01*
X130630180Y-52634400D02*
X130582561Y-52586781D01*
X130582561Y-52586781D02*
X130534942Y-52634400D01*
X130534942Y-52634400D02*
X130582561Y-52682019D01*
X130582561Y-52682019D02*
X130630180Y-52634400D01*
X130630180Y-52634400D02*
X130534942Y-52634400D01*
X129630180Y-53253447D02*
X129677800Y-53158209D01*
X129677800Y-53158209D02*
X129725419Y-53110590D01*
X129725419Y-53110590D02*
X129820657Y-53062971D01*
X129820657Y-53062971D02*
X130106371Y-53062971D01*
X130106371Y-53062971D02*
X130201609Y-53110590D01*
X130201609Y-53110590D02*
X130249228Y-53158209D01*
X130249228Y-53158209D02*
X130296847Y-53253447D01*
X130296847Y-53253447D02*
X130296847Y-53396304D01*
X130296847Y-53396304D02*
X130249228Y-53491542D01*
X130249228Y-53491542D02*
X130201609Y-53539161D01*
X130201609Y-53539161D02*
X130106371Y-53586780D01*
X130106371Y-53586780D02*
X129820657Y-53586780D01*
X129820657Y-53586780D02*
X129725419Y-53539161D01*
X129725419Y-53539161D02*
X129677800Y-53491542D01*
X129677800Y-53491542D02*
X129630180Y-53396304D01*
X129630180Y-53396304D02*
X129630180Y-53253447D01*
X130296847Y-54015352D02*
X129630180Y-54015352D01*
X130201609Y-54015352D02*
X130249228Y-54062971D01*
X130249228Y-54062971D02*
X130296847Y-54158209D01*
X130296847Y-54158209D02*
X130296847Y-54301066D01*
X130296847Y-54301066D02*
X130249228Y-54396304D01*
X130249228Y-54396304D02*
X130153990Y-54443923D01*
X130153990Y-54443923D02*
X129630180Y-54443923D01*
X115153990Y-45920112D02*
X115153990Y-45586779D01*
X114630180Y-45586779D02*
X115630180Y-45586779D01*
X115630180Y-45586779D02*
X115630180Y-46062969D01*
X114630180Y-46586779D02*
X114677800Y-46491541D01*
X114677800Y-46491541D02*
X114773038Y-46443922D01*
X114773038Y-46443922D02*
X115630180Y-46443922D01*
X114677800Y-47348684D02*
X114630180Y-47253446D01*
X114630180Y-47253446D02*
X114630180Y-47062970D01*
X114630180Y-47062970D02*
X114677800Y-46967732D01*
X114677800Y-46967732D02*
X114773038Y-46920113D01*
X114773038Y-46920113D02*
X115153990Y-46920113D01*
X115153990Y-46920113D02*
X115249228Y-46967732D01*
X115249228Y-46967732D02*
X115296847Y-47062970D01*
X115296847Y-47062970D02*
X115296847Y-47253446D01*
X115296847Y-47253446D02*
X115249228Y-47348684D01*
X115249228Y-47348684D02*
X115153990Y-47396303D01*
X115153990Y-47396303D02*
X115058752Y-47396303D01*
X115058752Y-47396303D02*
X114963514Y-46920113D01*
X114630180Y-47729637D02*
X115296847Y-48253446D01*
X115296847Y-47729637D02*
X114630180Y-48253446D01*
X114677800Y-49348685D02*
X114630180Y-49491542D01*
X114630180Y-49491542D02*
X114630180Y-49729637D01*
X114630180Y-49729637D02*
X114677800Y-49824875D01*
X114677800Y-49824875D02*
X114725419Y-49872494D01*
X114725419Y-49872494D02*
X114820657Y-49920113D01*
X114820657Y-49920113D02*
X114915895Y-49920113D01*
X114915895Y-49920113D02*
X115011133Y-49872494D01*
X115011133Y-49872494D02*
X115058752Y-49824875D01*
X115058752Y-49824875D02*
X115106371Y-49729637D01*
X115106371Y-49729637D02*
X115153990Y-49539161D01*
X115153990Y-49539161D02*
X115201609Y-49443923D01*
X115201609Y-49443923D02*
X115249228Y-49396304D01*
X115249228Y-49396304D02*
X115344466Y-49348685D01*
X115344466Y-49348685D02*
X115439704Y-49348685D01*
X115439704Y-49348685D02*
X115534942Y-49396304D01*
X115534942Y-49396304D02*
X115582561Y-49443923D01*
X115582561Y-49443923D02*
X115630180Y-49539161D01*
X115630180Y-49539161D02*
X115630180Y-49777256D01*
X115630180Y-49777256D02*
X115582561Y-49920113D01*
X114677800Y-50729637D02*
X114630180Y-50634399D01*
X114630180Y-50634399D02*
X114630180Y-50443923D01*
X114630180Y-50443923D02*
X114677800Y-50348685D01*
X114677800Y-50348685D02*
X114773038Y-50301066D01*
X114773038Y-50301066D02*
X115153990Y-50301066D01*
X115153990Y-50301066D02*
X115249228Y-50348685D01*
X115249228Y-50348685D02*
X115296847Y-50443923D01*
X115296847Y-50443923D02*
X115296847Y-50634399D01*
X115296847Y-50634399D02*
X115249228Y-50729637D01*
X115249228Y-50729637D02*
X115153990Y-50777256D01*
X115153990Y-50777256D02*
X115058752Y-50777256D01*
X115058752Y-50777256D02*
X114963514Y-50301066D01*
X114677800Y-51634399D02*
X114630180Y-51539161D01*
X114630180Y-51539161D02*
X114630180Y-51348685D01*
X114630180Y-51348685D02*
X114677800Y-51253447D01*
X114677800Y-51253447D02*
X114725419Y-51205828D01*
X114725419Y-51205828D02*
X114820657Y-51158209D01*
X114820657Y-51158209D02*
X115106371Y-51158209D01*
X115106371Y-51158209D02*
X115201609Y-51205828D01*
X115201609Y-51205828D02*
X115249228Y-51253447D01*
X115249228Y-51253447D02*
X115296847Y-51348685D01*
X115296847Y-51348685D02*
X115296847Y-51539161D01*
X115296847Y-51539161D02*
X115249228Y-51634399D01*
X115296847Y-51920114D02*
X115296847Y-52301066D01*
X115630180Y-52062971D02*
X114773038Y-52062971D01*
X114773038Y-52062971D02*
X114677800Y-52110590D01*
X114677800Y-52110590D02*
X114630180Y-52205828D01*
X114630180Y-52205828D02*
X114630180Y-52301066D01*
X114630180Y-52634400D02*
X115296847Y-52634400D01*
X115630180Y-52634400D02*
X115582561Y-52586781D01*
X115582561Y-52586781D02*
X115534942Y-52634400D01*
X115534942Y-52634400D02*
X115582561Y-52682019D01*
X115582561Y-52682019D02*
X115630180Y-52634400D01*
X115630180Y-52634400D02*
X115534942Y-52634400D01*
X114630180Y-53253447D02*
X114677800Y-53158209D01*
X114677800Y-53158209D02*
X114725419Y-53110590D01*
X114725419Y-53110590D02*
X114820657Y-53062971D01*
X114820657Y-53062971D02*
X115106371Y-53062971D01*
X115106371Y-53062971D02*
X115201609Y-53110590D01*
X115201609Y-53110590D02*
X115249228Y-53158209D01*
X115249228Y-53158209D02*
X115296847Y-53253447D01*
X115296847Y-53253447D02*
X115296847Y-53396304D01*
X115296847Y-53396304D02*
X115249228Y-53491542D01*
X115249228Y-53491542D02*
X115201609Y-53539161D01*
X115201609Y-53539161D02*
X115106371Y-53586780D01*
X115106371Y-53586780D02*
X114820657Y-53586780D01*
X114820657Y-53586780D02*
X114725419Y-53539161D01*
X114725419Y-53539161D02*
X114677800Y-53491542D01*
X114677800Y-53491542D02*
X114630180Y-53396304D01*
X114630180Y-53396304D02*
X114630180Y-53253447D01*
X115296847Y-54015352D02*
X114630180Y-54015352D01*
X115201609Y-54015352D02*
X115249228Y-54062971D01*
X115249228Y-54062971D02*
X115296847Y-54158209D01*
X115296847Y-54158209D02*
X115296847Y-54301066D01*
X115296847Y-54301066D02*
X115249228Y-54396304D01*
X115249228Y-54396304D02*
X115153990Y-54443923D01*
X115153990Y-54443923D02*
X114630180Y-54443923D01*
X100653990Y-45920112D02*
X100653990Y-45586779D01*
X100130180Y-45586779D02*
X101130180Y-45586779D01*
X101130180Y-45586779D02*
X101130180Y-46062969D01*
X100130180Y-46586779D02*
X100177800Y-46491541D01*
X100177800Y-46491541D02*
X100273038Y-46443922D01*
X100273038Y-46443922D02*
X101130180Y-46443922D01*
X100177800Y-47348684D02*
X100130180Y-47253446D01*
X100130180Y-47253446D02*
X100130180Y-47062970D01*
X100130180Y-47062970D02*
X100177800Y-46967732D01*
X100177800Y-46967732D02*
X100273038Y-46920113D01*
X100273038Y-46920113D02*
X100653990Y-46920113D01*
X100653990Y-46920113D02*
X100749228Y-46967732D01*
X100749228Y-46967732D02*
X100796847Y-47062970D01*
X100796847Y-47062970D02*
X100796847Y-47253446D01*
X100796847Y-47253446D02*
X100749228Y-47348684D01*
X100749228Y-47348684D02*
X100653990Y-47396303D01*
X100653990Y-47396303D02*
X100558752Y-47396303D01*
X100558752Y-47396303D02*
X100463514Y-46920113D01*
X100130180Y-47729637D02*
X100796847Y-48253446D01*
X100796847Y-47729637D02*
X100130180Y-48253446D01*
X100177800Y-49348685D02*
X100130180Y-49491542D01*
X100130180Y-49491542D02*
X100130180Y-49729637D01*
X100130180Y-49729637D02*
X100177800Y-49824875D01*
X100177800Y-49824875D02*
X100225419Y-49872494D01*
X100225419Y-49872494D02*
X100320657Y-49920113D01*
X100320657Y-49920113D02*
X100415895Y-49920113D01*
X100415895Y-49920113D02*
X100511133Y-49872494D01*
X100511133Y-49872494D02*
X100558752Y-49824875D01*
X100558752Y-49824875D02*
X100606371Y-49729637D01*
X100606371Y-49729637D02*
X100653990Y-49539161D01*
X100653990Y-49539161D02*
X100701609Y-49443923D01*
X100701609Y-49443923D02*
X100749228Y-49396304D01*
X100749228Y-49396304D02*
X100844466Y-49348685D01*
X100844466Y-49348685D02*
X100939704Y-49348685D01*
X100939704Y-49348685D02*
X101034942Y-49396304D01*
X101034942Y-49396304D02*
X101082561Y-49443923D01*
X101082561Y-49443923D02*
X101130180Y-49539161D01*
X101130180Y-49539161D02*
X101130180Y-49777256D01*
X101130180Y-49777256D02*
X101082561Y-49920113D01*
X100177800Y-50729637D02*
X100130180Y-50634399D01*
X100130180Y-50634399D02*
X100130180Y-50443923D01*
X100130180Y-50443923D02*
X100177800Y-50348685D01*
X100177800Y-50348685D02*
X100273038Y-50301066D01*
X100273038Y-50301066D02*
X100653990Y-50301066D01*
X100653990Y-50301066D02*
X100749228Y-50348685D01*
X100749228Y-50348685D02*
X100796847Y-50443923D01*
X100796847Y-50443923D02*
X100796847Y-50634399D01*
X100796847Y-50634399D02*
X100749228Y-50729637D01*
X100749228Y-50729637D02*
X100653990Y-50777256D01*
X100653990Y-50777256D02*
X100558752Y-50777256D01*
X100558752Y-50777256D02*
X100463514Y-50301066D01*
X100177800Y-51634399D02*
X100130180Y-51539161D01*
X100130180Y-51539161D02*
X100130180Y-51348685D01*
X100130180Y-51348685D02*
X100177800Y-51253447D01*
X100177800Y-51253447D02*
X100225419Y-51205828D01*
X100225419Y-51205828D02*
X100320657Y-51158209D01*
X100320657Y-51158209D02*
X100606371Y-51158209D01*
X100606371Y-51158209D02*
X100701609Y-51205828D01*
X100701609Y-51205828D02*
X100749228Y-51253447D01*
X100749228Y-51253447D02*
X100796847Y-51348685D01*
X100796847Y-51348685D02*
X100796847Y-51539161D01*
X100796847Y-51539161D02*
X100749228Y-51634399D01*
X100796847Y-51920114D02*
X100796847Y-52301066D01*
X101130180Y-52062971D02*
X100273038Y-52062971D01*
X100273038Y-52062971D02*
X100177800Y-52110590D01*
X100177800Y-52110590D02*
X100130180Y-52205828D01*
X100130180Y-52205828D02*
X100130180Y-52301066D01*
X100130180Y-52634400D02*
X100796847Y-52634400D01*
X101130180Y-52634400D02*
X101082561Y-52586781D01*
X101082561Y-52586781D02*
X101034942Y-52634400D01*
X101034942Y-52634400D02*
X101082561Y-52682019D01*
X101082561Y-52682019D02*
X101130180Y-52634400D01*
X101130180Y-52634400D02*
X101034942Y-52634400D01*
X100130180Y-53253447D02*
X100177800Y-53158209D01*
X100177800Y-53158209D02*
X100225419Y-53110590D01*
X100225419Y-53110590D02*
X100320657Y-53062971D01*
X100320657Y-53062971D02*
X100606371Y-53062971D01*
X100606371Y-53062971D02*
X100701609Y-53110590D01*
X100701609Y-53110590D02*
X100749228Y-53158209D01*
X100749228Y-53158209D02*
X100796847Y-53253447D01*
X100796847Y-53253447D02*
X100796847Y-53396304D01*
X100796847Y-53396304D02*
X100749228Y-53491542D01*
X100749228Y-53491542D02*
X100701609Y-53539161D01*
X100701609Y-53539161D02*
X100606371Y-53586780D01*
X100606371Y-53586780D02*
X100320657Y-53586780D01*
X100320657Y-53586780D02*
X100225419Y-53539161D01*
X100225419Y-53539161D02*
X100177800Y-53491542D01*
X100177800Y-53491542D02*
X100130180Y-53396304D01*
X100130180Y-53396304D02*
X100130180Y-53253447D01*
X100796847Y-54015352D02*
X100130180Y-54015352D01*
X100701609Y-54015352D02*
X100749228Y-54062971D01*
X100749228Y-54062971D02*
X100796847Y-54158209D01*
X100796847Y-54158209D02*
X100796847Y-54301066D01*
X100796847Y-54301066D02*
X100749228Y-54396304D01*
X100749228Y-54396304D02*
X100653990Y-54443923D01*
X100653990Y-54443923D02*
X100130180Y-54443923D01*
X85653990Y-46170112D02*
X85653990Y-45836779D01*
X85130180Y-45836779D02*
X86130180Y-45836779D01*
X86130180Y-45836779D02*
X86130180Y-46312969D01*
X85130180Y-46836779D02*
X85177800Y-46741541D01*
X85177800Y-46741541D02*
X85273038Y-46693922D01*
X85273038Y-46693922D02*
X86130180Y-46693922D01*
X85177800Y-47598684D02*
X85130180Y-47503446D01*
X85130180Y-47503446D02*
X85130180Y-47312970D01*
X85130180Y-47312970D02*
X85177800Y-47217732D01*
X85177800Y-47217732D02*
X85273038Y-47170113D01*
X85273038Y-47170113D02*
X85653990Y-47170113D01*
X85653990Y-47170113D02*
X85749228Y-47217732D01*
X85749228Y-47217732D02*
X85796847Y-47312970D01*
X85796847Y-47312970D02*
X85796847Y-47503446D01*
X85796847Y-47503446D02*
X85749228Y-47598684D01*
X85749228Y-47598684D02*
X85653990Y-47646303D01*
X85653990Y-47646303D02*
X85558752Y-47646303D01*
X85558752Y-47646303D02*
X85463514Y-47170113D01*
X85130180Y-47979637D02*
X85796847Y-48503446D01*
X85796847Y-47979637D02*
X85130180Y-48503446D01*
X85177800Y-49598685D02*
X85130180Y-49741542D01*
X85130180Y-49741542D02*
X85130180Y-49979637D01*
X85130180Y-49979637D02*
X85177800Y-50074875D01*
X85177800Y-50074875D02*
X85225419Y-50122494D01*
X85225419Y-50122494D02*
X85320657Y-50170113D01*
X85320657Y-50170113D02*
X85415895Y-50170113D01*
X85415895Y-50170113D02*
X85511133Y-50122494D01*
X85511133Y-50122494D02*
X85558752Y-50074875D01*
X85558752Y-50074875D02*
X85606371Y-49979637D01*
X85606371Y-49979637D02*
X85653990Y-49789161D01*
X85653990Y-49789161D02*
X85701609Y-49693923D01*
X85701609Y-49693923D02*
X85749228Y-49646304D01*
X85749228Y-49646304D02*
X85844466Y-49598685D01*
X85844466Y-49598685D02*
X85939704Y-49598685D01*
X85939704Y-49598685D02*
X86034942Y-49646304D01*
X86034942Y-49646304D02*
X86082561Y-49693923D01*
X86082561Y-49693923D02*
X86130180Y-49789161D01*
X86130180Y-49789161D02*
X86130180Y-50027256D01*
X86130180Y-50027256D02*
X86082561Y-50170113D01*
X85177800Y-50979637D02*
X85130180Y-50884399D01*
X85130180Y-50884399D02*
X85130180Y-50693923D01*
X85130180Y-50693923D02*
X85177800Y-50598685D01*
X85177800Y-50598685D02*
X85273038Y-50551066D01*
X85273038Y-50551066D02*
X85653990Y-50551066D01*
X85653990Y-50551066D02*
X85749228Y-50598685D01*
X85749228Y-50598685D02*
X85796847Y-50693923D01*
X85796847Y-50693923D02*
X85796847Y-50884399D01*
X85796847Y-50884399D02*
X85749228Y-50979637D01*
X85749228Y-50979637D02*
X85653990Y-51027256D01*
X85653990Y-51027256D02*
X85558752Y-51027256D01*
X85558752Y-51027256D02*
X85463514Y-50551066D01*
X85177800Y-51884399D02*
X85130180Y-51789161D01*
X85130180Y-51789161D02*
X85130180Y-51598685D01*
X85130180Y-51598685D02*
X85177800Y-51503447D01*
X85177800Y-51503447D02*
X85225419Y-51455828D01*
X85225419Y-51455828D02*
X85320657Y-51408209D01*
X85320657Y-51408209D02*
X85606371Y-51408209D01*
X85606371Y-51408209D02*
X85701609Y-51455828D01*
X85701609Y-51455828D02*
X85749228Y-51503447D01*
X85749228Y-51503447D02*
X85796847Y-51598685D01*
X85796847Y-51598685D02*
X85796847Y-51789161D01*
X85796847Y-51789161D02*
X85749228Y-51884399D01*
X85796847Y-52170114D02*
X85796847Y-52551066D01*
X86130180Y-52312971D02*
X85273038Y-52312971D01*
X85273038Y-52312971D02*
X85177800Y-52360590D01*
X85177800Y-52360590D02*
X85130180Y-52455828D01*
X85130180Y-52455828D02*
X85130180Y-52551066D01*
X85130180Y-52884400D02*
X85796847Y-52884400D01*
X86130180Y-52884400D02*
X86082561Y-52836781D01*
X86082561Y-52836781D02*
X86034942Y-52884400D01*
X86034942Y-52884400D02*
X86082561Y-52932019D01*
X86082561Y-52932019D02*
X86130180Y-52884400D01*
X86130180Y-52884400D02*
X86034942Y-52884400D01*
X85130180Y-53503447D02*
X85177800Y-53408209D01*
X85177800Y-53408209D02*
X85225419Y-53360590D01*
X85225419Y-53360590D02*
X85320657Y-53312971D01*
X85320657Y-53312971D02*
X85606371Y-53312971D01*
X85606371Y-53312971D02*
X85701609Y-53360590D01*
X85701609Y-53360590D02*
X85749228Y-53408209D01*
X85749228Y-53408209D02*
X85796847Y-53503447D01*
X85796847Y-53503447D02*
X85796847Y-53646304D01*
X85796847Y-53646304D02*
X85749228Y-53741542D01*
X85749228Y-53741542D02*
X85701609Y-53789161D01*
X85701609Y-53789161D02*
X85606371Y-53836780D01*
X85606371Y-53836780D02*
X85320657Y-53836780D01*
X85320657Y-53836780D02*
X85225419Y-53789161D01*
X85225419Y-53789161D02*
X85177800Y-53741542D01*
X85177800Y-53741542D02*
X85130180Y-53646304D01*
X85130180Y-53646304D02*
X85130180Y-53503447D01*
X85796847Y-54265352D02*
X85130180Y-54265352D01*
X85701609Y-54265352D02*
X85749228Y-54312971D01*
X85749228Y-54312971D02*
X85796847Y-54408209D01*
X85796847Y-54408209D02*
X85796847Y-54551066D01*
X85796847Y-54551066D02*
X85749228Y-54646304D01*
X85749228Y-54646304D02*
X85653990Y-54693923D01*
X85653990Y-54693923D02*
X85130180Y-54693923D01*
X55153990Y-46170112D02*
X55153990Y-45836779D01*
X54630180Y-45836779D02*
X55630180Y-45836779D01*
X55630180Y-45836779D02*
X55630180Y-46312969D01*
X54630180Y-46836779D02*
X54677800Y-46741541D01*
X54677800Y-46741541D02*
X54773038Y-46693922D01*
X54773038Y-46693922D02*
X55630180Y-46693922D01*
X54677800Y-47598684D02*
X54630180Y-47503446D01*
X54630180Y-47503446D02*
X54630180Y-47312970D01*
X54630180Y-47312970D02*
X54677800Y-47217732D01*
X54677800Y-47217732D02*
X54773038Y-47170113D01*
X54773038Y-47170113D02*
X55153990Y-47170113D01*
X55153990Y-47170113D02*
X55249228Y-47217732D01*
X55249228Y-47217732D02*
X55296847Y-47312970D01*
X55296847Y-47312970D02*
X55296847Y-47503446D01*
X55296847Y-47503446D02*
X55249228Y-47598684D01*
X55249228Y-47598684D02*
X55153990Y-47646303D01*
X55153990Y-47646303D02*
X55058752Y-47646303D01*
X55058752Y-47646303D02*
X54963514Y-47170113D01*
X54630180Y-47979637D02*
X55296847Y-48503446D01*
X55296847Y-47979637D02*
X54630180Y-48503446D01*
X54677800Y-49598685D02*
X54630180Y-49741542D01*
X54630180Y-49741542D02*
X54630180Y-49979637D01*
X54630180Y-49979637D02*
X54677800Y-50074875D01*
X54677800Y-50074875D02*
X54725419Y-50122494D01*
X54725419Y-50122494D02*
X54820657Y-50170113D01*
X54820657Y-50170113D02*
X54915895Y-50170113D01*
X54915895Y-50170113D02*
X55011133Y-50122494D01*
X55011133Y-50122494D02*
X55058752Y-50074875D01*
X55058752Y-50074875D02*
X55106371Y-49979637D01*
X55106371Y-49979637D02*
X55153990Y-49789161D01*
X55153990Y-49789161D02*
X55201609Y-49693923D01*
X55201609Y-49693923D02*
X55249228Y-49646304D01*
X55249228Y-49646304D02*
X55344466Y-49598685D01*
X55344466Y-49598685D02*
X55439704Y-49598685D01*
X55439704Y-49598685D02*
X55534942Y-49646304D01*
X55534942Y-49646304D02*
X55582561Y-49693923D01*
X55582561Y-49693923D02*
X55630180Y-49789161D01*
X55630180Y-49789161D02*
X55630180Y-50027256D01*
X55630180Y-50027256D02*
X55582561Y-50170113D01*
X54677800Y-50979637D02*
X54630180Y-50884399D01*
X54630180Y-50884399D02*
X54630180Y-50693923D01*
X54630180Y-50693923D02*
X54677800Y-50598685D01*
X54677800Y-50598685D02*
X54773038Y-50551066D01*
X54773038Y-50551066D02*
X55153990Y-50551066D01*
X55153990Y-50551066D02*
X55249228Y-50598685D01*
X55249228Y-50598685D02*
X55296847Y-50693923D01*
X55296847Y-50693923D02*
X55296847Y-50884399D01*
X55296847Y-50884399D02*
X55249228Y-50979637D01*
X55249228Y-50979637D02*
X55153990Y-51027256D01*
X55153990Y-51027256D02*
X55058752Y-51027256D01*
X55058752Y-51027256D02*
X54963514Y-50551066D01*
X54677800Y-51884399D02*
X54630180Y-51789161D01*
X54630180Y-51789161D02*
X54630180Y-51598685D01*
X54630180Y-51598685D02*
X54677800Y-51503447D01*
X54677800Y-51503447D02*
X54725419Y-51455828D01*
X54725419Y-51455828D02*
X54820657Y-51408209D01*
X54820657Y-51408209D02*
X55106371Y-51408209D01*
X55106371Y-51408209D02*
X55201609Y-51455828D01*
X55201609Y-51455828D02*
X55249228Y-51503447D01*
X55249228Y-51503447D02*
X55296847Y-51598685D01*
X55296847Y-51598685D02*
X55296847Y-51789161D01*
X55296847Y-51789161D02*
X55249228Y-51884399D01*
X55296847Y-52170114D02*
X55296847Y-52551066D01*
X55630180Y-52312971D02*
X54773038Y-52312971D01*
X54773038Y-52312971D02*
X54677800Y-52360590D01*
X54677800Y-52360590D02*
X54630180Y-52455828D01*
X54630180Y-52455828D02*
X54630180Y-52551066D01*
X54630180Y-52884400D02*
X55296847Y-52884400D01*
X55630180Y-52884400D02*
X55582561Y-52836781D01*
X55582561Y-52836781D02*
X55534942Y-52884400D01*
X55534942Y-52884400D02*
X55582561Y-52932019D01*
X55582561Y-52932019D02*
X55630180Y-52884400D01*
X55630180Y-52884400D02*
X55534942Y-52884400D01*
X54630180Y-53503447D02*
X54677800Y-53408209D01*
X54677800Y-53408209D02*
X54725419Y-53360590D01*
X54725419Y-53360590D02*
X54820657Y-53312971D01*
X54820657Y-53312971D02*
X55106371Y-53312971D01*
X55106371Y-53312971D02*
X55201609Y-53360590D01*
X55201609Y-53360590D02*
X55249228Y-53408209D01*
X55249228Y-53408209D02*
X55296847Y-53503447D01*
X55296847Y-53503447D02*
X55296847Y-53646304D01*
X55296847Y-53646304D02*
X55249228Y-53741542D01*
X55249228Y-53741542D02*
X55201609Y-53789161D01*
X55201609Y-53789161D02*
X55106371Y-53836780D01*
X55106371Y-53836780D02*
X54820657Y-53836780D01*
X54820657Y-53836780D02*
X54725419Y-53789161D01*
X54725419Y-53789161D02*
X54677800Y-53741542D01*
X54677800Y-53741542D02*
X54630180Y-53646304D01*
X54630180Y-53646304D02*
X54630180Y-53503447D01*
X55296847Y-54265352D02*
X54630180Y-54265352D01*
X55201609Y-54265352D02*
X55249228Y-54312971D01*
X55249228Y-54312971D02*
X55296847Y-54408209D01*
X55296847Y-54408209D02*
X55296847Y-54551066D01*
X55296847Y-54551066D02*
X55249228Y-54646304D01*
X55249228Y-54646304D02*
X55153990Y-54693923D01*
X55153990Y-54693923D02*
X54630180Y-54693923D01*
X69903990Y-45920112D02*
X69903990Y-45586779D01*
X69380180Y-45586779D02*
X70380180Y-45586779D01*
X70380180Y-45586779D02*
X70380180Y-46062969D01*
X69380180Y-46586779D02*
X69427800Y-46491541D01*
X69427800Y-46491541D02*
X69523038Y-46443922D01*
X69523038Y-46443922D02*
X70380180Y-46443922D01*
X69427800Y-47348684D02*
X69380180Y-47253446D01*
X69380180Y-47253446D02*
X69380180Y-47062970D01*
X69380180Y-47062970D02*
X69427800Y-46967732D01*
X69427800Y-46967732D02*
X69523038Y-46920113D01*
X69523038Y-46920113D02*
X69903990Y-46920113D01*
X69903990Y-46920113D02*
X69999228Y-46967732D01*
X69999228Y-46967732D02*
X70046847Y-47062970D01*
X70046847Y-47062970D02*
X70046847Y-47253446D01*
X70046847Y-47253446D02*
X69999228Y-47348684D01*
X69999228Y-47348684D02*
X69903990Y-47396303D01*
X69903990Y-47396303D02*
X69808752Y-47396303D01*
X69808752Y-47396303D02*
X69713514Y-46920113D01*
X69380180Y-47729637D02*
X70046847Y-48253446D01*
X70046847Y-47729637D02*
X69380180Y-48253446D01*
X69427800Y-49348685D02*
X69380180Y-49491542D01*
X69380180Y-49491542D02*
X69380180Y-49729637D01*
X69380180Y-49729637D02*
X69427800Y-49824875D01*
X69427800Y-49824875D02*
X69475419Y-49872494D01*
X69475419Y-49872494D02*
X69570657Y-49920113D01*
X69570657Y-49920113D02*
X69665895Y-49920113D01*
X69665895Y-49920113D02*
X69761133Y-49872494D01*
X69761133Y-49872494D02*
X69808752Y-49824875D01*
X69808752Y-49824875D02*
X69856371Y-49729637D01*
X69856371Y-49729637D02*
X69903990Y-49539161D01*
X69903990Y-49539161D02*
X69951609Y-49443923D01*
X69951609Y-49443923D02*
X69999228Y-49396304D01*
X69999228Y-49396304D02*
X70094466Y-49348685D01*
X70094466Y-49348685D02*
X70189704Y-49348685D01*
X70189704Y-49348685D02*
X70284942Y-49396304D01*
X70284942Y-49396304D02*
X70332561Y-49443923D01*
X70332561Y-49443923D02*
X70380180Y-49539161D01*
X70380180Y-49539161D02*
X70380180Y-49777256D01*
X70380180Y-49777256D02*
X70332561Y-49920113D01*
X69427800Y-50729637D02*
X69380180Y-50634399D01*
X69380180Y-50634399D02*
X69380180Y-50443923D01*
X69380180Y-50443923D02*
X69427800Y-50348685D01*
X69427800Y-50348685D02*
X69523038Y-50301066D01*
X69523038Y-50301066D02*
X69903990Y-50301066D01*
X69903990Y-50301066D02*
X69999228Y-50348685D01*
X69999228Y-50348685D02*
X70046847Y-50443923D01*
X70046847Y-50443923D02*
X70046847Y-50634399D01*
X70046847Y-50634399D02*
X69999228Y-50729637D01*
X69999228Y-50729637D02*
X69903990Y-50777256D01*
X69903990Y-50777256D02*
X69808752Y-50777256D01*
X69808752Y-50777256D02*
X69713514Y-50301066D01*
X69427800Y-51634399D02*
X69380180Y-51539161D01*
X69380180Y-51539161D02*
X69380180Y-51348685D01*
X69380180Y-51348685D02*
X69427800Y-51253447D01*
X69427800Y-51253447D02*
X69475419Y-51205828D01*
X69475419Y-51205828D02*
X69570657Y-51158209D01*
X69570657Y-51158209D02*
X69856371Y-51158209D01*
X69856371Y-51158209D02*
X69951609Y-51205828D01*
X69951609Y-51205828D02*
X69999228Y-51253447D01*
X69999228Y-51253447D02*
X70046847Y-51348685D01*
X70046847Y-51348685D02*
X70046847Y-51539161D01*
X70046847Y-51539161D02*
X69999228Y-51634399D01*
X70046847Y-51920114D02*
X70046847Y-52301066D01*
X70380180Y-52062971D02*
X69523038Y-52062971D01*
X69523038Y-52062971D02*
X69427800Y-52110590D01*
X69427800Y-52110590D02*
X69380180Y-52205828D01*
X69380180Y-52205828D02*
X69380180Y-52301066D01*
X69380180Y-52634400D02*
X70046847Y-52634400D01*
X70380180Y-52634400D02*
X70332561Y-52586781D01*
X70332561Y-52586781D02*
X70284942Y-52634400D01*
X70284942Y-52634400D02*
X70332561Y-52682019D01*
X70332561Y-52682019D02*
X70380180Y-52634400D01*
X70380180Y-52634400D02*
X70284942Y-52634400D01*
X69380180Y-53253447D02*
X69427800Y-53158209D01*
X69427800Y-53158209D02*
X69475419Y-53110590D01*
X69475419Y-53110590D02*
X69570657Y-53062971D01*
X69570657Y-53062971D02*
X69856371Y-53062971D01*
X69856371Y-53062971D02*
X69951609Y-53110590D01*
X69951609Y-53110590D02*
X69999228Y-53158209D01*
X69999228Y-53158209D02*
X70046847Y-53253447D01*
X70046847Y-53253447D02*
X70046847Y-53396304D01*
X70046847Y-53396304D02*
X69999228Y-53491542D01*
X69999228Y-53491542D02*
X69951609Y-53539161D01*
X69951609Y-53539161D02*
X69856371Y-53586780D01*
X69856371Y-53586780D02*
X69570657Y-53586780D01*
X69570657Y-53586780D02*
X69475419Y-53539161D01*
X69475419Y-53539161D02*
X69427800Y-53491542D01*
X69427800Y-53491542D02*
X69380180Y-53396304D01*
X69380180Y-53396304D02*
X69380180Y-53253447D01*
X70046847Y-54015352D02*
X69380180Y-54015352D01*
X69951609Y-54015352D02*
X69999228Y-54062971D01*
X69999228Y-54062971D02*
X70046847Y-54158209D01*
X70046847Y-54158209D02*
X70046847Y-54301066D01*
X70046847Y-54301066D02*
X69999228Y-54396304D01*
X69999228Y-54396304D02*
X69903990Y-54443923D01*
X69903990Y-54443923D02*
X69380180Y-54443923D01*
D11*
X140500000Y-55250000D02*
X140500000Y-44750000D01*
X125500000Y-55250000D02*
X125500000Y-44750000D01*
X110500000Y-55250000D02*
X110500000Y-44750000D01*
X95500000Y-55250000D02*
X95500000Y-44750000D01*
X80750000Y-55250000D02*
X80750000Y-44750000D01*
X65500000Y-55250000D02*
X65500000Y-44750000D01*
X50250000Y-56750000D02*
X50250000Y-43250000D01*
X60000000Y-44750000D02*
X60000000Y-55250000D01*
X75000000Y-55250000D02*
X75000000Y-44750000D01*
X90000000Y-44750000D02*
X90000000Y-55250000D01*
X105000000Y-55250000D02*
X105000000Y-44750000D01*
X120000000Y-44750000D02*
X120000000Y-55250000D01*
X135000000Y-44750000D02*
X135000000Y-55250000D01*
X150000000Y-44750000D02*
X150000000Y-55250000D01*
X155500000Y-55250000D02*
X155500000Y-44750000D01*
X165000000Y-44750000D02*
X165000000Y-55250000D01*
X168500000Y-55250000D02*
X51750000Y-55250000D01*
X170500000Y-46750000D02*
X170500000Y-53250000D01*
X51750000Y-44750000D02*
X168500000Y-44750000D01*
X50250000Y-43000000D02*
X50250000Y-43250000D01*
X50250000Y-56750000D02*
X50250000Y-57000000D01*
X41500000Y-41500000D02*
X48750000Y-41500000D01*
X40000000Y-57000000D02*
X40000000Y-43000000D01*
X41500000Y-58500000D02*
X48750000Y-58500000D01*
X41500000Y-58500000D02*
G75*
G02*
X40000000Y-57000000I0J1500000D01*
G01*
X40000000Y-43000000D02*
G75*
G02*
X41500000Y-41500000I1500000J0D01*
G01*
X48750000Y-41500000D02*
G75*
G02*
X50250000Y-43000000I0J-1500000D01*
G01*
X51750000Y-44750000D02*
G75*
G02*
X50250000Y-43250000I0J1500000D01*
G01*
X50250000Y-57000000D02*
G75*
G02*
X48750000Y-58500000I-1500000J0D01*
G01*
X50250000Y-56750000D02*
G75*
G02*
X51750000Y-55250000I1500000J0D01*
G01*
X170500000Y-53250000D02*
G75*
G02*
X168500000Y-55250000I-2000000J0D01*
G01*
X168500000Y-44750000D02*
G75*
G02*
X170500000Y-46750000I0J-2000000D01*
G01*
X43606419Y-53095237D02*
X42606419Y-53095237D01*
X43606419Y-52523809D02*
X43034990Y-52952380D01*
X42606419Y-52523809D02*
X43177847Y-53095237D01*
X43082609Y-52095237D02*
X43082609Y-51761904D01*
X43606419Y-51619047D02*
X43606419Y-52095237D01*
X43606419Y-52095237D02*
X42606419Y-52095237D01*
X42606419Y-52095237D02*
X42606419Y-51619047D01*
X43082609Y-51190475D02*
X43082609Y-50857142D01*
X43606419Y-50714285D02*
X43606419Y-51190475D01*
X43606419Y-51190475D02*
X42606419Y-51190475D01*
X42606419Y-51190475D02*
X42606419Y-50714285D01*
X43606419Y-50285713D02*
X42606419Y-50285713D01*
X42606419Y-50285713D02*
X42606419Y-49904761D01*
X42606419Y-49904761D02*
X42654038Y-49809523D01*
X42654038Y-49809523D02*
X42701657Y-49761904D01*
X42701657Y-49761904D02*
X42796895Y-49714285D01*
X42796895Y-49714285D02*
X42939752Y-49714285D01*
X42939752Y-49714285D02*
X43034990Y-49761904D01*
X43034990Y-49761904D02*
X43082609Y-49809523D01*
X43082609Y-49809523D02*
X43130228Y-49904761D01*
X43130228Y-49904761D02*
X43130228Y-50285713D01*
X42606419Y-49095237D02*
X42606419Y-48904761D01*
X42606419Y-48904761D02*
X42654038Y-48809523D01*
X42654038Y-48809523D02*
X42749276Y-48714285D01*
X42749276Y-48714285D02*
X42939752Y-48666666D01*
X42939752Y-48666666D02*
X43273085Y-48666666D01*
X43273085Y-48666666D02*
X43463561Y-48714285D01*
X43463561Y-48714285D02*
X43558800Y-48809523D01*
X43558800Y-48809523D02*
X43606419Y-48904761D01*
X43606419Y-48904761D02*
X43606419Y-49095237D01*
X43606419Y-49095237D02*
X43558800Y-49190475D01*
X43558800Y-49190475D02*
X43463561Y-49285713D01*
X43463561Y-49285713D02*
X43273085Y-49333332D01*
X43273085Y-49333332D02*
X42939752Y-49333332D01*
X42939752Y-49333332D02*
X42749276Y-49285713D01*
X42749276Y-49285713D02*
X42654038Y-49190475D01*
X42654038Y-49190475D02*
X42606419Y-49095237D01*
X42606419Y-48238094D02*
X43415942Y-48238094D01*
X43415942Y-48238094D02*
X43511180Y-48190475D01*
X43511180Y-48190475D02*
X43558800Y-48142856D01*
X43558800Y-48142856D02*
X43606419Y-48047618D01*
X43606419Y-48047618D02*
X43606419Y-47857142D01*
X43606419Y-47857142D02*
X43558800Y-47761904D01*
X43558800Y-47761904D02*
X43511180Y-47714285D01*
X43511180Y-47714285D02*
X43415942Y-47666666D01*
X43415942Y-47666666D02*
X42606419Y-47666666D01*
X42606419Y-47333332D02*
X42606419Y-46761904D01*
X43606419Y-47047618D02*
X42606419Y-47047618D01*
D12*
X48500000Y-41500000D02*
X41500000Y-41500000D01*
X40000000Y-43000000D02*
X40000000Y-57000000D01*
X170500000Y-53000000D02*
X170500000Y-47000000D01*
X50250000Y-57000000D02*
G75*
G02*
X48750000Y-58500000I-1500000J0D01*
G01*
X168500000Y-44750000D02*
G75*
G02*
X170500000Y-46750000I0J-2000000D01*
G01*
X170500000Y-53250000D02*
G75*
G02*
X168500000Y-55250000I-2000000J0D01*
G01*
X170500000Y-46750000D02*
X170500000Y-47000000D01*
X51750000Y-55250000D02*
X168500000Y-55250000D01*
X41500000Y-58500000D02*
X48500000Y-58500000D01*
X50250000Y-56750000D02*
G75*
G02*
X51750000Y-55250000I1500000J0D01*
G01*
X48750000Y-41500000D02*
X48500000Y-41500000D01*
X51750000Y-44750000D02*
G75*
G02*
X50250000Y-43250000I0J1500000D01*
G01*
X48750000Y-41500000D02*
G75*
G02*
X50250000Y-43000000I0J-1500000D01*
G01*
X170500000Y-53000000D02*
X170500000Y-53250000D01*
X50250000Y-43000000D02*
X50250000Y-43250000D01*
X41500000Y-58500000D02*
G75*
G02*
X40000000Y-57000000I0J1500000D01*
G01*
X168500000Y-44750000D02*
X51750000Y-44750000D01*
X40000000Y-43000000D02*
G75*
G02*
X41500000Y-41500000I1500000J0D01*
G01*
X48500000Y-58500000D02*
X48750000Y-58500000D01*
X50250000Y-56750000D02*
X50250000Y-57000000D01*
M02*
