%TF.GenerationSoftware,KiCad,Pcbnew,9.0.4*%
%TF.CreationDate,2025-09-15T14:49:51+02:00*%
%TF.ProjectId,ICM ZIF Breakout,49434d20-5a49-4462-9042-7265616b6f75,rev?*%
%TF.SameCoordinates,Original*%
%TF.FileFunction,Copper,L1,Top*%
%TF.FilePolarity,Positive*%
%FSLAX46Y46*%
G04 Gerber Fmt 4.6, Leading zero omitted, Abs format (unit mm)*
G04 Created by KiCad (PCBNEW 9.0.4) date 2025-09-15 14:49:51*
%MOMM*%
%LPD*%
G01*
G04 APERTURE LIST*
%TA.AperFunction,ComponentPad*%
%ADD10R,1.700000X1.700000*%
%TD*%
%TA.AperFunction,ComponentPad*%
%ADD11C,1.700000*%
%TD*%
%TA.AperFunction,SMDPad,CuDef*%
%ADD12R,1.400000X1.220000*%
%TD*%
%TA.AperFunction,SMDPad,CuDef*%
%ADD13R,1.400000X0.850000*%
%TD*%
%TA.AperFunction,SMDPad,CuDef*%
%ADD14R,0.800000X0.300000*%
%TD*%
%TA.AperFunction,Conductor*%
%ADD15C,0.300000*%
%TD*%
%TA.AperFunction,Conductor*%
%ADD16C,0.812800*%
%TD*%
%TA.AperFunction,Profile*%
%ADD17C,0.050000*%
%TD*%
G04 APERTURE END LIST*
D10*
%TO.P,J2,1,Pin_1*%
%TO.N,Net-(J1-Pin_3)*%
X55040000Y-71370000D03*
D11*
%TO.P,J2,2,Pin_2*%
%TO.N,Net-(J1-Pin_1)*%
X52500000Y-71370000D03*
%TO.P,J2,3,Pin_3*%
%TO.N,unconnected-(J2-Pin_3-Pad3)*%
X55040000Y-68830000D03*
%TO.P,J2,4,Pin_4*%
%TO.N,unconnected-(J2-Pin_4-Pad4)*%
X52500000Y-68830000D03*
%TO.P,J2,5,Pin_5*%
%TO.N,Net-(J1-Pin_4)*%
X55040000Y-66290000D03*
%TO.P,J2,6,Pin_6*%
%TO.N,Net-(J1-Pin_5)*%
X52500000Y-66290000D03*
%TO.P,J2,7,Pin_7*%
%TO.N,Net-(J1-Pin_6)*%
X55040000Y-63750000D03*
%TO.P,J2,8,Pin_8*%
%TO.N,Net-(J1-Pin_7)*%
X52500000Y-63750000D03*
%TO.P,J2,9,Pin_9*%
%TO.N,Net-(J1-Pin_8)*%
X55040000Y-61210000D03*
%TO.P,J2,10,Pin_10*%
%TO.N,Net-(J1-Pin_9)*%
X52500000Y-61210000D03*
%TO.P,J2,11,Pin_11*%
%TO.N,Net-(J1-Pin_10)*%
X55040000Y-58670000D03*
%TO.P,J2,12,Pin_12*%
%TO.N,Net-(J1-Pin_11)*%
X52500000Y-58670000D03*
%TO.P,J2,13,Pin_13*%
%TO.N,Net-(J1-Pin_12)*%
X55040000Y-56130000D03*
%TO.P,J2,14,Pin_14*%
%TO.N,Net-(J1-Pin_13)*%
X52500000Y-56130000D03*
%TO.P,J2,15,Pin_15*%
%TO.N,Net-(J1-Pin_14)*%
X55040000Y-53590000D03*
%TO.P,J2,16,Pin_16*%
%TO.N,Net-(J1-Pin_15)*%
X52500000Y-53590000D03*
%TD*%
D12*
%TO.P,J1,MP*%
%TO.N,N/C*%
X68270000Y-57760000D03*
D13*
X69280000Y-61325000D03*
X69280000Y-63675000D03*
D12*
X68270000Y-67240000D03*
D14*
%TO.P,J1,15,Pin_15*%
%TO.N,Net-(J1-Pin_15)*%
X63420000Y-59000000D03*
%TO.P,J1,14,Pin_14*%
%TO.N,Net-(J1-Pin_14)*%
X63420000Y-59500000D03*
%TO.P,J1,13,Pin_13*%
%TO.N,Net-(J1-Pin_13)*%
X63420000Y-60000000D03*
%TO.P,J1,12,Pin_12*%
%TO.N,Net-(J1-Pin_12)*%
X63420000Y-60500000D03*
%TO.P,J1,11,Pin_11*%
%TO.N,Net-(J1-Pin_11)*%
X63420000Y-61000000D03*
%TO.P,J1,10,Pin_10*%
%TO.N,Net-(J1-Pin_10)*%
X63420000Y-61500000D03*
%TO.P,J1,9,Pin_9*%
%TO.N,Net-(J1-Pin_9)*%
X63420000Y-62000000D03*
%TO.P,J1,8,Pin_8*%
%TO.N,Net-(J1-Pin_8)*%
X63420000Y-62500000D03*
%TO.P,J1,7,Pin_7*%
%TO.N,Net-(J1-Pin_7)*%
X63420000Y-63000000D03*
%TO.P,J1,6,Pin_6*%
%TO.N,Net-(J1-Pin_6)*%
X63420000Y-63500000D03*
%TO.P,J1,5,Pin_5*%
%TO.N,Net-(J1-Pin_5)*%
X63420000Y-64000000D03*
%TO.P,J1,4,Pin_4*%
%TO.N,Net-(J1-Pin_4)*%
X63420000Y-64500000D03*
%TO.P,J1,3,Pin_3*%
%TO.N,Net-(J1-Pin_3)*%
X63420000Y-65000000D03*
%TO.P,J1,2,Pin_2*%
%TO.N,unconnected-(J1-Pin_2-Pad2)*%
X63420000Y-65500000D03*
%TO.P,J1,1,Pin_1*%
%TO.N,Net-(J1-Pin_1)*%
X63420000Y-66000000D03*
%TD*%
D15*
%TO.N,Net-(J1-Pin_15)*%
X52500000Y-53250000D02*
X52500000Y-53590000D01*
X56120000Y-51650000D02*
X54100000Y-51650000D01*
X56990000Y-52520000D02*
X56120000Y-51650000D01*
X54100000Y-51650000D02*
X52500000Y-53250000D01*
X56990000Y-54060000D02*
X56990000Y-52520000D01*
X61930000Y-59000000D02*
X56990000Y-54060000D01*
X63420000Y-59000000D02*
X61930000Y-59000000D01*
D16*
%TO.N,Net-(J1-Pin_1)*%
X60100000Y-66500000D02*
X62100000Y-66500000D01*
X58500000Y-68100000D02*
X60100000Y-66500000D01*
X57240000Y-73580000D02*
X58500000Y-72320000D01*
X52500000Y-72830000D02*
X53250000Y-73580000D01*
X58500000Y-72320000D02*
X58500000Y-68100000D01*
X52500000Y-71370000D02*
X52500000Y-72830000D01*
X53250000Y-73580000D02*
X57240000Y-73580000D01*
D15*
%TO.N,Net-(J1-Pin_14)*%
X60950000Y-59500000D02*
X55040000Y-53590000D01*
X63420000Y-59500000D02*
X60950000Y-59500000D01*
%TO.N,Net-(J1-Pin_13)*%
X53839000Y-54791000D02*
X52500000Y-56130000D01*
X60700000Y-60000000D02*
X55491000Y-54791000D01*
X55491000Y-54791000D02*
X53839000Y-54791000D01*
X63420000Y-60000000D02*
X60700000Y-60000000D01*
%TO.N,Net-(J1-Pin_12)*%
X55620000Y-56130000D02*
X55040000Y-56130000D01*
X59990000Y-60500000D02*
X55620000Y-56130000D01*
X63420000Y-60500000D02*
X59990000Y-60500000D01*
%TO.N,Net-(J1-Pin_4)*%
X57910000Y-64500000D02*
X63420000Y-64500000D01*
X56120000Y-66290000D02*
X57910000Y-64500000D01*
X55040000Y-66290000D02*
X56120000Y-66290000D01*
%TO.N,Net-(J1-Pin_5)*%
X53760000Y-65030000D02*
X52500000Y-66290000D01*
X55970000Y-65030000D02*
X53760000Y-65030000D01*
X57000000Y-64000000D02*
X55970000Y-65030000D01*
X63420000Y-64000000D02*
X57000000Y-64000000D01*
%TO.N,Net-(J1-Pin_7)*%
X55540000Y-62480000D02*
X53770000Y-62480000D01*
X63420000Y-63000000D02*
X56060000Y-63000000D01*
X56060000Y-63000000D02*
X55540000Y-62480000D01*
X53770000Y-62480000D02*
X52500000Y-63750000D01*
%TO.N,Net-(J1-Pin_9)*%
X53770000Y-59940000D02*
X52500000Y-61210000D01*
X55800000Y-59940000D02*
X53770000Y-59940000D01*
X57860000Y-62000000D02*
X55800000Y-59940000D01*
X63420000Y-62000000D02*
X57860000Y-62000000D01*
%TO.N,Net-(J1-Pin_11)*%
X53770000Y-57400000D02*
X52500000Y-58670000D01*
X55900000Y-57400000D02*
X53770000Y-57400000D01*
X63420000Y-61000000D02*
X59500000Y-61000000D01*
X59500000Y-61000000D02*
X55900000Y-57400000D01*
%TO.N,Net-(J1-Pin_10)*%
X58740000Y-61500000D02*
X55910000Y-58670000D01*
X55910000Y-58670000D02*
X55040000Y-58670000D01*
X63420000Y-61500000D02*
X58740000Y-61500000D01*
%TO.N,Net-(J1-Pin_8)*%
X56330000Y-62500000D02*
X55040000Y-61210000D01*
X63420000Y-62500000D02*
X56330000Y-62500000D01*
%TO.N,Net-(J1-Pin_6)*%
X56530000Y-63750000D02*
X55040000Y-63750000D01*
X56780000Y-63500000D02*
X56530000Y-63750000D01*
X63420000Y-63500000D02*
X56780000Y-63500000D01*
%TO.N,Net-(J1-Pin_3)*%
X62500000Y-65000000D02*
X62200000Y-65300000D01*
X63420000Y-65000000D02*
X62500000Y-65000000D01*
D16*
X57000000Y-69410000D02*
X55040000Y-71370000D01*
X57000000Y-66750000D02*
X57000000Y-69410000D01*
X58450000Y-65300000D02*
X57000000Y-66750000D01*
X62200000Y-65300000D02*
X58450000Y-65300000D01*
D15*
%TO.N,Net-(J1-Pin_1)*%
X62600000Y-66000000D02*
X62100000Y-66500000D01*
X63420000Y-66000000D02*
X62600000Y-66000000D01*
%TD*%
D17*
X50000000Y-50000000D02*
X72000000Y-50000000D01*
X72000000Y-75000000D01*
X50000000Y-75000000D01*
X50000000Y-50000000D01*
M02*
