%TF.GenerationSoftware,KiCad,Pcbnew,9.0.4*%
%TF.CreationDate,2025-09-15T14:49:51+02:00*%
%TF.ProjectId,ICM ZIF Breakout,49434d20-5a49-4462-9042-7265616b6f75,rev?*%
%TF.SameCoordinates,Original*%
%TF.FileFunction,Legend,Bot*%
%TF.FilePolarity,Positive*%
%FSLAX46Y46*%
G04 Gerber Fmt 4.6, Leading zero omitted, Abs format (unit mm)*
G04 Created by KiCad (PCBNEW 9.0.4) date 2025-09-15 14:49:51*
%MOMM*%
%LPD*%
G01*
G04 APERTURE LIST*
%ADD10C,0.100000*%
%TA.AperFunction,Profile*%
%ADD11C,0.050000*%
%TD*%
G04 APERTURE END LIST*
D10*
X68646115Y-64232419D02*
X68646115Y-63232419D01*
X68646115Y-63232419D02*
X68312782Y-63946704D01*
X68312782Y-63946704D02*
X67979449Y-63232419D01*
X67979449Y-63232419D02*
X67979449Y-64232419D01*
X67312782Y-63232419D02*
X67122306Y-63232419D01*
X67122306Y-63232419D02*
X67027068Y-63280038D01*
X67027068Y-63280038D02*
X66931830Y-63375276D01*
X66931830Y-63375276D02*
X66884211Y-63565752D01*
X66884211Y-63565752D02*
X66884211Y-63899085D01*
X66884211Y-63899085D02*
X66931830Y-64089561D01*
X66931830Y-64089561D02*
X67027068Y-64184800D01*
X67027068Y-64184800D02*
X67122306Y-64232419D01*
X67122306Y-64232419D02*
X67312782Y-64232419D01*
X67312782Y-64232419D02*
X67408020Y-64184800D01*
X67408020Y-64184800D02*
X67503258Y-64089561D01*
X67503258Y-64089561D02*
X67550877Y-63899085D01*
X67550877Y-63899085D02*
X67550877Y-63565752D01*
X67550877Y-63565752D02*
X67503258Y-63375276D01*
X67503258Y-63375276D02*
X67408020Y-63280038D01*
X67408020Y-63280038D02*
X67312782Y-63232419D01*
X66503258Y-64184800D02*
X66360401Y-64232419D01*
X66360401Y-64232419D02*
X66122306Y-64232419D01*
X66122306Y-64232419D02*
X66027068Y-64184800D01*
X66027068Y-64184800D02*
X65979449Y-64137180D01*
X65979449Y-64137180D02*
X65931830Y-64041942D01*
X65931830Y-64041942D02*
X65931830Y-63946704D01*
X65931830Y-63946704D02*
X65979449Y-63851466D01*
X65979449Y-63851466D02*
X66027068Y-63803847D01*
X66027068Y-63803847D02*
X66122306Y-63756228D01*
X66122306Y-63756228D02*
X66312782Y-63708609D01*
X66312782Y-63708609D02*
X66408020Y-63660990D01*
X66408020Y-63660990D02*
X66455639Y-63613371D01*
X66455639Y-63613371D02*
X66503258Y-63518133D01*
X66503258Y-63518133D02*
X66503258Y-63422895D01*
X66503258Y-63422895D02*
X66455639Y-63327657D01*
X66455639Y-63327657D02*
X66408020Y-63280038D01*
X66408020Y-63280038D02*
X66312782Y-63232419D01*
X66312782Y-63232419D02*
X66074687Y-63232419D01*
X66074687Y-63232419D02*
X65931830Y-63280038D01*
X65503258Y-64232419D02*
X65503258Y-63232419D01*
X64027068Y-64565752D02*
X64027068Y-63137180D01*
X61979449Y-64137180D02*
X62027068Y-64184800D01*
X62027068Y-64184800D02*
X62169925Y-64232419D01*
X62169925Y-64232419D02*
X62265163Y-64232419D01*
X62265163Y-64232419D02*
X62408020Y-64184800D01*
X62408020Y-64184800D02*
X62503258Y-64089561D01*
X62503258Y-64089561D02*
X62550877Y-63994323D01*
X62550877Y-63994323D02*
X62598496Y-63803847D01*
X62598496Y-63803847D02*
X62598496Y-63660990D01*
X62598496Y-63660990D02*
X62550877Y-63470514D01*
X62550877Y-63470514D02*
X62503258Y-63375276D01*
X62503258Y-63375276D02*
X62408020Y-63280038D01*
X62408020Y-63280038D02*
X62265163Y-63232419D01*
X62265163Y-63232419D02*
X62169925Y-63232419D01*
X62169925Y-63232419D02*
X62027068Y-63280038D01*
X62027068Y-63280038D02*
X61979449Y-63327657D01*
X61074687Y-64232419D02*
X61550877Y-64232419D01*
X61550877Y-64232419D02*
X61550877Y-63232419D01*
X60741353Y-64232419D02*
X60741353Y-63232419D01*
X60169925Y-64232419D02*
X60598496Y-63660990D01*
X60169925Y-63232419D02*
X60741353Y-63803847D01*
X67552306Y-70910038D02*
X67647544Y-70862419D01*
X67647544Y-70862419D02*
X67790401Y-70862419D01*
X67790401Y-70862419D02*
X67933258Y-70910038D01*
X67933258Y-70910038D02*
X68028496Y-71005276D01*
X68028496Y-71005276D02*
X68076115Y-71100514D01*
X68076115Y-71100514D02*
X68123734Y-71290990D01*
X68123734Y-71290990D02*
X68123734Y-71433847D01*
X68123734Y-71433847D02*
X68076115Y-71624323D01*
X68076115Y-71624323D02*
X68028496Y-71719561D01*
X68028496Y-71719561D02*
X67933258Y-71814800D01*
X67933258Y-71814800D02*
X67790401Y-71862419D01*
X67790401Y-71862419D02*
X67695163Y-71862419D01*
X67695163Y-71862419D02*
X67552306Y-71814800D01*
X67552306Y-71814800D02*
X67504687Y-71767180D01*
X67504687Y-71767180D02*
X67504687Y-71433847D01*
X67504687Y-71433847D02*
X67695163Y-71433847D01*
X67076115Y-71862419D02*
X67076115Y-70862419D01*
X67076115Y-70862419D02*
X66504687Y-71862419D01*
X66504687Y-71862419D02*
X66504687Y-70862419D01*
X66028496Y-71862419D02*
X66028496Y-70862419D01*
X66028496Y-70862419D02*
X65790401Y-70862419D01*
X65790401Y-70862419D02*
X65647544Y-70910038D01*
X65647544Y-70910038D02*
X65552306Y-71005276D01*
X65552306Y-71005276D02*
X65504687Y-71100514D01*
X65504687Y-71100514D02*
X65457068Y-71290990D01*
X65457068Y-71290990D02*
X65457068Y-71433847D01*
X65457068Y-71433847D02*
X65504687Y-71624323D01*
X65504687Y-71624323D02*
X65552306Y-71719561D01*
X65552306Y-71719561D02*
X65647544Y-71814800D01*
X65647544Y-71814800D02*
X65790401Y-71862419D01*
X65790401Y-71862419D02*
X66028496Y-71862419D01*
X64028496Y-72195752D02*
X64028496Y-70767180D01*
X62695162Y-70862419D02*
X62361829Y-71862419D01*
X62361829Y-71862419D02*
X62028496Y-70862419D01*
X61695162Y-71862419D02*
X61695162Y-70862419D01*
X61695162Y-70862419D02*
X61457067Y-70862419D01*
X61457067Y-70862419D02*
X61314210Y-70910038D01*
X61314210Y-70910038D02*
X61218972Y-71005276D01*
X61218972Y-71005276D02*
X61171353Y-71100514D01*
X61171353Y-71100514D02*
X61123734Y-71290990D01*
X61123734Y-71290990D02*
X61123734Y-71433847D01*
X61123734Y-71433847D02*
X61171353Y-71624323D01*
X61171353Y-71624323D02*
X61218972Y-71719561D01*
X61218972Y-71719561D02*
X61314210Y-71814800D01*
X61314210Y-71814800D02*
X61457067Y-71862419D01*
X61457067Y-71862419D02*
X61695162Y-71862419D01*
X60695162Y-71862419D02*
X60695162Y-70862419D01*
X60695162Y-70862419D02*
X60457067Y-70862419D01*
X60457067Y-70862419D02*
X60314210Y-70910038D01*
X60314210Y-70910038D02*
X60218972Y-71005276D01*
X60218972Y-71005276D02*
X60171353Y-71100514D01*
X60171353Y-71100514D02*
X60123734Y-71290990D01*
X60123734Y-71290990D02*
X60123734Y-71433847D01*
X60123734Y-71433847D02*
X60171353Y-71624323D01*
X60171353Y-71624323D02*
X60218972Y-71719561D01*
X60218972Y-71719561D02*
X60314210Y-71814800D01*
X60314210Y-71814800D02*
X60457067Y-71862419D01*
X60457067Y-71862419D02*
X60695162Y-71862419D01*
X66071353Y-68312419D02*
X65404687Y-69312419D01*
X65404687Y-68312419D02*
X66071353Y-69312419D01*
X64023734Y-69645752D02*
X64023734Y-68217180D01*
X62642781Y-68312419D02*
X61976115Y-69312419D01*
X61976115Y-68312419D02*
X62642781Y-69312419D01*
X68124687Y-53977180D02*
X68172306Y-54024800D01*
X68172306Y-54024800D02*
X68315163Y-54072419D01*
X68315163Y-54072419D02*
X68410401Y-54072419D01*
X68410401Y-54072419D02*
X68553258Y-54024800D01*
X68553258Y-54024800D02*
X68648496Y-53929561D01*
X68648496Y-53929561D02*
X68696115Y-53834323D01*
X68696115Y-53834323D02*
X68743734Y-53643847D01*
X68743734Y-53643847D02*
X68743734Y-53500990D01*
X68743734Y-53500990D02*
X68696115Y-53310514D01*
X68696115Y-53310514D02*
X68648496Y-53215276D01*
X68648496Y-53215276D02*
X68553258Y-53120038D01*
X68553258Y-53120038D02*
X68410401Y-53072419D01*
X68410401Y-53072419D02*
X68315163Y-53072419D01*
X68315163Y-53072419D02*
X68172306Y-53120038D01*
X68172306Y-53120038D02*
X68124687Y-53167657D01*
X67743734Y-54024800D02*
X67600877Y-54072419D01*
X67600877Y-54072419D02*
X67362782Y-54072419D01*
X67362782Y-54072419D02*
X67267544Y-54024800D01*
X67267544Y-54024800D02*
X67219925Y-53977180D01*
X67219925Y-53977180D02*
X67172306Y-53881942D01*
X67172306Y-53881942D02*
X67172306Y-53786704D01*
X67172306Y-53786704D02*
X67219925Y-53691466D01*
X67219925Y-53691466D02*
X67267544Y-53643847D01*
X67267544Y-53643847D02*
X67362782Y-53596228D01*
X67362782Y-53596228D02*
X67553258Y-53548609D01*
X67553258Y-53548609D02*
X67648496Y-53500990D01*
X67648496Y-53500990D02*
X67696115Y-53453371D01*
X67696115Y-53453371D02*
X67743734Y-53358133D01*
X67743734Y-53358133D02*
X67743734Y-53262895D01*
X67743734Y-53262895D02*
X67696115Y-53167657D01*
X67696115Y-53167657D02*
X67648496Y-53120038D01*
X67648496Y-53120038D02*
X67553258Y-53072419D01*
X67553258Y-53072419D02*
X67315163Y-53072419D01*
X67315163Y-53072419D02*
X67172306Y-53120038D01*
X66029448Y-53167657D02*
X65981829Y-53120038D01*
X65981829Y-53120038D02*
X65886591Y-53072419D01*
X65886591Y-53072419D02*
X65648496Y-53072419D01*
X65648496Y-53072419D02*
X65553258Y-53120038D01*
X65553258Y-53120038D02*
X65505639Y-53167657D01*
X65505639Y-53167657D02*
X65458020Y-53262895D01*
X65458020Y-53262895D02*
X65458020Y-53358133D01*
X65458020Y-53358133D02*
X65505639Y-53500990D01*
X65505639Y-53500990D02*
X66077067Y-54072419D01*
X66077067Y-54072419D02*
X65458020Y-54072419D01*
X64029448Y-54405752D02*
X64029448Y-52977180D01*
X61981829Y-53977180D02*
X62029448Y-54024800D01*
X62029448Y-54024800D02*
X62172305Y-54072419D01*
X62172305Y-54072419D02*
X62267543Y-54072419D01*
X62267543Y-54072419D02*
X62410400Y-54024800D01*
X62410400Y-54024800D02*
X62505638Y-53929561D01*
X62505638Y-53929561D02*
X62553257Y-53834323D01*
X62553257Y-53834323D02*
X62600876Y-53643847D01*
X62600876Y-53643847D02*
X62600876Y-53500990D01*
X62600876Y-53500990D02*
X62553257Y-53310514D01*
X62553257Y-53310514D02*
X62505638Y-53215276D01*
X62505638Y-53215276D02*
X62410400Y-53120038D01*
X62410400Y-53120038D02*
X62267543Y-53072419D01*
X62267543Y-53072419D02*
X62172305Y-53072419D01*
X62172305Y-53072419D02*
X62029448Y-53120038D01*
X62029448Y-53120038D02*
X61981829Y-53167657D01*
X61600876Y-54024800D02*
X61458019Y-54072419D01*
X61458019Y-54072419D02*
X61219924Y-54072419D01*
X61219924Y-54072419D02*
X61124686Y-54024800D01*
X61124686Y-54024800D02*
X61077067Y-53977180D01*
X61077067Y-53977180D02*
X61029448Y-53881942D01*
X61029448Y-53881942D02*
X61029448Y-53786704D01*
X61029448Y-53786704D02*
X61077067Y-53691466D01*
X61077067Y-53691466D02*
X61124686Y-53643847D01*
X61124686Y-53643847D02*
X61219924Y-53596228D01*
X61219924Y-53596228D02*
X61410400Y-53548609D01*
X61410400Y-53548609D02*
X61505638Y-53500990D01*
X61505638Y-53500990D02*
X61553257Y-53453371D01*
X61553257Y-53453371D02*
X61600876Y-53358133D01*
X61600876Y-53358133D02*
X61600876Y-53262895D01*
X61600876Y-53262895D02*
X61553257Y-53167657D01*
X61553257Y-53167657D02*
X61505638Y-53120038D01*
X61505638Y-53120038D02*
X61410400Y-53072419D01*
X61410400Y-53072419D02*
X61172305Y-53072419D01*
X61172305Y-53072419D02*
X61029448Y-53120038D01*
X59315162Y-54072419D02*
X59886590Y-54072419D01*
X59600876Y-54072419D02*
X59600876Y-53072419D01*
X59600876Y-53072419D02*
X59696114Y-53215276D01*
X59696114Y-53215276D02*
X59791352Y-53310514D01*
X59791352Y-53310514D02*
X59886590Y-53358133D01*
X68646115Y-66772419D02*
X68646115Y-65772419D01*
X68646115Y-65772419D02*
X68312782Y-66486704D01*
X68312782Y-66486704D02*
X67979449Y-65772419D01*
X67979449Y-65772419D02*
X67979449Y-66772419D01*
X67503258Y-66772419D02*
X67503258Y-65772419D01*
X67074687Y-66724800D02*
X66931830Y-66772419D01*
X66931830Y-66772419D02*
X66693735Y-66772419D01*
X66693735Y-66772419D02*
X66598497Y-66724800D01*
X66598497Y-66724800D02*
X66550878Y-66677180D01*
X66550878Y-66677180D02*
X66503259Y-66581942D01*
X66503259Y-66581942D02*
X66503259Y-66486704D01*
X66503259Y-66486704D02*
X66550878Y-66391466D01*
X66550878Y-66391466D02*
X66598497Y-66343847D01*
X66598497Y-66343847D02*
X66693735Y-66296228D01*
X66693735Y-66296228D02*
X66884211Y-66248609D01*
X66884211Y-66248609D02*
X66979449Y-66200990D01*
X66979449Y-66200990D02*
X67027068Y-66153371D01*
X67027068Y-66153371D02*
X67074687Y-66058133D01*
X67074687Y-66058133D02*
X67074687Y-65962895D01*
X67074687Y-65962895D02*
X67027068Y-65867657D01*
X67027068Y-65867657D02*
X66979449Y-65820038D01*
X66979449Y-65820038D02*
X66884211Y-65772419D01*
X66884211Y-65772419D02*
X66646116Y-65772419D01*
X66646116Y-65772419D02*
X66503259Y-65820038D01*
X65884211Y-65772419D02*
X65693735Y-65772419D01*
X65693735Y-65772419D02*
X65598497Y-65820038D01*
X65598497Y-65820038D02*
X65503259Y-65915276D01*
X65503259Y-65915276D02*
X65455640Y-66105752D01*
X65455640Y-66105752D02*
X65455640Y-66439085D01*
X65455640Y-66439085D02*
X65503259Y-66629561D01*
X65503259Y-66629561D02*
X65598497Y-66724800D01*
X65598497Y-66724800D02*
X65693735Y-66772419D01*
X65693735Y-66772419D02*
X65884211Y-66772419D01*
X65884211Y-66772419D02*
X65979449Y-66724800D01*
X65979449Y-66724800D02*
X66074687Y-66629561D01*
X66074687Y-66629561D02*
X66122306Y-66439085D01*
X66122306Y-66439085D02*
X66122306Y-66105752D01*
X66122306Y-66105752D02*
X66074687Y-65915276D01*
X66074687Y-65915276D02*
X65979449Y-65820038D01*
X65979449Y-65820038D02*
X65884211Y-65772419D01*
X64027068Y-67105752D02*
X64027068Y-65677180D01*
X61979449Y-66677180D02*
X62027068Y-66724800D01*
X62027068Y-66724800D02*
X62169925Y-66772419D01*
X62169925Y-66772419D02*
X62265163Y-66772419D01*
X62265163Y-66772419D02*
X62408020Y-66724800D01*
X62408020Y-66724800D02*
X62503258Y-66629561D01*
X62503258Y-66629561D02*
X62550877Y-66534323D01*
X62550877Y-66534323D02*
X62598496Y-66343847D01*
X62598496Y-66343847D02*
X62598496Y-66200990D01*
X62598496Y-66200990D02*
X62550877Y-66010514D01*
X62550877Y-66010514D02*
X62503258Y-65915276D01*
X62503258Y-65915276D02*
X62408020Y-65820038D01*
X62408020Y-65820038D02*
X62265163Y-65772419D01*
X62265163Y-65772419D02*
X62169925Y-65772419D01*
X62169925Y-65772419D02*
X62027068Y-65820038D01*
X62027068Y-65820038D02*
X61979449Y-65867657D01*
X61074687Y-66772419D02*
X61550877Y-66772419D01*
X61550877Y-66772419D02*
X61550877Y-65772419D01*
X60741353Y-66772419D02*
X60741353Y-65772419D01*
X60169925Y-66772419D02*
X60598496Y-66200990D01*
X60169925Y-65772419D02*
X60741353Y-66343847D01*
X59741353Y-66772419D02*
X59741353Y-65772419D01*
X59265163Y-66772419D02*
X59265163Y-65772419D01*
X59265163Y-65772419D02*
X58693735Y-66772419D01*
X58693735Y-66772419D02*
X58693735Y-65772419D01*
X68124687Y-61597180D02*
X68172306Y-61644800D01*
X68172306Y-61644800D02*
X68315163Y-61692419D01*
X68315163Y-61692419D02*
X68410401Y-61692419D01*
X68410401Y-61692419D02*
X68553258Y-61644800D01*
X68553258Y-61644800D02*
X68648496Y-61549561D01*
X68648496Y-61549561D02*
X68696115Y-61454323D01*
X68696115Y-61454323D02*
X68743734Y-61263847D01*
X68743734Y-61263847D02*
X68743734Y-61120990D01*
X68743734Y-61120990D02*
X68696115Y-60930514D01*
X68696115Y-60930514D02*
X68648496Y-60835276D01*
X68648496Y-60835276D02*
X68553258Y-60740038D01*
X68553258Y-60740038D02*
X68410401Y-60692419D01*
X68410401Y-60692419D02*
X68315163Y-60692419D01*
X68315163Y-60692419D02*
X68172306Y-60740038D01*
X68172306Y-60740038D02*
X68124687Y-60787657D01*
X67743734Y-61644800D02*
X67600877Y-61692419D01*
X67600877Y-61692419D02*
X67362782Y-61692419D01*
X67362782Y-61692419D02*
X67267544Y-61644800D01*
X67267544Y-61644800D02*
X67219925Y-61597180D01*
X67219925Y-61597180D02*
X67172306Y-61501942D01*
X67172306Y-61501942D02*
X67172306Y-61406704D01*
X67172306Y-61406704D02*
X67219925Y-61311466D01*
X67219925Y-61311466D02*
X67267544Y-61263847D01*
X67267544Y-61263847D02*
X67362782Y-61216228D01*
X67362782Y-61216228D02*
X67553258Y-61168609D01*
X67553258Y-61168609D02*
X67648496Y-61120990D01*
X67648496Y-61120990D02*
X67696115Y-61073371D01*
X67696115Y-61073371D02*
X67743734Y-60978133D01*
X67743734Y-60978133D02*
X67743734Y-60882895D01*
X67743734Y-60882895D02*
X67696115Y-60787657D01*
X67696115Y-60787657D02*
X67648496Y-60740038D01*
X67648496Y-60740038D02*
X67553258Y-60692419D01*
X67553258Y-60692419D02*
X67315163Y-60692419D01*
X67315163Y-60692419D02*
X67172306Y-60740038D01*
X65838972Y-61120990D02*
X65934210Y-61073371D01*
X65934210Y-61073371D02*
X65981829Y-61025752D01*
X65981829Y-61025752D02*
X66029448Y-60930514D01*
X66029448Y-60930514D02*
X66029448Y-60882895D01*
X66029448Y-60882895D02*
X65981829Y-60787657D01*
X65981829Y-60787657D02*
X65934210Y-60740038D01*
X65934210Y-60740038D02*
X65838972Y-60692419D01*
X65838972Y-60692419D02*
X65648496Y-60692419D01*
X65648496Y-60692419D02*
X65553258Y-60740038D01*
X65553258Y-60740038D02*
X65505639Y-60787657D01*
X65505639Y-60787657D02*
X65458020Y-60882895D01*
X65458020Y-60882895D02*
X65458020Y-60930514D01*
X65458020Y-60930514D02*
X65505639Y-61025752D01*
X65505639Y-61025752D02*
X65553258Y-61073371D01*
X65553258Y-61073371D02*
X65648496Y-61120990D01*
X65648496Y-61120990D02*
X65838972Y-61120990D01*
X65838972Y-61120990D02*
X65934210Y-61168609D01*
X65934210Y-61168609D02*
X65981829Y-61216228D01*
X65981829Y-61216228D02*
X66029448Y-61311466D01*
X66029448Y-61311466D02*
X66029448Y-61501942D01*
X66029448Y-61501942D02*
X65981829Y-61597180D01*
X65981829Y-61597180D02*
X65934210Y-61644800D01*
X65934210Y-61644800D02*
X65838972Y-61692419D01*
X65838972Y-61692419D02*
X65648496Y-61692419D01*
X65648496Y-61692419D02*
X65553258Y-61644800D01*
X65553258Y-61644800D02*
X65505639Y-61597180D01*
X65505639Y-61597180D02*
X65458020Y-61501942D01*
X65458020Y-61501942D02*
X65458020Y-61311466D01*
X65458020Y-61311466D02*
X65505639Y-61216228D01*
X65505639Y-61216228D02*
X65553258Y-61168609D01*
X65553258Y-61168609D02*
X65648496Y-61120990D01*
X64029448Y-62025752D02*
X64029448Y-60597180D01*
X61981829Y-61597180D02*
X62029448Y-61644800D01*
X62029448Y-61644800D02*
X62172305Y-61692419D01*
X62172305Y-61692419D02*
X62267543Y-61692419D01*
X62267543Y-61692419D02*
X62410400Y-61644800D01*
X62410400Y-61644800D02*
X62505638Y-61549561D01*
X62505638Y-61549561D02*
X62553257Y-61454323D01*
X62553257Y-61454323D02*
X62600876Y-61263847D01*
X62600876Y-61263847D02*
X62600876Y-61120990D01*
X62600876Y-61120990D02*
X62553257Y-60930514D01*
X62553257Y-60930514D02*
X62505638Y-60835276D01*
X62505638Y-60835276D02*
X62410400Y-60740038D01*
X62410400Y-60740038D02*
X62267543Y-60692419D01*
X62267543Y-60692419D02*
X62172305Y-60692419D01*
X62172305Y-60692419D02*
X62029448Y-60740038D01*
X62029448Y-60740038D02*
X61981829Y-60787657D01*
X61600876Y-61644800D02*
X61458019Y-61692419D01*
X61458019Y-61692419D02*
X61219924Y-61692419D01*
X61219924Y-61692419D02*
X61124686Y-61644800D01*
X61124686Y-61644800D02*
X61077067Y-61597180D01*
X61077067Y-61597180D02*
X61029448Y-61501942D01*
X61029448Y-61501942D02*
X61029448Y-61406704D01*
X61029448Y-61406704D02*
X61077067Y-61311466D01*
X61077067Y-61311466D02*
X61124686Y-61263847D01*
X61124686Y-61263847D02*
X61219924Y-61216228D01*
X61219924Y-61216228D02*
X61410400Y-61168609D01*
X61410400Y-61168609D02*
X61505638Y-61120990D01*
X61505638Y-61120990D02*
X61553257Y-61073371D01*
X61553257Y-61073371D02*
X61600876Y-60978133D01*
X61600876Y-60978133D02*
X61600876Y-60882895D01*
X61600876Y-60882895D02*
X61553257Y-60787657D01*
X61553257Y-60787657D02*
X61505638Y-60740038D01*
X61505638Y-60740038D02*
X61410400Y-60692419D01*
X61410400Y-60692419D02*
X61172305Y-60692419D01*
X61172305Y-60692419D02*
X61029448Y-60740038D01*
X59934209Y-60692419D02*
X59267543Y-60692419D01*
X59267543Y-60692419D02*
X59696114Y-61692419D01*
X68124687Y-59057180D02*
X68172306Y-59104800D01*
X68172306Y-59104800D02*
X68315163Y-59152419D01*
X68315163Y-59152419D02*
X68410401Y-59152419D01*
X68410401Y-59152419D02*
X68553258Y-59104800D01*
X68553258Y-59104800D02*
X68648496Y-59009561D01*
X68648496Y-59009561D02*
X68696115Y-58914323D01*
X68696115Y-58914323D02*
X68743734Y-58723847D01*
X68743734Y-58723847D02*
X68743734Y-58580990D01*
X68743734Y-58580990D02*
X68696115Y-58390514D01*
X68696115Y-58390514D02*
X68648496Y-58295276D01*
X68648496Y-58295276D02*
X68553258Y-58200038D01*
X68553258Y-58200038D02*
X68410401Y-58152419D01*
X68410401Y-58152419D02*
X68315163Y-58152419D01*
X68315163Y-58152419D02*
X68172306Y-58200038D01*
X68172306Y-58200038D02*
X68124687Y-58247657D01*
X67743734Y-59104800D02*
X67600877Y-59152419D01*
X67600877Y-59152419D02*
X67362782Y-59152419D01*
X67362782Y-59152419D02*
X67267544Y-59104800D01*
X67267544Y-59104800D02*
X67219925Y-59057180D01*
X67219925Y-59057180D02*
X67172306Y-58961942D01*
X67172306Y-58961942D02*
X67172306Y-58866704D01*
X67172306Y-58866704D02*
X67219925Y-58771466D01*
X67219925Y-58771466D02*
X67267544Y-58723847D01*
X67267544Y-58723847D02*
X67362782Y-58676228D01*
X67362782Y-58676228D02*
X67553258Y-58628609D01*
X67553258Y-58628609D02*
X67648496Y-58580990D01*
X67648496Y-58580990D02*
X67696115Y-58533371D01*
X67696115Y-58533371D02*
X67743734Y-58438133D01*
X67743734Y-58438133D02*
X67743734Y-58342895D01*
X67743734Y-58342895D02*
X67696115Y-58247657D01*
X67696115Y-58247657D02*
X67648496Y-58200038D01*
X67648496Y-58200038D02*
X67553258Y-58152419D01*
X67553258Y-58152419D02*
X67315163Y-58152419D01*
X67315163Y-58152419D02*
X67172306Y-58200038D01*
X65553258Y-58152419D02*
X65743734Y-58152419D01*
X65743734Y-58152419D02*
X65838972Y-58200038D01*
X65838972Y-58200038D02*
X65886591Y-58247657D01*
X65886591Y-58247657D02*
X65981829Y-58390514D01*
X65981829Y-58390514D02*
X66029448Y-58580990D01*
X66029448Y-58580990D02*
X66029448Y-58961942D01*
X66029448Y-58961942D02*
X65981829Y-59057180D01*
X65981829Y-59057180D02*
X65934210Y-59104800D01*
X65934210Y-59104800D02*
X65838972Y-59152419D01*
X65838972Y-59152419D02*
X65648496Y-59152419D01*
X65648496Y-59152419D02*
X65553258Y-59104800D01*
X65553258Y-59104800D02*
X65505639Y-59057180D01*
X65505639Y-59057180D02*
X65458020Y-58961942D01*
X65458020Y-58961942D02*
X65458020Y-58723847D01*
X65458020Y-58723847D02*
X65505639Y-58628609D01*
X65505639Y-58628609D02*
X65553258Y-58580990D01*
X65553258Y-58580990D02*
X65648496Y-58533371D01*
X65648496Y-58533371D02*
X65838972Y-58533371D01*
X65838972Y-58533371D02*
X65934210Y-58580990D01*
X65934210Y-58580990D02*
X65981829Y-58628609D01*
X65981829Y-58628609D02*
X66029448Y-58723847D01*
X64029448Y-59485752D02*
X64029448Y-58057180D01*
X61981829Y-59057180D02*
X62029448Y-59104800D01*
X62029448Y-59104800D02*
X62172305Y-59152419D01*
X62172305Y-59152419D02*
X62267543Y-59152419D01*
X62267543Y-59152419D02*
X62410400Y-59104800D01*
X62410400Y-59104800D02*
X62505638Y-59009561D01*
X62505638Y-59009561D02*
X62553257Y-58914323D01*
X62553257Y-58914323D02*
X62600876Y-58723847D01*
X62600876Y-58723847D02*
X62600876Y-58580990D01*
X62600876Y-58580990D02*
X62553257Y-58390514D01*
X62553257Y-58390514D02*
X62505638Y-58295276D01*
X62505638Y-58295276D02*
X62410400Y-58200038D01*
X62410400Y-58200038D02*
X62267543Y-58152419D01*
X62267543Y-58152419D02*
X62172305Y-58152419D01*
X62172305Y-58152419D02*
X62029448Y-58200038D01*
X62029448Y-58200038D02*
X61981829Y-58247657D01*
X61600876Y-59104800D02*
X61458019Y-59152419D01*
X61458019Y-59152419D02*
X61219924Y-59152419D01*
X61219924Y-59152419D02*
X61124686Y-59104800D01*
X61124686Y-59104800D02*
X61077067Y-59057180D01*
X61077067Y-59057180D02*
X61029448Y-58961942D01*
X61029448Y-58961942D02*
X61029448Y-58866704D01*
X61029448Y-58866704D02*
X61077067Y-58771466D01*
X61077067Y-58771466D02*
X61124686Y-58723847D01*
X61124686Y-58723847D02*
X61219924Y-58676228D01*
X61219924Y-58676228D02*
X61410400Y-58628609D01*
X61410400Y-58628609D02*
X61505638Y-58580990D01*
X61505638Y-58580990D02*
X61553257Y-58533371D01*
X61553257Y-58533371D02*
X61600876Y-58438133D01*
X61600876Y-58438133D02*
X61600876Y-58342895D01*
X61600876Y-58342895D02*
X61553257Y-58247657D01*
X61553257Y-58247657D02*
X61505638Y-58200038D01*
X61505638Y-58200038D02*
X61410400Y-58152419D01*
X61410400Y-58152419D02*
X61172305Y-58152419D01*
X61172305Y-58152419D02*
X61029448Y-58200038D01*
X59362781Y-58152419D02*
X59838971Y-58152419D01*
X59838971Y-58152419D02*
X59886590Y-58628609D01*
X59886590Y-58628609D02*
X59838971Y-58580990D01*
X59838971Y-58580990D02*
X59743733Y-58533371D01*
X59743733Y-58533371D02*
X59505638Y-58533371D01*
X59505638Y-58533371D02*
X59410400Y-58580990D01*
X59410400Y-58580990D02*
X59362781Y-58628609D01*
X59362781Y-58628609D02*
X59315162Y-58723847D01*
X59315162Y-58723847D02*
X59315162Y-58961942D01*
X59315162Y-58961942D02*
X59362781Y-59057180D01*
X59362781Y-59057180D02*
X59410400Y-59104800D01*
X59410400Y-59104800D02*
X59505638Y-59152419D01*
X59505638Y-59152419D02*
X59743733Y-59152419D01*
X59743733Y-59152419D02*
X59838971Y-59104800D01*
X59838971Y-59104800D02*
X59886590Y-59057180D01*
X68124687Y-56517180D02*
X68172306Y-56564800D01*
X68172306Y-56564800D02*
X68315163Y-56612419D01*
X68315163Y-56612419D02*
X68410401Y-56612419D01*
X68410401Y-56612419D02*
X68553258Y-56564800D01*
X68553258Y-56564800D02*
X68648496Y-56469561D01*
X68648496Y-56469561D02*
X68696115Y-56374323D01*
X68696115Y-56374323D02*
X68743734Y-56183847D01*
X68743734Y-56183847D02*
X68743734Y-56040990D01*
X68743734Y-56040990D02*
X68696115Y-55850514D01*
X68696115Y-55850514D02*
X68648496Y-55755276D01*
X68648496Y-55755276D02*
X68553258Y-55660038D01*
X68553258Y-55660038D02*
X68410401Y-55612419D01*
X68410401Y-55612419D02*
X68315163Y-55612419D01*
X68315163Y-55612419D02*
X68172306Y-55660038D01*
X68172306Y-55660038D02*
X68124687Y-55707657D01*
X67743734Y-56564800D02*
X67600877Y-56612419D01*
X67600877Y-56612419D02*
X67362782Y-56612419D01*
X67362782Y-56612419D02*
X67267544Y-56564800D01*
X67267544Y-56564800D02*
X67219925Y-56517180D01*
X67219925Y-56517180D02*
X67172306Y-56421942D01*
X67172306Y-56421942D02*
X67172306Y-56326704D01*
X67172306Y-56326704D02*
X67219925Y-56231466D01*
X67219925Y-56231466D02*
X67267544Y-56183847D01*
X67267544Y-56183847D02*
X67362782Y-56136228D01*
X67362782Y-56136228D02*
X67553258Y-56088609D01*
X67553258Y-56088609D02*
X67648496Y-56040990D01*
X67648496Y-56040990D02*
X67696115Y-55993371D01*
X67696115Y-55993371D02*
X67743734Y-55898133D01*
X67743734Y-55898133D02*
X67743734Y-55802895D01*
X67743734Y-55802895D02*
X67696115Y-55707657D01*
X67696115Y-55707657D02*
X67648496Y-55660038D01*
X67648496Y-55660038D02*
X67553258Y-55612419D01*
X67553258Y-55612419D02*
X67315163Y-55612419D01*
X67315163Y-55612419D02*
X67172306Y-55660038D01*
X65553258Y-55945752D02*
X65553258Y-56612419D01*
X65791353Y-55564800D02*
X66029448Y-56279085D01*
X66029448Y-56279085D02*
X65410401Y-56279085D01*
X64029448Y-56945752D02*
X64029448Y-55517180D01*
X61981829Y-56517180D02*
X62029448Y-56564800D01*
X62029448Y-56564800D02*
X62172305Y-56612419D01*
X62172305Y-56612419D02*
X62267543Y-56612419D01*
X62267543Y-56612419D02*
X62410400Y-56564800D01*
X62410400Y-56564800D02*
X62505638Y-56469561D01*
X62505638Y-56469561D02*
X62553257Y-56374323D01*
X62553257Y-56374323D02*
X62600876Y-56183847D01*
X62600876Y-56183847D02*
X62600876Y-56040990D01*
X62600876Y-56040990D02*
X62553257Y-55850514D01*
X62553257Y-55850514D02*
X62505638Y-55755276D01*
X62505638Y-55755276D02*
X62410400Y-55660038D01*
X62410400Y-55660038D02*
X62267543Y-55612419D01*
X62267543Y-55612419D02*
X62172305Y-55612419D01*
X62172305Y-55612419D02*
X62029448Y-55660038D01*
X62029448Y-55660038D02*
X61981829Y-55707657D01*
X61600876Y-56564800D02*
X61458019Y-56612419D01*
X61458019Y-56612419D02*
X61219924Y-56612419D01*
X61219924Y-56612419D02*
X61124686Y-56564800D01*
X61124686Y-56564800D02*
X61077067Y-56517180D01*
X61077067Y-56517180D02*
X61029448Y-56421942D01*
X61029448Y-56421942D02*
X61029448Y-56326704D01*
X61029448Y-56326704D02*
X61077067Y-56231466D01*
X61077067Y-56231466D02*
X61124686Y-56183847D01*
X61124686Y-56183847D02*
X61219924Y-56136228D01*
X61219924Y-56136228D02*
X61410400Y-56088609D01*
X61410400Y-56088609D02*
X61505638Y-56040990D01*
X61505638Y-56040990D02*
X61553257Y-55993371D01*
X61553257Y-55993371D02*
X61600876Y-55898133D01*
X61600876Y-55898133D02*
X61600876Y-55802895D01*
X61600876Y-55802895D02*
X61553257Y-55707657D01*
X61553257Y-55707657D02*
X61505638Y-55660038D01*
X61505638Y-55660038D02*
X61410400Y-55612419D01*
X61410400Y-55612419D02*
X61172305Y-55612419D01*
X61172305Y-55612419D02*
X61029448Y-55660038D01*
X59934209Y-55612419D02*
X59315162Y-55612419D01*
X59315162Y-55612419D02*
X59648495Y-55993371D01*
X59648495Y-55993371D02*
X59505638Y-55993371D01*
X59505638Y-55993371D02*
X59410400Y-56040990D01*
X59410400Y-56040990D02*
X59362781Y-56088609D01*
X59362781Y-56088609D02*
X59315162Y-56183847D01*
X59315162Y-56183847D02*
X59315162Y-56421942D01*
X59315162Y-56421942D02*
X59362781Y-56517180D01*
X59362781Y-56517180D02*
X59410400Y-56564800D01*
X59410400Y-56564800D02*
X59505638Y-56612419D01*
X59505638Y-56612419D02*
X59791352Y-56612419D01*
X59791352Y-56612419D02*
X59886590Y-56564800D01*
X59886590Y-56564800D02*
X59934209Y-56517180D01*
D11*
X50000000Y-50000000D02*
X72000000Y-50000000D01*
X72000000Y-75000000D01*
X50000000Y-75000000D01*
X50000000Y-50000000D01*
M02*
