%TF.GenerationSoftware,KiCad,Pcbnew,9.0.4*%
%TF.CreationDate,2025-09-15T14:49:51+02:00*%
%TF.ProjectId,ICM ZIF Breakout,49434d20-5a49-4462-9042-7265616b6f75,rev?*%
%TF.SameCoordinates,Original*%
%TF.FileFunction,Legend,Top*%
%TF.FilePolarity,Positive*%
%FSLAX46Y46*%
G04 Gerber Fmt 4.6, Leading zero omitted, Abs format (unit mm)*
G04 Created by KiCad (PCBNEW 9.0.4) date 2025-09-15 14:49:51*
%MOMM*%
%LPD*%
G01*
G04 APERTURE LIST*
%ADD10C,0.100000*%
%ADD11C,0.120000*%
%TA.AperFunction,Profile*%
%ADD12C,0.050000*%
%TD*%
G04 APERTURE END LIST*
D10*
X59103884Y-52002531D02*
X59103884Y-51002531D01*
X59103884Y-51002531D02*
X59484836Y-51002531D01*
X59484836Y-51002531D02*
X59580074Y-51050150D01*
X59580074Y-51050150D02*
X59627693Y-51097769D01*
X59627693Y-51097769D02*
X59675312Y-51193007D01*
X59675312Y-51193007D02*
X59675312Y-51335864D01*
X59675312Y-51335864D02*
X59627693Y-51431102D01*
X59627693Y-51431102D02*
X59580074Y-51478721D01*
X59580074Y-51478721D02*
X59484836Y-51526340D01*
X59484836Y-51526340D02*
X59103884Y-51526340D01*
X60103884Y-52002531D02*
X60103884Y-51335864D01*
X60103884Y-51002531D02*
X60056265Y-51050150D01*
X60056265Y-51050150D02*
X60103884Y-51097769D01*
X60103884Y-51097769D02*
X60151503Y-51050150D01*
X60151503Y-51050150D02*
X60103884Y-51002531D01*
X60103884Y-51002531D02*
X60103884Y-51097769D01*
X60580074Y-51335864D02*
X60580074Y-52002531D01*
X60580074Y-51431102D02*
X60627693Y-51383483D01*
X60627693Y-51383483D02*
X60722931Y-51335864D01*
X60722931Y-51335864D02*
X60865788Y-51335864D01*
X60865788Y-51335864D02*
X60961026Y-51383483D01*
X60961026Y-51383483D02*
X61008645Y-51478721D01*
X61008645Y-51478721D02*
X61008645Y-52002531D01*
X62246741Y-52002531D02*
X62246741Y-51002531D01*
X62246741Y-51478721D02*
X62818169Y-51478721D01*
X62818169Y-52002531D02*
X62818169Y-51002531D01*
X63675312Y-51954912D02*
X63580074Y-52002531D01*
X63580074Y-52002531D02*
X63389598Y-52002531D01*
X63389598Y-52002531D02*
X63294360Y-51954912D01*
X63294360Y-51954912D02*
X63246741Y-51859673D01*
X63246741Y-51859673D02*
X63246741Y-51478721D01*
X63246741Y-51478721D02*
X63294360Y-51383483D01*
X63294360Y-51383483D02*
X63389598Y-51335864D01*
X63389598Y-51335864D02*
X63580074Y-51335864D01*
X63580074Y-51335864D02*
X63675312Y-51383483D01*
X63675312Y-51383483D02*
X63722931Y-51478721D01*
X63722931Y-51478721D02*
X63722931Y-51573959D01*
X63722931Y-51573959D02*
X63246741Y-51669197D01*
X64580074Y-52002531D02*
X64580074Y-51478721D01*
X64580074Y-51478721D02*
X64532455Y-51383483D01*
X64532455Y-51383483D02*
X64437217Y-51335864D01*
X64437217Y-51335864D02*
X64246741Y-51335864D01*
X64246741Y-51335864D02*
X64151503Y-51383483D01*
X64580074Y-51954912D02*
X64484836Y-52002531D01*
X64484836Y-52002531D02*
X64246741Y-52002531D01*
X64246741Y-52002531D02*
X64151503Y-51954912D01*
X64151503Y-51954912D02*
X64103884Y-51859673D01*
X64103884Y-51859673D02*
X64103884Y-51764435D01*
X64103884Y-51764435D02*
X64151503Y-51669197D01*
X64151503Y-51669197D02*
X64246741Y-51621578D01*
X64246741Y-51621578D02*
X64484836Y-51621578D01*
X64484836Y-51621578D02*
X64580074Y-51573959D01*
X65484836Y-52002531D02*
X65484836Y-51002531D01*
X65484836Y-51954912D02*
X65389598Y-52002531D01*
X65389598Y-52002531D02*
X65199122Y-52002531D01*
X65199122Y-52002531D02*
X65103884Y-51954912D01*
X65103884Y-51954912D02*
X65056265Y-51907292D01*
X65056265Y-51907292D02*
X65008646Y-51812054D01*
X65008646Y-51812054D02*
X65008646Y-51526340D01*
X65008646Y-51526340D02*
X65056265Y-51431102D01*
X65056265Y-51431102D02*
X65103884Y-51383483D01*
X65103884Y-51383483D02*
X65199122Y-51335864D01*
X65199122Y-51335864D02*
X65389598Y-51335864D01*
X65389598Y-51335864D02*
X65484836Y-51383483D01*
X66341979Y-51954912D02*
X66246741Y-52002531D01*
X66246741Y-52002531D02*
X66056265Y-52002531D01*
X66056265Y-52002531D02*
X65961027Y-51954912D01*
X65961027Y-51954912D02*
X65913408Y-51859673D01*
X65913408Y-51859673D02*
X65913408Y-51478721D01*
X65913408Y-51478721D02*
X65961027Y-51383483D01*
X65961027Y-51383483D02*
X66056265Y-51335864D01*
X66056265Y-51335864D02*
X66246741Y-51335864D01*
X66246741Y-51335864D02*
X66341979Y-51383483D01*
X66341979Y-51383483D02*
X66389598Y-51478721D01*
X66389598Y-51478721D02*
X66389598Y-51573959D01*
X66389598Y-51573959D02*
X65913408Y-51669197D01*
X66818170Y-52002531D02*
X66818170Y-51335864D01*
X66818170Y-51526340D02*
X66865789Y-51431102D01*
X66865789Y-51431102D02*
X66913408Y-51383483D01*
X66913408Y-51383483D02*
X67008646Y-51335864D01*
X67008646Y-51335864D02*
X67103884Y-51335864D01*
X59103884Y-53612475D02*
X59103884Y-52612475D01*
X59103884Y-53088665D02*
X59675312Y-53088665D01*
X59675312Y-53612475D02*
X59675312Y-52612475D01*
X60294360Y-53612475D02*
X60199122Y-53564856D01*
X60199122Y-53564856D02*
X60151503Y-53517236D01*
X60151503Y-53517236D02*
X60103884Y-53421998D01*
X60103884Y-53421998D02*
X60103884Y-53136284D01*
X60103884Y-53136284D02*
X60151503Y-53041046D01*
X60151503Y-53041046D02*
X60199122Y-52993427D01*
X60199122Y-52993427D02*
X60294360Y-52945808D01*
X60294360Y-52945808D02*
X60437217Y-52945808D01*
X60437217Y-52945808D02*
X60532455Y-52993427D01*
X60532455Y-52993427D02*
X60580074Y-53041046D01*
X60580074Y-53041046D02*
X60627693Y-53136284D01*
X60627693Y-53136284D02*
X60627693Y-53421998D01*
X60627693Y-53421998D02*
X60580074Y-53517236D01*
X60580074Y-53517236D02*
X60532455Y-53564856D01*
X60532455Y-53564856D02*
X60437217Y-53612475D01*
X60437217Y-53612475D02*
X60294360Y-53612475D01*
X61056265Y-53612475D02*
X61056265Y-52945808D01*
X61056265Y-53136284D02*
X61103884Y-53041046D01*
X61103884Y-53041046D02*
X61151503Y-52993427D01*
X61151503Y-52993427D02*
X61246741Y-52945808D01*
X61246741Y-52945808D02*
X61341979Y-52945808D01*
X61675313Y-53612475D02*
X61675313Y-52945808D01*
X61675313Y-52612475D02*
X61627694Y-52660094D01*
X61627694Y-52660094D02*
X61675313Y-52707713D01*
X61675313Y-52707713D02*
X61722932Y-52660094D01*
X61722932Y-52660094D02*
X61675313Y-52612475D01*
X61675313Y-52612475D02*
X61675313Y-52707713D01*
X62056265Y-52945808D02*
X62580074Y-52945808D01*
X62580074Y-52945808D02*
X62056265Y-53612475D01*
X62056265Y-53612475D02*
X62580074Y-53612475D01*
X63103884Y-53612475D02*
X63008646Y-53564856D01*
X63008646Y-53564856D02*
X62961027Y-53517236D01*
X62961027Y-53517236D02*
X62913408Y-53421998D01*
X62913408Y-53421998D02*
X62913408Y-53136284D01*
X62913408Y-53136284D02*
X62961027Y-53041046D01*
X62961027Y-53041046D02*
X63008646Y-52993427D01*
X63008646Y-52993427D02*
X63103884Y-52945808D01*
X63103884Y-52945808D02*
X63246741Y-52945808D01*
X63246741Y-52945808D02*
X63341979Y-52993427D01*
X63341979Y-52993427D02*
X63389598Y-53041046D01*
X63389598Y-53041046D02*
X63437217Y-53136284D01*
X63437217Y-53136284D02*
X63437217Y-53421998D01*
X63437217Y-53421998D02*
X63389598Y-53517236D01*
X63389598Y-53517236D02*
X63341979Y-53564856D01*
X63341979Y-53564856D02*
X63246741Y-53612475D01*
X63246741Y-53612475D02*
X63103884Y-53612475D01*
X63865789Y-52945808D02*
X63865789Y-53612475D01*
X63865789Y-53041046D02*
X63913408Y-52993427D01*
X63913408Y-52993427D02*
X64008646Y-52945808D01*
X64008646Y-52945808D02*
X64151503Y-52945808D01*
X64151503Y-52945808D02*
X64246741Y-52993427D01*
X64246741Y-52993427D02*
X64294360Y-53088665D01*
X64294360Y-53088665D02*
X64294360Y-53612475D01*
X64627694Y-52945808D02*
X65008646Y-52945808D01*
X64770551Y-52612475D02*
X64770551Y-53469617D01*
X64770551Y-53469617D02*
X64818170Y-53564856D01*
X64818170Y-53564856D02*
X64913408Y-53612475D01*
X64913408Y-53612475D02*
X65008646Y-53612475D01*
X65770551Y-53612475D02*
X65770551Y-53088665D01*
X65770551Y-53088665D02*
X65722932Y-52993427D01*
X65722932Y-52993427D02*
X65627694Y-52945808D01*
X65627694Y-52945808D02*
X65437218Y-52945808D01*
X65437218Y-52945808D02*
X65341980Y-52993427D01*
X65770551Y-53564856D02*
X65675313Y-53612475D01*
X65675313Y-53612475D02*
X65437218Y-53612475D01*
X65437218Y-53612475D02*
X65341980Y-53564856D01*
X65341980Y-53564856D02*
X65294361Y-53469617D01*
X65294361Y-53469617D02*
X65294361Y-53374379D01*
X65294361Y-53374379D02*
X65341980Y-53279141D01*
X65341980Y-53279141D02*
X65437218Y-53231522D01*
X65437218Y-53231522D02*
X65675313Y-53231522D01*
X65675313Y-53231522D02*
X65770551Y-53183903D01*
X66389599Y-53612475D02*
X66294361Y-53564856D01*
X66294361Y-53564856D02*
X66246742Y-53469617D01*
X66246742Y-53469617D02*
X66246742Y-52612475D01*
X67484838Y-52707713D02*
X67532457Y-52660094D01*
X67532457Y-52660094D02*
X67627695Y-52612475D01*
X67627695Y-52612475D02*
X67865790Y-52612475D01*
X67865790Y-52612475D02*
X67961028Y-52660094D01*
X67961028Y-52660094D02*
X68008647Y-52707713D01*
X68008647Y-52707713D02*
X68056266Y-52802951D01*
X68056266Y-52802951D02*
X68056266Y-52898189D01*
X68056266Y-52898189D02*
X68008647Y-53041046D01*
X68008647Y-53041046D02*
X67437219Y-53612475D01*
X67437219Y-53612475D02*
X68056266Y-53612475D01*
X68389600Y-53612475D02*
X68913409Y-52945808D01*
X68389600Y-52945808D02*
X68913409Y-53612475D01*
X69437219Y-53041046D02*
X69341981Y-52993427D01*
X69341981Y-52993427D02*
X69294362Y-52945808D01*
X69294362Y-52945808D02*
X69246743Y-52850570D01*
X69246743Y-52850570D02*
X69246743Y-52802951D01*
X69246743Y-52802951D02*
X69294362Y-52707713D01*
X69294362Y-52707713D02*
X69341981Y-52660094D01*
X69341981Y-52660094D02*
X69437219Y-52612475D01*
X69437219Y-52612475D02*
X69627695Y-52612475D01*
X69627695Y-52612475D02*
X69722933Y-52660094D01*
X69722933Y-52660094D02*
X69770552Y-52707713D01*
X69770552Y-52707713D02*
X69818171Y-52802951D01*
X69818171Y-52802951D02*
X69818171Y-52850570D01*
X69818171Y-52850570D02*
X69770552Y-52945808D01*
X69770552Y-52945808D02*
X69722933Y-52993427D01*
X69722933Y-52993427D02*
X69627695Y-53041046D01*
X69627695Y-53041046D02*
X69437219Y-53041046D01*
X69437219Y-53041046D02*
X69341981Y-53088665D01*
X69341981Y-53088665D02*
X69294362Y-53136284D01*
X69294362Y-53136284D02*
X69246743Y-53231522D01*
X69246743Y-53231522D02*
X69246743Y-53421998D01*
X69246743Y-53421998D02*
X69294362Y-53517236D01*
X69294362Y-53517236D02*
X69341981Y-53564856D01*
X69341981Y-53564856D02*
X69437219Y-53612475D01*
X69437219Y-53612475D02*
X69627695Y-53612475D01*
X69627695Y-53612475D02*
X69722933Y-53564856D01*
X69722933Y-53564856D02*
X69770552Y-53517236D01*
X69770552Y-53517236D02*
X69818171Y-53421998D01*
X69818171Y-53421998D02*
X69818171Y-53231522D01*
X69818171Y-53231522D02*
X69770552Y-53136284D01*
X69770552Y-53136284D02*
X69722933Y-53088665D01*
X69722933Y-53088665D02*
X69627695Y-53041046D01*
X59056265Y-54317657D02*
X59103884Y-54270038D01*
X59103884Y-54270038D02*
X59199122Y-54222419D01*
X59199122Y-54222419D02*
X59437217Y-54222419D01*
X59437217Y-54222419D02*
X59532455Y-54270038D01*
X59532455Y-54270038D02*
X59580074Y-54317657D01*
X59580074Y-54317657D02*
X59627693Y-54412895D01*
X59627693Y-54412895D02*
X59627693Y-54508133D01*
X59627693Y-54508133D02*
X59580074Y-54650990D01*
X59580074Y-54650990D02*
X59008646Y-55222419D01*
X59008646Y-55222419D02*
X59627693Y-55222419D01*
X60056265Y-55127180D02*
X60103884Y-55174800D01*
X60103884Y-55174800D02*
X60056265Y-55222419D01*
X60056265Y-55222419D02*
X60008646Y-55174800D01*
X60008646Y-55174800D02*
X60056265Y-55127180D01*
X60056265Y-55127180D02*
X60056265Y-55222419D01*
X61008645Y-54222419D02*
X60532455Y-54222419D01*
X60532455Y-54222419D02*
X60484836Y-54698609D01*
X60484836Y-54698609D02*
X60532455Y-54650990D01*
X60532455Y-54650990D02*
X60627693Y-54603371D01*
X60627693Y-54603371D02*
X60865788Y-54603371D01*
X60865788Y-54603371D02*
X60961026Y-54650990D01*
X60961026Y-54650990D02*
X61008645Y-54698609D01*
X61008645Y-54698609D02*
X61056264Y-54793847D01*
X61056264Y-54793847D02*
X61056264Y-55031942D01*
X61056264Y-55031942D02*
X61008645Y-55127180D01*
X61008645Y-55127180D02*
X60961026Y-55174800D01*
X60961026Y-55174800D02*
X60865788Y-55222419D01*
X60865788Y-55222419D02*
X60627693Y-55222419D01*
X60627693Y-55222419D02*
X60532455Y-55174800D01*
X60532455Y-55174800D02*
X60484836Y-55127180D01*
X61913407Y-54555752D02*
X61913407Y-55222419D01*
X61675312Y-54174800D02*
X61437217Y-54889085D01*
X61437217Y-54889085D02*
X62056264Y-54889085D01*
X62437217Y-55222419D02*
X62437217Y-54555752D01*
X62437217Y-54650990D02*
X62484836Y-54603371D01*
X62484836Y-54603371D02*
X62580074Y-54555752D01*
X62580074Y-54555752D02*
X62722931Y-54555752D01*
X62722931Y-54555752D02*
X62818169Y-54603371D01*
X62818169Y-54603371D02*
X62865788Y-54698609D01*
X62865788Y-54698609D02*
X62865788Y-55222419D01*
X62865788Y-54698609D02*
X62913407Y-54603371D01*
X62913407Y-54603371D02*
X63008645Y-54555752D01*
X63008645Y-54555752D02*
X63151502Y-54555752D01*
X63151502Y-54555752D02*
X63246741Y-54603371D01*
X63246741Y-54603371D02*
X63294360Y-54698609D01*
X63294360Y-54698609D02*
X63294360Y-55222419D01*
X63770550Y-55222419D02*
X63770550Y-54555752D01*
X63770550Y-54650990D02*
X63818169Y-54603371D01*
X63818169Y-54603371D02*
X63913407Y-54555752D01*
X63913407Y-54555752D02*
X64056264Y-54555752D01*
X64056264Y-54555752D02*
X64151502Y-54603371D01*
X64151502Y-54603371D02*
X64199121Y-54698609D01*
X64199121Y-54698609D02*
X64199121Y-55222419D01*
X64199121Y-54698609D02*
X64246740Y-54603371D01*
X64246740Y-54603371D02*
X64341978Y-54555752D01*
X64341978Y-54555752D02*
X64484835Y-54555752D01*
X64484835Y-54555752D02*
X64580074Y-54603371D01*
X64580074Y-54603371D02*
X64627693Y-54698609D01*
X64627693Y-54698609D02*
X64627693Y-55222419D01*
X65865788Y-55222419D02*
X65865788Y-54222419D01*
X65865788Y-54222419D02*
X66246740Y-54222419D01*
X66246740Y-54222419D02*
X66341978Y-54270038D01*
X66341978Y-54270038D02*
X66389597Y-54317657D01*
X66389597Y-54317657D02*
X66437216Y-54412895D01*
X66437216Y-54412895D02*
X66437216Y-54555752D01*
X66437216Y-54555752D02*
X66389597Y-54650990D01*
X66389597Y-54650990D02*
X66341978Y-54698609D01*
X66341978Y-54698609D02*
X66246740Y-54746228D01*
X66246740Y-54746228D02*
X65865788Y-54746228D01*
X66865788Y-55222419D02*
X66865788Y-54555752D01*
X66865788Y-54222419D02*
X66818169Y-54270038D01*
X66818169Y-54270038D02*
X66865788Y-54317657D01*
X66865788Y-54317657D02*
X66913407Y-54270038D01*
X66913407Y-54270038D02*
X66865788Y-54222419D01*
X66865788Y-54222419D02*
X66865788Y-54317657D01*
X67199121Y-54555752D02*
X67580073Y-54555752D01*
X67341978Y-54222419D02*
X67341978Y-55079561D01*
X67341978Y-55079561D02*
X67389597Y-55174800D01*
X67389597Y-55174800D02*
X67484835Y-55222419D01*
X67484835Y-55222419D02*
X67580073Y-55222419D01*
X68341978Y-55174800D02*
X68246740Y-55222419D01*
X68246740Y-55222419D02*
X68056264Y-55222419D01*
X68056264Y-55222419D02*
X67961026Y-55174800D01*
X67961026Y-55174800D02*
X67913407Y-55127180D01*
X67913407Y-55127180D02*
X67865788Y-55031942D01*
X67865788Y-55031942D02*
X67865788Y-54746228D01*
X67865788Y-54746228D02*
X67913407Y-54650990D01*
X67913407Y-54650990D02*
X67961026Y-54603371D01*
X67961026Y-54603371D02*
X68056264Y-54555752D01*
X68056264Y-54555752D02*
X68246740Y-54555752D01*
X68246740Y-54555752D02*
X68341978Y-54603371D01*
X68770550Y-55222419D02*
X68770550Y-54222419D01*
X69199121Y-55222419D02*
X69199121Y-54698609D01*
X69199121Y-54698609D02*
X69151502Y-54603371D01*
X69151502Y-54603371D02*
X69056264Y-54555752D01*
X69056264Y-54555752D02*
X68913407Y-54555752D01*
X68913407Y-54555752D02*
X68818169Y-54603371D01*
X68818169Y-54603371D02*
X68770550Y-54650990D01*
X58442260Y-53238735D02*
X57364764Y-54316231D01*
X57364764Y-53777483D02*
X57364764Y-54316231D01*
X57364764Y-54316231D02*
X57903512Y-54316231D01*
X64547739Y-69931264D02*
X65625235Y-68853768D01*
X65625235Y-69392516D02*
X65625235Y-68853768D01*
X65625235Y-68853768D02*
X65086487Y-68853768D01*
X59983884Y-69932531D02*
X59983884Y-68932531D01*
X59983884Y-68932531D02*
X60317217Y-69646816D01*
X60317217Y-69646816D02*
X60650550Y-68932531D01*
X60650550Y-68932531D02*
X60650550Y-69932531D01*
X61269598Y-69932531D02*
X61174360Y-69884912D01*
X61174360Y-69884912D02*
X61126741Y-69837292D01*
X61126741Y-69837292D02*
X61079122Y-69742054D01*
X61079122Y-69742054D02*
X61079122Y-69456340D01*
X61079122Y-69456340D02*
X61126741Y-69361102D01*
X61126741Y-69361102D02*
X61174360Y-69313483D01*
X61174360Y-69313483D02*
X61269598Y-69265864D01*
X61269598Y-69265864D02*
X61412455Y-69265864D01*
X61412455Y-69265864D02*
X61507693Y-69313483D01*
X61507693Y-69313483D02*
X61555312Y-69361102D01*
X61555312Y-69361102D02*
X61602931Y-69456340D01*
X61602931Y-69456340D02*
X61602931Y-69742054D01*
X61602931Y-69742054D02*
X61555312Y-69837292D01*
X61555312Y-69837292D02*
X61507693Y-69884912D01*
X61507693Y-69884912D02*
X61412455Y-69932531D01*
X61412455Y-69932531D02*
X61269598Y-69932531D01*
X62174360Y-69932531D02*
X62079122Y-69884912D01*
X62079122Y-69884912D02*
X62031503Y-69789673D01*
X62031503Y-69789673D02*
X62031503Y-68932531D01*
X62936265Y-69884912D02*
X62841027Y-69932531D01*
X62841027Y-69932531D02*
X62650551Y-69932531D01*
X62650551Y-69932531D02*
X62555313Y-69884912D01*
X62555313Y-69884912D02*
X62507694Y-69789673D01*
X62507694Y-69789673D02*
X62507694Y-69408721D01*
X62507694Y-69408721D02*
X62555313Y-69313483D01*
X62555313Y-69313483D02*
X62650551Y-69265864D01*
X62650551Y-69265864D02*
X62841027Y-69265864D01*
X62841027Y-69265864D02*
X62936265Y-69313483D01*
X62936265Y-69313483D02*
X62983884Y-69408721D01*
X62983884Y-69408721D02*
X62983884Y-69503959D01*
X62983884Y-69503959D02*
X62507694Y-69599197D01*
X63317218Y-69932531D02*
X63841027Y-69265864D01*
X63317218Y-69265864D02*
X63841027Y-69932531D01*
X60317217Y-71018665D02*
X59983884Y-71018665D01*
X59983884Y-71542475D02*
X59983884Y-70542475D01*
X59983884Y-70542475D02*
X60460074Y-70542475D01*
X61174360Y-71018665D02*
X60841027Y-71018665D01*
X60841027Y-71542475D02*
X60841027Y-70542475D01*
X60841027Y-70542475D02*
X61317217Y-70542475D01*
X61698170Y-71542475D02*
X61698170Y-70542475D01*
X61698170Y-70542475D02*
X62079122Y-70542475D01*
X62079122Y-70542475D02*
X62174360Y-70590094D01*
X62174360Y-70590094D02*
X62221979Y-70637713D01*
X62221979Y-70637713D02*
X62269598Y-70732951D01*
X62269598Y-70732951D02*
X62269598Y-70875808D01*
X62269598Y-70875808D02*
X62221979Y-70971046D01*
X62221979Y-70971046D02*
X62174360Y-71018665D01*
X62174360Y-71018665D02*
X62079122Y-71066284D01*
X62079122Y-71066284D02*
X61698170Y-71066284D01*
X64031503Y-71447236D02*
X63983884Y-71494856D01*
X63983884Y-71494856D02*
X63841027Y-71542475D01*
X63841027Y-71542475D02*
X63745789Y-71542475D01*
X63745789Y-71542475D02*
X63602932Y-71494856D01*
X63602932Y-71494856D02*
X63507694Y-71399617D01*
X63507694Y-71399617D02*
X63460075Y-71304379D01*
X63460075Y-71304379D02*
X63412456Y-71113903D01*
X63412456Y-71113903D02*
X63412456Y-70971046D01*
X63412456Y-70971046D02*
X63460075Y-70780570D01*
X63460075Y-70780570D02*
X63507694Y-70685332D01*
X63507694Y-70685332D02*
X63602932Y-70590094D01*
X63602932Y-70590094D02*
X63745789Y-70542475D01*
X63745789Y-70542475D02*
X63841027Y-70542475D01*
X63841027Y-70542475D02*
X63983884Y-70590094D01*
X63983884Y-70590094D02*
X64031503Y-70637713D01*
X64602932Y-71542475D02*
X64507694Y-71494856D01*
X64507694Y-71494856D02*
X64460075Y-71447236D01*
X64460075Y-71447236D02*
X64412456Y-71351998D01*
X64412456Y-71351998D02*
X64412456Y-71066284D01*
X64412456Y-71066284D02*
X64460075Y-70971046D01*
X64460075Y-70971046D02*
X64507694Y-70923427D01*
X64507694Y-70923427D02*
X64602932Y-70875808D01*
X64602932Y-70875808D02*
X64745789Y-70875808D01*
X64745789Y-70875808D02*
X64841027Y-70923427D01*
X64841027Y-70923427D02*
X64888646Y-70971046D01*
X64888646Y-70971046D02*
X64936265Y-71066284D01*
X64936265Y-71066284D02*
X64936265Y-71351998D01*
X64936265Y-71351998D02*
X64888646Y-71447236D01*
X64888646Y-71447236D02*
X64841027Y-71494856D01*
X64841027Y-71494856D02*
X64745789Y-71542475D01*
X64745789Y-71542475D02*
X64602932Y-71542475D01*
X65364837Y-70875808D02*
X65364837Y-71542475D01*
X65364837Y-70971046D02*
X65412456Y-70923427D01*
X65412456Y-70923427D02*
X65507694Y-70875808D01*
X65507694Y-70875808D02*
X65650551Y-70875808D01*
X65650551Y-70875808D02*
X65745789Y-70923427D01*
X65745789Y-70923427D02*
X65793408Y-71018665D01*
X65793408Y-71018665D02*
X65793408Y-71542475D01*
X66269599Y-70875808D02*
X66269599Y-71542475D01*
X66269599Y-70971046D02*
X66317218Y-70923427D01*
X66317218Y-70923427D02*
X66412456Y-70875808D01*
X66412456Y-70875808D02*
X66555313Y-70875808D01*
X66555313Y-70875808D02*
X66650551Y-70923427D01*
X66650551Y-70923427D02*
X66698170Y-71018665D01*
X66698170Y-71018665D02*
X66698170Y-71542475D01*
X67555313Y-71494856D02*
X67460075Y-71542475D01*
X67460075Y-71542475D02*
X67269599Y-71542475D01*
X67269599Y-71542475D02*
X67174361Y-71494856D01*
X67174361Y-71494856D02*
X67126742Y-71399617D01*
X67126742Y-71399617D02*
X67126742Y-71018665D01*
X67126742Y-71018665D02*
X67174361Y-70923427D01*
X67174361Y-70923427D02*
X67269599Y-70875808D01*
X67269599Y-70875808D02*
X67460075Y-70875808D01*
X67460075Y-70875808D02*
X67555313Y-70923427D01*
X67555313Y-70923427D02*
X67602932Y-71018665D01*
X67602932Y-71018665D02*
X67602932Y-71113903D01*
X67602932Y-71113903D02*
X67126742Y-71209141D01*
X68460075Y-71494856D02*
X68364837Y-71542475D01*
X68364837Y-71542475D02*
X68174361Y-71542475D01*
X68174361Y-71542475D02*
X68079123Y-71494856D01*
X68079123Y-71494856D02*
X68031504Y-71447236D01*
X68031504Y-71447236D02*
X67983885Y-71351998D01*
X67983885Y-71351998D02*
X67983885Y-71066284D01*
X67983885Y-71066284D02*
X68031504Y-70971046D01*
X68031504Y-70971046D02*
X68079123Y-70923427D01*
X68079123Y-70923427D02*
X68174361Y-70875808D01*
X68174361Y-70875808D02*
X68364837Y-70875808D01*
X68364837Y-70875808D02*
X68460075Y-70923427D01*
X68745790Y-70875808D02*
X69126742Y-70875808D01*
X68888647Y-70542475D02*
X68888647Y-71399617D01*
X68888647Y-71399617D02*
X68936266Y-71494856D01*
X68936266Y-71494856D02*
X69031504Y-71542475D01*
X69031504Y-71542475D02*
X69126742Y-71542475D01*
X69602933Y-71542475D02*
X69507695Y-71494856D01*
X69507695Y-71494856D02*
X69460076Y-71447236D01*
X69460076Y-71447236D02*
X69412457Y-71351998D01*
X69412457Y-71351998D02*
X69412457Y-71066284D01*
X69412457Y-71066284D02*
X69460076Y-70971046D01*
X69460076Y-70971046D02*
X69507695Y-70923427D01*
X69507695Y-70923427D02*
X69602933Y-70875808D01*
X69602933Y-70875808D02*
X69745790Y-70875808D01*
X69745790Y-70875808D02*
X69841028Y-70923427D01*
X69841028Y-70923427D02*
X69888647Y-70971046D01*
X69888647Y-70971046D02*
X69936266Y-71066284D01*
X69936266Y-71066284D02*
X69936266Y-71351998D01*
X69936266Y-71351998D02*
X69888647Y-71447236D01*
X69888647Y-71447236D02*
X69841028Y-71494856D01*
X69841028Y-71494856D02*
X69745790Y-71542475D01*
X69745790Y-71542475D02*
X69602933Y-71542475D01*
X70364838Y-71542475D02*
X70364838Y-70875808D01*
X70364838Y-71066284D02*
X70412457Y-70971046D01*
X70412457Y-70971046D02*
X70460076Y-70923427D01*
X70460076Y-70923427D02*
X70555314Y-70875808D01*
X70555314Y-70875808D02*
X70650552Y-70875808D01*
X60460074Y-72152419D02*
X59983884Y-72152419D01*
X59983884Y-72152419D02*
X59936265Y-72628609D01*
X59936265Y-72628609D02*
X59983884Y-72580990D01*
X59983884Y-72580990D02*
X60079122Y-72533371D01*
X60079122Y-72533371D02*
X60317217Y-72533371D01*
X60317217Y-72533371D02*
X60412455Y-72580990D01*
X60412455Y-72580990D02*
X60460074Y-72628609D01*
X60460074Y-72628609D02*
X60507693Y-72723847D01*
X60507693Y-72723847D02*
X60507693Y-72961942D01*
X60507693Y-72961942D02*
X60460074Y-73057180D01*
X60460074Y-73057180D02*
X60412455Y-73104800D01*
X60412455Y-73104800D02*
X60317217Y-73152419D01*
X60317217Y-73152419D02*
X60079122Y-73152419D01*
X60079122Y-73152419D02*
X59983884Y-73104800D01*
X59983884Y-73104800D02*
X59936265Y-73057180D01*
X61126741Y-72152419D02*
X61221979Y-72152419D01*
X61221979Y-72152419D02*
X61317217Y-72200038D01*
X61317217Y-72200038D02*
X61364836Y-72247657D01*
X61364836Y-72247657D02*
X61412455Y-72342895D01*
X61412455Y-72342895D02*
X61460074Y-72533371D01*
X61460074Y-72533371D02*
X61460074Y-72771466D01*
X61460074Y-72771466D02*
X61412455Y-72961942D01*
X61412455Y-72961942D02*
X61364836Y-73057180D01*
X61364836Y-73057180D02*
X61317217Y-73104800D01*
X61317217Y-73104800D02*
X61221979Y-73152419D01*
X61221979Y-73152419D02*
X61126741Y-73152419D01*
X61126741Y-73152419D02*
X61031503Y-73104800D01*
X61031503Y-73104800D02*
X60983884Y-73057180D01*
X60983884Y-73057180D02*
X60936265Y-72961942D01*
X60936265Y-72961942D02*
X60888646Y-72771466D01*
X60888646Y-72771466D02*
X60888646Y-72533371D01*
X60888646Y-72533371D02*
X60936265Y-72342895D01*
X60936265Y-72342895D02*
X60983884Y-72247657D01*
X60983884Y-72247657D02*
X61031503Y-72200038D01*
X61031503Y-72200038D02*
X61126741Y-72152419D01*
X61841027Y-72247657D02*
X61888646Y-72200038D01*
X61888646Y-72200038D02*
X61983884Y-72152419D01*
X61983884Y-72152419D02*
X62221979Y-72152419D01*
X62221979Y-72152419D02*
X62317217Y-72200038D01*
X62317217Y-72200038D02*
X62364836Y-72247657D01*
X62364836Y-72247657D02*
X62412455Y-72342895D01*
X62412455Y-72342895D02*
X62412455Y-72438133D01*
X62412455Y-72438133D02*
X62364836Y-72580990D01*
X62364836Y-72580990D02*
X61793408Y-73152419D01*
X61793408Y-73152419D02*
X62412455Y-73152419D01*
X62793408Y-72247657D02*
X62841027Y-72200038D01*
X62841027Y-72200038D02*
X62936265Y-72152419D01*
X62936265Y-72152419D02*
X63174360Y-72152419D01*
X63174360Y-72152419D02*
X63269598Y-72200038D01*
X63269598Y-72200038D02*
X63317217Y-72247657D01*
X63317217Y-72247657D02*
X63364836Y-72342895D01*
X63364836Y-72342895D02*
X63364836Y-72438133D01*
X63364836Y-72438133D02*
X63317217Y-72580990D01*
X63317217Y-72580990D02*
X62745789Y-73152419D01*
X62745789Y-73152419D02*
X63364836Y-73152419D01*
X64221979Y-72485752D02*
X64221979Y-73152419D01*
X63983884Y-72104800D02*
X63745789Y-72819085D01*
X63745789Y-72819085D02*
X64364836Y-72819085D01*
X65174360Y-72485752D02*
X65174360Y-73152419D01*
X64936265Y-72104800D02*
X64698170Y-72819085D01*
X64698170Y-72819085D02*
X65317217Y-72819085D01*
X65698170Y-72771466D02*
X66460075Y-72771466D01*
X67460074Y-73152419D02*
X66888646Y-73152419D01*
X67174360Y-73152419D02*
X67174360Y-72152419D01*
X67174360Y-72152419D02*
X67079122Y-72295276D01*
X67079122Y-72295276D02*
X66983884Y-72390514D01*
X66983884Y-72390514D02*
X66888646Y-72438133D01*
X68364836Y-72152419D02*
X67888646Y-72152419D01*
X67888646Y-72152419D02*
X67841027Y-72628609D01*
X67841027Y-72628609D02*
X67888646Y-72580990D01*
X67888646Y-72580990D02*
X67983884Y-72533371D01*
X67983884Y-72533371D02*
X68221979Y-72533371D01*
X68221979Y-72533371D02*
X68317217Y-72580990D01*
X68317217Y-72580990D02*
X68364836Y-72628609D01*
X68364836Y-72628609D02*
X68412455Y-72723847D01*
X68412455Y-72723847D02*
X68412455Y-72961942D01*
X68412455Y-72961942D02*
X68364836Y-73057180D01*
X68364836Y-73057180D02*
X68317217Y-73104800D01*
X68317217Y-73104800D02*
X68221979Y-73152419D01*
X68221979Y-73152419D02*
X67983884Y-73152419D01*
X67983884Y-73152419D02*
X67888646Y-73104800D01*
X67888646Y-73104800D02*
X67841027Y-73057180D01*
X68745789Y-72152419D02*
X69364836Y-72152419D01*
X69364836Y-72152419D02*
X69031503Y-72533371D01*
X69031503Y-72533371D02*
X69174360Y-72533371D01*
X69174360Y-72533371D02*
X69269598Y-72580990D01*
X69269598Y-72580990D02*
X69317217Y-72628609D01*
X69317217Y-72628609D02*
X69364836Y-72723847D01*
X69364836Y-72723847D02*
X69364836Y-72961942D01*
X69364836Y-72961942D02*
X69317217Y-73057180D01*
X69317217Y-73057180D02*
X69269598Y-73104800D01*
X69269598Y-73104800D02*
X69174360Y-73152419D01*
X69174360Y-73152419D02*
X68888646Y-73152419D01*
X68888646Y-73152419D02*
X68793408Y-73104800D01*
X68793408Y-73104800D02*
X68745789Y-73057180D01*
X69983884Y-72152419D02*
X70079122Y-72152419D01*
X70079122Y-72152419D02*
X70174360Y-72200038D01*
X70174360Y-72200038D02*
X70221979Y-72247657D01*
X70221979Y-72247657D02*
X70269598Y-72342895D01*
X70269598Y-72342895D02*
X70317217Y-72533371D01*
X70317217Y-72533371D02*
X70317217Y-72771466D01*
X70317217Y-72771466D02*
X70269598Y-72961942D01*
X70269598Y-72961942D02*
X70221979Y-73057180D01*
X70221979Y-73057180D02*
X70174360Y-73104800D01*
X70174360Y-73104800D02*
X70079122Y-73152419D01*
X70079122Y-73152419D02*
X69983884Y-73152419D01*
X69983884Y-73152419D02*
X69888646Y-73104800D01*
X69888646Y-73104800D02*
X69841027Y-73057180D01*
X69841027Y-73057180D02*
X69793408Y-72961942D01*
X69793408Y-72961942D02*
X69745789Y-72771466D01*
X69745789Y-72771466D02*
X69745789Y-72533371D01*
X69745789Y-72533371D02*
X69793408Y-72342895D01*
X69793408Y-72342895D02*
X69841027Y-72247657D01*
X69841027Y-72247657D02*
X69888646Y-72200038D01*
X69888646Y-72200038D02*
X69983884Y-72152419D01*
D11*
%TO.C,J2*%
X56310000Y-72640000D02*
X55040000Y-72640000D01*
X56310000Y-71370000D02*
X56310000Y-72640000D01*
X53962642Y-69260000D02*
X53577358Y-69260000D01*
X53962642Y-68400000D02*
X53577358Y-68400000D01*
X53962642Y-66720000D02*
X53577358Y-66720000D01*
X53962642Y-65860000D02*
X53577358Y-65860000D01*
X53962642Y-64180000D02*
X53577358Y-64180000D01*
X53962642Y-63320000D02*
X53577358Y-63320000D01*
X53962642Y-61640000D02*
X53577358Y-61640000D01*
X53962642Y-60780000D02*
X53577358Y-60780000D01*
X53962642Y-59100000D02*
X53577358Y-59100000D01*
X53962642Y-58240000D02*
X53577358Y-58240000D01*
X53962642Y-56560000D02*
X53577358Y-56560000D01*
X53962642Y-55700000D02*
X53577358Y-55700000D01*
X53962642Y-54020000D02*
X53577358Y-54020000D01*
X53962642Y-53160000D02*
X53577358Y-53160000D01*
X53880000Y-71800000D02*
X53577358Y-71800000D01*
X53880000Y-70940000D02*
X53577358Y-70940000D01*
X51422642Y-71800000D02*
X51110000Y-71800000D01*
X51422642Y-70940000D02*
X51110000Y-70940000D01*
X51422642Y-69260000D02*
X51110000Y-69260000D01*
X51422642Y-68400000D02*
X51110000Y-68400000D01*
X51422642Y-66720000D02*
X51110000Y-66720000D01*
X51422642Y-65860000D02*
X51110000Y-65860000D01*
X51422642Y-64180000D02*
X51110000Y-64180000D01*
X51422642Y-63320000D02*
X51110000Y-63320000D01*
X51422642Y-61640000D02*
X51110000Y-61640000D01*
X51422642Y-60780000D02*
X51110000Y-60780000D01*
X51422642Y-59100000D02*
X51110000Y-59100000D01*
X51422642Y-58240000D02*
X51110000Y-58240000D01*
X51422642Y-56560000D02*
X51110000Y-56560000D01*
X51422642Y-55700000D02*
X51110000Y-55700000D01*
X51422642Y-54020000D02*
X51110000Y-54020000D01*
X51422642Y-53160000D02*
X51110000Y-53160000D01*
X51110000Y-72750000D02*
X51110000Y-52210000D01*
X51110000Y-70100000D02*
X48350000Y-70100000D01*
X51110000Y-67560000D02*
X48350000Y-67560000D01*
X51110000Y-65020000D02*
X48350000Y-65020000D01*
X51110000Y-62480000D02*
X48350000Y-62480000D01*
X51110000Y-59940000D02*
X48350000Y-59940000D01*
X51110000Y-57400000D02*
X48350000Y-57400000D01*
X51110000Y-54860000D02*
X48350000Y-54860000D01*
X51110000Y-52210000D02*
X48350000Y-52210000D01*
X48350000Y-72750000D02*
X51110000Y-72750000D01*
X48350000Y-69260000D02*
X42350000Y-69260000D01*
X48350000Y-66720000D02*
X42350000Y-66720000D01*
X48350000Y-64180000D02*
X42350000Y-64180000D01*
X48350000Y-61640000D02*
X42350000Y-61640000D01*
X48350000Y-59100000D02*
X42350000Y-59100000D01*
X48350000Y-56560000D02*
X42350000Y-56560000D01*
X48350000Y-54020000D02*
X42350000Y-54020000D01*
X48350000Y-52210000D02*
X48350000Y-72750000D01*
X42350000Y-69260000D02*
X42350000Y-68400000D01*
X42350000Y-68400000D02*
X48350000Y-68400000D01*
X42350000Y-66720000D02*
X42350000Y-65860000D01*
X42350000Y-65860000D02*
X48350000Y-65860000D01*
X42350000Y-64180000D02*
X42350000Y-63320000D01*
X42350000Y-63320000D02*
X48350000Y-63320000D01*
X42350000Y-61640000D02*
X42350000Y-60780000D01*
X42350000Y-60780000D02*
X48350000Y-60780000D01*
X42350000Y-59100000D02*
X42350000Y-58240000D01*
X42350000Y-58240000D02*
X48350000Y-58240000D01*
X42350000Y-56560000D02*
X42350000Y-55700000D01*
X42350000Y-55700000D02*
X48350000Y-55700000D01*
X42350000Y-54020000D02*
X42350000Y-53160000D01*
X42350000Y-53160000D02*
X48350000Y-53160000D01*
X48350000Y-71800000D02*
X42350000Y-71800000D01*
X42350000Y-70940000D01*
X48350000Y-70940000D01*
X48350000Y-71800000D01*
G36*
X48350000Y-71800000D02*
G01*
X42350000Y-71800000D01*
X42350000Y-70940000D01*
X48350000Y-70940000D01*
X48350000Y-71800000D01*
G37*
%TO.C,J1*%
X63540000Y-57390000D02*
X67200000Y-57390000D01*
X63540000Y-58400000D02*
X63540000Y-57390000D01*
X63740000Y-58410000D02*
X63740000Y-58600000D01*
X63540000Y-58410000D02*
X63740000Y-58410000D01*
X68950000Y-60600000D02*
X68950000Y-58700000D01*
X68950000Y-63000000D02*
X68950000Y-62000000D01*
X68950000Y-66300000D02*
X68950000Y-64400000D01*
X63740000Y-66400000D02*
X63050000Y-66400000D01*
X63740000Y-66590000D02*
X63740000Y-66400000D01*
X63740000Y-66590000D02*
X63540000Y-66590000D01*
X67200000Y-67610000D02*
X63540000Y-67610000D01*
X63540000Y-67610000D02*
X63540000Y-66600000D01*
%TD*%
D12*
X50000000Y-50000000D02*
X72000000Y-50000000D01*
X72000000Y-75000000D01*
X50000000Y-75000000D01*
X50000000Y-50000000D01*
M02*
