%TF.GenerationSoftware,KiCad,Pcbnew,9.0.4*%
%TF.CreationDate,2025-09-12T03:13:26+02:00*%
%TF.ProjectId,ICM Single Side-rounded,49434d20-5369-46e6-976c-652053696465,rev?*%
%TF.SameCoordinates,Original*%
%TF.FileFunction,Legend,Top*%
%TF.FilePolarity,Positive*%
%FSLAX46Y46*%
G04 Gerber Fmt 4.6, Leading zero omitted, Abs format (unit mm)*
G04 Created by KiCad (PCBNEW 9.0.4) date 2025-09-12 03:13:26*
%MOMM*%
%LPD*%
G01*
G04 APERTURE LIST*
%ADD10C,0.150000*%
%ADD11C,0.100000*%
%ADD12C,0.125000*%
%ADD13C,0.127000*%
%ADD14C,0.200000*%
%TA.AperFunction,Profile*%
%ADD15C,0.050000*%
%TD*%
G04 APERTURE END LIST*
D10*
X89953800Y-47511064D02*
X89915704Y-47625350D01*
X89915704Y-47625350D02*
X89915704Y-47815826D01*
X89915704Y-47815826D02*
X89953800Y-47892017D01*
X89953800Y-47892017D02*
X89991895Y-47930112D01*
X89991895Y-47930112D02*
X90068085Y-47968207D01*
X90068085Y-47968207D02*
X90144276Y-47968207D01*
X90144276Y-47968207D02*
X90220466Y-47930112D01*
X90220466Y-47930112D02*
X90258561Y-47892017D01*
X90258561Y-47892017D02*
X90296657Y-47815826D01*
X90296657Y-47815826D02*
X90334752Y-47663445D01*
X90334752Y-47663445D02*
X90372847Y-47587255D01*
X90372847Y-47587255D02*
X90410942Y-47549160D01*
X90410942Y-47549160D02*
X90487133Y-47511064D01*
X90487133Y-47511064D02*
X90563323Y-47511064D01*
X90563323Y-47511064D02*
X90639514Y-47549160D01*
X90639514Y-47549160D02*
X90677609Y-47587255D01*
X90677609Y-47587255D02*
X90715704Y-47663445D01*
X90715704Y-47663445D02*
X90715704Y-47853922D01*
X90715704Y-47853922D02*
X90677609Y-47968207D01*
X89953800Y-48615827D02*
X89915704Y-48539636D01*
X89915704Y-48539636D02*
X89915704Y-48387255D01*
X89915704Y-48387255D02*
X89953800Y-48311065D01*
X89953800Y-48311065D02*
X90029990Y-48272969D01*
X90029990Y-48272969D02*
X90334752Y-48272969D01*
X90334752Y-48272969D02*
X90410942Y-48311065D01*
X90410942Y-48311065D02*
X90449038Y-48387255D01*
X90449038Y-48387255D02*
X90449038Y-48539636D01*
X90449038Y-48539636D02*
X90410942Y-48615827D01*
X90410942Y-48615827D02*
X90334752Y-48653922D01*
X90334752Y-48653922D02*
X90258561Y-48653922D01*
X90258561Y-48653922D02*
X90182371Y-48272969D01*
X90449038Y-48996779D02*
X89915704Y-48996779D01*
X90372847Y-48996779D02*
X90410942Y-49034874D01*
X90410942Y-49034874D02*
X90449038Y-49111064D01*
X90449038Y-49111064D02*
X90449038Y-49225350D01*
X90449038Y-49225350D02*
X90410942Y-49301541D01*
X90410942Y-49301541D02*
X90334752Y-49339636D01*
X90334752Y-49339636D02*
X89915704Y-49339636D01*
X89953800Y-49682493D02*
X89915704Y-49758684D01*
X89915704Y-49758684D02*
X89915704Y-49911065D01*
X89915704Y-49911065D02*
X89953800Y-49987255D01*
X89953800Y-49987255D02*
X90029990Y-50025351D01*
X90029990Y-50025351D02*
X90068085Y-50025351D01*
X90068085Y-50025351D02*
X90144276Y-49987255D01*
X90144276Y-49987255D02*
X90182371Y-49911065D01*
X90182371Y-49911065D02*
X90182371Y-49796779D01*
X90182371Y-49796779D02*
X90220466Y-49720589D01*
X90220466Y-49720589D02*
X90296657Y-49682493D01*
X90296657Y-49682493D02*
X90334752Y-49682493D01*
X90334752Y-49682493D02*
X90410942Y-49720589D01*
X90410942Y-49720589D02*
X90449038Y-49796779D01*
X90449038Y-49796779D02*
X90449038Y-49911065D01*
X90449038Y-49911065D02*
X90410942Y-49987255D01*
X89915704Y-50482493D02*
X89953800Y-50406303D01*
X89953800Y-50406303D02*
X89991895Y-50368208D01*
X89991895Y-50368208D02*
X90068085Y-50330112D01*
X90068085Y-50330112D02*
X90296657Y-50330112D01*
X90296657Y-50330112D02*
X90372847Y-50368208D01*
X90372847Y-50368208D02*
X90410942Y-50406303D01*
X90410942Y-50406303D02*
X90449038Y-50482493D01*
X90449038Y-50482493D02*
X90449038Y-50596779D01*
X90449038Y-50596779D02*
X90410942Y-50672970D01*
X90410942Y-50672970D02*
X90372847Y-50711065D01*
X90372847Y-50711065D02*
X90296657Y-50749160D01*
X90296657Y-50749160D02*
X90068085Y-50749160D01*
X90068085Y-50749160D02*
X89991895Y-50711065D01*
X89991895Y-50711065D02*
X89953800Y-50672970D01*
X89953800Y-50672970D02*
X89915704Y-50596779D01*
X89915704Y-50596779D02*
X89915704Y-50482493D01*
X89915704Y-51092018D02*
X90449038Y-51092018D01*
X90296657Y-51092018D02*
X90372847Y-51130113D01*
X90372847Y-51130113D02*
X90410942Y-51168208D01*
X90410942Y-51168208D02*
X90449038Y-51244399D01*
X90449038Y-51244399D02*
X90449038Y-51320589D01*
X90220466Y-51587256D02*
X90220466Y-52196780D01*
X90715704Y-52920589D02*
X90715704Y-52768208D01*
X90715704Y-52768208D02*
X90677609Y-52692017D01*
X90677609Y-52692017D02*
X90639514Y-52653922D01*
X90639514Y-52653922D02*
X90525228Y-52577732D01*
X90525228Y-52577732D02*
X90372847Y-52539636D01*
X90372847Y-52539636D02*
X90068085Y-52539636D01*
X90068085Y-52539636D02*
X89991895Y-52577732D01*
X89991895Y-52577732D02*
X89953800Y-52615827D01*
X89953800Y-52615827D02*
X89915704Y-52692017D01*
X89915704Y-52692017D02*
X89915704Y-52844398D01*
X89915704Y-52844398D02*
X89953800Y-52920589D01*
X89953800Y-52920589D02*
X89991895Y-52958684D01*
X89991895Y-52958684D02*
X90068085Y-52996779D01*
X90068085Y-52996779D02*
X90258561Y-52996779D01*
X90258561Y-52996779D02*
X90334752Y-52958684D01*
X90334752Y-52958684D02*
X90372847Y-52920589D01*
X90372847Y-52920589D02*
X90410942Y-52844398D01*
X90410942Y-52844398D02*
X90410942Y-52692017D01*
X90410942Y-52692017D02*
X90372847Y-52615827D01*
X90372847Y-52615827D02*
X90334752Y-52577732D01*
X90334752Y-52577732D02*
X90258561Y-52539636D01*
X59963800Y-47501064D02*
X59925704Y-47615350D01*
X59925704Y-47615350D02*
X59925704Y-47805826D01*
X59925704Y-47805826D02*
X59963800Y-47882017D01*
X59963800Y-47882017D02*
X60001895Y-47920112D01*
X60001895Y-47920112D02*
X60078085Y-47958207D01*
X60078085Y-47958207D02*
X60154276Y-47958207D01*
X60154276Y-47958207D02*
X60230466Y-47920112D01*
X60230466Y-47920112D02*
X60268561Y-47882017D01*
X60268561Y-47882017D02*
X60306657Y-47805826D01*
X60306657Y-47805826D02*
X60344752Y-47653445D01*
X60344752Y-47653445D02*
X60382847Y-47577255D01*
X60382847Y-47577255D02*
X60420942Y-47539160D01*
X60420942Y-47539160D02*
X60497133Y-47501064D01*
X60497133Y-47501064D02*
X60573323Y-47501064D01*
X60573323Y-47501064D02*
X60649514Y-47539160D01*
X60649514Y-47539160D02*
X60687609Y-47577255D01*
X60687609Y-47577255D02*
X60725704Y-47653445D01*
X60725704Y-47653445D02*
X60725704Y-47843922D01*
X60725704Y-47843922D02*
X60687609Y-47958207D01*
X59963800Y-48605827D02*
X59925704Y-48529636D01*
X59925704Y-48529636D02*
X59925704Y-48377255D01*
X59925704Y-48377255D02*
X59963800Y-48301065D01*
X59963800Y-48301065D02*
X60039990Y-48262969D01*
X60039990Y-48262969D02*
X60344752Y-48262969D01*
X60344752Y-48262969D02*
X60420942Y-48301065D01*
X60420942Y-48301065D02*
X60459038Y-48377255D01*
X60459038Y-48377255D02*
X60459038Y-48529636D01*
X60459038Y-48529636D02*
X60420942Y-48605827D01*
X60420942Y-48605827D02*
X60344752Y-48643922D01*
X60344752Y-48643922D02*
X60268561Y-48643922D01*
X60268561Y-48643922D02*
X60192371Y-48262969D01*
X60459038Y-48986779D02*
X59925704Y-48986779D01*
X60382847Y-48986779D02*
X60420942Y-49024874D01*
X60420942Y-49024874D02*
X60459038Y-49101064D01*
X60459038Y-49101064D02*
X60459038Y-49215350D01*
X60459038Y-49215350D02*
X60420942Y-49291541D01*
X60420942Y-49291541D02*
X60344752Y-49329636D01*
X60344752Y-49329636D02*
X59925704Y-49329636D01*
X59963800Y-49672493D02*
X59925704Y-49748684D01*
X59925704Y-49748684D02*
X59925704Y-49901065D01*
X59925704Y-49901065D02*
X59963800Y-49977255D01*
X59963800Y-49977255D02*
X60039990Y-50015351D01*
X60039990Y-50015351D02*
X60078085Y-50015351D01*
X60078085Y-50015351D02*
X60154276Y-49977255D01*
X60154276Y-49977255D02*
X60192371Y-49901065D01*
X60192371Y-49901065D02*
X60192371Y-49786779D01*
X60192371Y-49786779D02*
X60230466Y-49710589D01*
X60230466Y-49710589D02*
X60306657Y-49672493D01*
X60306657Y-49672493D02*
X60344752Y-49672493D01*
X60344752Y-49672493D02*
X60420942Y-49710589D01*
X60420942Y-49710589D02*
X60459038Y-49786779D01*
X60459038Y-49786779D02*
X60459038Y-49901065D01*
X60459038Y-49901065D02*
X60420942Y-49977255D01*
X59925704Y-50472493D02*
X59963800Y-50396303D01*
X59963800Y-50396303D02*
X60001895Y-50358208D01*
X60001895Y-50358208D02*
X60078085Y-50320112D01*
X60078085Y-50320112D02*
X60306657Y-50320112D01*
X60306657Y-50320112D02*
X60382847Y-50358208D01*
X60382847Y-50358208D02*
X60420942Y-50396303D01*
X60420942Y-50396303D02*
X60459038Y-50472493D01*
X60459038Y-50472493D02*
X60459038Y-50586779D01*
X60459038Y-50586779D02*
X60420942Y-50662970D01*
X60420942Y-50662970D02*
X60382847Y-50701065D01*
X60382847Y-50701065D02*
X60306657Y-50739160D01*
X60306657Y-50739160D02*
X60078085Y-50739160D01*
X60078085Y-50739160D02*
X60001895Y-50701065D01*
X60001895Y-50701065D02*
X59963800Y-50662970D01*
X59963800Y-50662970D02*
X59925704Y-50586779D01*
X59925704Y-50586779D02*
X59925704Y-50472493D01*
X59925704Y-51082018D02*
X60459038Y-51082018D01*
X60306657Y-51082018D02*
X60382847Y-51120113D01*
X60382847Y-51120113D02*
X60420942Y-51158208D01*
X60420942Y-51158208D02*
X60459038Y-51234399D01*
X60459038Y-51234399D02*
X60459038Y-51310589D01*
X60230466Y-51577256D02*
X60230466Y-52186780D01*
X60382847Y-52682017D02*
X60420942Y-52605827D01*
X60420942Y-52605827D02*
X60459038Y-52567732D01*
X60459038Y-52567732D02*
X60535228Y-52529636D01*
X60535228Y-52529636D02*
X60573323Y-52529636D01*
X60573323Y-52529636D02*
X60649514Y-52567732D01*
X60649514Y-52567732D02*
X60687609Y-52605827D01*
X60687609Y-52605827D02*
X60725704Y-52682017D01*
X60725704Y-52682017D02*
X60725704Y-52834398D01*
X60725704Y-52834398D02*
X60687609Y-52910589D01*
X60687609Y-52910589D02*
X60649514Y-52948684D01*
X60649514Y-52948684D02*
X60573323Y-52986779D01*
X60573323Y-52986779D02*
X60535228Y-52986779D01*
X60535228Y-52986779D02*
X60459038Y-52948684D01*
X60459038Y-52948684D02*
X60420942Y-52910589D01*
X60420942Y-52910589D02*
X60382847Y-52834398D01*
X60382847Y-52834398D02*
X60382847Y-52682017D01*
X60382847Y-52682017D02*
X60344752Y-52605827D01*
X60344752Y-52605827D02*
X60306657Y-52567732D01*
X60306657Y-52567732D02*
X60230466Y-52529636D01*
X60230466Y-52529636D02*
X60078085Y-52529636D01*
X60078085Y-52529636D02*
X60001895Y-52567732D01*
X60001895Y-52567732D02*
X59963800Y-52605827D01*
X59963800Y-52605827D02*
X59925704Y-52682017D01*
X59925704Y-52682017D02*
X59925704Y-52834398D01*
X59925704Y-52834398D02*
X59963800Y-52910589D01*
X59963800Y-52910589D02*
X60001895Y-52948684D01*
X60001895Y-52948684D02*
X60078085Y-52986779D01*
X60078085Y-52986779D02*
X60230466Y-52986779D01*
X60230466Y-52986779D02*
X60306657Y-52948684D01*
X60306657Y-52948684D02*
X60344752Y-52910589D01*
X60344752Y-52910589D02*
X60382847Y-52834398D01*
X134953800Y-47501064D02*
X134915704Y-47615350D01*
X134915704Y-47615350D02*
X134915704Y-47805826D01*
X134915704Y-47805826D02*
X134953800Y-47882017D01*
X134953800Y-47882017D02*
X134991895Y-47920112D01*
X134991895Y-47920112D02*
X135068085Y-47958207D01*
X135068085Y-47958207D02*
X135144276Y-47958207D01*
X135144276Y-47958207D02*
X135220466Y-47920112D01*
X135220466Y-47920112D02*
X135258561Y-47882017D01*
X135258561Y-47882017D02*
X135296657Y-47805826D01*
X135296657Y-47805826D02*
X135334752Y-47653445D01*
X135334752Y-47653445D02*
X135372847Y-47577255D01*
X135372847Y-47577255D02*
X135410942Y-47539160D01*
X135410942Y-47539160D02*
X135487133Y-47501064D01*
X135487133Y-47501064D02*
X135563323Y-47501064D01*
X135563323Y-47501064D02*
X135639514Y-47539160D01*
X135639514Y-47539160D02*
X135677609Y-47577255D01*
X135677609Y-47577255D02*
X135715704Y-47653445D01*
X135715704Y-47653445D02*
X135715704Y-47843922D01*
X135715704Y-47843922D02*
X135677609Y-47958207D01*
X134953800Y-48605827D02*
X134915704Y-48529636D01*
X134915704Y-48529636D02*
X134915704Y-48377255D01*
X134915704Y-48377255D02*
X134953800Y-48301065D01*
X134953800Y-48301065D02*
X135029990Y-48262969D01*
X135029990Y-48262969D02*
X135334752Y-48262969D01*
X135334752Y-48262969D02*
X135410942Y-48301065D01*
X135410942Y-48301065D02*
X135449038Y-48377255D01*
X135449038Y-48377255D02*
X135449038Y-48529636D01*
X135449038Y-48529636D02*
X135410942Y-48605827D01*
X135410942Y-48605827D02*
X135334752Y-48643922D01*
X135334752Y-48643922D02*
X135258561Y-48643922D01*
X135258561Y-48643922D02*
X135182371Y-48262969D01*
X135449038Y-48986779D02*
X134915704Y-48986779D01*
X135372847Y-48986779D02*
X135410942Y-49024874D01*
X135410942Y-49024874D02*
X135449038Y-49101064D01*
X135449038Y-49101064D02*
X135449038Y-49215350D01*
X135449038Y-49215350D02*
X135410942Y-49291541D01*
X135410942Y-49291541D02*
X135334752Y-49329636D01*
X135334752Y-49329636D02*
X134915704Y-49329636D01*
X134953800Y-49672493D02*
X134915704Y-49748684D01*
X134915704Y-49748684D02*
X134915704Y-49901065D01*
X134915704Y-49901065D02*
X134953800Y-49977255D01*
X134953800Y-49977255D02*
X135029990Y-50015351D01*
X135029990Y-50015351D02*
X135068085Y-50015351D01*
X135068085Y-50015351D02*
X135144276Y-49977255D01*
X135144276Y-49977255D02*
X135182371Y-49901065D01*
X135182371Y-49901065D02*
X135182371Y-49786779D01*
X135182371Y-49786779D02*
X135220466Y-49710589D01*
X135220466Y-49710589D02*
X135296657Y-49672493D01*
X135296657Y-49672493D02*
X135334752Y-49672493D01*
X135334752Y-49672493D02*
X135410942Y-49710589D01*
X135410942Y-49710589D02*
X135449038Y-49786779D01*
X135449038Y-49786779D02*
X135449038Y-49901065D01*
X135449038Y-49901065D02*
X135410942Y-49977255D01*
X134915704Y-50472493D02*
X134953800Y-50396303D01*
X134953800Y-50396303D02*
X134991895Y-50358208D01*
X134991895Y-50358208D02*
X135068085Y-50320112D01*
X135068085Y-50320112D02*
X135296657Y-50320112D01*
X135296657Y-50320112D02*
X135372847Y-50358208D01*
X135372847Y-50358208D02*
X135410942Y-50396303D01*
X135410942Y-50396303D02*
X135449038Y-50472493D01*
X135449038Y-50472493D02*
X135449038Y-50586779D01*
X135449038Y-50586779D02*
X135410942Y-50662970D01*
X135410942Y-50662970D02*
X135372847Y-50701065D01*
X135372847Y-50701065D02*
X135296657Y-50739160D01*
X135296657Y-50739160D02*
X135068085Y-50739160D01*
X135068085Y-50739160D02*
X134991895Y-50701065D01*
X134991895Y-50701065D02*
X134953800Y-50662970D01*
X134953800Y-50662970D02*
X134915704Y-50586779D01*
X134915704Y-50586779D02*
X134915704Y-50472493D01*
X134915704Y-51082018D02*
X135449038Y-51082018D01*
X135296657Y-51082018D02*
X135372847Y-51120113D01*
X135372847Y-51120113D02*
X135410942Y-51158208D01*
X135410942Y-51158208D02*
X135449038Y-51234399D01*
X135449038Y-51234399D02*
X135449038Y-51310589D01*
X135220466Y-51577256D02*
X135220466Y-52186780D01*
X135715704Y-52491541D02*
X135715704Y-52986779D01*
X135715704Y-52986779D02*
X135410942Y-52720113D01*
X135410942Y-52720113D02*
X135410942Y-52834398D01*
X135410942Y-52834398D02*
X135372847Y-52910589D01*
X135372847Y-52910589D02*
X135334752Y-52948684D01*
X135334752Y-52948684D02*
X135258561Y-52986779D01*
X135258561Y-52986779D02*
X135068085Y-52986779D01*
X135068085Y-52986779D02*
X134991895Y-52948684D01*
X134991895Y-52948684D02*
X134953800Y-52910589D01*
X134953800Y-52910589D02*
X134915704Y-52834398D01*
X134915704Y-52834398D02*
X134915704Y-52605827D01*
X134915704Y-52605827D02*
X134953800Y-52529636D01*
X134953800Y-52529636D02*
X134991895Y-52491541D01*
X119943800Y-47501064D02*
X119905704Y-47615350D01*
X119905704Y-47615350D02*
X119905704Y-47805826D01*
X119905704Y-47805826D02*
X119943800Y-47882017D01*
X119943800Y-47882017D02*
X119981895Y-47920112D01*
X119981895Y-47920112D02*
X120058085Y-47958207D01*
X120058085Y-47958207D02*
X120134276Y-47958207D01*
X120134276Y-47958207D02*
X120210466Y-47920112D01*
X120210466Y-47920112D02*
X120248561Y-47882017D01*
X120248561Y-47882017D02*
X120286657Y-47805826D01*
X120286657Y-47805826D02*
X120324752Y-47653445D01*
X120324752Y-47653445D02*
X120362847Y-47577255D01*
X120362847Y-47577255D02*
X120400942Y-47539160D01*
X120400942Y-47539160D02*
X120477133Y-47501064D01*
X120477133Y-47501064D02*
X120553323Y-47501064D01*
X120553323Y-47501064D02*
X120629514Y-47539160D01*
X120629514Y-47539160D02*
X120667609Y-47577255D01*
X120667609Y-47577255D02*
X120705704Y-47653445D01*
X120705704Y-47653445D02*
X120705704Y-47843922D01*
X120705704Y-47843922D02*
X120667609Y-47958207D01*
X119943800Y-48605827D02*
X119905704Y-48529636D01*
X119905704Y-48529636D02*
X119905704Y-48377255D01*
X119905704Y-48377255D02*
X119943800Y-48301065D01*
X119943800Y-48301065D02*
X120019990Y-48262969D01*
X120019990Y-48262969D02*
X120324752Y-48262969D01*
X120324752Y-48262969D02*
X120400942Y-48301065D01*
X120400942Y-48301065D02*
X120439038Y-48377255D01*
X120439038Y-48377255D02*
X120439038Y-48529636D01*
X120439038Y-48529636D02*
X120400942Y-48605827D01*
X120400942Y-48605827D02*
X120324752Y-48643922D01*
X120324752Y-48643922D02*
X120248561Y-48643922D01*
X120248561Y-48643922D02*
X120172371Y-48262969D01*
X120439038Y-48986779D02*
X119905704Y-48986779D01*
X120362847Y-48986779D02*
X120400942Y-49024874D01*
X120400942Y-49024874D02*
X120439038Y-49101064D01*
X120439038Y-49101064D02*
X120439038Y-49215350D01*
X120439038Y-49215350D02*
X120400942Y-49291541D01*
X120400942Y-49291541D02*
X120324752Y-49329636D01*
X120324752Y-49329636D02*
X119905704Y-49329636D01*
X119943800Y-49672493D02*
X119905704Y-49748684D01*
X119905704Y-49748684D02*
X119905704Y-49901065D01*
X119905704Y-49901065D02*
X119943800Y-49977255D01*
X119943800Y-49977255D02*
X120019990Y-50015351D01*
X120019990Y-50015351D02*
X120058085Y-50015351D01*
X120058085Y-50015351D02*
X120134276Y-49977255D01*
X120134276Y-49977255D02*
X120172371Y-49901065D01*
X120172371Y-49901065D02*
X120172371Y-49786779D01*
X120172371Y-49786779D02*
X120210466Y-49710589D01*
X120210466Y-49710589D02*
X120286657Y-49672493D01*
X120286657Y-49672493D02*
X120324752Y-49672493D01*
X120324752Y-49672493D02*
X120400942Y-49710589D01*
X120400942Y-49710589D02*
X120439038Y-49786779D01*
X120439038Y-49786779D02*
X120439038Y-49901065D01*
X120439038Y-49901065D02*
X120400942Y-49977255D01*
X119905704Y-50472493D02*
X119943800Y-50396303D01*
X119943800Y-50396303D02*
X119981895Y-50358208D01*
X119981895Y-50358208D02*
X120058085Y-50320112D01*
X120058085Y-50320112D02*
X120286657Y-50320112D01*
X120286657Y-50320112D02*
X120362847Y-50358208D01*
X120362847Y-50358208D02*
X120400942Y-50396303D01*
X120400942Y-50396303D02*
X120439038Y-50472493D01*
X120439038Y-50472493D02*
X120439038Y-50586779D01*
X120439038Y-50586779D02*
X120400942Y-50662970D01*
X120400942Y-50662970D02*
X120362847Y-50701065D01*
X120362847Y-50701065D02*
X120286657Y-50739160D01*
X120286657Y-50739160D02*
X120058085Y-50739160D01*
X120058085Y-50739160D02*
X119981895Y-50701065D01*
X119981895Y-50701065D02*
X119943800Y-50662970D01*
X119943800Y-50662970D02*
X119905704Y-50586779D01*
X119905704Y-50586779D02*
X119905704Y-50472493D01*
X119905704Y-51082018D02*
X120439038Y-51082018D01*
X120286657Y-51082018D02*
X120362847Y-51120113D01*
X120362847Y-51120113D02*
X120400942Y-51158208D01*
X120400942Y-51158208D02*
X120439038Y-51234399D01*
X120439038Y-51234399D02*
X120439038Y-51310589D01*
X120210466Y-51577256D02*
X120210466Y-52186780D01*
X120439038Y-52910589D02*
X119905704Y-52910589D01*
X120743800Y-52720113D02*
X120172371Y-52529636D01*
X120172371Y-52529636D02*
X120172371Y-53024875D01*
X150053800Y-47501064D02*
X150015704Y-47615350D01*
X150015704Y-47615350D02*
X150015704Y-47805826D01*
X150015704Y-47805826D02*
X150053800Y-47882017D01*
X150053800Y-47882017D02*
X150091895Y-47920112D01*
X150091895Y-47920112D02*
X150168085Y-47958207D01*
X150168085Y-47958207D02*
X150244276Y-47958207D01*
X150244276Y-47958207D02*
X150320466Y-47920112D01*
X150320466Y-47920112D02*
X150358561Y-47882017D01*
X150358561Y-47882017D02*
X150396657Y-47805826D01*
X150396657Y-47805826D02*
X150434752Y-47653445D01*
X150434752Y-47653445D02*
X150472847Y-47577255D01*
X150472847Y-47577255D02*
X150510942Y-47539160D01*
X150510942Y-47539160D02*
X150587133Y-47501064D01*
X150587133Y-47501064D02*
X150663323Y-47501064D01*
X150663323Y-47501064D02*
X150739514Y-47539160D01*
X150739514Y-47539160D02*
X150777609Y-47577255D01*
X150777609Y-47577255D02*
X150815704Y-47653445D01*
X150815704Y-47653445D02*
X150815704Y-47843922D01*
X150815704Y-47843922D02*
X150777609Y-47958207D01*
X150053800Y-48605827D02*
X150015704Y-48529636D01*
X150015704Y-48529636D02*
X150015704Y-48377255D01*
X150015704Y-48377255D02*
X150053800Y-48301065D01*
X150053800Y-48301065D02*
X150129990Y-48262969D01*
X150129990Y-48262969D02*
X150434752Y-48262969D01*
X150434752Y-48262969D02*
X150510942Y-48301065D01*
X150510942Y-48301065D02*
X150549038Y-48377255D01*
X150549038Y-48377255D02*
X150549038Y-48529636D01*
X150549038Y-48529636D02*
X150510942Y-48605827D01*
X150510942Y-48605827D02*
X150434752Y-48643922D01*
X150434752Y-48643922D02*
X150358561Y-48643922D01*
X150358561Y-48643922D02*
X150282371Y-48262969D01*
X150549038Y-48986779D02*
X150015704Y-48986779D01*
X150472847Y-48986779D02*
X150510942Y-49024874D01*
X150510942Y-49024874D02*
X150549038Y-49101064D01*
X150549038Y-49101064D02*
X150549038Y-49215350D01*
X150549038Y-49215350D02*
X150510942Y-49291541D01*
X150510942Y-49291541D02*
X150434752Y-49329636D01*
X150434752Y-49329636D02*
X150015704Y-49329636D01*
X150053800Y-49672493D02*
X150015704Y-49748684D01*
X150015704Y-49748684D02*
X150015704Y-49901065D01*
X150015704Y-49901065D02*
X150053800Y-49977255D01*
X150053800Y-49977255D02*
X150129990Y-50015351D01*
X150129990Y-50015351D02*
X150168085Y-50015351D01*
X150168085Y-50015351D02*
X150244276Y-49977255D01*
X150244276Y-49977255D02*
X150282371Y-49901065D01*
X150282371Y-49901065D02*
X150282371Y-49786779D01*
X150282371Y-49786779D02*
X150320466Y-49710589D01*
X150320466Y-49710589D02*
X150396657Y-49672493D01*
X150396657Y-49672493D02*
X150434752Y-49672493D01*
X150434752Y-49672493D02*
X150510942Y-49710589D01*
X150510942Y-49710589D02*
X150549038Y-49786779D01*
X150549038Y-49786779D02*
X150549038Y-49901065D01*
X150549038Y-49901065D02*
X150510942Y-49977255D01*
X150015704Y-50472493D02*
X150053800Y-50396303D01*
X150053800Y-50396303D02*
X150091895Y-50358208D01*
X150091895Y-50358208D02*
X150168085Y-50320112D01*
X150168085Y-50320112D02*
X150396657Y-50320112D01*
X150396657Y-50320112D02*
X150472847Y-50358208D01*
X150472847Y-50358208D02*
X150510942Y-50396303D01*
X150510942Y-50396303D02*
X150549038Y-50472493D01*
X150549038Y-50472493D02*
X150549038Y-50586779D01*
X150549038Y-50586779D02*
X150510942Y-50662970D01*
X150510942Y-50662970D02*
X150472847Y-50701065D01*
X150472847Y-50701065D02*
X150396657Y-50739160D01*
X150396657Y-50739160D02*
X150168085Y-50739160D01*
X150168085Y-50739160D02*
X150091895Y-50701065D01*
X150091895Y-50701065D02*
X150053800Y-50662970D01*
X150053800Y-50662970D02*
X150015704Y-50586779D01*
X150015704Y-50586779D02*
X150015704Y-50472493D01*
X150015704Y-51082018D02*
X150549038Y-51082018D01*
X150396657Y-51082018D02*
X150472847Y-51120113D01*
X150472847Y-51120113D02*
X150510942Y-51158208D01*
X150510942Y-51158208D02*
X150549038Y-51234399D01*
X150549038Y-51234399D02*
X150549038Y-51310589D01*
X150320466Y-51577256D02*
X150320466Y-52186780D01*
X150739514Y-52529636D02*
X150777609Y-52567732D01*
X150777609Y-52567732D02*
X150815704Y-52643922D01*
X150815704Y-52643922D02*
X150815704Y-52834398D01*
X150815704Y-52834398D02*
X150777609Y-52910589D01*
X150777609Y-52910589D02*
X150739514Y-52948684D01*
X150739514Y-52948684D02*
X150663323Y-52986779D01*
X150663323Y-52986779D02*
X150587133Y-52986779D01*
X150587133Y-52986779D02*
X150472847Y-52948684D01*
X150472847Y-52948684D02*
X150015704Y-52491541D01*
X150015704Y-52491541D02*
X150015704Y-52986779D01*
X105013800Y-47501064D02*
X104975704Y-47615350D01*
X104975704Y-47615350D02*
X104975704Y-47805826D01*
X104975704Y-47805826D02*
X105013800Y-47882017D01*
X105013800Y-47882017D02*
X105051895Y-47920112D01*
X105051895Y-47920112D02*
X105128085Y-47958207D01*
X105128085Y-47958207D02*
X105204276Y-47958207D01*
X105204276Y-47958207D02*
X105280466Y-47920112D01*
X105280466Y-47920112D02*
X105318561Y-47882017D01*
X105318561Y-47882017D02*
X105356657Y-47805826D01*
X105356657Y-47805826D02*
X105394752Y-47653445D01*
X105394752Y-47653445D02*
X105432847Y-47577255D01*
X105432847Y-47577255D02*
X105470942Y-47539160D01*
X105470942Y-47539160D02*
X105547133Y-47501064D01*
X105547133Y-47501064D02*
X105623323Y-47501064D01*
X105623323Y-47501064D02*
X105699514Y-47539160D01*
X105699514Y-47539160D02*
X105737609Y-47577255D01*
X105737609Y-47577255D02*
X105775704Y-47653445D01*
X105775704Y-47653445D02*
X105775704Y-47843922D01*
X105775704Y-47843922D02*
X105737609Y-47958207D01*
X105013800Y-48605827D02*
X104975704Y-48529636D01*
X104975704Y-48529636D02*
X104975704Y-48377255D01*
X104975704Y-48377255D02*
X105013800Y-48301065D01*
X105013800Y-48301065D02*
X105089990Y-48262969D01*
X105089990Y-48262969D02*
X105394752Y-48262969D01*
X105394752Y-48262969D02*
X105470942Y-48301065D01*
X105470942Y-48301065D02*
X105509038Y-48377255D01*
X105509038Y-48377255D02*
X105509038Y-48529636D01*
X105509038Y-48529636D02*
X105470942Y-48605827D01*
X105470942Y-48605827D02*
X105394752Y-48643922D01*
X105394752Y-48643922D02*
X105318561Y-48643922D01*
X105318561Y-48643922D02*
X105242371Y-48262969D01*
X105509038Y-48986779D02*
X104975704Y-48986779D01*
X105432847Y-48986779D02*
X105470942Y-49024874D01*
X105470942Y-49024874D02*
X105509038Y-49101064D01*
X105509038Y-49101064D02*
X105509038Y-49215350D01*
X105509038Y-49215350D02*
X105470942Y-49291541D01*
X105470942Y-49291541D02*
X105394752Y-49329636D01*
X105394752Y-49329636D02*
X104975704Y-49329636D01*
X105013800Y-49672493D02*
X104975704Y-49748684D01*
X104975704Y-49748684D02*
X104975704Y-49901065D01*
X104975704Y-49901065D02*
X105013800Y-49977255D01*
X105013800Y-49977255D02*
X105089990Y-50015351D01*
X105089990Y-50015351D02*
X105128085Y-50015351D01*
X105128085Y-50015351D02*
X105204276Y-49977255D01*
X105204276Y-49977255D02*
X105242371Y-49901065D01*
X105242371Y-49901065D02*
X105242371Y-49786779D01*
X105242371Y-49786779D02*
X105280466Y-49710589D01*
X105280466Y-49710589D02*
X105356657Y-49672493D01*
X105356657Y-49672493D02*
X105394752Y-49672493D01*
X105394752Y-49672493D02*
X105470942Y-49710589D01*
X105470942Y-49710589D02*
X105509038Y-49786779D01*
X105509038Y-49786779D02*
X105509038Y-49901065D01*
X105509038Y-49901065D02*
X105470942Y-49977255D01*
X104975704Y-50472493D02*
X105013800Y-50396303D01*
X105013800Y-50396303D02*
X105051895Y-50358208D01*
X105051895Y-50358208D02*
X105128085Y-50320112D01*
X105128085Y-50320112D02*
X105356657Y-50320112D01*
X105356657Y-50320112D02*
X105432847Y-50358208D01*
X105432847Y-50358208D02*
X105470942Y-50396303D01*
X105470942Y-50396303D02*
X105509038Y-50472493D01*
X105509038Y-50472493D02*
X105509038Y-50586779D01*
X105509038Y-50586779D02*
X105470942Y-50662970D01*
X105470942Y-50662970D02*
X105432847Y-50701065D01*
X105432847Y-50701065D02*
X105356657Y-50739160D01*
X105356657Y-50739160D02*
X105128085Y-50739160D01*
X105128085Y-50739160D02*
X105051895Y-50701065D01*
X105051895Y-50701065D02*
X105013800Y-50662970D01*
X105013800Y-50662970D02*
X104975704Y-50586779D01*
X104975704Y-50586779D02*
X104975704Y-50472493D01*
X104975704Y-51082018D02*
X105509038Y-51082018D01*
X105356657Y-51082018D02*
X105432847Y-51120113D01*
X105432847Y-51120113D02*
X105470942Y-51158208D01*
X105470942Y-51158208D02*
X105509038Y-51234399D01*
X105509038Y-51234399D02*
X105509038Y-51310589D01*
X105280466Y-51577256D02*
X105280466Y-52186780D01*
X105775704Y-52948684D02*
X105775704Y-52567732D01*
X105775704Y-52567732D02*
X105394752Y-52529636D01*
X105394752Y-52529636D02*
X105432847Y-52567732D01*
X105432847Y-52567732D02*
X105470942Y-52643922D01*
X105470942Y-52643922D02*
X105470942Y-52834398D01*
X105470942Y-52834398D02*
X105432847Y-52910589D01*
X105432847Y-52910589D02*
X105394752Y-52948684D01*
X105394752Y-52948684D02*
X105318561Y-52986779D01*
X105318561Y-52986779D02*
X105128085Y-52986779D01*
X105128085Y-52986779D02*
X105051895Y-52948684D01*
X105051895Y-52948684D02*
X105013800Y-52910589D01*
X105013800Y-52910589D02*
X104975704Y-52834398D01*
X104975704Y-52834398D02*
X104975704Y-52643922D01*
X104975704Y-52643922D02*
X105013800Y-52567732D01*
X105013800Y-52567732D02*
X105051895Y-52529636D01*
X164953800Y-47501064D02*
X164915704Y-47615350D01*
X164915704Y-47615350D02*
X164915704Y-47805826D01*
X164915704Y-47805826D02*
X164953800Y-47882017D01*
X164953800Y-47882017D02*
X164991895Y-47920112D01*
X164991895Y-47920112D02*
X165068085Y-47958207D01*
X165068085Y-47958207D02*
X165144276Y-47958207D01*
X165144276Y-47958207D02*
X165220466Y-47920112D01*
X165220466Y-47920112D02*
X165258561Y-47882017D01*
X165258561Y-47882017D02*
X165296657Y-47805826D01*
X165296657Y-47805826D02*
X165334752Y-47653445D01*
X165334752Y-47653445D02*
X165372847Y-47577255D01*
X165372847Y-47577255D02*
X165410942Y-47539160D01*
X165410942Y-47539160D02*
X165487133Y-47501064D01*
X165487133Y-47501064D02*
X165563323Y-47501064D01*
X165563323Y-47501064D02*
X165639514Y-47539160D01*
X165639514Y-47539160D02*
X165677609Y-47577255D01*
X165677609Y-47577255D02*
X165715704Y-47653445D01*
X165715704Y-47653445D02*
X165715704Y-47843922D01*
X165715704Y-47843922D02*
X165677609Y-47958207D01*
X164953800Y-48605827D02*
X164915704Y-48529636D01*
X164915704Y-48529636D02*
X164915704Y-48377255D01*
X164915704Y-48377255D02*
X164953800Y-48301065D01*
X164953800Y-48301065D02*
X165029990Y-48262969D01*
X165029990Y-48262969D02*
X165334752Y-48262969D01*
X165334752Y-48262969D02*
X165410942Y-48301065D01*
X165410942Y-48301065D02*
X165449038Y-48377255D01*
X165449038Y-48377255D02*
X165449038Y-48529636D01*
X165449038Y-48529636D02*
X165410942Y-48605827D01*
X165410942Y-48605827D02*
X165334752Y-48643922D01*
X165334752Y-48643922D02*
X165258561Y-48643922D01*
X165258561Y-48643922D02*
X165182371Y-48262969D01*
X165449038Y-48986779D02*
X164915704Y-48986779D01*
X165372847Y-48986779D02*
X165410942Y-49024874D01*
X165410942Y-49024874D02*
X165449038Y-49101064D01*
X165449038Y-49101064D02*
X165449038Y-49215350D01*
X165449038Y-49215350D02*
X165410942Y-49291541D01*
X165410942Y-49291541D02*
X165334752Y-49329636D01*
X165334752Y-49329636D02*
X164915704Y-49329636D01*
X164953800Y-49672493D02*
X164915704Y-49748684D01*
X164915704Y-49748684D02*
X164915704Y-49901065D01*
X164915704Y-49901065D02*
X164953800Y-49977255D01*
X164953800Y-49977255D02*
X165029990Y-50015351D01*
X165029990Y-50015351D02*
X165068085Y-50015351D01*
X165068085Y-50015351D02*
X165144276Y-49977255D01*
X165144276Y-49977255D02*
X165182371Y-49901065D01*
X165182371Y-49901065D02*
X165182371Y-49786779D01*
X165182371Y-49786779D02*
X165220466Y-49710589D01*
X165220466Y-49710589D02*
X165296657Y-49672493D01*
X165296657Y-49672493D02*
X165334752Y-49672493D01*
X165334752Y-49672493D02*
X165410942Y-49710589D01*
X165410942Y-49710589D02*
X165449038Y-49786779D01*
X165449038Y-49786779D02*
X165449038Y-49901065D01*
X165449038Y-49901065D02*
X165410942Y-49977255D01*
X164915704Y-50472493D02*
X164953800Y-50396303D01*
X164953800Y-50396303D02*
X164991895Y-50358208D01*
X164991895Y-50358208D02*
X165068085Y-50320112D01*
X165068085Y-50320112D02*
X165296657Y-50320112D01*
X165296657Y-50320112D02*
X165372847Y-50358208D01*
X165372847Y-50358208D02*
X165410942Y-50396303D01*
X165410942Y-50396303D02*
X165449038Y-50472493D01*
X165449038Y-50472493D02*
X165449038Y-50586779D01*
X165449038Y-50586779D02*
X165410942Y-50662970D01*
X165410942Y-50662970D02*
X165372847Y-50701065D01*
X165372847Y-50701065D02*
X165296657Y-50739160D01*
X165296657Y-50739160D02*
X165068085Y-50739160D01*
X165068085Y-50739160D02*
X164991895Y-50701065D01*
X164991895Y-50701065D02*
X164953800Y-50662970D01*
X164953800Y-50662970D02*
X164915704Y-50586779D01*
X164915704Y-50586779D02*
X164915704Y-50472493D01*
X164915704Y-51082018D02*
X165449038Y-51082018D01*
X165296657Y-51082018D02*
X165372847Y-51120113D01*
X165372847Y-51120113D02*
X165410942Y-51158208D01*
X165410942Y-51158208D02*
X165449038Y-51234399D01*
X165449038Y-51234399D02*
X165449038Y-51310589D01*
X165220466Y-51577256D02*
X165220466Y-52186780D01*
X164915704Y-52986779D02*
X164915704Y-52529636D01*
X164915704Y-52758208D02*
X165715704Y-52758208D01*
X165715704Y-52758208D02*
X165601419Y-52682017D01*
X165601419Y-52682017D02*
X165525228Y-52605827D01*
X165525228Y-52605827D02*
X165487133Y-52529636D01*
X75013800Y-47501064D02*
X74975704Y-47615350D01*
X74975704Y-47615350D02*
X74975704Y-47805826D01*
X74975704Y-47805826D02*
X75013800Y-47882017D01*
X75013800Y-47882017D02*
X75051895Y-47920112D01*
X75051895Y-47920112D02*
X75128085Y-47958207D01*
X75128085Y-47958207D02*
X75204276Y-47958207D01*
X75204276Y-47958207D02*
X75280466Y-47920112D01*
X75280466Y-47920112D02*
X75318561Y-47882017D01*
X75318561Y-47882017D02*
X75356657Y-47805826D01*
X75356657Y-47805826D02*
X75394752Y-47653445D01*
X75394752Y-47653445D02*
X75432847Y-47577255D01*
X75432847Y-47577255D02*
X75470942Y-47539160D01*
X75470942Y-47539160D02*
X75547133Y-47501064D01*
X75547133Y-47501064D02*
X75623323Y-47501064D01*
X75623323Y-47501064D02*
X75699514Y-47539160D01*
X75699514Y-47539160D02*
X75737609Y-47577255D01*
X75737609Y-47577255D02*
X75775704Y-47653445D01*
X75775704Y-47653445D02*
X75775704Y-47843922D01*
X75775704Y-47843922D02*
X75737609Y-47958207D01*
X75013800Y-48605827D02*
X74975704Y-48529636D01*
X74975704Y-48529636D02*
X74975704Y-48377255D01*
X74975704Y-48377255D02*
X75013800Y-48301065D01*
X75013800Y-48301065D02*
X75089990Y-48262969D01*
X75089990Y-48262969D02*
X75394752Y-48262969D01*
X75394752Y-48262969D02*
X75470942Y-48301065D01*
X75470942Y-48301065D02*
X75509038Y-48377255D01*
X75509038Y-48377255D02*
X75509038Y-48529636D01*
X75509038Y-48529636D02*
X75470942Y-48605827D01*
X75470942Y-48605827D02*
X75394752Y-48643922D01*
X75394752Y-48643922D02*
X75318561Y-48643922D01*
X75318561Y-48643922D02*
X75242371Y-48262969D01*
X75509038Y-48986779D02*
X74975704Y-48986779D01*
X75432847Y-48986779D02*
X75470942Y-49024874D01*
X75470942Y-49024874D02*
X75509038Y-49101064D01*
X75509038Y-49101064D02*
X75509038Y-49215350D01*
X75509038Y-49215350D02*
X75470942Y-49291541D01*
X75470942Y-49291541D02*
X75394752Y-49329636D01*
X75394752Y-49329636D02*
X74975704Y-49329636D01*
X75013800Y-49672493D02*
X74975704Y-49748684D01*
X74975704Y-49748684D02*
X74975704Y-49901065D01*
X74975704Y-49901065D02*
X75013800Y-49977255D01*
X75013800Y-49977255D02*
X75089990Y-50015351D01*
X75089990Y-50015351D02*
X75128085Y-50015351D01*
X75128085Y-50015351D02*
X75204276Y-49977255D01*
X75204276Y-49977255D02*
X75242371Y-49901065D01*
X75242371Y-49901065D02*
X75242371Y-49786779D01*
X75242371Y-49786779D02*
X75280466Y-49710589D01*
X75280466Y-49710589D02*
X75356657Y-49672493D01*
X75356657Y-49672493D02*
X75394752Y-49672493D01*
X75394752Y-49672493D02*
X75470942Y-49710589D01*
X75470942Y-49710589D02*
X75509038Y-49786779D01*
X75509038Y-49786779D02*
X75509038Y-49901065D01*
X75509038Y-49901065D02*
X75470942Y-49977255D01*
X74975704Y-50472493D02*
X75013800Y-50396303D01*
X75013800Y-50396303D02*
X75051895Y-50358208D01*
X75051895Y-50358208D02*
X75128085Y-50320112D01*
X75128085Y-50320112D02*
X75356657Y-50320112D01*
X75356657Y-50320112D02*
X75432847Y-50358208D01*
X75432847Y-50358208D02*
X75470942Y-50396303D01*
X75470942Y-50396303D02*
X75509038Y-50472493D01*
X75509038Y-50472493D02*
X75509038Y-50586779D01*
X75509038Y-50586779D02*
X75470942Y-50662970D01*
X75470942Y-50662970D02*
X75432847Y-50701065D01*
X75432847Y-50701065D02*
X75356657Y-50739160D01*
X75356657Y-50739160D02*
X75128085Y-50739160D01*
X75128085Y-50739160D02*
X75051895Y-50701065D01*
X75051895Y-50701065D02*
X75013800Y-50662970D01*
X75013800Y-50662970D02*
X74975704Y-50586779D01*
X74975704Y-50586779D02*
X74975704Y-50472493D01*
X74975704Y-51082018D02*
X75509038Y-51082018D01*
X75356657Y-51082018D02*
X75432847Y-51120113D01*
X75432847Y-51120113D02*
X75470942Y-51158208D01*
X75470942Y-51158208D02*
X75509038Y-51234399D01*
X75509038Y-51234399D02*
X75509038Y-51310589D01*
X75280466Y-51577256D02*
X75280466Y-52186780D01*
X75775704Y-52491541D02*
X75775704Y-53024875D01*
X75775704Y-53024875D02*
X74975704Y-52682017D01*
D11*
X34766666Y-54257419D02*
X34766666Y-54971704D01*
X34766666Y-54971704D02*
X34719047Y-55114561D01*
X34719047Y-55114561D02*
X34623809Y-55209800D01*
X34623809Y-55209800D02*
X34480952Y-55257419D01*
X34480952Y-55257419D02*
X34385714Y-55257419D01*
X35766666Y-55257419D02*
X35195238Y-55257419D01*
X35480952Y-55257419D02*
X35480952Y-54257419D01*
X35480952Y-54257419D02*
X35385714Y-54400276D01*
X35385714Y-54400276D02*
X35290476Y-54495514D01*
X35290476Y-54495514D02*
X35195238Y-54543133D01*
D10*
X170810647Y-45163793D02*
X170876630Y-45201888D01*
X170876630Y-45201888D02*
X170923565Y-45272975D01*
X170923565Y-45272975D02*
X170937509Y-45325014D01*
X170937509Y-45325014D02*
X170932405Y-45410045D01*
X170932405Y-45410045D02*
X170889206Y-45561058D01*
X170889206Y-45561058D02*
X170793968Y-45726015D01*
X170793968Y-45726015D02*
X170684786Y-45838933D01*
X170684786Y-45838933D02*
X170613699Y-45885869D01*
X170613699Y-45885869D02*
X170561660Y-45899812D01*
X170561660Y-45899812D02*
X170476630Y-45894709D01*
X170476630Y-45894709D02*
X170410647Y-45856613D01*
X170410647Y-45856613D02*
X170363712Y-45785527D01*
X170363712Y-45785527D02*
X170349768Y-45733488D01*
X170349768Y-45733488D02*
X170354872Y-45648457D01*
X170354872Y-45648457D02*
X170398071Y-45497444D01*
X170398071Y-45497444D02*
X170493309Y-45332487D01*
X170493309Y-45332487D02*
X170602491Y-45219568D01*
X170602491Y-45219568D02*
X170673577Y-45172633D01*
X170673577Y-45172633D02*
X170725616Y-45158689D01*
X170725616Y-45158689D02*
X170810647Y-45163793D01*
X170976605Y-46095393D02*
X170990549Y-46147432D01*
X170990549Y-46147432D02*
X170938510Y-46161375D01*
X170938510Y-46161375D02*
X170924566Y-46109336D01*
X170924566Y-46109336D02*
X170976605Y-46095393D01*
X170976605Y-46095393D02*
X170938510Y-46161375D01*
X171631330Y-46561375D02*
X171235433Y-46332804D01*
X171433382Y-46447090D02*
X171833382Y-45754269D01*
X171833382Y-45754269D02*
X171710256Y-45815148D01*
X171710256Y-45815148D02*
X171606178Y-45843036D01*
X171606178Y-45843036D02*
X171521147Y-45837932D01*
X172194920Y-46270924D02*
X171928253Y-46732804D01*
X172156825Y-46336907D02*
X172208864Y-46322963D01*
X172208864Y-46322963D02*
X172293894Y-46328067D01*
X172293894Y-46328067D02*
X172392869Y-46385209D01*
X172392869Y-46385209D02*
X172439804Y-46456296D01*
X172439804Y-46456296D02*
X172434700Y-46541327D01*
X172434700Y-46541327D02*
X172225176Y-46904233D01*
X172995555Y-46865136D02*
X172764615Y-46731803D01*
X172555091Y-47094709D02*
X172955091Y-46401889D01*
X172955091Y-46401889D02*
X173285006Y-46592365D01*
D12*
X171811008Y-51693192D02*
X171487760Y-52016441D01*
X171649384Y-51854816D02*
X171083699Y-51289131D01*
X171083699Y-51289131D02*
X171110636Y-51423818D01*
X171110636Y-51423818D02*
X171110636Y-51531568D01*
X171110636Y-51531568D02*
X171083699Y-51612380D01*
X171595509Y-50777320D02*
X171649384Y-50723445D01*
X171649384Y-50723445D02*
X171730196Y-50696508D01*
X171730196Y-50696508D02*
X171784071Y-50696508D01*
X171784071Y-50696508D02*
X171864883Y-50723445D01*
X171864883Y-50723445D02*
X171999570Y-50804258D01*
X171999570Y-50804258D02*
X172134257Y-50938945D01*
X172134257Y-50938945D02*
X172215070Y-51073632D01*
X172215070Y-51073632D02*
X172242007Y-51154444D01*
X172242007Y-51154444D02*
X172242007Y-51208319D01*
X172242007Y-51208319D02*
X172215070Y-51289131D01*
X172215070Y-51289131D02*
X172161195Y-51343006D01*
X172161195Y-51343006D02*
X172080383Y-51369943D01*
X172080383Y-51369943D02*
X172026508Y-51369943D01*
X172026508Y-51369943D02*
X171945696Y-51343006D01*
X171945696Y-51343006D02*
X171811009Y-51262193D01*
X171811009Y-51262193D02*
X171676322Y-51127506D01*
X171676322Y-51127506D02*
X171595509Y-50992819D01*
X171595509Y-50992819D02*
X171568572Y-50912007D01*
X171568572Y-50912007D02*
X171568572Y-50858132D01*
X171568572Y-50858132D02*
X171595509Y-50777320D01*
X172215070Y-50534883D02*
X172592193Y-50912007D01*
X172268945Y-50588758D02*
X172268945Y-50534883D01*
X172268945Y-50534883D02*
X172295882Y-50454071D01*
X172295882Y-50454071D02*
X172376694Y-50373259D01*
X172376694Y-50373259D02*
X172457506Y-50346322D01*
X172457506Y-50346322D02*
X172538319Y-50373259D01*
X172538319Y-50373259D02*
X172834630Y-50669570D01*
X172996255Y-49915323D02*
X172807693Y-50103885D01*
X173104004Y-50400196D02*
X172538319Y-49834511D01*
X172538319Y-49834511D02*
X172807693Y-49565137D01*
D10*
X168377594Y-45184538D02*
X168429634Y-45170594D01*
X168429634Y-45170594D02*
X168514664Y-45175698D01*
X168514664Y-45175698D02*
X168679621Y-45270936D01*
X168679621Y-45270936D02*
X168726557Y-45342023D01*
X168726557Y-45342023D02*
X168740500Y-45394062D01*
X168740500Y-45394062D02*
X168735397Y-45479092D01*
X168735397Y-45479092D02*
X168697301Y-45545075D01*
X168697301Y-45545075D02*
X168607167Y-45625002D01*
X168607167Y-45625002D02*
X167982698Y-45792328D01*
X167982698Y-45792328D02*
X168411587Y-46039947D01*
X168746605Y-46145393D02*
X168760549Y-46197432D01*
X168760549Y-46197432D02*
X168708510Y-46211375D01*
X168708510Y-46211375D02*
X168694566Y-46159336D01*
X168694566Y-46159336D02*
X168746605Y-46145393D01*
X168746605Y-46145393D02*
X168708510Y-46211375D01*
X169367338Y-45755966D02*
X169419377Y-45742023D01*
X169419377Y-45742023D02*
X169504407Y-45747126D01*
X169504407Y-45747126D02*
X169669364Y-45842364D01*
X169669364Y-45842364D02*
X169716300Y-45913451D01*
X169716300Y-45913451D02*
X169730244Y-45965490D01*
X169730244Y-45965490D02*
X169725140Y-46050521D01*
X169725140Y-46050521D02*
X169687045Y-46116504D01*
X169687045Y-46116504D02*
X169596910Y-46196430D01*
X169596910Y-46196430D02*
X168972441Y-46363756D01*
X168972441Y-46363756D02*
X169401330Y-46611375D01*
X170261843Y-46492352D02*
X169995176Y-46954233D01*
X169964920Y-46320924D02*
X169755396Y-46683830D01*
X169755396Y-46683830D02*
X169750293Y-46768860D01*
X169750293Y-46768860D02*
X169797228Y-46839947D01*
X169797228Y-46839947D02*
X169896202Y-46897090D01*
X169896202Y-46897090D02*
X169981233Y-46902193D01*
X169981233Y-46902193D02*
X170033272Y-46888250D01*
X170765555Y-46915136D02*
X170534615Y-46781803D01*
X170325091Y-47144709D02*
X170725091Y-46451889D01*
X170725091Y-46451889D02*
X171055006Y-46642365D01*
X155820647Y-45193793D02*
X155886630Y-45231888D01*
X155886630Y-45231888D02*
X155933565Y-45302975D01*
X155933565Y-45302975D02*
X155947509Y-45355014D01*
X155947509Y-45355014D02*
X155942405Y-45440045D01*
X155942405Y-45440045D02*
X155899206Y-45591058D01*
X155899206Y-45591058D02*
X155803968Y-45756015D01*
X155803968Y-45756015D02*
X155694786Y-45868933D01*
X155694786Y-45868933D02*
X155623699Y-45915869D01*
X155623699Y-45915869D02*
X155571660Y-45929812D01*
X155571660Y-45929812D02*
X155486630Y-45924709D01*
X155486630Y-45924709D02*
X155420647Y-45886613D01*
X155420647Y-45886613D02*
X155373712Y-45815527D01*
X155373712Y-45815527D02*
X155359768Y-45763488D01*
X155359768Y-45763488D02*
X155364872Y-45678457D01*
X155364872Y-45678457D02*
X155408071Y-45527444D01*
X155408071Y-45527444D02*
X155503309Y-45362487D01*
X155503309Y-45362487D02*
X155612491Y-45249568D01*
X155612491Y-45249568D02*
X155683577Y-45202633D01*
X155683577Y-45202633D02*
X155735616Y-45188689D01*
X155735616Y-45188689D02*
X155820647Y-45193793D01*
X155986605Y-46125393D02*
X156000549Y-46177432D01*
X156000549Y-46177432D02*
X155948510Y-46191375D01*
X155948510Y-46191375D02*
X155934566Y-46139336D01*
X155934566Y-46139336D02*
X155986605Y-46125393D01*
X155986605Y-46125393D02*
X155948510Y-46191375D01*
X156641330Y-46591375D02*
X156245433Y-46362804D01*
X156443382Y-46477090D02*
X156843382Y-45784269D01*
X156843382Y-45784269D02*
X156720256Y-45845148D01*
X156720256Y-45845148D02*
X156616178Y-45873036D01*
X156616178Y-45873036D02*
X156531147Y-45867932D01*
X157501843Y-46472352D02*
X157235176Y-46934233D01*
X157204920Y-46300924D02*
X156995396Y-46663830D01*
X156995396Y-46663830D02*
X156990293Y-46748860D01*
X156990293Y-46748860D02*
X157037228Y-46819947D01*
X157037228Y-46819947D02*
X157136202Y-46877090D01*
X157136202Y-46877090D02*
X157221233Y-46882193D01*
X157221233Y-46882193D02*
X157273272Y-46868250D01*
X158005555Y-46895136D02*
X157774615Y-46761803D01*
X157565091Y-47124709D02*
X157965091Y-46431889D01*
X157965091Y-46431889D02*
X158295006Y-46622365D01*
X157268839Y-50812328D02*
X156872942Y-51040899D01*
X157070891Y-50926614D02*
X156670891Y-50233793D01*
X156670891Y-50233793D02*
X156662051Y-50370863D01*
X156662051Y-50370863D02*
X156634163Y-50474941D01*
X156634163Y-50474941D02*
X156587228Y-50546028D01*
X157297728Y-49871888D02*
X157363711Y-49833793D01*
X157363711Y-49833793D02*
X157448742Y-49828689D01*
X157448742Y-49828689D02*
X157500781Y-49842633D01*
X157500781Y-49842633D02*
X157571867Y-49889569D01*
X157571867Y-49889569D02*
X157681049Y-50002487D01*
X157681049Y-50002487D02*
X157776287Y-50167444D01*
X157776287Y-50167444D02*
X157819487Y-50318457D01*
X157819487Y-50318457D02*
X157824590Y-50403488D01*
X157824590Y-50403488D02*
X157810646Y-50455527D01*
X157810646Y-50455527D02*
X157763711Y-50526614D01*
X157763711Y-50526614D02*
X157697728Y-50564709D01*
X157697728Y-50564709D02*
X157612698Y-50569813D01*
X157612698Y-50569813D02*
X157560659Y-50555869D01*
X157560659Y-50555869D02*
X157489572Y-50508934D01*
X157489572Y-50508934D02*
X157380390Y-50396015D01*
X157380390Y-50396015D02*
X157285152Y-50231058D01*
X157285152Y-50231058D02*
X157241953Y-50080045D01*
X157241953Y-50080045D02*
X157236849Y-49995014D01*
X157236849Y-49995014D02*
X157250793Y-49942975D01*
X157250793Y-49942975D02*
X157297728Y-49871888D01*
X157958925Y-49798067D02*
X158225592Y-50259947D01*
X157997020Y-49864049D02*
X158010964Y-49812010D01*
X158010964Y-49812010D02*
X158057899Y-49740924D01*
X158057899Y-49740924D02*
X158156874Y-49683781D01*
X158156874Y-49683781D02*
X158241904Y-49678677D01*
X158241904Y-49678677D02*
X158312991Y-49725612D01*
X158312991Y-49725612D02*
X158522515Y-50088518D01*
X158873846Y-49401803D02*
X158642906Y-49535136D01*
X158852429Y-49898042D02*
X158452429Y-49205221D01*
X158452429Y-49205221D02*
X158782344Y-49014745D01*
X153427594Y-45194538D02*
X153479634Y-45180594D01*
X153479634Y-45180594D02*
X153564664Y-45185698D01*
X153564664Y-45185698D02*
X153729621Y-45280936D01*
X153729621Y-45280936D02*
X153776557Y-45352023D01*
X153776557Y-45352023D02*
X153790500Y-45404062D01*
X153790500Y-45404062D02*
X153785397Y-45489092D01*
X153785397Y-45489092D02*
X153747301Y-45555075D01*
X153747301Y-45555075D02*
X153657167Y-45635002D01*
X153657167Y-45635002D02*
X153032698Y-45802328D01*
X153032698Y-45802328D02*
X153461587Y-46049947D01*
X153796605Y-46155393D02*
X153810549Y-46207432D01*
X153810549Y-46207432D02*
X153758510Y-46221375D01*
X153758510Y-46221375D02*
X153744566Y-46169336D01*
X153744566Y-46169336D02*
X153796605Y-46155393D01*
X153796605Y-46155393D02*
X153758510Y-46221375D01*
X154417338Y-45765966D02*
X154469377Y-45752023D01*
X154469377Y-45752023D02*
X154554407Y-45757126D01*
X154554407Y-45757126D02*
X154719364Y-45852364D01*
X154719364Y-45852364D02*
X154766300Y-45923451D01*
X154766300Y-45923451D02*
X154780244Y-45975490D01*
X154780244Y-45975490D02*
X154775140Y-46060521D01*
X154775140Y-46060521D02*
X154737045Y-46126504D01*
X154737045Y-46126504D02*
X154646910Y-46206430D01*
X154646910Y-46206430D02*
X154022441Y-46373756D01*
X154022441Y-46373756D02*
X154451330Y-46621375D01*
X155311843Y-46502352D02*
X155045176Y-46964233D01*
X155014920Y-46330924D02*
X154805396Y-46693830D01*
X154805396Y-46693830D02*
X154800293Y-46778860D01*
X154800293Y-46778860D02*
X154847228Y-46849947D01*
X154847228Y-46849947D02*
X154946202Y-46907090D01*
X154946202Y-46907090D02*
X155031233Y-46912193D01*
X155031233Y-46912193D02*
X155083272Y-46898250D01*
X155815555Y-46925136D02*
X155584615Y-46791803D01*
X155375091Y-47154709D02*
X155775091Y-46461889D01*
X155775091Y-46461889D02*
X156105006Y-46652365D01*
X140810647Y-45193793D02*
X140876630Y-45231888D01*
X140876630Y-45231888D02*
X140923565Y-45302975D01*
X140923565Y-45302975D02*
X140937509Y-45355014D01*
X140937509Y-45355014D02*
X140932405Y-45440045D01*
X140932405Y-45440045D02*
X140889206Y-45591058D01*
X140889206Y-45591058D02*
X140793968Y-45756015D01*
X140793968Y-45756015D02*
X140684786Y-45868933D01*
X140684786Y-45868933D02*
X140613699Y-45915869D01*
X140613699Y-45915869D02*
X140561660Y-45929812D01*
X140561660Y-45929812D02*
X140476630Y-45924709D01*
X140476630Y-45924709D02*
X140410647Y-45886613D01*
X140410647Y-45886613D02*
X140363712Y-45815527D01*
X140363712Y-45815527D02*
X140349768Y-45763488D01*
X140349768Y-45763488D02*
X140354872Y-45678457D01*
X140354872Y-45678457D02*
X140398071Y-45527444D01*
X140398071Y-45527444D02*
X140493309Y-45362487D01*
X140493309Y-45362487D02*
X140602491Y-45249568D01*
X140602491Y-45249568D02*
X140673577Y-45202633D01*
X140673577Y-45202633D02*
X140725616Y-45188689D01*
X140725616Y-45188689D02*
X140810647Y-45193793D01*
X140976605Y-46125393D02*
X140990549Y-46177432D01*
X140990549Y-46177432D02*
X140938510Y-46191375D01*
X140938510Y-46191375D02*
X140924566Y-46139336D01*
X140924566Y-46139336D02*
X140976605Y-46125393D01*
X140976605Y-46125393D02*
X140938510Y-46191375D01*
X141631330Y-46591375D02*
X141235433Y-46362804D01*
X141433382Y-46477090D02*
X141833382Y-45784269D01*
X141833382Y-45784269D02*
X141710256Y-45845148D01*
X141710256Y-45845148D02*
X141606178Y-45873036D01*
X141606178Y-45873036D02*
X141521147Y-45867932D01*
X142491843Y-46472352D02*
X142225176Y-46934233D01*
X142194920Y-46300924D02*
X141985396Y-46663830D01*
X141985396Y-46663830D02*
X141980293Y-46748860D01*
X141980293Y-46748860D02*
X142027228Y-46819947D01*
X142027228Y-46819947D02*
X142126202Y-46877090D01*
X142126202Y-46877090D02*
X142211233Y-46882193D01*
X142211233Y-46882193D02*
X142263272Y-46868250D01*
X142995555Y-46895136D02*
X142764615Y-46761803D01*
X142555091Y-47124709D02*
X142955091Y-46431889D01*
X142955091Y-46431889D02*
X143285006Y-46622365D01*
X142308839Y-50842328D02*
X141912942Y-51070899D01*
X142110891Y-50956614D02*
X141710891Y-50263793D01*
X141710891Y-50263793D02*
X141702051Y-50400863D01*
X141702051Y-50400863D02*
X141674163Y-50504941D01*
X141674163Y-50504941D02*
X141627228Y-50576028D01*
X142337728Y-49901888D02*
X142403711Y-49863793D01*
X142403711Y-49863793D02*
X142488742Y-49858689D01*
X142488742Y-49858689D02*
X142540781Y-49872633D01*
X142540781Y-49872633D02*
X142611867Y-49919569D01*
X142611867Y-49919569D02*
X142721049Y-50032487D01*
X142721049Y-50032487D02*
X142816287Y-50197444D01*
X142816287Y-50197444D02*
X142859487Y-50348457D01*
X142859487Y-50348457D02*
X142864590Y-50433488D01*
X142864590Y-50433488D02*
X142850646Y-50485527D01*
X142850646Y-50485527D02*
X142803711Y-50556614D01*
X142803711Y-50556614D02*
X142737728Y-50594709D01*
X142737728Y-50594709D02*
X142652698Y-50599813D01*
X142652698Y-50599813D02*
X142600659Y-50585869D01*
X142600659Y-50585869D02*
X142529572Y-50538934D01*
X142529572Y-50538934D02*
X142420390Y-50426015D01*
X142420390Y-50426015D02*
X142325152Y-50261058D01*
X142325152Y-50261058D02*
X142281953Y-50110045D01*
X142281953Y-50110045D02*
X142276849Y-50025014D01*
X142276849Y-50025014D02*
X142290793Y-49972975D01*
X142290793Y-49972975D02*
X142337728Y-49901888D01*
X142998925Y-49828067D02*
X143265592Y-50289947D01*
X143037020Y-49894049D02*
X143050964Y-49842010D01*
X143050964Y-49842010D02*
X143097899Y-49770924D01*
X143097899Y-49770924D02*
X143196874Y-49713781D01*
X143196874Y-49713781D02*
X143281904Y-49708677D01*
X143281904Y-49708677D02*
X143352991Y-49755612D01*
X143352991Y-49755612D02*
X143562515Y-50118518D01*
X143913846Y-49431803D02*
X143682906Y-49565136D01*
X143892429Y-49928042D02*
X143492429Y-49235221D01*
X143492429Y-49235221D02*
X143822344Y-49044745D01*
X138447594Y-45214538D02*
X138499634Y-45200594D01*
X138499634Y-45200594D02*
X138584664Y-45205698D01*
X138584664Y-45205698D02*
X138749621Y-45300936D01*
X138749621Y-45300936D02*
X138796557Y-45372023D01*
X138796557Y-45372023D02*
X138810500Y-45424062D01*
X138810500Y-45424062D02*
X138805397Y-45509092D01*
X138805397Y-45509092D02*
X138767301Y-45575075D01*
X138767301Y-45575075D02*
X138677167Y-45655002D01*
X138677167Y-45655002D02*
X138052698Y-45822328D01*
X138052698Y-45822328D02*
X138481587Y-46069947D01*
X138816605Y-46175393D02*
X138830549Y-46227432D01*
X138830549Y-46227432D02*
X138778510Y-46241375D01*
X138778510Y-46241375D02*
X138764566Y-46189336D01*
X138764566Y-46189336D02*
X138816605Y-46175393D01*
X138816605Y-46175393D02*
X138778510Y-46241375D01*
X139437338Y-45785966D02*
X139489377Y-45772023D01*
X139489377Y-45772023D02*
X139574407Y-45777126D01*
X139574407Y-45777126D02*
X139739364Y-45872364D01*
X139739364Y-45872364D02*
X139786300Y-45943451D01*
X139786300Y-45943451D02*
X139800244Y-45995490D01*
X139800244Y-45995490D02*
X139795140Y-46080521D01*
X139795140Y-46080521D02*
X139757045Y-46146504D01*
X139757045Y-46146504D02*
X139666910Y-46226430D01*
X139666910Y-46226430D02*
X139042441Y-46393756D01*
X139042441Y-46393756D02*
X139471330Y-46641375D01*
X140331843Y-46522352D02*
X140065176Y-46984233D01*
X140034920Y-46350924D02*
X139825396Y-46713830D01*
X139825396Y-46713830D02*
X139820293Y-46798860D01*
X139820293Y-46798860D02*
X139867228Y-46869947D01*
X139867228Y-46869947D02*
X139966202Y-46927090D01*
X139966202Y-46927090D02*
X140051233Y-46932193D01*
X140051233Y-46932193D02*
X140103272Y-46918250D01*
X140835555Y-46945136D02*
X140604615Y-46811803D01*
X140395091Y-47174709D02*
X140795091Y-46481889D01*
X140795091Y-46481889D02*
X141125006Y-46672365D01*
X125830647Y-45173793D02*
X125896630Y-45211888D01*
X125896630Y-45211888D02*
X125943565Y-45282975D01*
X125943565Y-45282975D02*
X125957509Y-45335014D01*
X125957509Y-45335014D02*
X125952405Y-45420045D01*
X125952405Y-45420045D02*
X125909206Y-45571058D01*
X125909206Y-45571058D02*
X125813968Y-45736015D01*
X125813968Y-45736015D02*
X125704786Y-45848933D01*
X125704786Y-45848933D02*
X125633699Y-45895869D01*
X125633699Y-45895869D02*
X125581660Y-45909812D01*
X125581660Y-45909812D02*
X125496630Y-45904709D01*
X125496630Y-45904709D02*
X125430647Y-45866613D01*
X125430647Y-45866613D02*
X125383712Y-45795527D01*
X125383712Y-45795527D02*
X125369768Y-45743488D01*
X125369768Y-45743488D02*
X125374872Y-45658457D01*
X125374872Y-45658457D02*
X125418071Y-45507444D01*
X125418071Y-45507444D02*
X125513309Y-45342487D01*
X125513309Y-45342487D02*
X125622491Y-45229568D01*
X125622491Y-45229568D02*
X125693577Y-45182633D01*
X125693577Y-45182633D02*
X125745616Y-45168689D01*
X125745616Y-45168689D02*
X125830647Y-45173793D01*
X125996605Y-46105393D02*
X126010549Y-46157432D01*
X126010549Y-46157432D02*
X125958510Y-46171375D01*
X125958510Y-46171375D02*
X125944566Y-46119336D01*
X125944566Y-46119336D02*
X125996605Y-46105393D01*
X125996605Y-46105393D02*
X125958510Y-46171375D01*
X126651330Y-46571375D02*
X126255433Y-46342804D01*
X126453382Y-46457090D02*
X126853382Y-45764269D01*
X126853382Y-45764269D02*
X126730256Y-45825148D01*
X126730256Y-45825148D02*
X126626178Y-45853036D01*
X126626178Y-45853036D02*
X126541147Y-45847932D01*
X127511843Y-46452352D02*
X127245176Y-46914233D01*
X127214920Y-46280924D02*
X127005396Y-46643830D01*
X127005396Y-46643830D02*
X127000293Y-46728860D01*
X127000293Y-46728860D02*
X127047228Y-46799947D01*
X127047228Y-46799947D02*
X127146202Y-46857090D01*
X127146202Y-46857090D02*
X127231233Y-46862193D01*
X127231233Y-46862193D02*
X127283272Y-46848250D01*
X128015555Y-46875136D02*
X127784615Y-46741803D01*
X127575091Y-47104709D02*
X127975091Y-46411889D01*
X127975091Y-46411889D02*
X128305006Y-46602365D01*
X127308839Y-50852328D02*
X126912942Y-51080899D01*
X127110891Y-50966614D02*
X126710891Y-50273793D01*
X126710891Y-50273793D02*
X126702051Y-50410863D01*
X126702051Y-50410863D02*
X126674163Y-50514941D01*
X126674163Y-50514941D02*
X126627228Y-50586028D01*
X127337728Y-49911888D02*
X127403711Y-49873793D01*
X127403711Y-49873793D02*
X127488742Y-49868689D01*
X127488742Y-49868689D02*
X127540781Y-49882633D01*
X127540781Y-49882633D02*
X127611867Y-49929569D01*
X127611867Y-49929569D02*
X127721049Y-50042487D01*
X127721049Y-50042487D02*
X127816287Y-50207444D01*
X127816287Y-50207444D02*
X127859487Y-50358457D01*
X127859487Y-50358457D02*
X127864590Y-50443488D01*
X127864590Y-50443488D02*
X127850646Y-50495527D01*
X127850646Y-50495527D02*
X127803711Y-50566614D01*
X127803711Y-50566614D02*
X127737728Y-50604709D01*
X127737728Y-50604709D02*
X127652698Y-50609813D01*
X127652698Y-50609813D02*
X127600659Y-50595869D01*
X127600659Y-50595869D02*
X127529572Y-50548934D01*
X127529572Y-50548934D02*
X127420390Y-50436015D01*
X127420390Y-50436015D02*
X127325152Y-50271058D01*
X127325152Y-50271058D02*
X127281953Y-50120045D01*
X127281953Y-50120045D02*
X127276849Y-50035014D01*
X127276849Y-50035014D02*
X127290793Y-49982975D01*
X127290793Y-49982975D02*
X127337728Y-49911888D01*
X127998925Y-49838067D02*
X128265592Y-50299947D01*
X128037020Y-49904049D02*
X128050964Y-49852010D01*
X128050964Y-49852010D02*
X128097899Y-49780924D01*
X128097899Y-49780924D02*
X128196874Y-49723781D01*
X128196874Y-49723781D02*
X128281904Y-49718677D01*
X128281904Y-49718677D02*
X128352991Y-49765612D01*
X128352991Y-49765612D02*
X128562515Y-50128518D01*
X128913846Y-49441803D02*
X128682906Y-49575136D01*
X128892429Y-49938042D02*
X128492429Y-49245221D01*
X128492429Y-49245221D02*
X128822344Y-49054745D01*
X123387594Y-45204538D02*
X123439634Y-45190594D01*
X123439634Y-45190594D02*
X123524664Y-45195698D01*
X123524664Y-45195698D02*
X123689621Y-45290936D01*
X123689621Y-45290936D02*
X123736557Y-45362023D01*
X123736557Y-45362023D02*
X123750500Y-45414062D01*
X123750500Y-45414062D02*
X123745397Y-45499092D01*
X123745397Y-45499092D02*
X123707301Y-45565075D01*
X123707301Y-45565075D02*
X123617167Y-45645002D01*
X123617167Y-45645002D02*
X122992698Y-45812328D01*
X122992698Y-45812328D02*
X123421587Y-46059947D01*
X123756605Y-46165393D02*
X123770549Y-46217432D01*
X123770549Y-46217432D02*
X123718510Y-46231375D01*
X123718510Y-46231375D02*
X123704566Y-46179336D01*
X123704566Y-46179336D02*
X123756605Y-46165393D01*
X123756605Y-46165393D02*
X123718510Y-46231375D01*
X124377338Y-45775966D02*
X124429377Y-45762023D01*
X124429377Y-45762023D02*
X124514407Y-45767126D01*
X124514407Y-45767126D02*
X124679364Y-45862364D01*
X124679364Y-45862364D02*
X124726300Y-45933451D01*
X124726300Y-45933451D02*
X124740244Y-45985490D01*
X124740244Y-45985490D02*
X124735140Y-46070521D01*
X124735140Y-46070521D02*
X124697045Y-46136504D01*
X124697045Y-46136504D02*
X124606910Y-46216430D01*
X124606910Y-46216430D02*
X123982441Y-46383756D01*
X123982441Y-46383756D02*
X124411330Y-46631375D01*
X125271843Y-46512352D02*
X125005176Y-46974233D01*
X124974920Y-46340924D02*
X124765396Y-46703830D01*
X124765396Y-46703830D02*
X124760293Y-46788860D01*
X124760293Y-46788860D02*
X124807228Y-46859947D01*
X124807228Y-46859947D02*
X124906202Y-46917090D01*
X124906202Y-46917090D02*
X124991233Y-46922193D01*
X124991233Y-46922193D02*
X125043272Y-46908250D01*
X125775555Y-46935136D02*
X125544615Y-46801803D01*
X125335091Y-47164709D02*
X125735091Y-46471889D01*
X125735091Y-46471889D02*
X126065006Y-46662365D01*
X110840647Y-45163793D02*
X110906630Y-45201888D01*
X110906630Y-45201888D02*
X110953565Y-45272975D01*
X110953565Y-45272975D02*
X110967509Y-45325014D01*
X110967509Y-45325014D02*
X110962405Y-45410045D01*
X110962405Y-45410045D02*
X110919206Y-45561058D01*
X110919206Y-45561058D02*
X110823968Y-45726015D01*
X110823968Y-45726015D02*
X110714786Y-45838933D01*
X110714786Y-45838933D02*
X110643699Y-45885869D01*
X110643699Y-45885869D02*
X110591660Y-45899812D01*
X110591660Y-45899812D02*
X110506630Y-45894709D01*
X110506630Y-45894709D02*
X110440647Y-45856613D01*
X110440647Y-45856613D02*
X110393712Y-45785527D01*
X110393712Y-45785527D02*
X110379768Y-45733488D01*
X110379768Y-45733488D02*
X110384872Y-45648457D01*
X110384872Y-45648457D02*
X110428071Y-45497444D01*
X110428071Y-45497444D02*
X110523309Y-45332487D01*
X110523309Y-45332487D02*
X110632491Y-45219568D01*
X110632491Y-45219568D02*
X110703577Y-45172633D01*
X110703577Y-45172633D02*
X110755616Y-45158689D01*
X110755616Y-45158689D02*
X110840647Y-45163793D01*
X111006605Y-46095393D02*
X111020549Y-46147432D01*
X111020549Y-46147432D02*
X110968510Y-46161375D01*
X110968510Y-46161375D02*
X110954566Y-46109336D01*
X110954566Y-46109336D02*
X111006605Y-46095393D01*
X111006605Y-46095393D02*
X110968510Y-46161375D01*
X111661330Y-46561375D02*
X111265433Y-46332804D01*
X111463382Y-46447090D02*
X111863382Y-45754269D01*
X111863382Y-45754269D02*
X111740256Y-45815148D01*
X111740256Y-45815148D02*
X111636178Y-45843036D01*
X111636178Y-45843036D02*
X111551147Y-45837932D01*
X112521843Y-46442352D02*
X112255176Y-46904233D01*
X112224920Y-46270924D02*
X112015396Y-46633830D01*
X112015396Y-46633830D02*
X112010293Y-46718860D01*
X112010293Y-46718860D02*
X112057228Y-46789947D01*
X112057228Y-46789947D02*
X112156202Y-46847090D01*
X112156202Y-46847090D02*
X112241233Y-46852193D01*
X112241233Y-46852193D02*
X112293272Y-46838250D01*
X113025555Y-46865136D02*
X112794615Y-46731803D01*
X112585091Y-47094709D02*
X112985091Y-46401889D01*
X112985091Y-46401889D02*
X113315006Y-46592365D01*
X112288839Y-50812328D02*
X111892942Y-51040899D01*
X112090891Y-50926614D02*
X111690891Y-50233793D01*
X111690891Y-50233793D02*
X111682051Y-50370863D01*
X111682051Y-50370863D02*
X111654163Y-50474941D01*
X111654163Y-50474941D02*
X111607228Y-50546028D01*
X112317728Y-49871888D02*
X112383711Y-49833793D01*
X112383711Y-49833793D02*
X112468742Y-49828689D01*
X112468742Y-49828689D02*
X112520781Y-49842633D01*
X112520781Y-49842633D02*
X112591867Y-49889569D01*
X112591867Y-49889569D02*
X112701049Y-50002487D01*
X112701049Y-50002487D02*
X112796287Y-50167444D01*
X112796287Y-50167444D02*
X112839487Y-50318457D01*
X112839487Y-50318457D02*
X112844590Y-50403488D01*
X112844590Y-50403488D02*
X112830646Y-50455527D01*
X112830646Y-50455527D02*
X112783711Y-50526614D01*
X112783711Y-50526614D02*
X112717728Y-50564709D01*
X112717728Y-50564709D02*
X112632698Y-50569813D01*
X112632698Y-50569813D02*
X112580659Y-50555869D01*
X112580659Y-50555869D02*
X112509572Y-50508934D01*
X112509572Y-50508934D02*
X112400390Y-50396015D01*
X112400390Y-50396015D02*
X112305152Y-50231058D01*
X112305152Y-50231058D02*
X112261953Y-50080045D01*
X112261953Y-50080045D02*
X112256849Y-49995014D01*
X112256849Y-49995014D02*
X112270793Y-49942975D01*
X112270793Y-49942975D02*
X112317728Y-49871888D01*
X112978925Y-49798067D02*
X113245592Y-50259947D01*
X113017020Y-49864049D02*
X113030964Y-49812010D01*
X113030964Y-49812010D02*
X113077899Y-49740924D01*
X113077899Y-49740924D02*
X113176874Y-49683781D01*
X113176874Y-49683781D02*
X113261904Y-49678677D01*
X113261904Y-49678677D02*
X113332991Y-49725612D01*
X113332991Y-49725612D02*
X113542515Y-50088518D01*
X113893846Y-49401803D02*
X113662906Y-49535136D01*
X113872429Y-49898042D02*
X113472429Y-49205221D01*
X113472429Y-49205221D02*
X113802344Y-49014745D01*
X108427594Y-45174538D02*
X108479634Y-45160594D01*
X108479634Y-45160594D02*
X108564664Y-45165698D01*
X108564664Y-45165698D02*
X108729621Y-45260936D01*
X108729621Y-45260936D02*
X108776557Y-45332023D01*
X108776557Y-45332023D02*
X108790500Y-45384062D01*
X108790500Y-45384062D02*
X108785397Y-45469092D01*
X108785397Y-45469092D02*
X108747301Y-45535075D01*
X108747301Y-45535075D02*
X108657167Y-45615002D01*
X108657167Y-45615002D02*
X108032698Y-45782328D01*
X108032698Y-45782328D02*
X108461587Y-46029947D01*
X108796605Y-46135393D02*
X108810549Y-46187432D01*
X108810549Y-46187432D02*
X108758510Y-46201375D01*
X108758510Y-46201375D02*
X108744566Y-46149336D01*
X108744566Y-46149336D02*
X108796605Y-46135393D01*
X108796605Y-46135393D02*
X108758510Y-46201375D01*
X109417338Y-45745966D02*
X109469377Y-45732023D01*
X109469377Y-45732023D02*
X109554407Y-45737126D01*
X109554407Y-45737126D02*
X109719364Y-45832364D01*
X109719364Y-45832364D02*
X109766300Y-45903451D01*
X109766300Y-45903451D02*
X109780244Y-45955490D01*
X109780244Y-45955490D02*
X109775140Y-46040521D01*
X109775140Y-46040521D02*
X109737045Y-46106504D01*
X109737045Y-46106504D02*
X109646910Y-46186430D01*
X109646910Y-46186430D02*
X109022441Y-46353756D01*
X109022441Y-46353756D02*
X109451330Y-46601375D01*
X110311843Y-46482352D02*
X110045176Y-46944233D01*
X110014920Y-46310924D02*
X109805396Y-46673830D01*
X109805396Y-46673830D02*
X109800293Y-46758860D01*
X109800293Y-46758860D02*
X109847228Y-46829947D01*
X109847228Y-46829947D02*
X109946202Y-46887090D01*
X109946202Y-46887090D02*
X110031233Y-46892193D01*
X110031233Y-46892193D02*
X110083272Y-46878250D01*
X110815555Y-46905136D02*
X110584615Y-46771803D01*
X110375091Y-47134709D02*
X110775091Y-46441889D01*
X110775091Y-46441889D02*
X111105006Y-46632365D01*
X95800647Y-45193793D02*
X95866630Y-45231888D01*
X95866630Y-45231888D02*
X95913565Y-45302975D01*
X95913565Y-45302975D02*
X95927509Y-45355014D01*
X95927509Y-45355014D02*
X95922405Y-45440045D01*
X95922405Y-45440045D02*
X95879206Y-45591058D01*
X95879206Y-45591058D02*
X95783968Y-45756015D01*
X95783968Y-45756015D02*
X95674786Y-45868933D01*
X95674786Y-45868933D02*
X95603699Y-45915869D01*
X95603699Y-45915869D02*
X95551660Y-45929812D01*
X95551660Y-45929812D02*
X95466630Y-45924709D01*
X95466630Y-45924709D02*
X95400647Y-45886613D01*
X95400647Y-45886613D02*
X95353712Y-45815527D01*
X95353712Y-45815527D02*
X95339768Y-45763488D01*
X95339768Y-45763488D02*
X95344872Y-45678457D01*
X95344872Y-45678457D02*
X95388071Y-45527444D01*
X95388071Y-45527444D02*
X95483309Y-45362487D01*
X95483309Y-45362487D02*
X95592491Y-45249568D01*
X95592491Y-45249568D02*
X95663577Y-45202633D01*
X95663577Y-45202633D02*
X95715616Y-45188689D01*
X95715616Y-45188689D02*
X95800647Y-45193793D01*
X95966605Y-46125393D02*
X95980549Y-46177432D01*
X95980549Y-46177432D02*
X95928510Y-46191375D01*
X95928510Y-46191375D02*
X95914566Y-46139336D01*
X95914566Y-46139336D02*
X95966605Y-46125393D01*
X95966605Y-46125393D02*
X95928510Y-46191375D01*
X96621330Y-46591375D02*
X96225433Y-46362804D01*
X96423382Y-46477090D02*
X96823382Y-45784269D01*
X96823382Y-45784269D02*
X96700256Y-45845148D01*
X96700256Y-45845148D02*
X96596178Y-45873036D01*
X96596178Y-45873036D02*
X96511147Y-45867932D01*
X97481843Y-46472352D02*
X97215176Y-46934233D01*
X97184920Y-46300924D02*
X96975396Y-46663830D01*
X96975396Y-46663830D02*
X96970293Y-46748860D01*
X96970293Y-46748860D02*
X97017228Y-46819947D01*
X97017228Y-46819947D02*
X97116202Y-46877090D01*
X97116202Y-46877090D02*
X97201233Y-46882193D01*
X97201233Y-46882193D02*
X97253272Y-46868250D01*
X97985555Y-46895136D02*
X97754615Y-46761803D01*
X97545091Y-47124709D02*
X97945091Y-46431889D01*
X97945091Y-46431889D02*
X98275006Y-46622365D01*
X97358839Y-50842328D02*
X96962942Y-51070899D01*
X97160891Y-50956614D02*
X96760891Y-50263793D01*
X96760891Y-50263793D02*
X96752051Y-50400863D01*
X96752051Y-50400863D02*
X96724163Y-50504941D01*
X96724163Y-50504941D02*
X96677228Y-50576028D01*
X97387728Y-49901888D02*
X97453711Y-49863793D01*
X97453711Y-49863793D02*
X97538742Y-49858689D01*
X97538742Y-49858689D02*
X97590781Y-49872633D01*
X97590781Y-49872633D02*
X97661867Y-49919569D01*
X97661867Y-49919569D02*
X97771049Y-50032487D01*
X97771049Y-50032487D02*
X97866287Y-50197444D01*
X97866287Y-50197444D02*
X97909487Y-50348457D01*
X97909487Y-50348457D02*
X97914590Y-50433488D01*
X97914590Y-50433488D02*
X97900646Y-50485527D01*
X97900646Y-50485527D02*
X97853711Y-50556614D01*
X97853711Y-50556614D02*
X97787728Y-50594709D01*
X97787728Y-50594709D02*
X97702698Y-50599813D01*
X97702698Y-50599813D02*
X97650659Y-50585869D01*
X97650659Y-50585869D02*
X97579572Y-50538934D01*
X97579572Y-50538934D02*
X97470390Y-50426015D01*
X97470390Y-50426015D02*
X97375152Y-50261058D01*
X97375152Y-50261058D02*
X97331953Y-50110045D01*
X97331953Y-50110045D02*
X97326849Y-50025014D01*
X97326849Y-50025014D02*
X97340793Y-49972975D01*
X97340793Y-49972975D02*
X97387728Y-49901888D01*
X98048925Y-49828067D02*
X98315592Y-50289947D01*
X98087020Y-49894049D02*
X98100964Y-49842010D01*
X98100964Y-49842010D02*
X98147899Y-49770924D01*
X98147899Y-49770924D02*
X98246874Y-49713781D01*
X98246874Y-49713781D02*
X98331904Y-49708677D01*
X98331904Y-49708677D02*
X98402991Y-49755612D01*
X98402991Y-49755612D02*
X98612515Y-50118518D01*
X98963846Y-49431803D02*
X98732906Y-49565136D01*
X98942429Y-49928042D02*
X98542429Y-49235221D01*
X98542429Y-49235221D02*
X98872344Y-49044745D01*
X93367594Y-45204538D02*
X93419634Y-45190594D01*
X93419634Y-45190594D02*
X93504664Y-45195698D01*
X93504664Y-45195698D02*
X93669621Y-45290936D01*
X93669621Y-45290936D02*
X93716557Y-45362023D01*
X93716557Y-45362023D02*
X93730500Y-45414062D01*
X93730500Y-45414062D02*
X93725397Y-45499092D01*
X93725397Y-45499092D02*
X93687301Y-45565075D01*
X93687301Y-45565075D02*
X93597167Y-45645002D01*
X93597167Y-45645002D02*
X92972698Y-45812328D01*
X92972698Y-45812328D02*
X93401587Y-46059947D01*
X93736605Y-46165393D02*
X93750549Y-46217432D01*
X93750549Y-46217432D02*
X93698510Y-46231375D01*
X93698510Y-46231375D02*
X93684566Y-46179336D01*
X93684566Y-46179336D02*
X93736605Y-46165393D01*
X93736605Y-46165393D02*
X93698510Y-46231375D01*
X94357338Y-45775966D02*
X94409377Y-45762023D01*
X94409377Y-45762023D02*
X94494407Y-45767126D01*
X94494407Y-45767126D02*
X94659364Y-45862364D01*
X94659364Y-45862364D02*
X94706300Y-45933451D01*
X94706300Y-45933451D02*
X94720244Y-45985490D01*
X94720244Y-45985490D02*
X94715140Y-46070521D01*
X94715140Y-46070521D02*
X94677045Y-46136504D01*
X94677045Y-46136504D02*
X94586910Y-46216430D01*
X94586910Y-46216430D02*
X93962441Y-46383756D01*
X93962441Y-46383756D02*
X94391330Y-46631375D01*
X95251843Y-46512352D02*
X94985176Y-46974233D01*
X94954920Y-46340924D02*
X94745396Y-46703830D01*
X94745396Y-46703830D02*
X94740293Y-46788860D01*
X94740293Y-46788860D02*
X94787228Y-46859947D01*
X94787228Y-46859947D02*
X94886202Y-46917090D01*
X94886202Y-46917090D02*
X94971233Y-46922193D01*
X94971233Y-46922193D02*
X95023272Y-46908250D01*
X95755555Y-46935136D02*
X95524615Y-46801803D01*
X95315091Y-47164709D02*
X95715091Y-46471889D01*
X95715091Y-46471889D02*
X96045006Y-46662365D01*
X80810647Y-45183793D02*
X80876630Y-45221888D01*
X80876630Y-45221888D02*
X80923565Y-45292975D01*
X80923565Y-45292975D02*
X80937509Y-45345014D01*
X80937509Y-45345014D02*
X80932405Y-45430045D01*
X80932405Y-45430045D02*
X80889206Y-45581058D01*
X80889206Y-45581058D02*
X80793968Y-45746015D01*
X80793968Y-45746015D02*
X80684786Y-45858933D01*
X80684786Y-45858933D02*
X80613699Y-45905869D01*
X80613699Y-45905869D02*
X80561660Y-45919812D01*
X80561660Y-45919812D02*
X80476630Y-45914709D01*
X80476630Y-45914709D02*
X80410647Y-45876613D01*
X80410647Y-45876613D02*
X80363712Y-45805527D01*
X80363712Y-45805527D02*
X80349768Y-45753488D01*
X80349768Y-45753488D02*
X80354872Y-45668457D01*
X80354872Y-45668457D02*
X80398071Y-45517444D01*
X80398071Y-45517444D02*
X80493309Y-45352487D01*
X80493309Y-45352487D02*
X80602491Y-45239568D01*
X80602491Y-45239568D02*
X80673577Y-45192633D01*
X80673577Y-45192633D02*
X80725616Y-45178689D01*
X80725616Y-45178689D02*
X80810647Y-45183793D01*
X80976605Y-46115393D02*
X80990549Y-46167432D01*
X80990549Y-46167432D02*
X80938510Y-46181375D01*
X80938510Y-46181375D02*
X80924566Y-46129336D01*
X80924566Y-46129336D02*
X80976605Y-46115393D01*
X80976605Y-46115393D02*
X80938510Y-46181375D01*
X81631330Y-46581375D02*
X81235433Y-46352804D01*
X81433382Y-46467090D02*
X81833382Y-45774269D01*
X81833382Y-45774269D02*
X81710256Y-45835148D01*
X81710256Y-45835148D02*
X81606178Y-45863036D01*
X81606178Y-45863036D02*
X81521147Y-45857932D01*
X82491843Y-46462352D02*
X82225176Y-46924233D01*
X82194920Y-46290924D02*
X81985396Y-46653830D01*
X81985396Y-46653830D02*
X81980293Y-46738860D01*
X81980293Y-46738860D02*
X82027228Y-46809947D01*
X82027228Y-46809947D02*
X82126202Y-46867090D01*
X82126202Y-46867090D02*
X82211233Y-46872193D01*
X82211233Y-46872193D02*
X82263272Y-46858250D01*
X82995555Y-46885136D02*
X82764615Y-46751803D01*
X82555091Y-47114709D02*
X82955091Y-46421889D01*
X82955091Y-46421889D02*
X83285006Y-46612365D01*
X82258839Y-50862328D02*
X81862942Y-51090899D01*
X82060891Y-50976614D02*
X81660891Y-50283793D01*
X81660891Y-50283793D02*
X81652051Y-50420863D01*
X81652051Y-50420863D02*
X81624163Y-50524941D01*
X81624163Y-50524941D02*
X81577228Y-50596028D01*
X82287728Y-49921888D02*
X82353711Y-49883793D01*
X82353711Y-49883793D02*
X82438742Y-49878689D01*
X82438742Y-49878689D02*
X82490781Y-49892633D01*
X82490781Y-49892633D02*
X82561867Y-49939569D01*
X82561867Y-49939569D02*
X82671049Y-50052487D01*
X82671049Y-50052487D02*
X82766287Y-50217444D01*
X82766287Y-50217444D02*
X82809487Y-50368457D01*
X82809487Y-50368457D02*
X82814590Y-50453488D01*
X82814590Y-50453488D02*
X82800646Y-50505527D01*
X82800646Y-50505527D02*
X82753711Y-50576614D01*
X82753711Y-50576614D02*
X82687728Y-50614709D01*
X82687728Y-50614709D02*
X82602698Y-50619813D01*
X82602698Y-50619813D02*
X82550659Y-50605869D01*
X82550659Y-50605869D02*
X82479572Y-50558934D01*
X82479572Y-50558934D02*
X82370390Y-50446015D01*
X82370390Y-50446015D02*
X82275152Y-50281058D01*
X82275152Y-50281058D02*
X82231953Y-50130045D01*
X82231953Y-50130045D02*
X82226849Y-50045014D01*
X82226849Y-50045014D02*
X82240793Y-49992975D01*
X82240793Y-49992975D02*
X82287728Y-49921888D01*
X82948925Y-49848067D02*
X83215592Y-50309947D01*
X82987020Y-49914049D02*
X83000964Y-49862010D01*
X83000964Y-49862010D02*
X83047899Y-49790924D01*
X83047899Y-49790924D02*
X83146874Y-49733781D01*
X83146874Y-49733781D02*
X83231904Y-49728677D01*
X83231904Y-49728677D02*
X83302991Y-49775612D01*
X83302991Y-49775612D02*
X83512515Y-50138518D01*
X83863846Y-49451803D02*
X83632906Y-49585136D01*
X83842429Y-49948042D02*
X83442429Y-49255221D01*
X83442429Y-49255221D02*
X83772344Y-49064745D01*
X78397594Y-45144538D02*
X78449634Y-45130594D01*
X78449634Y-45130594D02*
X78534664Y-45135698D01*
X78534664Y-45135698D02*
X78699621Y-45230936D01*
X78699621Y-45230936D02*
X78746557Y-45302023D01*
X78746557Y-45302023D02*
X78760500Y-45354062D01*
X78760500Y-45354062D02*
X78755397Y-45439092D01*
X78755397Y-45439092D02*
X78717301Y-45505075D01*
X78717301Y-45505075D02*
X78627167Y-45585002D01*
X78627167Y-45585002D02*
X78002698Y-45752328D01*
X78002698Y-45752328D02*
X78431587Y-45999947D01*
X78766605Y-46105393D02*
X78780549Y-46157432D01*
X78780549Y-46157432D02*
X78728510Y-46171375D01*
X78728510Y-46171375D02*
X78714566Y-46119336D01*
X78714566Y-46119336D02*
X78766605Y-46105393D01*
X78766605Y-46105393D02*
X78728510Y-46171375D01*
X79387338Y-45715966D02*
X79439377Y-45702023D01*
X79439377Y-45702023D02*
X79524407Y-45707126D01*
X79524407Y-45707126D02*
X79689364Y-45802364D01*
X79689364Y-45802364D02*
X79736300Y-45873451D01*
X79736300Y-45873451D02*
X79750244Y-45925490D01*
X79750244Y-45925490D02*
X79745140Y-46010521D01*
X79745140Y-46010521D02*
X79707045Y-46076504D01*
X79707045Y-46076504D02*
X79616910Y-46156430D01*
X79616910Y-46156430D02*
X78992441Y-46323756D01*
X78992441Y-46323756D02*
X79421330Y-46571375D01*
X80281843Y-46452352D02*
X80015176Y-46914233D01*
X79984920Y-46280924D02*
X79775396Y-46643830D01*
X79775396Y-46643830D02*
X79770293Y-46728860D01*
X79770293Y-46728860D02*
X79817228Y-46799947D01*
X79817228Y-46799947D02*
X79916202Y-46857090D01*
X79916202Y-46857090D02*
X80001233Y-46862193D01*
X80001233Y-46862193D02*
X80053272Y-46848250D01*
X80785555Y-46875136D02*
X80554615Y-46741803D01*
X80345091Y-47104709D02*
X80745091Y-46411889D01*
X80745091Y-46411889D02*
X81075006Y-46602365D01*
X65680647Y-45083793D02*
X65746630Y-45121888D01*
X65746630Y-45121888D02*
X65793565Y-45192975D01*
X65793565Y-45192975D02*
X65807509Y-45245014D01*
X65807509Y-45245014D02*
X65802405Y-45330045D01*
X65802405Y-45330045D02*
X65759206Y-45481058D01*
X65759206Y-45481058D02*
X65663968Y-45646015D01*
X65663968Y-45646015D02*
X65554786Y-45758933D01*
X65554786Y-45758933D02*
X65483699Y-45805869D01*
X65483699Y-45805869D02*
X65431660Y-45819812D01*
X65431660Y-45819812D02*
X65346630Y-45814709D01*
X65346630Y-45814709D02*
X65280647Y-45776613D01*
X65280647Y-45776613D02*
X65233712Y-45705527D01*
X65233712Y-45705527D02*
X65219768Y-45653488D01*
X65219768Y-45653488D02*
X65224872Y-45568457D01*
X65224872Y-45568457D02*
X65268071Y-45417444D01*
X65268071Y-45417444D02*
X65363309Y-45252487D01*
X65363309Y-45252487D02*
X65472491Y-45139568D01*
X65472491Y-45139568D02*
X65543577Y-45092633D01*
X65543577Y-45092633D02*
X65595616Y-45078689D01*
X65595616Y-45078689D02*
X65680647Y-45083793D01*
X65846605Y-46015393D02*
X65860549Y-46067432D01*
X65860549Y-46067432D02*
X65808510Y-46081375D01*
X65808510Y-46081375D02*
X65794566Y-46029336D01*
X65794566Y-46029336D02*
X65846605Y-46015393D01*
X65846605Y-46015393D02*
X65808510Y-46081375D01*
X66501330Y-46481375D02*
X66105433Y-46252804D01*
X66303382Y-46367090D02*
X66703382Y-45674269D01*
X66703382Y-45674269D02*
X66580256Y-45735148D01*
X66580256Y-45735148D02*
X66476178Y-45763036D01*
X66476178Y-45763036D02*
X66391147Y-45757932D01*
X67361843Y-46362352D02*
X67095176Y-46824233D01*
X67064920Y-46190924D02*
X66855396Y-46553830D01*
X66855396Y-46553830D02*
X66850293Y-46638860D01*
X66850293Y-46638860D02*
X66897228Y-46709947D01*
X66897228Y-46709947D02*
X66996202Y-46767090D01*
X66996202Y-46767090D02*
X67081233Y-46772193D01*
X67081233Y-46772193D02*
X67133272Y-46758250D01*
X67865555Y-46785136D02*
X67634615Y-46651803D01*
X67425091Y-47014709D02*
X67825091Y-46321889D01*
X67825091Y-46321889D02*
X68155006Y-46512365D01*
X67318839Y-50872328D02*
X66922942Y-51100899D01*
X67120891Y-50986614D02*
X66720891Y-50293793D01*
X66720891Y-50293793D02*
X66712051Y-50430863D01*
X66712051Y-50430863D02*
X66684163Y-50534941D01*
X66684163Y-50534941D02*
X66637228Y-50606028D01*
X67347728Y-49931888D02*
X67413711Y-49893793D01*
X67413711Y-49893793D02*
X67498742Y-49888689D01*
X67498742Y-49888689D02*
X67550781Y-49902633D01*
X67550781Y-49902633D02*
X67621867Y-49949569D01*
X67621867Y-49949569D02*
X67731049Y-50062487D01*
X67731049Y-50062487D02*
X67826287Y-50227444D01*
X67826287Y-50227444D02*
X67869487Y-50378457D01*
X67869487Y-50378457D02*
X67874590Y-50463488D01*
X67874590Y-50463488D02*
X67860646Y-50515527D01*
X67860646Y-50515527D02*
X67813711Y-50586614D01*
X67813711Y-50586614D02*
X67747728Y-50624709D01*
X67747728Y-50624709D02*
X67662698Y-50629813D01*
X67662698Y-50629813D02*
X67610659Y-50615869D01*
X67610659Y-50615869D02*
X67539572Y-50568934D01*
X67539572Y-50568934D02*
X67430390Y-50456015D01*
X67430390Y-50456015D02*
X67335152Y-50291058D01*
X67335152Y-50291058D02*
X67291953Y-50140045D01*
X67291953Y-50140045D02*
X67286849Y-50055014D01*
X67286849Y-50055014D02*
X67300793Y-50002975D01*
X67300793Y-50002975D02*
X67347728Y-49931888D01*
X68008925Y-49858067D02*
X68275592Y-50319947D01*
X68047020Y-49924049D02*
X68060964Y-49872010D01*
X68060964Y-49872010D02*
X68107899Y-49800924D01*
X68107899Y-49800924D02*
X68206874Y-49743781D01*
X68206874Y-49743781D02*
X68291904Y-49738677D01*
X68291904Y-49738677D02*
X68362991Y-49785612D01*
X68362991Y-49785612D02*
X68572515Y-50148518D01*
X68923846Y-49461803D02*
X68692906Y-49595136D01*
X68902429Y-49958042D02*
X68502429Y-49265221D01*
X68502429Y-49265221D02*
X68832344Y-49074745D01*
X63477594Y-45144538D02*
X63529634Y-45130594D01*
X63529634Y-45130594D02*
X63614664Y-45135698D01*
X63614664Y-45135698D02*
X63779621Y-45230936D01*
X63779621Y-45230936D02*
X63826557Y-45302023D01*
X63826557Y-45302023D02*
X63840500Y-45354062D01*
X63840500Y-45354062D02*
X63835397Y-45439092D01*
X63835397Y-45439092D02*
X63797301Y-45505075D01*
X63797301Y-45505075D02*
X63707167Y-45585002D01*
X63707167Y-45585002D02*
X63082698Y-45752328D01*
X63082698Y-45752328D02*
X63511587Y-45999947D01*
X63846605Y-46105393D02*
X63860549Y-46157432D01*
X63860549Y-46157432D02*
X63808510Y-46171375D01*
X63808510Y-46171375D02*
X63794566Y-46119336D01*
X63794566Y-46119336D02*
X63846605Y-46105393D01*
X63846605Y-46105393D02*
X63808510Y-46171375D01*
X64467338Y-45715966D02*
X64519377Y-45702023D01*
X64519377Y-45702023D02*
X64604407Y-45707126D01*
X64604407Y-45707126D02*
X64769364Y-45802364D01*
X64769364Y-45802364D02*
X64816300Y-45873451D01*
X64816300Y-45873451D02*
X64830244Y-45925490D01*
X64830244Y-45925490D02*
X64825140Y-46010521D01*
X64825140Y-46010521D02*
X64787045Y-46076504D01*
X64787045Y-46076504D02*
X64696910Y-46156430D01*
X64696910Y-46156430D02*
X64072441Y-46323756D01*
X64072441Y-46323756D02*
X64501330Y-46571375D01*
X65361843Y-46452352D02*
X65095176Y-46914233D01*
X65064920Y-46280924D02*
X64855396Y-46643830D01*
X64855396Y-46643830D02*
X64850293Y-46728860D01*
X64850293Y-46728860D02*
X64897228Y-46799947D01*
X64897228Y-46799947D02*
X64996202Y-46857090D01*
X64996202Y-46857090D02*
X65081233Y-46862193D01*
X65081233Y-46862193D02*
X65133272Y-46848250D01*
X65865555Y-46875136D02*
X65634615Y-46741803D01*
X65425091Y-47104709D02*
X65825091Y-46411889D01*
X65825091Y-46411889D02*
X66155006Y-46602365D01*
D13*
%TO.C,U1*%
X166750000Y-51500000D02*
X166750000Y-50990000D01*
X169250000Y-51500000D02*
X169250000Y-50990000D01*
X166750000Y-49010000D02*
X166750000Y-48500000D01*
X169250000Y-48500000D02*
X169250000Y-49010000D01*
D14*
X167300000Y-52000000D02*
G75*
G02*
X167100000Y-52000000I-100000J0D01*
G01*
X167100000Y-52000000D02*
G75*
G02*
X167300000Y-52000000I100000J0D01*
G01*
D13*
%TO.C,U2*%
X151750000Y-51500000D02*
X151750000Y-50990000D01*
X154250000Y-51500000D02*
X154250000Y-50990000D01*
X151750000Y-49010000D02*
X151750000Y-48500000D01*
X154250000Y-48500000D02*
X154250000Y-49010000D01*
D14*
X152300000Y-52000000D02*
G75*
G02*
X152100000Y-52000000I-100000J0D01*
G01*
X152100000Y-52000000D02*
G75*
G02*
X152300000Y-52000000I100000J0D01*
G01*
D13*
%TO.C,U3*%
X136750000Y-51500000D02*
X136750000Y-50990000D01*
X139250000Y-51500000D02*
X139250000Y-50990000D01*
X136750000Y-49010000D02*
X136750000Y-48500000D01*
X139250000Y-48500000D02*
X139250000Y-49010000D01*
D14*
X137300000Y-52000000D02*
G75*
G02*
X137100000Y-52000000I-100000J0D01*
G01*
X137100000Y-52000000D02*
G75*
G02*
X137300000Y-52000000I100000J0D01*
G01*
D13*
%TO.C,U5*%
X106750000Y-51500000D02*
X106750000Y-50990000D01*
X109250000Y-51500000D02*
X109250000Y-50990000D01*
X106750000Y-49010000D02*
X106750000Y-48500000D01*
X109250000Y-48500000D02*
X109250000Y-49010000D01*
D14*
X107300000Y-52000000D02*
G75*
G02*
X107100000Y-52000000I-100000J0D01*
G01*
X107100000Y-52000000D02*
G75*
G02*
X107300000Y-52000000I100000J0D01*
G01*
D13*
%TO.C,U6*%
X91750000Y-51500000D02*
X91750000Y-50990000D01*
X94250000Y-51500000D02*
X94250000Y-50990000D01*
X91750000Y-49010000D02*
X91750000Y-48500000D01*
X94250000Y-48500000D02*
X94250000Y-49010000D01*
D14*
X92300000Y-52000000D02*
G75*
G02*
X92100000Y-52000000I-100000J0D01*
G01*
X92100000Y-52000000D02*
G75*
G02*
X92300000Y-52000000I100000J0D01*
G01*
D13*
%TO.C,U7*%
X76750000Y-51500000D02*
X76750000Y-50990000D01*
X79250000Y-51500000D02*
X79250000Y-50990000D01*
X76750000Y-49010000D02*
X76750000Y-48500000D01*
X79250000Y-48500000D02*
X79250000Y-49010000D01*
D14*
X77300000Y-52000000D02*
G75*
G02*
X77100000Y-52000000I-100000J0D01*
G01*
X77100000Y-52000000D02*
G75*
G02*
X77300000Y-52000000I100000J0D01*
G01*
D13*
%TO.C,U8*%
X61750000Y-51500000D02*
X61750000Y-50990000D01*
X64250000Y-51500000D02*
X64250000Y-50990000D01*
X61750000Y-49010000D02*
X61750000Y-48500000D01*
X64250000Y-48500000D02*
X64250000Y-49010000D01*
D14*
X62300000Y-52000000D02*
G75*
G02*
X62100000Y-52000000I-100000J0D01*
G01*
X62100000Y-52000000D02*
G75*
G02*
X62300000Y-52000000I100000J0D01*
G01*
D13*
%TO.C,U4*%
X121750000Y-51500000D02*
X121750000Y-50990000D01*
X124250000Y-51500000D02*
X124250000Y-50990000D01*
X121750000Y-49010000D02*
X121750000Y-48500000D01*
X124250000Y-48500000D02*
X124250000Y-49010000D01*
D14*
X122300000Y-52000000D02*
G75*
G02*
X122100000Y-52000000I-100000J0D01*
G01*
X122100000Y-52000000D02*
G75*
G02*
X122300000Y-52000000I100000J0D01*
G01*
%TD*%
D15*
X168750000Y-44750000D02*
X171750000Y-44750000D01*
X168750000Y-55250000D02*
X171750000Y-55250000D01*
X173750000Y-53000000D02*
X173750000Y-47000000D01*
X171750000Y-44750000D02*
G75*
G02*
X173750000Y-46750000I0J-2000000D01*
G01*
X173750000Y-53250000D02*
G75*
G02*
X171750000Y-55250000I-2000000J0D01*
G01*
X40550000Y-54000000D02*
G75*
G02*
X41150000Y-54600000I0J-600000D01*
G01*
X41150000Y-54600000D02*
X41150000Y-54650000D01*
X41750000Y-55250000D02*
G75*
G02*
X41150000Y-54650000I0J600000D01*
G01*
X41150000Y-45400000D02*
G75*
G02*
X40550000Y-46000000I-600000J0D01*
G01*
X41150000Y-45350000D02*
X41150000Y-45400000D01*
X41150000Y-45350000D02*
G75*
G02*
X41750000Y-44750000I600000J0D01*
G01*
X45750000Y-44750000D02*
X41750000Y-44750000D01*
X45750000Y-55250000D02*
X41750000Y-55250000D01*
X51750000Y-55250000D02*
X45750000Y-55250000D01*
X51750000Y-44750000D02*
X45750000Y-44750000D01*
X168500000Y-55250000D02*
X168750000Y-55250000D01*
X173750000Y-46750000D02*
X173750000Y-47000000D01*
X168500000Y-44750000D02*
X168750000Y-44750000D01*
X173750000Y-53000000D02*
X173750000Y-53250000D01*
X168500000Y-44750000D02*
X51750000Y-44750000D01*
X51750000Y-55250000D02*
X168500000Y-55250000D01*
%TO.C,J1*%
X33550000Y-46250000D02*
X33550000Y-46350000D01*
X33550000Y-46350000D02*
X33550000Y-46400000D01*
X33550000Y-46400000D02*
X33550000Y-53600000D01*
X33550000Y-53650000D02*
X33550000Y-53600000D01*
X33550000Y-53650000D02*
X33550000Y-53750000D01*
X33799999Y-46000000D02*
X40550000Y-46000000D01*
X33800000Y-54000000D02*
X40550000Y-54000000D01*
X33550000Y-46250000D02*
G75*
G02*
X33800000Y-46000000I249999J1D01*
G01*
X33800000Y-54000000D02*
G75*
G02*
X33550000Y-53750000I-1J249999D01*
G01*
%TD*%
M02*
