%TF.GenerationSoftware,KiCad,Pcbnew,9.0.4*%
%TF.CreationDate,2025-09-12T03:13:26+02:00*%
%TF.ProjectId,ICM Single Side-rounded,49434d20-5369-46e6-976c-652053696465,rev?*%
%TF.SameCoordinates,Original*%
%TF.FileFunction,Soldermask,Top*%
%TF.FilePolarity,Negative*%
%FSLAX46Y46*%
G04 Gerber Fmt 4.6, Leading zero omitted, Abs format (unit mm)*
G04 Created by KiCad (PCBNEW 9.0.4) date 2025-09-12 03:13:26*
%MOMM*%
%LPD*%
G01*
G04 APERTURE LIST*
G04 Aperture macros list*
%AMRoundRect*
0 Rectangle with rounded corners*
0 $1 Rounding radius*
0 $2 $3 $4 $5 $6 $7 $8 $9 X,Y pos of 4 corners*
0 Add a 4 corners polygon primitive as box body*
4,1,4,$2,$3,$4,$5,$6,$7,$8,$9,$2,$3,0*
0 Add four circle primitives for the rounded corners*
1,1,$1+$1,$2,$3*
1,1,$1+$1,$4,$5*
1,1,$1+$1,$6,$7*
1,1,$1+$1,$8,$9*
0 Add four rect primitives between the rounded corners*
20,1,$1+$1,$2,$3,$4,$5,0*
20,1,$1+$1,$4,$5,$6,$7,0*
20,1,$1+$1,$6,$7,$8,$9,0*
20,1,$1+$1,$8,$9,$2,$3,0*%
G04 Aperture macros list end*
%ADD10C,0.508000*%
%ADD11C,0.500000*%
%ADD12RoundRect,0.158750X-0.491250X0.158750X-0.491250X-0.158750X0.491250X-0.158750X0.491250X0.158750X0*%
%TA.AperFunction,Profile*%
%ADD13C,0.050000*%
%TD*%
G04 APERTURE END LIST*
D10*
%TO.C,U1*%
X168930000Y-51460000D02*
X167070000Y-51460000D01*
X167070000Y-50870000D01*
X168930000Y-50870000D01*
X168930000Y-51460000D01*
G36*
X168930000Y-51460000D02*
G01*
X167070000Y-51460000D01*
X167070000Y-50870000D01*
X168930000Y-50870000D01*
X168930000Y-51460000D01*
G37*
X167380000Y-50680000D02*
X166790000Y-50680000D01*
X166790000Y-49320000D01*
X167380000Y-49320000D01*
X167380000Y-50680000D01*
G36*
X167380000Y-50680000D02*
G01*
X166790000Y-50680000D01*
X166790000Y-49320000D01*
X167380000Y-49320000D01*
X167380000Y-50680000D01*
G37*
X169210000Y-50680000D02*
X168620000Y-50680000D01*
X168620000Y-49320000D01*
X169210000Y-49320000D01*
X169210000Y-50680000D01*
G36*
X169210000Y-50680000D02*
G01*
X168620000Y-50680000D01*
X168620000Y-49320000D01*
X169210000Y-49320000D01*
X169210000Y-50680000D01*
G37*
X168930000Y-49130000D02*
X167070000Y-49130000D01*
X167070000Y-48540000D01*
X168930000Y-48540000D01*
X168930000Y-49130000D01*
G36*
X168930000Y-49130000D02*
G01*
X167070000Y-49130000D01*
X167070000Y-48540000D01*
X168930000Y-48540000D01*
X168930000Y-49130000D01*
G37*
%TO.C,U2*%
X153930000Y-51460000D02*
X152070000Y-51460000D01*
X152070000Y-50870000D01*
X153930000Y-50870000D01*
X153930000Y-51460000D01*
G36*
X153930000Y-51460000D02*
G01*
X152070000Y-51460000D01*
X152070000Y-50870000D01*
X153930000Y-50870000D01*
X153930000Y-51460000D01*
G37*
X152380000Y-50680000D02*
X151790000Y-50680000D01*
X151790000Y-49320000D01*
X152380000Y-49320000D01*
X152380000Y-50680000D01*
G36*
X152380000Y-50680000D02*
G01*
X151790000Y-50680000D01*
X151790000Y-49320000D01*
X152380000Y-49320000D01*
X152380000Y-50680000D01*
G37*
X154210000Y-50680000D02*
X153620000Y-50680000D01*
X153620000Y-49320000D01*
X154210000Y-49320000D01*
X154210000Y-50680000D01*
G36*
X154210000Y-50680000D02*
G01*
X153620000Y-50680000D01*
X153620000Y-49320000D01*
X154210000Y-49320000D01*
X154210000Y-50680000D01*
G37*
X153930000Y-49130000D02*
X152070000Y-49130000D01*
X152070000Y-48540000D01*
X153930000Y-48540000D01*
X153930000Y-49130000D01*
G36*
X153930000Y-49130000D02*
G01*
X152070000Y-49130000D01*
X152070000Y-48540000D01*
X153930000Y-48540000D01*
X153930000Y-49130000D01*
G37*
%TO.C,U3*%
X138930000Y-51460000D02*
X137070000Y-51460000D01*
X137070000Y-50870000D01*
X138930000Y-50870000D01*
X138930000Y-51460000D01*
G36*
X138930000Y-51460000D02*
G01*
X137070000Y-51460000D01*
X137070000Y-50870000D01*
X138930000Y-50870000D01*
X138930000Y-51460000D01*
G37*
X137380000Y-50680000D02*
X136790000Y-50680000D01*
X136790000Y-49320000D01*
X137380000Y-49320000D01*
X137380000Y-50680000D01*
G36*
X137380000Y-50680000D02*
G01*
X136790000Y-50680000D01*
X136790000Y-49320000D01*
X137380000Y-49320000D01*
X137380000Y-50680000D01*
G37*
X139210000Y-50680000D02*
X138620000Y-50680000D01*
X138620000Y-49320000D01*
X139210000Y-49320000D01*
X139210000Y-50680000D01*
G36*
X139210000Y-50680000D02*
G01*
X138620000Y-50680000D01*
X138620000Y-49320000D01*
X139210000Y-49320000D01*
X139210000Y-50680000D01*
G37*
X138930000Y-49130000D02*
X137070000Y-49130000D01*
X137070000Y-48540000D01*
X138930000Y-48540000D01*
X138930000Y-49130000D01*
G36*
X138930000Y-49130000D02*
G01*
X137070000Y-49130000D01*
X137070000Y-48540000D01*
X138930000Y-48540000D01*
X138930000Y-49130000D01*
G37*
%TO.C,U5*%
X108930000Y-51460000D02*
X107070000Y-51460000D01*
X107070000Y-50870000D01*
X108930000Y-50870000D01*
X108930000Y-51460000D01*
G36*
X108930000Y-51460000D02*
G01*
X107070000Y-51460000D01*
X107070000Y-50870000D01*
X108930000Y-50870000D01*
X108930000Y-51460000D01*
G37*
X107380000Y-50680000D02*
X106790000Y-50680000D01*
X106790000Y-49320000D01*
X107380000Y-49320000D01*
X107380000Y-50680000D01*
G36*
X107380000Y-50680000D02*
G01*
X106790000Y-50680000D01*
X106790000Y-49320000D01*
X107380000Y-49320000D01*
X107380000Y-50680000D01*
G37*
X109210000Y-50680000D02*
X108620000Y-50680000D01*
X108620000Y-49320000D01*
X109210000Y-49320000D01*
X109210000Y-50680000D01*
G36*
X109210000Y-50680000D02*
G01*
X108620000Y-50680000D01*
X108620000Y-49320000D01*
X109210000Y-49320000D01*
X109210000Y-50680000D01*
G37*
X108930000Y-49130000D02*
X107070000Y-49130000D01*
X107070000Y-48540000D01*
X108930000Y-48540000D01*
X108930000Y-49130000D01*
G36*
X108930000Y-49130000D02*
G01*
X107070000Y-49130000D01*
X107070000Y-48540000D01*
X108930000Y-48540000D01*
X108930000Y-49130000D01*
G37*
%TO.C,U6*%
X93930000Y-51460000D02*
X92070000Y-51460000D01*
X92070000Y-50870000D01*
X93930000Y-50870000D01*
X93930000Y-51460000D01*
G36*
X93930000Y-51460000D02*
G01*
X92070000Y-51460000D01*
X92070000Y-50870000D01*
X93930000Y-50870000D01*
X93930000Y-51460000D01*
G37*
X92380000Y-50680000D02*
X91790000Y-50680000D01*
X91790000Y-49320000D01*
X92380000Y-49320000D01*
X92380000Y-50680000D01*
G36*
X92380000Y-50680000D02*
G01*
X91790000Y-50680000D01*
X91790000Y-49320000D01*
X92380000Y-49320000D01*
X92380000Y-50680000D01*
G37*
X94210000Y-50680000D02*
X93620000Y-50680000D01*
X93620000Y-49320000D01*
X94210000Y-49320000D01*
X94210000Y-50680000D01*
G36*
X94210000Y-50680000D02*
G01*
X93620000Y-50680000D01*
X93620000Y-49320000D01*
X94210000Y-49320000D01*
X94210000Y-50680000D01*
G37*
X93930000Y-49130000D02*
X92070000Y-49130000D01*
X92070000Y-48540000D01*
X93930000Y-48540000D01*
X93930000Y-49130000D01*
G36*
X93930000Y-49130000D02*
G01*
X92070000Y-49130000D01*
X92070000Y-48540000D01*
X93930000Y-48540000D01*
X93930000Y-49130000D01*
G37*
%TO.C,U7*%
X78930000Y-51460000D02*
X77070000Y-51460000D01*
X77070000Y-50870000D01*
X78930000Y-50870000D01*
X78930000Y-51460000D01*
G36*
X78930000Y-51460000D02*
G01*
X77070000Y-51460000D01*
X77070000Y-50870000D01*
X78930000Y-50870000D01*
X78930000Y-51460000D01*
G37*
X77380000Y-50680000D02*
X76790000Y-50680000D01*
X76790000Y-49320000D01*
X77380000Y-49320000D01*
X77380000Y-50680000D01*
G36*
X77380000Y-50680000D02*
G01*
X76790000Y-50680000D01*
X76790000Y-49320000D01*
X77380000Y-49320000D01*
X77380000Y-50680000D01*
G37*
X79210000Y-50680000D02*
X78620000Y-50680000D01*
X78620000Y-49320000D01*
X79210000Y-49320000D01*
X79210000Y-50680000D01*
G36*
X79210000Y-50680000D02*
G01*
X78620000Y-50680000D01*
X78620000Y-49320000D01*
X79210000Y-49320000D01*
X79210000Y-50680000D01*
G37*
X78930000Y-49130000D02*
X77070000Y-49130000D01*
X77070000Y-48540000D01*
X78930000Y-48540000D01*
X78930000Y-49130000D01*
G36*
X78930000Y-49130000D02*
G01*
X77070000Y-49130000D01*
X77070000Y-48540000D01*
X78930000Y-48540000D01*
X78930000Y-49130000D01*
G37*
%TO.C,U8*%
X63930000Y-51460000D02*
X62070000Y-51460000D01*
X62070000Y-50870000D01*
X63930000Y-50870000D01*
X63930000Y-51460000D01*
G36*
X63930000Y-51460000D02*
G01*
X62070000Y-51460000D01*
X62070000Y-50870000D01*
X63930000Y-50870000D01*
X63930000Y-51460000D01*
G37*
X62380000Y-50680000D02*
X61790000Y-50680000D01*
X61790000Y-49320000D01*
X62380000Y-49320000D01*
X62380000Y-50680000D01*
G36*
X62380000Y-50680000D02*
G01*
X61790000Y-50680000D01*
X61790000Y-49320000D01*
X62380000Y-49320000D01*
X62380000Y-50680000D01*
G37*
X64210000Y-50680000D02*
X63620000Y-50680000D01*
X63620000Y-49320000D01*
X64210000Y-49320000D01*
X64210000Y-50680000D01*
G36*
X64210000Y-50680000D02*
G01*
X63620000Y-50680000D01*
X63620000Y-49320000D01*
X64210000Y-49320000D01*
X64210000Y-50680000D01*
G37*
X63930000Y-49130000D02*
X62070000Y-49130000D01*
X62070000Y-48540000D01*
X63930000Y-48540000D01*
X63930000Y-49130000D01*
G36*
X63930000Y-49130000D02*
G01*
X62070000Y-49130000D01*
X62070000Y-48540000D01*
X63930000Y-48540000D01*
X63930000Y-49130000D01*
G37*
D11*
%TO.C,0.1nF*%
X172510000Y-48975000D02*
X172110000Y-48975000D01*
X172110000Y-47525000D01*
X172510000Y-47525000D01*
X172510000Y-48975000D01*
G36*
X172510000Y-48975000D02*
G01*
X172110000Y-48975000D01*
X172110000Y-47525000D01*
X172510000Y-47525000D01*
X172510000Y-48975000D01*
G37*
%TO.C,10nF*%
X170860000Y-50785000D02*
X170460000Y-50785000D01*
X170460000Y-49335000D01*
X170860000Y-49335000D01*
X170860000Y-50785000D01*
G36*
X170860000Y-50785000D02*
G01*
X170460000Y-50785000D01*
X170460000Y-49335000D01*
X170860000Y-49335000D01*
X170860000Y-50785000D01*
G37*
%TO.C,2.2uF*%
X170860000Y-48972500D02*
X170460000Y-48972500D01*
X170460000Y-47522500D01*
X170860000Y-47522500D01*
X170860000Y-48972500D01*
G36*
X170860000Y-48972500D02*
G01*
X170460000Y-48972500D01*
X170460000Y-47522500D01*
X170860000Y-47522500D01*
X170860000Y-48972500D01*
G37*
%TO.C,0.1uF*%
X157520000Y-48987500D02*
X157120000Y-48987500D01*
X157120000Y-47537500D01*
X157520000Y-47537500D01*
X157520000Y-48987500D01*
G36*
X157520000Y-48987500D02*
G01*
X157120000Y-48987500D01*
X157120000Y-47537500D01*
X157520000Y-47537500D01*
X157520000Y-48987500D01*
G37*
%TO.C,10nF*%
X155870000Y-50792500D02*
X155470000Y-50792500D01*
X155470000Y-49342500D01*
X155870000Y-49342500D01*
X155870000Y-50792500D01*
G36*
X155870000Y-50792500D02*
G01*
X155470000Y-50792500D01*
X155470000Y-49342500D01*
X155870000Y-49342500D01*
X155870000Y-50792500D01*
G37*
%TO.C,2.2uF*%
X155870000Y-48985000D02*
X155470000Y-48985000D01*
X155470000Y-47535000D01*
X155870000Y-47535000D01*
X155870000Y-48985000D01*
G36*
X155870000Y-48985000D02*
G01*
X155470000Y-48985000D01*
X155470000Y-47535000D01*
X155870000Y-47535000D01*
X155870000Y-48985000D01*
G37*
%TO.C,0.1uF*%
X142520000Y-48995000D02*
X142120000Y-48995000D01*
X142120000Y-47545000D01*
X142520000Y-47545000D01*
X142520000Y-48995000D01*
G36*
X142520000Y-48995000D02*
G01*
X142120000Y-48995000D01*
X142120000Y-47545000D01*
X142520000Y-47545000D01*
X142520000Y-48995000D01*
G37*
%TO.C,10nF*%
X140870000Y-50802500D02*
X140470000Y-50802500D01*
X140470000Y-49352500D01*
X140870000Y-49352500D01*
X140870000Y-50802500D01*
G36*
X140870000Y-50802500D02*
G01*
X140470000Y-50802500D01*
X140470000Y-49352500D01*
X140870000Y-49352500D01*
X140870000Y-50802500D01*
G37*
%TO.C,2.2uF*%
X140870000Y-48995000D02*
X140470000Y-48995000D01*
X140470000Y-47545000D01*
X140870000Y-47545000D01*
X140870000Y-48995000D01*
G36*
X140870000Y-48995000D02*
G01*
X140470000Y-48995000D01*
X140470000Y-47545000D01*
X140870000Y-47545000D01*
X140870000Y-48995000D01*
G37*
%TO.C,0.1uF*%
X127520000Y-48985000D02*
X127120000Y-48985000D01*
X127120000Y-47535000D01*
X127520000Y-47535000D01*
X127520000Y-48985000D01*
G36*
X127520000Y-48985000D02*
G01*
X127120000Y-48985000D01*
X127120000Y-47535000D01*
X127520000Y-47535000D01*
X127520000Y-48985000D01*
G37*
%TO.C,10nF*%
X125870000Y-50802500D02*
X125470000Y-50802500D01*
X125470000Y-49352500D01*
X125870000Y-49352500D01*
X125870000Y-50802500D01*
G36*
X125870000Y-50802500D02*
G01*
X125470000Y-50802500D01*
X125470000Y-49352500D01*
X125870000Y-49352500D01*
X125870000Y-50802500D01*
G37*
%TO.C,2.2uF*%
X125870000Y-48992500D02*
X125470000Y-48992500D01*
X125470000Y-47542500D01*
X125870000Y-47542500D01*
X125870000Y-48992500D01*
G36*
X125870000Y-48992500D02*
G01*
X125470000Y-48992500D01*
X125470000Y-47542500D01*
X125870000Y-47542500D01*
X125870000Y-48992500D01*
G37*
%TO.C,0.1uF*%
X112530000Y-48965000D02*
X112130000Y-48965000D01*
X112130000Y-47515000D01*
X112530000Y-47515000D01*
X112530000Y-48965000D01*
G36*
X112530000Y-48965000D02*
G01*
X112130000Y-48965000D01*
X112130000Y-47515000D01*
X112530000Y-47515000D01*
X112530000Y-48965000D01*
G37*
%TO.C,10nF*%
X110880000Y-50777500D02*
X110480000Y-50777500D01*
X110480000Y-49327500D01*
X110880000Y-49327500D01*
X110880000Y-50777500D01*
G36*
X110880000Y-50777500D02*
G01*
X110480000Y-50777500D01*
X110480000Y-49327500D01*
X110880000Y-49327500D01*
X110880000Y-50777500D01*
G37*
%TO.C,2.2uF*%
X110880000Y-48965000D02*
X110480000Y-48965000D01*
X110480000Y-47515000D01*
X110880000Y-47515000D01*
X110880000Y-48965000D01*
G36*
X110880000Y-48965000D02*
G01*
X110480000Y-48965000D01*
X110480000Y-47515000D01*
X110880000Y-47515000D01*
X110880000Y-48965000D01*
G37*
%TO.C,0.1uF*%
X97520000Y-48965000D02*
X97120000Y-48965000D01*
X97120000Y-47515000D01*
X97520000Y-47515000D01*
X97520000Y-48965000D01*
G36*
X97520000Y-48965000D02*
G01*
X97120000Y-48965000D01*
X97120000Y-47515000D01*
X97520000Y-47515000D01*
X97520000Y-48965000D01*
G37*
%TO.C,10nF*%
X95870000Y-50777500D02*
X95470000Y-50777500D01*
X95470000Y-49327500D01*
X95870000Y-49327500D01*
X95870000Y-50777500D01*
G36*
X95870000Y-50777500D02*
G01*
X95470000Y-50777500D01*
X95470000Y-49327500D01*
X95870000Y-49327500D01*
X95870000Y-50777500D01*
G37*
%TO.C,2.2uF*%
X95870000Y-48965000D02*
X95470000Y-48965000D01*
X95470000Y-47515000D01*
X95870000Y-47515000D01*
X95870000Y-48965000D01*
G36*
X95870000Y-48965000D02*
G01*
X95470000Y-48965000D01*
X95470000Y-47515000D01*
X95870000Y-47515000D01*
X95870000Y-48965000D01*
G37*
%TO.C,0.1uF*%
X82510000Y-48965000D02*
X82110000Y-48965000D01*
X82110000Y-47515000D01*
X82510000Y-47515000D01*
X82510000Y-48965000D01*
G36*
X82510000Y-48965000D02*
G01*
X82110000Y-48965000D01*
X82110000Y-47515000D01*
X82510000Y-47515000D01*
X82510000Y-48965000D01*
G37*
%TO.C,10nF*%
X80860000Y-50777500D02*
X80460000Y-50777500D01*
X80460000Y-49327500D01*
X80860000Y-49327500D01*
X80860000Y-50777500D01*
G36*
X80860000Y-50777500D02*
G01*
X80460000Y-50777500D01*
X80460000Y-49327500D01*
X80860000Y-49327500D01*
X80860000Y-50777500D01*
G37*
%TO.C,2.2uF*%
X80860000Y-48967500D02*
X80460000Y-48967500D01*
X80460000Y-47517500D01*
X80860000Y-47517500D01*
X80860000Y-48967500D01*
G36*
X80860000Y-48967500D02*
G01*
X80460000Y-48967500D01*
X80460000Y-47517500D01*
X80860000Y-47517500D01*
X80860000Y-48967500D01*
G37*
%TO.C,0.1uF*%
X67520000Y-48985000D02*
X67120000Y-48985000D01*
X67120000Y-47535000D01*
X67520000Y-47535000D01*
X67520000Y-48985000D01*
G36*
X67520000Y-48985000D02*
G01*
X67120000Y-48985000D01*
X67120000Y-47535000D01*
X67520000Y-47535000D01*
X67520000Y-48985000D01*
G37*
%TO.C,10nF*%
X65870000Y-50795000D02*
X65470000Y-50795000D01*
X65470000Y-49345000D01*
X65870000Y-49345000D01*
X65870000Y-50795000D01*
G36*
X65870000Y-50795000D02*
G01*
X65470000Y-50795000D01*
X65470000Y-49345000D01*
X65870000Y-49345000D01*
X65870000Y-50795000D01*
G37*
%TO.C,2.2uF*%
X65870000Y-48985000D02*
X65470000Y-48985000D01*
X65470000Y-47535000D01*
X65870000Y-47535000D01*
X65870000Y-48985000D01*
G36*
X65870000Y-48985000D02*
G01*
X65470000Y-48985000D01*
X65470000Y-47535000D01*
X65870000Y-47535000D01*
X65870000Y-48985000D01*
G37*
D10*
%TO.C,U4*%
X123930000Y-51460000D02*
X122070000Y-51460000D01*
X122070000Y-50870000D01*
X123930000Y-50870000D01*
X123930000Y-51460000D01*
G36*
X123930000Y-51460000D02*
G01*
X122070000Y-51460000D01*
X122070000Y-50870000D01*
X123930000Y-50870000D01*
X123930000Y-51460000D01*
G37*
X122380000Y-50680000D02*
X121790000Y-50680000D01*
X121790000Y-49320000D01*
X122380000Y-49320000D01*
X122380000Y-50680000D01*
G36*
X122380000Y-50680000D02*
G01*
X121790000Y-50680000D01*
X121790000Y-49320000D01*
X122380000Y-49320000D01*
X122380000Y-50680000D01*
G37*
X124210000Y-50680000D02*
X123620000Y-50680000D01*
X123620000Y-49320000D01*
X124210000Y-49320000D01*
X124210000Y-50680000D01*
G36*
X124210000Y-50680000D02*
G01*
X123620000Y-50680000D01*
X123620000Y-49320000D01*
X124210000Y-49320000D01*
X124210000Y-50680000D01*
G37*
X123930000Y-49130000D02*
X122070000Y-49130000D01*
X122070000Y-48540000D01*
X123930000Y-48540000D01*
X123930000Y-49130000D01*
G36*
X123930000Y-49130000D02*
G01*
X122070000Y-49130000D01*
X122070000Y-48540000D01*
X123930000Y-48540000D01*
X123930000Y-49130000D01*
G37*
%TD*%
D12*
%TO.C,0.1nF*%
X172310000Y-47842500D03*
X172310000Y-48657500D03*
%TD*%
%TO.C,10nF*%
X170660000Y-49652500D03*
X170660000Y-50467500D03*
%TD*%
%TO.C,2.2uF*%
X170660000Y-47840000D03*
X170660000Y-48655000D03*
%TD*%
%TO.C,0.1uF*%
X157320000Y-47855000D03*
X157320000Y-48670000D03*
%TD*%
%TO.C,10nF*%
X155670000Y-49660000D03*
X155670000Y-50475000D03*
%TD*%
%TO.C,2.2uF*%
X155670000Y-47852500D03*
X155670000Y-48667500D03*
%TD*%
%TO.C,0.1uF*%
X142320000Y-47862500D03*
X142320000Y-48677500D03*
%TD*%
%TO.C,10nF*%
X140670000Y-50485000D03*
X140670000Y-49670000D03*
%TD*%
%TO.C,2.2uF*%
X140670000Y-47862500D03*
X140670000Y-48677500D03*
%TD*%
%TO.C,0.1uF*%
X127320000Y-47852500D03*
X127320000Y-48667500D03*
%TD*%
%TO.C,10nF*%
X125670000Y-49670000D03*
X125670000Y-50485000D03*
%TD*%
%TO.C,2.2uF*%
X125670000Y-47860000D03*
X125670000Y-48675000D03*
%TD*%
%TO.C,0.1uF*%
X112330000Y-47832500D03*
X112330000Y-48647500D03*
%TD*%
%TO.C,10nF*%
X110680000Y-49645000D03*
X110680000Y-50460000D03*
%TD*%
%TO.C,2.2uF*%
X110680000Y-47832500D03*
X110680000Y-48647500D03*
%TD*%
%TO.C,0.1uF*%
X97320000Y-47832500D03*
X97320000Y-48647500D03*
%TD*%
%TO.C,10nF*%
X95670000Y-49645000D03*
X95670000Y-50460000D03*
%TD*%
%TO.C,2.2uF*%
X95670000Y-47832500D03*
X95670000Y-48647500D03*
%TD*%
%TO.C,0.1uF*%
X82310000Y-47832500D03*
X82310000Y-48647500D03*
%TD*%
%TO.C,10nF*%
X80660000Y-49645000D03*
X80660000Y-50460000D03*
%TD*%
%TO.C,2.2uF*%
X80660000Y-47835000D03*
X80660000Y-48650000D03*
%TD*%
%TO.C,0.1uF*%
X67320000Y-47852500D03*
X67320000Y-48667500D03*
%TD*%
%TO.C,10nF*%
X65670000Y-49662500D03*
X65670000Y-50477500D03*
%TD*%
%TO.C,2.2uF*%
X65670000Y-47852500D03*
X65670000Y-48667500D03*
%TD*%
D13*
X168750000Y-44750000D02*
X171750000Y-44750000D01*
X168750000Y-55250000D02*
X171750000Y-55250000D01*
X173750000Y-53000000D02*
X173750000Y-47000000D01*
X171750000Y-44750000D02*
G75*
G02*
X173750000Y-46750000I0J-2000000D01*
G01*
X173750000Y-53250000D02*
G75*
G02*
X171750000Y-55250000I-2000000J0D01*
G01*
X40550000Y-54000000D02*
G75*
G02*
X41150000Y-54600000I0J-600000D01*
G01*
X41150000Y-54600000D02*
X41150000Y-54650000D01*
X41750000Y-55250000D02*
G75*
G02*
X41150000Y-54650000I0J600000D01*
G01*
X41150000Y-45400000D02*
G75*
G02*
X40550000Y-46000000I-600000J0D01*
G01*
X41150000Y-45350000D02*
X41150000Y-45400000D01*
X41150000Y-45350000D02*
G75*
G02*
X41750000Y-44750000I600000J0D01*
G01*
X45750000Y-44750000D02*
X41750000Y-44750000D01*
X45750000Y-55250000D02*
X41750000Y-55250000D01*
X51750000Y-55250000D02*
X45750000Y-55250000D01*
X51750000Y-44750000D02*
X45750000Y-44750000D01*
X168500000Y-55250000D02*
X168750000Y-55250000D01*
X173750000Y-46750000D02*
X173750000Y-47000000D01*
X168500000Y-44750000D02*
X168750000Y-44750000D01*
X173750000Y-53000000D02*
X173750000Y-53250000D01*
X168500000Y-44750000D02*
X51750000Y-44750000D01*
X51750000Y-55250000D02*
X168500000Y-55250000D01*
%TO.C,J1*%
X33550000Y-46250000D02*
X33550000Y-46350000D01*
X33550000Y-46350000D02*
X33550000Y-46400000D01*
X33550000Y-46400000D02*
X33550000Y-53600000D01*
X33550000Y-53650000D02*
X33550000Y-53600000D01*
X33550000Y-53650000D02*
X33550000Y-53750000D01*
X33799999Y-46000000D02*
X40550000Y-46000000D01*
X33800000Y-54000000D02*
X40550000Y-54000000D01*
X33550000Y-46250000D02*
G75*
G02*
X33800000Y-46000000I249999J1D01*
G01*
X33800000Y-54000000D02*
G75*
G02*
X33550000Y-53750000I-1J249999D01*
G01*
%TD*%
M02*
