M48
; DRILL file {KiCad 9.0.4} date 2025-09-12T03:13:29+0200
; FORMAT={-:-/ absolute / metric / decimal}
; #@! TF.CreationDate,2025-09-12T03:13:29+02:00
; #@! TF.GenerationSoftware,Kicad,Pcbnew,9.0.4
; #@! TF.FileFunction,Plated,1,2,PTH
FMAT,2
METRIC
; #@! TA.AperFunction,Plated,PTH,ViaDrill
T1C0.350
%
G90
G05
T1
X37.14Y-49.177
X37.28Y-46.77
X37.951Y-49.433
X38.1Y-47.071
X38.776Y-49.728
X38.909Y-47.372
X39.57Y-50.035
X39.701Y-47.681
X40.364Y-50.338
X40.542Y-47.974
X41.17Y-50.637
X41.345Y-48.276
X60.972Y-50.0
X60.994Y-50.85
X61.675Y-53.363
X62.25Y-47.628
X63.253Y-47.647
X64.43Y-53.36
X64.78Y-47.628
X65.275Y-51.918
X65.28Y-53.363
X65.897Y-52.498
X66.864Y-49.664
X75.971Y-50.001
X75.996Y-50.851
X76.675Y-53.363
X77.24Y-47.61
X78.25Y-47.63
X79.516Y-47.328
X79.52Y-53.37
X80.36Y-51.903
X80.37Y-53.363
X80.986Y-52.478
X81.78Y-49.65
X90.969Y-50.85
X90.972Y-49.999
X91.675Y-53.363
X92.25Y-47.6
X93.25Y-47.63
X94.41Y-47.32
X94.46Y-53.35
X95.29Y-51.923
X95.31Y-53.363
X95.923Y-52.498
X96.79Y-49.65
X105.972Y-50.0
X106.027Y-50.848
X106.675Y-53.363
X107.25Y-47.6
X108.25Y-47.63
X109.33Y-47.26
X109.44Y-53.36
X110.256Y-51.926
X110.29Y-53.363
X110.889Y-52.501
X111.8Y-49.64
X120.969Y-50.85
X120.972Y-50.0
X121.675Y-53.363
X122.25Y-47.6
X123.25Y-47.62
X124.29Y-47.11
X124.41Y-53.37
X125.21Y-51.943
X125.26Y-53.363
X125.846Y-52.518
X126.78Y-49.67
X135.97Y-50.849
X135.971Y-49.999
X136.675Y-53.363
X137.25Y-47.61
X138.25Y-47.61
X139.36Y-47.18
X139.43Y-53.38
X140.23Y-51.963
X140.28Y-53.363
X140.861Y-52.538
X141.8Y-49.67
X150.969Y-50.851
X150.972Y-50.001
X151.675Y-53.363
X152.25Y-47.6
X153.25Y-47.61
X154.39Y-47.27
X154.45Y-53.39
X155.27Y-51.942
X155.3Y-53.362
X155.924Y-52.518
X156.79Y-49.66
X166.675Y-53.363
X167.25Y-47.59
X168.25Y-47.61
X169.3Y-47.11
X169.46Y-53.36
X171.78Y-49.66
M30
